<svg xmlns="http://www.w3.org/2000/svg" width="150" viewBox="0 0 150 75" height="75" version="1.0"><defs><clipPath id="a"><path d="M 7.5 31.429688 L 138.855469 31.429688 L 138.855469 41.285156 L 7.5 41.285156 Z M 7.5 31.429688"/></clipPath><clipPath id="b"><path d="M 69 7 L 140 7 L 140 42 L 69 42 Z M 69 7"/></clipPath><clipPath id="c"><path d="M 71.335938 7.5 L 139.125 32.484375 L 135.714844 41.726562 L 67.925781 16.746094 Z M 71.335938 7.5"/></clipPath><clipPath id="d"><path d="M 102.863281 -78.046875 L 226.117188 -32.625 L 190.914062 62.898438 L 67.660156 17.472656 Z M 102.863281 -78.046875"/></clipPath><clipPath id="e"><path d="M 67 31 L 140 31 L 140 65 L 67 65 Z M 67 31"/></clipPath><clipPath id="f"><path d="M 67.945312 56.234375 L 135.761719 31.324219 L 139.160156 40.574219 L 71.34375 65.480469 Z M 67.945312 56.234375"/></clipPath><clipPath id="g"><path d="M 36.511719 -29.351562 L 159.816406 -74.636719 L 194.914062 20.921875 L 71.609375 66.210938 Z M 36.511719 -29.351562"/></clipPath><clipPath id="h"><path d="M 122.652344 32.375 L 141.828125 32.375 L 141.828125 40.582031 L 122.652344 40.582031 Z M 122.652344 32.375"/></clipPath><clipPath id="i"><path d="M 71 36 L 141 36 L 141 65 L 71 65 Z M 71 36"/></clipPath><clipPath id="j"><path d="M 71.941406 60.304688 L 139.996094 36.054688 L 141.648438 40.695312 L 73.59375 64.945312 Z M 71.941406 60.304688"/></clipPath><clipPath id="k"><path d="M 54.941406 12.597656 L 123 -11.652344 L 141.734375 40.9375 L 73.679688 65.1875 Z M 54.941406 12.597656"/></clipPath></defs><g clip-path="url(#a)"><path fill="#664A5A" d="M 138.816406 36.523438 C 138.816406 36.1875 138.785156 35.855469 138.71875 35.527344 C 138.652344 35.199219 138.558594 34.882812 138.429688 34.574219 C 138.304688 34.265625 138.148438 33.972656 137.964844 33.695312 C 137.78125 33.414062 137.570312 33.160156 137.335938 32.921875 C 137.101562 32.6875 136.847656 32.476562 136.570312 32.289062 C 136.296875 32.105469 136.003906 31.945312 135.699219 31.820312 C 135.394531 31.691406 135.078125 31.59375 134.75 31.527344 C 134.425781 31.464844 134.097656 31.429688 133.765625 31.429688 L 42.882812 31.429688 C 42.554688 31.429688 42.222656 31.464844 41.898438 31.527344 C 41.574219 31.59375 41.257812 31.691406 40.953125 31.820312 C 40.644531 31.945312 40.355469 32.105469 40.078125 32.289062 C 39.804688 32.476562 39.546875 32.6875 39.3125 32.921875 C 39.078125 33.160156 38.871094 33.414062 38.6875 33.695312 C 38.503906 33.972656 38.347656 34.265625 38.21875 34.574219 C 38.09375 34.882812 37.996094 35.199219 37.933594 35.527344 C 37.867188 35.855469 37.835938 36.1875 37.835938 36.523438 C 37.835938 36.855469 37.867188 37.1875 37.933594 37.515625 C 37.996094 37.84375 38.09375 38.160156 38.21875 38.46875 C 38.347656 38.777344 38.503906 39.070312 38.6875 39.347656 C 38.871094 39.628906 39.078125 39.882812 39.3125 40.121094 C 39.546875 40.355469 39.804688 40.566406 40.078125 40.753906 C 40.355469 40.9375 40.644531 41.097656 40.953125 41.222656 C 41.257812 41.351562 41.574219 41.449219 41.898438 41.515625 C 42.222656 41.578125 42.554688 41.613281 42.882812 41.613281 L 133.765625 41.613281 C 134.097656 41.613281 134.425781 41.578125 134.75 41.515625 C 135.078125 41.449219 135.394531 41.351562 135.699219 41.222656 C 136.003906 41.097656 136.296875 40.9375 136.570312 40.753906 C 136.847656 40.566406 137.101562 40.355469 137.335938 40.121094 C 137.570312 39.882812 137.78125 39.628906 137.964844 39.347656 C 138.148438 39.070312 138.304688 38.777344 138.429688 38.46875 C 138.558594 38.160156 138.652344 37.84375 138.71875 37.515625 C 138.785156 37.1875 138.816406 36.855469 138.816406 36.523438 Z M 12.589844 61.972656 L 133.765625 61.972656 C 134.097656 61.972656 134.425781 62.003906 134.75 62.070312 C 135.078125 62.136719 135.394531 62.230469 135.699219 62.359375 C 136.003906 62.488281 136.296875 62.644531 136.570312 62.828125 C 136.847656 63.015625 137.101562 63.226562 137.335938 63.460938 C 137.570312 63.699219 137.78125 63.957031 137.964844 64.234375 C 138.148438 64.511719 138.304688 64.804688 138.429688 65.113281 C 138.558594 65.421875 138.652344 65.742188 138.71875 66.070312 C 138.785156 66.398438 138.816406 66.726562 138.816406 67.0625 C 138.816406 67.394531 138.785156 67.726562 138.71875 68.054688 C 138.652344 68.382812 138.558594 68.699219 138.429688 69.011719 C 138.304688 69.320312 138.148438 69.613281 137.964844 69.890625 C 137.78125 70.167969 137.570312 70.425781 137.335938 70.660156 C 137.101562 70.898438 136.847656 71.109375 136.570312 71.292969 C 136.296875 71.480469 136.003906 71.636719 135.699219 71.765625 C 135.394531 71.890625 135.078125 71.988281 134.75 72.054688 C 134.425781 72.121094 134.097656 72.152344 133.765625 72.152344 L 12.589844 72.152344 C 12.257812 72.152344 11.929688 72.121094 11.605469 72.054688 C 11.28125 71.988281 10.964844 71.890625 10.65625 71.765625 C 10.351562 71.636719 10.0625 71.480469 9.785156 71.292969 C 9.507812 71.109375 9.253906 70.898438 9.019531 70.660156 C 8.785156 70.425781 8.574219 70.167969 8.390625 69.890625 C 8.207031 69.613281 8.050781 69.320312 7.925781 69.011719 C 7.796875 68.699219 7.703125 68.382812 7.636719 68.054688 C 7.574219 67.726562 7.542969 67.394531 7.542969 67.0625 C 7.542969 66.726562 7.574219 66.398438 7.636719 66.070312 C 7.703125 65.742188 7.796875 65.421875 7.925781 65.113281 C 8.050781 64.804688 8.207031 64.511719 8.390625 64.234375 C 8.574219 63.957031 8.785156 63.699219 9.019531 63.460938 C 9.253906 63.226562 9.507812 63.015625 9.785156 62.828125 C 10.0625 62.644531 10.351562 62.488281 10.65625 62.359375 C 10.964844 62.230469 11.28125 62.136719 11.605469 62.070312 C 11.929688 62.003906 12.257812 61.972656 12.589844 61.972656 Z M 12.589844 92.511719 L 133.765625 92.511719 C 134.097656 92.511719 134.425781 92.546875 134.75 92.609375 C 135.078125 92.675781 135.394531 92.773438 135.699219 92.898438 C 136.003906 93.027344 136.296875 93.183594 136.570312 93.371094 C 136.847656 93.554688 137.101562 93.765625 137.335938 94.003906 C 137.570312 94.238281 137.78125 94.496094 137.964844 94.773438 C 138.148438 95.050781 138.304688 95.347656 138.429688 95.65625 C 138.558594 95.964844 138.652344 96.28125 138.71875 96.609375 C 138.785156 96.9375 138.816406 97.269531 138.816406 97.601562 C 138.816406 97.9375 138.785156 98.269531 138.71875 98.59375 C 138.652344 98.921875 138.558594 99.242188 138.429688 99.550781 C 138.304688 99.859375 138.148438 100.152344 137.964844 100.429688 C 137.78125 100.707031 137.570312 100.964844 137.335938 101.203125 C 137.101562 101.4375 136.847656 101.648438 136.570312 101.835938 C 136.296875 102.019531 136.003906 102.175781 135.699219 102.304688 C 135.394531 102.433594 135.078125 102.53125 134.75 102.59375 C 134.425781 102.660156 134.097656 102.691406 133.765625 102.691406 L 12.589844 102.691406 C 12.257812 102.691406 11.929688 102.660156 11.605469 102.59375 C 11.28125 102.53125 10.964844 102.433594 10.65625 102.304688 C 10.351562 102.175781 10.0625 102.019531 9.785156 101.835938 C 9.507812 101.648438 9.253906 101.4375 9.019531 101.203125 C 8.785156 100.964844 8.574219 100.707031 8.390625 100.429688 C 8.207031 100.152344 8.050781 99.859375 7.925781 99.550781 C 7.796875 99.242188 7.703125 98.921875 7.636719 98.59375 C 7.574219 98.269531 7.542969 97.9375 7.542969 97.601562 C 7.542969 97.269531 7.574219 96.9375 7.636719 96.609375 C 7.703125 96.28125 7.796875 95.964844 7.925781 95.65625 C 8.050781 95.347656 8.207031 95.050781 8.390625 94.773438 C 8.574219 94.496094 8.785156 94.238281 9.019531 94.003906 C 9.253906 93.765625 9.507812 93.554688 9.785156 93.371094 C 10.0625 93.183594 10.351562 93.027344 10.65625 92.898438 C 10.964844 92.773438 11.28125 92.675781 11.605469 92.609375 C 11.929688 92.546875 12.257812 92.511719 12.589844 92.511719 Z M 12.589844 123.054688 L 133.765625 123.054688 C 134.097656 123.054688 134.425781 123.085938 134.75 123.152344 C 135.078125 123.214844 135.394531 123.3125 135.699219 123.441406 C 136.003906 123.566406 136.296875 123.726562 136.570312 123.910156 C 136.847656 124.097656 137.101562 124.308594 137.335938 124.542969 C 137.570312 124.78125 137.78125 125.039062 137.964844 125.316406 C 138.148438 125.59375 138.304688 125.886719 138.429688 126.195312 C 138.558594 126.503906 138.652344 126.820312 138.71875 127.148438 C 138.785156 127.476562 138.816406 127.808594 138.816406 128.144531 C 138.816406 128.476562 138.785156 128.808594 138.71875 129.136719 C 138.652344 129.464844 138.558594 129.78125 138.429688 130.089844 C 138.304688 130.398438 138.148438 130.691406 137.964844 130.972656 C 137.78125 131.25 137.570312 131.507812 137.335938 131.742188 C 137.101562 131.980469 136.847656 132.191406 136.570312 132.375 C 136.296875 132.5625 136.003906 132.71875 135.699219 132.84375 C 135.394531 132.972656 135.078125 133.070312 134.75 133.136719 C 134.425781 133.199219 134.097656 133.234375 133.765625 133.234375 L 12.589844 133.234375 C 12.257812 133.234375 11.929688 133.199219 11.605469 133.136719 C 11.28125 133.070312 10.964844 132.972656 10.65625 132.84375 C 10.351562 132.71875 10.0625 132.5625 9.785156 132.375 C 9.507812 132.191406 9.253906 131.980469 9.019531 131.742188 C 8.785156 131.507812 8.574219 131.25 8.390625 130.972656 C 8.207031 130.691406 8.050781 130.398438 7.925781 130.089844 C 7.796875 129.78125 7.703125 129.464844 7.636719 129.136719 C 7.574219 128.808594 7.542969 128.476562 7.542969 128.144531 C 7.542969 127.808594 7.574219 127.476562 7.636719 127.148438 C 7.703125 126.820312 7.796875 126.503906 7.925781 126.195312 C 8.050781 125.886719 8.207031 125.59375 8.390625 125.316406 C 8.574219 125.039062 8.785156 124.78125 9.019531 124.542969 C 9.253906 124.308594 9.507812 124.097656 9.785156 123.910156 C 10.0625 123.726562 10.351562 123.566406 10.65625 123.441406 C 10.964844 123.3125 11.28125 123.214844 11.605469 123.152344 C 11.929688 123.085938 12.257812 123.054688 12.589844 123.054688 Z M 12.589844 41.613281 C 12.257812 41.613281 11.929688 41.578125 11.605469 41.515625 C 11.28125 41.449219 10.964844 41.351562 10.65625 41.222656 C 10.351562 41.097656 10.0625 40.9375 9.785156 40.753906 C 9.507812 40.566406 9.253906 40.355469 9.019531 40.121094 C 8.785156 39.882812 8.574219 39.628906 8.390625 39.347656 C 8.207031 39.070312 8.050781 38.777344 7.925781 38.46875 C 7.796875 38.160156 7.703125 37.84375 7.636719 37.515625 C 7.574219 37.1875 7.542969 36.855469 7.542969 36.523438 C 7.542969 36.1875 7.574219 35.855469 7.636719 35.527344 C 7.703125 35.199219 7.796875 34.882812 7.925781 34.574219 C 8.050781 34.265625 8.207031 33.972656 8.390625 33.695312 C 8.574219 33.414062 8.785156 33.160156 9.019531 32.921875 C 9.253906 32.6875 9.507812 32.476562 9.785156 32.289062 C 10.0625 32.105469 10.351562 31.945312 10.65625 31.820312 C 10.964844 31.691406 11.28125 31.59375 11.605469 31.527344 C 11.929688 31.464844 12.257812 31.429688 12.589844 31.429688 C 12.921875 31.429688 13.25 31.464844 13.574219 31.527344 C 13.898438 31.59375 14.214844 31.691406 14.523438 31.820312 C 14.828125 31.945312 15.121094 32.105469 15.394531 32.289062 C 15.671875 32.476562 15.925781 32.6875 16.160156 32.921875 C 16.394531 33.160156 16.605469 33.414062 16.789062 33.695312 C 16.972656 33.972656 17.128906 34.265625 17.253906 34.574219 C 17.382812 34.882812 17.476562 35.199219 17.542969 35.527344 C 17.605469 35.855469 17.640625 36.1875 17.640625 36.523438 C 17.640625 36.855469 17.605469 37.1875 17.542969 37.515625 C 17.476562 37.84375 17.382812 38.160156 17.253906 38.46875 C 17.128906 38.777344 16.972656 39.070312 16.789062 39.347656 C 16.605469 39.628906 16.394531 39.882812 16.160156 40.121094 C 15.925781 40.355469 15.671875 40.566406 15.394531 40.753906 C 15.121094 40.9375 14.828125 41.097656 14.523438 41.222656 C 14.214844 41.351562 13.898438 41.449219 13.574219 41.515625 C 13.25 41.578125 12.921875 41.613281 12.589844 41.613281 Z M 27.738281 41.613281 C 27.40625 41.613281 27.078125 41.578125 26.753906 41.515625 C 26.425781 41.449219 26.109375 41.351562 25.804688 41.222656 C 25.5 41.097656 25.207031 40.9375 24.933594 40.753906 C 24.65625 40.566406 24.402344 40.355469 24.167969 40.121094 C 23.933594 39.882812 23.722656 39.628906 23.539062 39.347656 C 23.355469 39.070312 23.199219 38.777344 23.074219 38.46875 C 22.945312 38.160156 22.851562 37.84375 22.785156 37.515625 C 22.71875 37.1875 22.6875 36.855469 22.6875 36.523438 C 22.6875 36.1875 22.71875 35.855469 22.785156 35.527344 C 22.851562 35.199219 22.945312 34.882812 23.074219 34.574219 C 23.199219 34.265625 23.355469 33.972656 23.539062 33.695312 C 23.722656 33.414062 23.933594 33.160156 24.167969 32.921875 C 24.402344 32.6875 24.65625 32.476562 24.933594 32.289062 C 25.207031 32.105469 25.5 31.945312 25.804688 31.820312 C 26.109375 31.691406 26.425781 31.59375 26.753906 31.527344 C 27.078125 31.464844 27.40625 31.429688 27.738281 31.429688 C 28.070312 31.429688 28.398438 31.464844 28.722656 31.527344 C 29.046875 31.59375 29.363281 31.691406 29.667969 31.820312 C 29.976562 31.945312 30.265625 32.105469 30.542969 32.289062 C 30.816406 32.476562 31.074219 32.6875 31.308594 32.921875 C 31.542969 33.160156 31.75 33.414062 31.933594 33.695312 C 32.121094 33.972656 32.273438 34.265625 32.402344 34.574219 C 32.527344 34.882812 32.625 35.199219 32.6875 35.527344 C 32.753906 35.855469 32.785156 36.1875 32.785156 36.523438 C 32.785156 36.855469 32.753906 37.1875 32.6875 37.515625 C 32.625 37.84375 32.527344 38.160156 32.402344 38.46875 C 32.273438 38.777344 32.121094 39.070312 31.933594 39.347656 C 31.75 39.628906 31.542969 39.882812 31.308594 40.121094 C 31.074219 40.355469 30.816406 40.566406 30.542969 40.753906 C 30.265625 40.9375 29.976562 41.097656 29.667969 41.222656 C 29.363281 41.351562 29.046875 41.449219 28.722656 41.515625 C 28.398438 41.578125 28.070312 41.613281 27.738281 41.613281 Z M 27.738281 41.613281"/></g><g clip-path="url(#b)"><g clip-path="url(#c)"><g clip-path="url(#d)"><path fill="#664A5A" d="M 101.140625 -73.257812 C 101.257812 -73.570312 101.402344 -73.871094 101.574219 -74.15625 C 101.75 -74.441406 101.949219 -74.707031 102.175781 -74.953125 C 102.402344 -75.199219 102.648438 -75.421875 102.917969 -75.617188 C 103.1875 -75.816406 103.472656 -75.984375 103.773438 -76.125 C 104.074219 -76.265625 104.386719 -76.375 104.710938 -76.453125 C 105.03125 -76.53125 105.359375 -76.578125 105.691406 -76.59375 C 106.023438 -76.605469 106.351562 -76.589844 106.679688 -76.539062 C 107.007812 -76.484375 107.328125 -76.402344 107.640625 -76.289062 L 192.914062 -44.859375 C 193.226562 -44.746094 193.523438 -44.601562 193.804688 -44.429688 C 194.085938 -44.253906 194.351562 -44.054688 194.59375 -43.828125 C 194.835938 -43.601562 195.054688 -43.355469 195.25 -43.085938 C 195.445312 -42.816406 195.609375 -42.53125 195.75 -42.226562 C 195.886719 -41.925781 195.996094 -41.609375 196.070312 -41.285156 C 196.148438 -40.960938 196.191406 -40.632812 196.203125 -40.300781 C 196.21875 -39.964844 196.195312 -39.632812 196.144531 -39.304688 C 196.089844 -38.972656 196.007812 -38.652344 195.890625 -38.339844 C 195.777344 -38.023438 195.632812 -37.726562 195.457031 -37.441406 C 195.285156 -37.15625 195.082031 -36.890625 194.859375 -36.644531 C 194.632812 -36.398438 194.382812 -36.175781 194.117188 -35.980469 C 193.847656 -35.78125 193.5625 -35.613281 193.261719 -35.472656 C 192.957031 -35.332031 192.644531 -35.222656 192.324219 -35.144531 C 192 -35.0625 191.671875 -35.019531 191.339844 -35.003906 C 191.007812 -34.988281 190.679688 -35.007812 190.351562 -35.058594 C 190.023438 -35.109375 189.707031 -35.195312 189.394531 -35.308594 L 104.117188 -66.734375 C 103.808594 -66.851562 103.511719 -66.996094 103.226562 -67.167969 C 102.945312 -67.34375 102.683594 -67.542969 102.441406 -67.769531 C 102.195312 -67.992188 101.976562 -68.242188 101.785156 -68.511719 C 101.589844 -68.78125 101.421875 -69.066406 101.285156 -69.371094 C 101.144531 -69.671875 101.039062 -69.984375 100.960938 -70.3125 C 100.886719 -70.636719 100.839844 -70.964844 100.828125 -71.296875 C 100.816406 -71.632812 100.835938 -71.964844 100.890625 -72.292969 C 100.941406 -72.621094 101.027344 -72.945312 101.140625 -73.257812 Z M 210.777344 -5.726562 L 97.078125 -47.632812 C 96.765625 -47.746094 96.449219 -47.828125 96.121094 -47.882812 C 95.792969 -47.933594 95.460938 -47.949219 95.132812 -47.9375 C 94.800781 -47.921875 94.472656 -47.875 94.148438 -47.796875 C 93.828125 -47.71875 93.515625 -47.609375 93.210938 -47.46875 C 92.910156 -47.328125 92.625 -47.160156 92.355469 -46.960938 C 92.085938 -46.765625 91.839844 -46.542969 91.613281 -46.296875 C 91.386719 -46.050781 91.1875 -45.785156 91.015625 -45.5 C 90.839844 -45.214844 90.695312 -44.914062 90.582031 -44.601562 C 90.464844 -44.289062 90.378906 -43.964844 90.328125 -43.636719 C 90.273438 -43.308594 90.253906 -42.976562 90.265625 -42.640625 C 90.28125 -42.308594 90.324219 -41.980469 90.402344 -41.65625 C 90.476562 -41.328125 90.585938 -41.015625 90.722656 -40.714844 C 90.863281 -40.410156 91.027344 -40.125 91.222656 -39.855469 C 91.417969 -39.585938 91.636719 -39.335938 91.878906 -39.113281 C 92.121094 -38.886719 92.382812 -38.6875 92.667969 -38.511719 C 92.949219 -38.339844 93.246094 -38.195312 93.558594 -38.078125 L 207.257812 3.824219 C 207.570312 3.9375 207.890625 4.019531 208.214844 4.074219 C 208.542969 4.125 208.875 4.140625 209.207031 4.128906 C 209.535156 4.113281 209.863281 4.066406 210.1875 3.988281 C 210.511719 3.910156 210.820312 3.800781 211.125 3.660156 C 211.425781 3.519531 211.710938 3.351562 211.980469 3.152344 C 212.25 2.957031 212.496094 2.734375 212.722656 2.488281 C 212.949219 2.242188 213.148438 1.976562 213.320312 1.691406 C 213.496094 1.40625 213.640625 1.105469 213.757812 0.792969 C 213.871094 0.480469 213.957031 0.160156 214.007812 -0.171875 C 214.0625 -0.5 214.082031 -0.832031 214.070312 -1.167969 C 214.058594 -1.5 214.011719 -1.828125 213.9375 -2.152344 C 213.859375 -2.476562 213.75 -2.792969 213.613281 -3.09375 C 213.476562 -3.398438 213.308594 -3.683594 213.113281 -3.953125 C 212.917969 -4.222656 212.699219 -4.46875 212.457031 -4.695312 C 212.214844 -4.921875 211.953125 -5.121094 211.667969 -5.296875 C 211.386719 -5.46875 211.089844 -5.613281 210.777344 -5.726562 Z M 200.21875 22.929688 L 86.515625 -18.976562 C 86.207031 -19.089844 85.886719 -19.171875 85.558594 -19.222656 C 85.230469 -19.277344 84.902344 -19.292969 84.570312 -19.28125 C 84.238281 -19.265625 83.910156 -19.21875 83.589844 -19.140625 C 83.265625 -19.0625 82.953125 -18.953125 82.652344 -18.8125 C 82.351562 -18.671875 82.0625 -18.5 81.796875 -18.304688 C 81.527344 -18.109375 81.277344 -17.886719 81.054688 -17.640625 C 80.828125 -17.394531 80.628906 -17.128906 80.453125 -16.84375 C 80.28125 -16.558594 80.132812 -16.257812 80.019531 -15.945312 C 79.902344 -15.632812 79.820312 -15.308594 79.765625 -14.980469 C 79.714844 -14.652344 79.695312 -14.320312 79.707031 -13.984375 C 79.71875 -13.652344 79.761719 -13.324219 79.839844 -12.996094 C 79.917969 -12.671875 80.023438 -12.359375 80.160156 -12.058594 C 80.300781 -11.753906 80.464844 -11.46875 80.660156 -11.199219 C 80.855469 -10.929688 81.074219 -10.679688 81.316406 -10.457031 C 81.5625 -10.230469 81.824219 -10.03125 82.105469 -9.855469 C 82.386719 -9.683594 82.683594 -9.539062 82.996094 -9.421875 L 196.699219 32.480469 C 197.007812 32.59375 197.328125 32.675781 197.65625 32.730469 C 197.984375 32.78125 198.3125 32.796875 198.644531 32.785156 C 198.976562 32.769531 199.304688 32.722656 199.625 32.644531 C 199.949219 32.566406 200.261719 32.457031 200.5625 32.316406 C 200.863281 32.175781 201.148438 32.007812 201.417969 31.808594 C 201.6875 31.613281 201.933594 31.390625 202.160156 31.144531 C 202.386719 30.898438 202.585938 30.632812 202.761719 30.347656 C 202.933594 30.0625 203.078125 29.761719 203.195312 29.449219 C 203.3125 29.136719 203.394531 28.816406 203.449219 28.484375 C 203.5 28.15625 203.519531 27.824219 203.507812 27.488281 C 203.496094 27.15625 203.453125 26.828125 203.375 26.503906 C 203.296875 26.179688 203.191406 25.863281 203.050781 25.5625 C 202.914062 25.257812 202.746094 24.972656 202.554688 24.703125 C 202.359375 24.433594 202.140625 24.1875 201.898438 23.960938 C 201.652344 23.734375 201.390625 23.535156 201.109375 23.359375 C 200.824219 23.1875 200.527344 23.042969 200.21875 22.929688 Z M 189.65625 51.585938 L 75.957031 9.679688 C 75.644531 9.566406 75.324219 9.484375 74.996094 9.433594 C 74.671875 9.378906 74.339844 9.363281 74.007812 9.375 C 73.675781 9.390625 73.351562 9.4375 73.027344 9.515625 C 72.703125 9.59375 72.390625 9.703125 72.089844 9.84375 C 71.789062 9.984375 71.503906 10.15625 71.234375 10.351562 C 70.964844 10.546875 70.71875 10.769531 70.492188 11.015625 C 70.265625 11.261719 70.066406 11.527344 69.890625 11.8125 C 69.71875 12.097656 69.574219 12.398438 69.457031 12.710938 C 69.34375 13.023438 69.257812 13.347656 69.207031 13.675781 C 69.152344 14.007812 69.132812 14.335938 69.144531 14.671875 C 69.15625 15.003906 69.203125 15.332031 69.277344 15.660156 C 69.355469 15.984375 69.460938 16.296875 69.601562 16.597656 C 69.738281 16.902344 69.90625 17.1875 70.101562 17.457031 C 70.292969 17.726562 70.511719 17.976562 70.757812 18.199219 C 71 18.425781 71.261719 18.625 71.542969 18.800781 C 71.828125 18.972656 72.125 19.117188 72.433594 19.234375 L 186.136719 61.136719 C 186.449219 61.25 186.765625 61.335938 187.09375 61.386719 C 187.421875 61.4375 187.75 61.457031 188.082031 61.441406 C 188.414062 61.425781 188.742188 61.378906 189.066406 61.300781 C 189.386719 61.222656 189.699219 61.113281 190 60.972656 C 190.304688 60.832031 190.589844 60.664062 190.859375 60.464844 C 191.125 60.269531 191.375 60.046875 191.601562 59.800781 C 191.824219 59.554688 192.027344 59.289062 192.199219 59.003906 C 192.375 58.71875 192.519531 58.421875 192.632812 58.105469 C 192.75 57.792969 192.832031 57.472656 192.886719 57.140625 C 192.9375 56.8125 192.960938 56.480469 192.945312 56.144531 C 192.933594 55.8125 192.890625 55.484375 192.8125 55.160156 C 192.738281 54.835938 192.628906 54.519531 192.492188 54.21875 C 192.351562 53.914062 192.1875 53.628906 191.992188 53.359375 C 191.796875 53.089844 191.578125 52.84375 191.335938 52.617188 C 191.09375 52.390625 190.828125 52.191406 190.546875 52.015625 C 190.265625 51.84375 189.96875 51.699219 189.65625 51.585938 Z M 217.820312 -24.832031 C 218.128906 -24.71875 218.449219 -24.636719 218.777344 -24.582031 C 219.105469 -24.53125 219.433594 -24.515625 219.765625 -24.527344 C 220.097656 -24.542969 220.425781 -24.589844 220.75 -24.667969 C 221.070312 -24.746094 221.382812 -24.855469 221.683594 -24.996094 C 221.988281 -25.136719 222.273438 -25.304688 222.539062 -25.503906 C 222.808594 -25.699219 223.058594 -25.921875 223.28125 -26.167969 C 223.507812 -26.414062 223.707031 -26.679688 223.882812 -26.964844 C 224.058594 -27.25 224.203125 -27.550781 224.316406 -27.863281 C 224.433594 -28.175781 224.515625 -28.496094 224.570312 -28.828125 C 224.621094 -29.15625 224.640625 -29.488281 224.628906 -29.824219 C 224.617188 -30.15625 224.574219 -30.484375 224.496094 -30.808594 C 224.421875 -31.132812 224.3125 -31.449219 224.175781 -31.75 C 224.035156 -32.054688 223.871094 -32.339844 223.675781 -32.609375 C 223.480469 -32.878906 223.261719 -33.128906 223.019531 -33.351562 C 222.777344 -33.578125 222.511719 -33.777344 222.230469 -33.953125 C 221.949219 -34.125 221.652344 -34.269531 221.339844 -34.382812 C 221.027344 -34.5 220.710938 -34.582031 220.382812 -34.632812 C 220.054688 -34.683594 219.722656 -34.703125 219.394531 -34.6875 C 219.0625 -34.675781 218.734375 -34.628906 218.410156 -34.550781 C 218.089844 -34.472656 217.777344 -34.359375 217.472656 -34.21875 C 217.171875 -34.078125 216.886719 -33.910156 216.617188 -33.714844 C 216.347656 -33.515625 216.101562 -33.296875 215.875 -33.050781 C 215.652344 -32.804688 215.449219 -32.539062 215.277344 -32.253906 C 215.101562 -31.96875 214.957031 -31.667969 214.84375 -31.355469 C 214.726562 -31.039062 214.640625 -30.71875 214.589844 -30.390625 C 214.539062 -30.058594 214.515625 -29.726562 214.527344 -29.394531 C 214.542969 -29.058594 214.585938 -28.730469 214.664062 -28.40625 C 214.738281 -28.082031 214.847656 -27.769531 214.984375 -27.464844 C 215.125 -27.164062 215.289062 -26.878906 215.484375 -26.609375 C 215.679688 -26.339844 215.898438 -26.089844 216.140625 -25.863281 C 216.382812 -25.636719 216.648438 -25.4375 216.929688 -25.265625 C 217.210938 -25.089844 217.507812 -24.945312 217.820312 -24.832031 Z M 203.605469 -30.070312 C 203.917969 -29.957031 204.238281 -29.871094 204.566406 -29.820312 C 204.894531 -29.769531 205.222656 -29.75 205.554688 -29.765625 C 205.886719 -29.78125 206.210938 -29.828125 206.535156 -29.90625 C 206.859375 -29.984375 207.171875 -30.09375 207.472656 -30.234375 C 207.773438 -30.375 208.058594 -30.542969 208.328125 -30.742188 C 208.597656 -30.9375 208.84375 -31.160156 209.070312 -31.40625 C 209.296875 -31.652344 209.496094 -31.917969 209.671875 -32.203125 C 209.84375 -32.488281 209.988281 -32.785156 210.105469 -33.101562 C 210.21875 -33.414062 210.304688 -33.734375 210.355469 -34.066406 C 210.410156 -34.394531 210.429688 -34.726562 210.417969 -35.0625 C 210.40625 -35.394531 210.359375 -35.722656 210.285156 -36.046875 C 210.207031 -36.371094 210.101562 -36.6875 209.960938 -36.988281 C 209.824219 -37.292969 209.65625 -37.578125 209.460938 -37.847656 C 209.269531 -38.117188 209.050781 -38.363281 208.804688 -38.589844 C 208.5625 -38.816406 208.300781 -39.015625 208.019531 -39.191406 C 207.734375 -39.363281 207.4375 -39.507812 207.128906 -39.621094 C 206.816406 -39.738281 206.496094 -39.820312 206.167969 -39.871094 C 205.839844 -39.921875 205.511719 -39.941406 205.179688 -39.925781 C 204.847656 -39.914062 204.519531 -39.867188 204.199219 -39.789062 C 203.875 -39.707031 203.5625 -39.597656 203.261719 -39.457031 C 202.960938 -39.316406 202.675781 -39.148438 202.40625 -38.953125 C 202.136719 -38.753906 201.890625 -38.535156 201.664062 -38.289062 C 201.4375 -38.042969 201.238281 -37.777344 201.0625 -37.492188 C 200.890625 -37.207031 200.746094 -36.90625 200.628906 -36.59375 C 200.515625 -36.277344 200.429688 -35.957031 200.378906 -35.628906 C 200.324219 -35.296875 200.304688 -34.964844 200.316406 -34.632812 C 200.328125 -34.296875 200.375 -33.96875 200.449219 -33.644531 C 200.527344 -33.320312 200.632812 -33.007812 200.773438 -32.703125 C 200.910156 -32.402344 201.078125 -32.113281 201.273438 -31.84375 C 201.464844 -31.574219 201.683594 -31.328125 201.929688 -31.101562 C 202.171875 -30.875 202.433594 -30.675781 202.714844 -30.503906 C 203 -30.328125 203.296875 -30.183594 203.605469 -30.070312 Z M 203.605469 -30.070312"/></g></g></g><g clip-path="url(#e)"><g clip-path="url(#f)"><g clip-path="url(#g)"><path fill="#664A5A" d="M 38.304688 -24.585938 C 38.191406 -24.902344 38.105469 -25.222656 38.054688 -25.550781 C 38 -25.882812 37.980469 -26.214844 37.996094 -26.546875 C 38.007812 -26.882812 38.050781 -27.210938 38.128906 -27.535156 C 38.207031 -27.859375 38.3125 -28.171875 38.453125 -28.476562 C 38.589844 -28.777344 38.757812 -29.0625 38.953125 -29.332031 C 39.148438 -29.601562 39.367188 -29.851562 39.609375 -30.074219 C 39.851562 -30.300781 40.117188 -30.5 40.398438 -30.675781 C 40.683594 -30.847656 40.980469 -30.992188 41.289062 -31.105469 L 126.601562 -62.4375 C 126.910156 -62.550781 127.230469 -62.636719 127.558594 -62.6875 C 127.886719 -62.738281 128.214844 -62.753906 128.546875 -62.742188 C 128.878906 -62.726562 129.207031 -62.679688 129.53125 -62.601562 C 129.851562 -62.519531 130.164062 -62.410156 130.464844 -62.269531 C 130.765625 -62.128906 131.050781 -61.960938 131.320312 -61.761719 C 131.589844 -61.566406 131.835938 -61.34375 132.0625 -61.097656 C 132.289062 -60.851562 132.488281 -60.585938 132.660156 -60.300781 C 132.835938 -60.015625 132.980469 -59.714844 133.09375 -59.402344 C 133.210938 -59.085938 133.292969 -58.765625 133.347656 -58.433594 C 133.398438 -58.105469 133.417969 -57.773438 133.40625 -57.441406 C 133.394531 -57.105469 133.347656 -56.777344 133.269531 -56.453125 C 133.195312 -56.128906 133.085938 -55.816406 132.949219 -55.511719 C 132.808594 -55.210938 132.640625 -54.925781 132.449219 -54.65625 C 132.253906 -54.386719 132.035156 -54.136719 131.789062 -53.910156 C 131.546875 -53.6875 131.285156 -53.488281 131 -53.3125 C 130.71875 -53.140625 130.421875 -52.996094 130.109375 -52.882812 L 44.800781 -21.550781 C 44.488281 -21.433594 44.167969 -21.351562 43.839844 -21.300781 C 43.515625 -21.25 43.183594 -21.234375 42.851562 -21.246094 C 42.519531 -21.261719 42.195312 -21.308594 41.871094 -21.386719 C 41.546875 -21.46875 41.234375 -21.578125 40.933594 -21.71875 C 40.632812 -21.859375 40.347656 -22.027344 40.078125 -22.226562 C 39.808594 -22.421875 39.5625 -22.644531 39.335938 -22.890625 C 39.113281 -23.136719 38.914062 -23.402344 38.738281 -23.6875 C 38.566406 -23.972656 38.421875 -24.273438 38.304688 -24.585938 Z M 165.566406 -44.214844 L 51.820312 -2.4375 C 51.507812 -2.324219 51.210938 -2.179688 50.929688 -2.007812 C 50.644531 -1.832031 50.382812 -1.632812 50.140625 -1.40625 C 49.894531 -1.183594 49.675781 -0.933594 49.480469 -0.664062 C 49.289062 -0.394531 49.121094 -0.109375 48.980469 0.191406 C 48.84375 0.496094 48.734375 0.808594 48.660156 1.132812 C 48.582031 1.457031 48.535156 1.785156 48.523438 2.121094 C 48.511719 2.453125 48.53125 2.785156 48.582031 3.117188 C 48.636719 3.445312 48.71875 3.769531 48.835938 4.082031 C 48.949219 4.394531 49.09375 4.695312 49.269531 4.980469 C 49.441406 5.265625 49.640625 5.53125 49.867188 5.777344 C 50.09375 6.023438 50.339844 6.246094 50.609375 6.441406 C 50.878906 6.640625 51.164062 6.808594 51.464844 6.949219 C 51.765625 7.089844 52.078125 7.203125 52.398438 7.28125 C 52.722656 7.359375 53.050781 7.40625 53.382812 7.421875 C 53.714844 7.433594 54.042969 7.417969 54.371094 7.367188 C 54.699219 7.316406 55.019531 7.234375 55.328125 7.117188 L 169.078125 -34.660156 C 169.386719 -34.773438 169.683594 -34.917969 169.96875 -35.089844 C 170.25 -35.261719 170.511719 -35.460938 170.757812 -35.6875 C 171 -35.914062 171.21875 -36.160156 171.414062 -36.429688 C 171.609375 -36.699219 171.773438 -36.984375 171.914062 -37.289062 C 172.050781 -37.589844 172.160156 -37.90625 172.238281 -38.230469 C 172.3125 -38.554688 172.359375 -38.882812 172.371094 -39.214844 C 172.382812 -39.550781 172.363281 -39.882812 172.3125 -40.210938 C 172.261719 -40.542969 172.175781 -40.863281 172.0625 -41.175781 C 171.945312 -41.492188 171.800781 -41.789062 171.628906 -42.074219 C 171.453125 -42.359375 171.253906 -42.628906 171.027344 -42.875 C 170.804688 -43.121094 170.554688 -43.339844 170.289062 -43.539062 C 170.019531 -43.734375 169.734375 -43.90625 169.433594 -44.046875 C 169.128906 -44.1875 168.820312 -44.296875 168.496094 -44.375 C 168.171875 -44.457031 167.84375 -44.503906 167.515625 -44.515625 C 167.183594 -44.53125 166.851562 -44.511719 166.523438 -44.460938 C 166.199219 -44.410156 165.878906 -44.328125 165.566406 -44.214844 Z M 176.097656 -15.546875 L 62.347656 26.230469 C 62.039062 26.34375 61.742188 26.488281 61.457031 26.660156 C 61.175781 26.835938 60.910156 27.035156 60.667969 27.261719 C 60.425781 27.484375 60.207031 27.734375 60.011719 28.003906 C 59.816406 28.273438 59.648438 28.558594 59.511719 28.859375 C 59.371094 29.164062 59.265625 29.476562 59.1875 29.800781 C 59.109375 30.125 59.066406 30.453125 59.054688 30.789062 C 59.039062 31.121094 59.058594 31.453125 59.113281 31.785156 C 59.164062 32.113281 59.25 32.4375 59.363281 32.75 C 59.480469 33.0625 59.625 33.363281 59.796875 33.648438 C 59.972656 33.933594 60.171875 34.199219 60.394531 34.445312 C 60.621094 34.691406 60.867188 34.914062 61.136719 35.109375 C 61.40625 35.308594 61.691406 35.476562 61.992188 35.617188 C 62.292969 35.757812 62.605469 35.871094 62.929688 35.949219 C 63.253906 36.027344 63.578125 36.074219 63.910156 36.089844 C 64.242188 36.105469 64.570312 36.085938 64.898438 36.035156 C 65.226562 35.984375 65.546875 35.902344 65.859375 35.785156 L 179.605469 -5.992188 C 179.917969 -6.105469 180.214844 -6.25 180.496094 -6.421875 C 180.78125 -6.59375 181.042969 -6.792969 181.285156 -7.019531 C 181.527344 -7.246094 181.75 -7.492188 181.941406 -7.761719 C 182.136719 -8.03125 182.304688 -8.316406 182.441406 -8.621094 C 182.582031 -8.921875 182.6875 -9.238281 182.765625 -9.5625 C 182.84375 -9.886719 182.886719 -10.214844 182.902344 -10.546875 C 182.914062 -10.882812 182.894531 -11.214844 182.839844 -11.542969 C 182.789062 -11.875 182.707031 -12.195312 182.589844 -12.507812 C 182.476562 -12.824219 182.332031 -13.121094 182.15625 -13.40625 C 181.984375 -13.691406 181.785156 -13.957031 181.558594 -14.203125 C 181.332031 -14.453125 181.085938 -14.671875 180.816406 -14.871094 C 180.546875 -15.066406 180.261719 -15.238281 179.960938 -15.378906 C 179.660156 -15.519531 179.347656 -15.628906 179.023438 -15.707031 C 178.703125 -15.789062 178.375 -15.835938 178.042969 -15.847656 C 177.710938 -15.863281 177.382812 -15.84375 177.054688 -15.792969 C 176.726562 -15.742188 176.40625 -15.660156 176.097656 -15.546875 Z M 186.625 13.121094 L 72.878906 54.898438 C 72.566406 55.011719 72.269531 55.15625 71.988281 55.332031 C 71.703125 55.503906 71.441406 55.703125 71.199219 55.929688 C 70.953125 56.152344 70.734375 56.402344 70.539062 56.671875 C 70.34375 56.941406 70.179688 57.226562 70.039062 57.527344 C 69.902344 57.832031 69.792969 58.144531 69.71875 58.46875 C 69.640625 58.792969 69.59375 59.121094 69.582031 59.457031 C 69.570312 59.789062 69.589844 60.121094 69.640625 60.453125 C 69.695312 60.78125 69.777344 61.105469 69.894531 61.417969 C 70.007812 61.730469 70.152344 62.03125 70.328125 62.316406 C 70.5 62.601562 70.699219 62.867188 70.925781 63.113281 C 71.152344 63.359375 71.398438 63.582031 71.667969 63.777344 C 71.933594 63.976562 72.21875 64.144531 72.523438 64.285156 C 72.824219 64.425781 73.136719 64.539062 73.457031 64.617188 C 73.78125 64.695312 74.109375 64.742188 74.441406 64.757812 C 74.773438 64.773438 75.101562 64.753906 75.429688 64.703125 C 75.757812 64.652344 76.078125 64.570312 76.386719 64.453125 L 190.136719 22.675781 C 190.445312 22.5625 190.742188 22.417969 191.027344 22.246094 C 191.308594 22.074219 191.570312 21.875 191.816406 21.648438 C 192.058594 21.421875 192.277344 21.175781 192.472656 20.90625 C 192.667969 20.636719 192.832031 20.351562 192.972656 20.046875 C 193.109375 19.746094 193.21875 19.429688 193.296875 19.105469 C 193.371094 18.78125 193.417969 18.453125 193.429688 18.121094 C 193.441406 17.785156 193.421875 17.453125 193.371094 17.125 C 193.320312 16.792969 193.234375 16.472656 193.121094 16.160156 C 193.003906 15.84375 192.859375 15.546875 192.6875 15.261719 C 192.511719 14.976562 192.3125 14.710938 192.085938 14.464844 C 191.863281 14.21875 191.613281 13.996094 191.347656 13.796875 C 191.078125 13.601562 190.792969 13.429688 190.492188 13.289062 C 190.1875 13.148438 189.875 13.039062 189.554688 12.960938 C 189.230469 12.878906 188.902344 12.832031 188.574219 12.820312 C 188.242188 12.804688 187.910156 12.824219 187.582031 12.875 C 187.253906 12.925781 186.9375 13.007812 186.625 13.121094 Z M 158.546875 -63.328125 C 158.859375 -63.441406 159.15625 -63.585938 159.4375 -63.757812 C 159.722656 -63.929688 159.984375 -64.128906 160.226562 -64.355469 C 160.472656 -64.582031 160.691406 -64.828125 160.882812 -65.097656 C 161.078125 -65.367188 161.246094 -65.652344 161.382812 -65.957031 C 161.523438 -66.257812 161.632812 -66.574219 161.707031 -66.898438 C 161.785156 -67.222656 161.832031 -67.550781 161.84375 -67.882812 C 161.855469 -68.21875 161.835938 -68.550781 161.785156 -68.878906 C 161.730469 -69.210938 161.648438 -69.53125 161.53125 -69.84375 C 161.417969 -70.160156 161.273438 -70.457031 161.097656 -70.742188 C 160.925781 -71.03125 160.726562 -71.296875 160.5 -71.542969 C 160.273438 -71.789062 160.027344 -72.007812 159.757812 -72.207031 C 159.488281 -72.402344 159.203125 -72.574219 158.902344 -72.714844 C 158.601562 -72.855469 158.289062 -72.964844 157.964844 -73.042969 C 157.644531 -73.125 157.316406 -73.171875 156.984375 -73.183594 C 156.652344 -73.199219 156.324219 -73.179688 155.996094 -73.128906 C 155.667969 -73.078125 155.347656 -72.996094 155.039062 -72.882812 C 154.726562 -72.769531 154.429688 -72.625 154.148438 -72.449219 C 153.863281 -72.277344 153.601562 -72.078125 153.359375 -71.851562 C 153.113281 -71.628906 152.894531 -71.378906 152.699219 -71.109375 C 152.503906 -70.839844 152.339844 -70.554688 152.199219 -70.253906 C 152.0625 -69.949219 151.953125 -69.636719 151.875 -69.3125 C 151.800781 -68.988281 151.753906 -68.660156 151.742188 -68.324219 C 151.730469 -67.992188 151.75 -67.660156 151.800781 -67.328125 C 151.855469 -67 151.9375 -66.675781 152.054688 -66.363281 C 152.167969 -66.050781 152.3125 -65.75 152.488281 -65.464844 C 152.660156 -65.179688 152.859375 -64.914062 153.085938 -64.667969 C 153.3125 -64.421875 153.558594 -64.199219 153.828125 -64.003906 C 154.09375 -63.804688 154.378906 -63.636719 154.683594 -63.496094 C 154.984375 -63.355469 155.296875 -63.242188 155.617188 -63.164062 C 155.941406 -63.085938 156.269531 -63.039062 156.601562 -63.023438 C 156.929688 -63.007812 157.261719 -63.027344 157.589844 -63.078125 C 157.917969 -63.128906 158.234375 -63.210938 158.546875 -63.328125 Z M 144.328125 -58.105469 C 144.640625 -58.21875 144.9375 -58.363281 145.21875 -58.535156 C 145.503906 -58.710938 145.765625 -58.910156 146.007812 -59.132812 C 146.253906 -59.359375 146.472656 -59.605469 146.667969 -59.875 C 146.859375 -60.144531 147.027344 -60.433594 147.167969 -60.734375 C 147.304688 -61.039062 147.414062 -61.351562 147.488281 -61.675781 C 147.566406 -62 147.613281 -62.328125 147.625 -62.664062 C 147.636719 -62.996094 147.617188 -63.328125 147.566406 -63.65625 C 147.511719 -63.988281 147.429688 -64.308594 147.3125 -64.625 C 147.199219 -64.9375 147.054688 -65.238281 146.878906 -65.523438 C 146.707031 -65.808594 146.507812 -66.074219 146.28125 -66.320312 C 146.054688 -66.566406 145.808594 -66.785156 145.539062 -66.984375 C 145.269531 -67.179688 144.984375 -67.351562 144.683594 -67.492188 C 144.382812 -67.632812 144.070312 -67.742188 143.746094 -67.820312 C 143.425781 -67.902344 143.097656 -67.949219 142.765625 -67.960938 C 142.433594 -67.976562 142.105469 -67.960938 141.777344 -67.90625 C 141.449219 -67.855469 141.128906 -67.773438 140.820312 -67.660156 C 140.507812 -67.546875 140.210938 -67.402344 139.929688 -67.230469 C 139.644531 -67.054688 139.382812 -66.855469 139.140625 -66.628906 C 138.894531 -66.40625 138.675781 -66.15625 138.480469 -65.886719 C 138.285156 -65.617188 138.121094 -65.332031 137.980469 -65.03125 C 137.84375 -64.726562 137.734375 -64.414062 137.660156 -64.089844 C 137.582031 -63.765625 137.535156 -63.4375 137.523438 -63.101562 C 137.511719 -62.769531 137.53125 -62.4375 137.582031 -62.105469 C 137.636719 -61.777344 137.71875 -61.457031 137.835938 -61.140625 C 137.949219 -60.828125 138.09375 -60.527344 138.269531 -60.242188 C 138.441406 -59.957031 138.640625 -59.691406 138.867188 -59.445312 C 139.09375 -59.199219 139.339844 -58.976562 139.609375 -58.78125 C 139.875 -58.582031 140.160156 -58.414062 140.464844 -58.273438 C 140.765625 -58.132812 141.078125 -58.023438 141.398438 -57.941406 C 141.722656 -57.863281 142.050781 -57.816406 142.382812 -57.800781 C 142.714844 -57.789062 143.042969 -57.804688 143.371094 -57.855469 C 143.699219 -57.90625 144.019531 -57.988281 144.328125 -58.105469 Z M 144.328125 -58.105469"/></g></g></g><g clip-path="url(#h)"><path fill="#664A5A" d="M 31.859375 -40.179688 C 31.859375 -40.460938 31.886719 -40.738281 31.941406 -41.011719 C 31.996094 -41.289062 32.074219 -41.554688 32.179688 -41.8125 C 32.285156 -42.074219 32.417969 -42.320312 32.570312 -42.550781 C 32.726562 -42.785156 32.902344 -43 33.097656 -43.199219 C 33.292969 -43.398438 33.507812 -43.574219 33.738281 -43.730469 C 33.96875 -43.886719 34.210938 -44.015625 34.46875 -44.125 C 34.726562 -44.230469 34.988281 -44.3125 35.261719 -44.367188 C 35.535156 -44.421875 35.808594 -44.449219 36.085938 -44.449219 L 112.191406 -44.449219 C 112.46875 -44.449219 112.746094 -44.421875 113.015625 -44.367188 C 113.289062 -44.3125 113.554688 -44.230469 113.808594 -44.125 C 114.066406 -44.015625 114.308594 -43.886719 114.542969 -43.730469 C 114.773438 -43.574219 114.984375 -43.398438 115.183594 -43.199219 C 115.378906 -43 115.554688 -42.785156 115.707031 -42.550781 C 115.863281 -42.320312 115.992188 -42.074219 116.097656 -41.8125 C 116.203125 -41.554688 116.285156 -41.289062 116.339844 -41.011719 C 116.394531 -40.738281 116.421875 -40.460938 116.421875 -40.179688 C 116.421875 -39.898438 116.394531 -39.621094 116.339844 -39.347656 C 116.285156 -39.074219 116.203125 -38.804688 116.097656 -38.546875 C 115.992188 -38.289062 115.863281 -38.042969 115.707031 -37.808594 C 115.554688 -37.574219 115.378906 -37.359375 115.183594 -37.160156 C 114.984375 -36.964844 114.773438 -36.785156 114.542969 -36.628906 C 114.308594 -36.476562 114.066406 -36.34375 113.808594 -36.234375 C 113.554688 -36.128906 113.289062 -36.046875 113.015625 -35.992188 C 112.746094 -35.9375 112.46875 -35.910156 112.191406 -35.910156 L 36.085938 -35.910156 C 35.808594 -35.910156 35.535156 -35.9375 35.261719 -35.992188 C 34.988281 -36.046875 34.726562 -36.128906 34.46875 -36.234375 C 34.210938 -36.34375 33.96875 -36.476562 33.738281 -36.628906 C 33.507812 -36.785156 33.292969 -36.964844 33.097656 -37.160156 C 32.902344 -37.359375 32.726562 -37.574219 32.570312 -37.808594 C 32.417969 -38.042969 32.285156 -38.289062 32.179688 -38.546875 C 32.074219 -38.804688 31.996094 -39.074219 31.941406 -39.347656 C 31.886719 -39.621094 31.859375 -39.898438 31.859375 -40.179688 Z M 137.5625 -18.835938 L 36.085938 -18.835938 C 35.808594 -18.835938 35.535156 -18.808594 35.261719 -18.753906 C 34.988281 -18.699219 34.726562 -18.617188 34.46875 -18.511719 C 34.210938 -18.402344 33.96875 -18.269531 33.738281 -18.117188 C 33.507812 -17.960938 33.292969 -17.78125 33.097656 -17.585938 C 32.902344 -17.386719 32.726562 -17.171875 32.570312 -16.9375 C 32.417969 -16.703125 32.285156 -16.457031 32.179688 -16.199219 C 32.074219 -15.941406 31.996094 -15.671875 31.941406 -15.398438 C 31.886719 -15.125 31.859375 -14.847656 31.859375 -14.566406 C 31.859375 -14.285156 31.886719 -14.007812 31.941406 -13.734375 C 31.996094 -13.457031 32.074219 -13.191406 32.179688 -12.933594 C 32.285156 -12.671875 32.417969 -12.425781 32.570312 -12.195312 C 32.726562 -11.960938 32.902344 -11.746094 33.097656 -11.546875 C 33.292969 -11.347656 33.507812 -11.171875 33.738281 -11.015625 C 33.96875 -10.859375 34.210938 -10.730469 34.46875 -10.621094 C 34.726562 -10.515625 34.988281 -10.433594 35.261719 -10.378906 C 35.535156 -10.324219 35.808594 -10.296875 36.085938 -10.296875 L 137.5625 -10.296875 C 137.839844 -10.296875 138.113281 -10.324219 138.386719 -10.378906 C 138.65625 -10.433594 138.921875 -10.515625 139.179688 -10.621094 C 139.433594 -10.730469 139.679688 -10.859375 139.910156 -11.015625 C 140.140625 -11.171875 140.355469 -11.347656 140.550781 -11.546875 C 140.746094 -11.746094 140.921875 -11.960938 141.078125 -12.195312 C 141.230469 -12.425781 141.359375 -12.671875 141.46875 -12.933594 C 141.574219 -13.191406 141.652344 -13.457031 141.707031 -13.734375 C 141.761719 -14.007812 141.789062 -14.285156 141.789062 -14.566406 C 141.789062 -14.847656 141.761719 -15.125 141.707031 -15.398438 C 141.652344 -15.671875 141.574219 -15.941406 141.46875 -16.199219 C 141.359375 -16.457031 141.230469 -16.703125 141.078125 -16.9375 C 140.921875 -17.171875 140.746094 -17.386719 140.550781 -17.585938 C 140.355469 -17.78125 140.140625 -17.960938 139.910156 -18.117188 C 139.679688 -18.269531 139.433594 -18.402344 139.179688 -18.511719 C 138.921875 -18.617188 138.65625 -18.699219 138.386719 -18.753906 C 138.113281 -18.808594 137.839844 -18.835938 137.5625 -18.835938 Z M 137.5625 6.78125 L 36.085938 6.78125 C 35.808594 6.78125 35.535156 6.808594 35.261719 6.863281 C 34.988281 6.917969 34.726562 6.996094 34.46875 7.105469 C 34.210938 7.210938 33.96875 7.34375 33.738281 7.5 C 33.507812 7.65625 33.292969 7.832031 33.097656 8.03125 C 32.902344 8.226562 32.726562 8.445312 32.570312 8.675781 C 32.417969 8.910156 32.285156 9.15625 32.179688 9.414062 C 32.074219 9.675781 31.996094 9.941406 31.941406 10.214844 C 31.886719 10.492188 31.859375 10.769531 31.859375 11.050781 C 31.859375 11.328125 31.886719 11.605469 31.941406 11.882812 C 31.996094 12.15625 32.074219 12.421875 32.179688 12.683594 C 32.285156 12.941406 32.417969 13.1875 32.570312 13.421875 C 32.726562 13.652344 32.902344 13.871094 33.097656 14.066406 C 33.292969 14.265625 33.507812 14.441406 33.738281 14.597656 C 33.96875 14.753906 34.210938 14.886719 34.46875 14.992188 C 34.726562 15.101562 34.988281 15.179688 35.261719 15.234375 C 35.535156 15.289062 35.808594 15.316406 36.085938 15.316406 L 137.5625 15.316406 C 137.839844 15.316406 138.113281 15.289062 138.386719 15.234375 C 138.65625 15.179688 138.921875 15.101562 139.179688 14.992188 C 139.433594 14.886719 139.679688 14.753906 139.910156 14.597656 C 140.140625 14.441406 140.355469 14.265625 140.550781 14.066406 C 140.746094 13.871094 140.921875 13.652344 141.078125 13.421875 C 141.230469 13.1875 141.359375 12.941406 141.46875 12.683594 C 141.574219 12.421875 141.652344 12.15625 141.707031 11.882812 C 141.761719 11.605469 141.789062 11.328125 141.789062 11.050781 C 141.789062 10.769531 141.761719 10.492188 141.707031 10.214844 C 141.652344 9.941406 141.574219 9.675781 141.46875 9.414062 C 141.359375 9.15625 141.230469 8.910156 141.078125 8.675781 C 140.921875 8.445312 140.746094 8.226562 140.550781 8.03125 C 140.355469 7.832031 140.140625 7.65625 139.910156 7.5 C 139.679688 7.34375 139.433594 7.210938 139.179688 7.105469 C 138.921875 6.996094 138.65625 6.917969 138.386719 6.863281 C 138.113281 6.808594 137.839844 6.78125 137.5625 6.78125 Z M 137.5625 32.394531 L 36.085938 32.394531 C 35.808594 32.394531 35.535156 32.421875 35.261719 32.476562 C 34.988281 32.53125 34.726562 32.613281 34.46875 32.71875 C 34.210938 32.828125 33.96875 32.957031 33.738281 33.113281 C 33.507812 33.269531 33.292969 33.445312 33.097656 33.644531 C 32.902344 33.84375 32.726562 34.058594 32.570312 34.292969 C 32.417969 34.523438 32.285156 34.769531 32.179688 35.03125 C 32.074219 35.289062 31.996094 35.554688 31.941406 35.832031 C 31.886719 36.105469 31.859375 36.382812 31.859375 36.664062 C 31.859375 36.945312 31.886719 37.222656 31.941406 37.496094 C 31.996094 37.769531 32.074219 38.039062 32.179688 38.296875 C 32.285156 38.554688 32.417969 38.800781 32.570312 39.035156 C 32.726562 39.269531 32.902344 39.484375 33.097656 39.683594 C 33.292969 39.878906 33.507812 40.058594 33.738281 40.214844 C 33.96875 40.367188 34.210938 40.5 34.46875 40.609375 C 34.726562 40.714844 34.988281 40.796875 35.261719 40.851562 C 35.535156 40.90625 35.808594 40.933594 36.085938 40.933594 L 137.5625 40.933594 C 137.839844 40.933594 138.113281 40.90625 138.386719 40.851562 C 138.65625 40.796875 138.921875 40.714844 139.179688 40.609375 C 139.433594 40.5 139.679688 40.367188 139.910156 40.214844 C 140.140625 40.058594 140.355469 39.878906 140.550781 39.683594 C 140.746094 39.484375 140.921875 39.269531 141.078125 39.035156 C 141.230469 38.800781 141.359375 38.554688 141.46875 38.296875 C 141.574219 38.039062 141.652344 37.769531 141.707031 37.496094 C 141.761719 37.222656 141.789062 36.945312 141.789062 36.664062 C 141.789062 36.382812 141.761719 36.105469 141.707031 35.832031 C 141.652344 35.554688 141.574219 35.289062 141.46875 35.03125 C 141.359375 34.769531 141.230469 34.523438 141.078125 34.292969 C 140.921875 34.058594 140.746094 33.84375 140.550781 33.644531 C 140.355469 33.445312 140.140625 33.269531 139.910156 33.113281 C 139.679688 32.957031 139.433594 32.828125 139.179688 32.71875 C 138.921875 32.613281 138.65625 32.53125 138.386719 32.476562 C 138.113281 32.421875 137.839844 32.394531 137.5625 32.394531 Z M 137.5625 -35.910156 C 137.839844 -35.910156 138.113281 -35.9375 138.386719 -35.992188 C 138.65625 -36.046875 138.921875 -36.128906 139.179688 -36.234375 C 139.433594 -36.34375 139.679688 -36.476562 139.910156 -36.628906 C 140.140625 -36.785156 140.355469 -36.964844 140.550781 -37.160156 C 140.746094 -37.359375 140.921875 -37.574219 141.078125 -37.808594 C 141.230469 -38.042969 141.359375 -38.289062 141.46875 -38.546875 C 141.574219 -38.804688 141.652344 -39.074219 141.707031 -39.347656 C 141.761719 -39.621094 141.789062 -39.898438 141.789062 -40.179688 C 141.789062 -40.460938 141.761719 -40.738281 141.707031 -41.011719 C 141.652344 -41.289062 141.574219 -41.554688 141.46875 -41.8125 C 141.359375 -42.074219 141.230469 -42.320312 141.078125 -42.550781 C 140.921875 -42.785156 140.746094 -43 140.550781 -43.199219 C 140.355469 -43.398438 140.140625 -43.574219 139.910156 -43.730469 C 139.679688 -43.886719 139.433594 -44.015625 139.179688 -44.125 C 138.921875 -44.230469 138.65625 -44.3125 138.386719 -44.367188 C 138.113281 -44.421875 137.839844 -44.449219 137.5625 -44.449219 C 137.28125 -44.449219 137.007812 -44.421875 136.734375 -44.367188 C 136.464844 -44.3125 136.199219 -44.230469 135.941406 -44.125 C 135.6875 -44.015625 135.441406 -43.886719 135.210938 -43.730469 C 134.980469 -43.574219 134.765625 -43.398438 134.570312 -43.199219 C 134.375 -43 134.199219 -42.785156 134.046875 -42.550781 C 133.890625 -42.320312 133.761719 -42.074219 133.65625 -41.8125 C 133.546875 -41.554688 133.46875 -41.289062 133.414062 -41.011719 C 133.359375 -40.738281 133.332031 -40.460938 133.332031 -40.179688 C 133.332031 -39.898438 133.359375 -39.621094 133.414062 -39.347656 C 133.46875 -39.074219 133.546875 -38.804688 133.65625 -38.546875 C 133.761719 -38.289062 133.890625 -38.042969 134.046875 -37.808594 C 134.199219 -37.574219 134.375 -37.359375 134.570312 -37.160156 C 134.765625 -36.964844 134.980469 -36.785156 135.210938 -36.628906 C 135.441406 -36.476562 135.6875 -36.34375 135.941406 -36.234375 C 136.199219 -36.128906 136.464844 -36.046875 136.734375 -35.992188 C 137.007812 -35.9375 137.28125 -35.910156 137.5625 -35.910156 Z M 124.875 -35.910156 C 125.152344 -35.910156 125.429688 -35.9375 125.703125 -35.992188 C 125.972656 -36.046875 126.238281 -36.128906 126.496094 -36.234375 C 126.75 -36.34375 126.996094 -36.476562 127.226562 -36.628906 C 127.457031 -36.785156 127.667969 -36.964844 127.867188 -37.160156 C 128.0625 -37.359375 128.238281 -37.574219 128.390625 -37.808594 C 128.546875 -38.042969 128.675781 -38.289062 128.78125 -38.546875 C 128.890625 -38.804688 128.96875 -39.074219 129.023438 -39.347656 C 129.078125 -39.621094 129.105469 -39.898438 129.105469 -40.179688 C 129.105469 -40.460938 129.078125 -40.738281 129.023438 -41.011719 C 128.96875 -41.289062 128.890625 -41.554688 128.78125 -41.8125 C 128.675781 -42.074219 128.546875 -42.320312 128.390625 -42.550781 C 128.238281 -42.785156 128.0625 -43 127.867188 -43.199219 C 127.667969 -43.398438 127.457031 -43.574219 127.226562 -43.730469 C 126.996094 -43.886719 126.75 -44.015625 126.496094 -44.125 C 126.238281 -44.230469 125.972656 -44.3125 125.703125 -44.367188 C 125.429688 -44.421875 125.152344 -44.449219 124.875 -44.449219 C 124.597656 -44.449219 124.324219 -44.421875 124.050781 -44.367188 C 123.78125 -44.3125 123.515625 -44.230469 123.257812 -44.125 C 123.003906 -44.015625 122.757812 -43.886719 122.527344 -43.730469 C 122.296875 -43.574219 122.082031 -43.398438 121.886719 -43.199219 C 121.691406 -43 121.515625 -42.785156 121.359375 -42.550781 C 121.207031 -42.320312 121.078125 -42.074219 120.96875 -41.8125 C 120.863281 -41.554688 120.785156 -41.289062 120.730469 -41.011719 C 120.675781 -40.738281 120.648438 -40.460938 120.648438 -40.179688 C 120.648438 -39.898438 120.675781 -39.621094 120.730469 -39.347656 C 120.785156 -39.074219 120.863281 -38.804688 120.96875 -38.546875 C 121.078125 -38.289062 121.207031 -38.042969 121.359375 -37.808594 C 121.515625 -37.574219 121.691406 -37.359375 121.886719 -37.160156 C 122.082031 -36.964844 122.296875 -36.785156 122.527344 -36.628906 C 122.757812 -36.476562 123.003906 -36.34375 123.257812 -36.234375 C 123.515625 -36.128906 123.78125 -36.046875 124.050781 -35.992188 C 124.324219 -35.9375 124.597656 -35.910156 124.875 -35.910156 Z M 124.875 -35.910156"/></g><g clip-path="url(#i)"><g clip-path="url(#j)"><g clip-path="url(#k)"><path fill="#664A5A" d="M 55.894531 15.222656 C 55.769531 14.875 55.714844 14.515625 55.734375 14.144531 C 55.753906 13.773438 55.839844 13.421875 55.996094 13.089844 C 56.15625 12.753906 56.371094 12.464844 56.644531 12.21875 C 56.917969 11.96875 57.226562 11.785156 57.574219 11.660156 L 104.667969 -5.121094 C 105.015625 -5.242188 105.375 -5.296875 105.742188 -5.277344 C 106.109375 -5.257812 106.460938 -5.167969 106.792969 -5.007812 C 107.125 -4.851562 107.417969 -4.632812 107.664062 -4.359375 C 107.910156 -4.082031 108.097656 -3.769531 108.222656 -3.421875 C 108.347656 -3.074219 108.398438 -2.714844 108.382812 -2.34375 C 108.363281 -1.976562 108.277344 -1.625 108.117188 -1.289062 C 107.960938 -0.957031 107.746094 -0.664062 107.472656 -0.417969 C 107.199219 -0.171875 106.890625 0.015625 106.542969 0.140625 L 59.445312 16.917969 C 59.101562 17.042969 58.742188 17.09375 58.375 17.074219 C 58.007812 17.054688 57.65625 16.96875 57.324219 16.808594 C 56.988281 16.648438 56.699219 16.433594 56.453125 16.15625 C 56.203125 15.882812 56.019531 15.570312 55.894531 15.222656 Z M 125.988281 5.0625 L 63.195312 27.4375 C 62.847656 27.558594 62.539062 27.746094 62.265625 27.992188 C 61.992188 28.242188 61.777344 28.53125 61.617188 28.867188 C 61.460938 29.199219 61.375 29.550781 61.355469 29.921875 C 61.335938 30.289062 61.390625 30.648438 61.515625 31 C 61.640625 31.347656 61.824219 31.660156 62.074219 31.933594 C 62.320312 32.207031 62.609375 32.425781 62.945312 32.585938 C 63.277344 32.742188 63.628906 32.832031 63.996094 32.851562 C 64.363281 32.871094 64.722656 32.820312 65.066406 32.695312 L 127.863281 10.320312 C 128.210938 10.199219 128.519531 10.011719 128.792969 9.765625 C 129.066406 9.519531 129.28125 9.226562 129.4375 8.894531 C 129.59375 8.558594 129.683594 8.207031 129.699219 7.835938 C 129.71875 7.46875 129.664062 7.109375 129.542969 6.761719 C 129.417969 6.410156 129.230469 6.101562 128.984375 5.824219 C 128.738281 5.550781 128.445312 5.332031 128.113281 5.175781 C 127.78125 5.015625 127.429688 4.925781 127.0625 4.90625 C 126.691406 4.886719 126.335938 4.941406 125.988281 5.0625 Z M 131.609375 20.839844 L 68.816406 43.214844 C 68.46875 43.335938 68.160156 43.523438 67.886719 43.769531 C 67.613281 44.019531 67.398438 44.308594 67.238281 44.640625 C 67.082031 44.976562 66.996094 45.328125 66.976562 45.699219 C 66.957031 46.066406 67.011719 46.425781 67.136719 46.773438 C 67.261719 47.125 67.445312 47.433594 67.695312 47.710938 C 67.941406 47.984375 68.230469 48.203125 68.566406 48.359375 C 68.898438 48.519531 69.25 48.609375 69.617188 48.628906 C 69.984375 48.648438 70.34375 48.59375 70.6875 48.472656 L 133.484375 26.097656 C 133.832031 25.976562 134.140625 25.789062 134.414062 25.542969 C 134.6875 25.292969 134.902344 25.003906 135.058594 24.667969 C 135.214844 24.335938 135.304688 23.984375 135.320312 23.613281 C 135.339844 23.246094 135.289062 22.886719 135.164062 22.535156 C 135.039062 22.1875 134.851562 21.875 134.605469 21.601562 C 134.359375 21.328125 134.066406 21.109375 133.734375 20.949219 C 133.402344 20.792969 133.050781 20.703125 132.683594 20.683594 C 132.3125 20.664062 131.957031 20.714844 131.609375 20.839844 Z M 137.230469 36.617188 L 74.4375 58.988281 C 74.089844 59.113281 73.78125 59.300781 73.507812 59.546875 C 73.234375 59.792969 73.019531 60.085938 72.859375 60.417969 C 72.703125 60.753906 72.617188 61.105469 72.597656 61.472656 C 72.578125 61.84375 72.632812 62.203125 72.757812 62.550781 C 72.882812 62.898438 73.066406 63.210938 73.316406 63.488281 C 73.5625 63.761719 73.851562 63.976562 74.1875 64.136719 C 74.519531 64.296875 74.871094 64.386719 75.238281 64.40625 C 75.605469 64.425781 75.964844 64.371094 76.308594 64.25 L 139.105469 41.875 C 139.453125 41.75 139.761719 41.566406 140.035156 41.316406 C 140.308594 41.070312 140.523438 40.78125 140.679688 40.445312 C 140.835938 40.113281 140.925781 39.761719 140.945312 39.390625 C 140.960938 39.019531 140.910156 38.664062 140.785156 38.3125 C 140.660156 37.964844 140.472656 37.652344 140.226562 37.378906 C 139.980469 37.101562 139.6875 36.886719 139.355469 36.726562 C 139.023438 36.566406 138.671875 36.480469 138.304688 36.460938 C 137.933594 36.441406 137.578125 36.492188 137.230469 36.617188 Z M 122.242188 -5.453125 C 122.589844 -5.578125 122.898438 -5.761719 123.171875 -6.011719 C 123.445312 -6.257812 123.660156 -6.550781 123.816406 -6.882812 C 123.972656 -7.21875 124.0625 -7.570312 124.078125 -7.9375 C 124.097656 -8.308594 124.042969 -8.667969 123.921875 -9.015625 C 123.796875 -9.363281 123.609375 -9.675781 123.363281 -9.953125 C 123.117188 -10.226562 122.824219 -10.441406 122.492188 -10.601562 C 122.160156 -10.761719 121.808594 -10.851562 121.441406 -10.871094 C 121.070312 -10.890625 120.714844 -10.835938 120.367188 -10.714844 C 120.019531 -10.589844 119.710938 -10.402344 119.4375 -10.15625 C 119.164062 -9.910156 118.949219 -9.617188 118.792969 -9.285156 C 118.632812 -8.949219 118.546875 -8.597656 118.527344 -8.230469 C 118.511719 -7.859375 118.5625 -7.5 118.6875 -7.152344 C 118.8125 -6.804688 118.996094 -6.492188 119.246094 -6.214844 C 119.492188 -5.941406 119.785156 -5.722656 120.117188 -5.566406 C 120.449219 -5.40625 120.800781 -5.316406 121.167969 -5.296875 C 121.535156 -5.277344 121.894531 -5.332031 122.242188 -5.453125 Z M 114.390625 -2.65625 C 114.738281 -2.78125 115.046875 -2.96875 115.320312 -3.214844 C 115.59375 -3.460938 115.808594 -3.753906 115.96875 -4.085938 C 116.125 -4.421875 116.210938 -4.773438 116.230469 -5.140625 C 116.25 -5.511719 116.195312 -5.871094 116.070312 -6.21875 C 115.945312 -6.566406 115.761719 -6.878906 115.511719 -7.15625 C 115.265625 -7.429688 114.976562 -7.644531 114.640625 -7.804688 C 114.308594 -7.964844 113.957031 -8.054688 113.589844 -8.074219 C 113.222656 -8.09375 112.863281 -8.039062 112.519531 -7.917969 C 112.171875 -7.792969 111.859375 -7.605469 111.589844 -7.359375 C 111.316406 -7.113281 111.101562 -6.820312 110.941406 -6.488281 C 110.785156 -6.152344 110.695312 -5.800781 110.679688 -5.433594 C 110.660156 -5.0625 110.714844 -4.703125 110.839844 -4.355469 C 110.960938 -4.007812 111.148438 -3.695312 111.394531 -3.417969 C 111.644531 -3.144531 111.933594 -2.929688 112.265625 -2.769531 C 112.601562 -2.609375 112.949219 -2.519531 113.320312 -2.5 C 113.6875 -2.480469 114.042969 -2.535156 114.390625 -2.65625 Z M 114.390625 -2.65625"/></g></g></g></svg>