<svg xmlns="http://www.w3.org/2000/svg" width="75" viewBox="0 0 75 75" height="75" version="1.0"><defs><clipPath id="a"><path d="M 19.335938 16 L 55.335938 16 L 55.335938 67.5 L 19.335938 67.5 Z M 19.335938 16"/></clipPath><clipPath id="b"><path d="M 19.335938 16 L 55 16 L 55 67 L 19.335938 67 Z M 19.335938 16"/></clipPath><clipPath id="c"><path d="M 30 7.5 L 45 7.5 L 45 14 L 30 14 Z M 30 7.5"/></clipPath></defs><g clip-path="url(#a)"><path fill="#664A5A" d="M 48.726562 67.496094 C 52.335938 67.496094 55.273438 64.53125 55.273438 60.890625 L 55.273438 22.882812 C 55.273438 19.238281 52.335938 16.277344 48.726562 16.277344 L 47.804688 16.277344 C 47.925781 16.46875 48.035156 16.664062 48.132812 16.871094 L 48.726562 16.871094 C 52.019531 16.871094 54.6875 19.5625 54.6875 22.882812 L 54.6875 60.890625 C 54.6875 64.210938 52.019531 66.902344 48.726562 66.902344 L 25.945312 66.902344 C 22.652344 66.902344 19.984375 64.210938 19.984375 60.890625 L 19.984375 22.882812 C 19.984375 19.5625 22.652344 16.871094 25.945312 16.871094 L 26.535156 16.871094 C 26.636719 16.664062 26.746094 16.46875 26.867188 16.277344 L 25.945312 16.277344 C 22.335938 16.277344 19.398438 19.238281 19.398438 22.882812 L 19.398438 60.890625 C 19.398438 64.53125 22.335938 67.496094 25.945312 67.496094 L 48.726562 67.496094"/></g><g clip-path="url(#b)"><path fill="#664A5A" d="M 48.726562 17.460938 C 51.6875 17.460938 54.101562 19.894531 54.101562 22.882812 L 54.101562 60.890625 C 54.101562 63.878906 51.6875 66.3125 48.726562 66.3125 L 25.945312 66.3125 C 22.980469 66.3125 20.570312 63.878906 20.570312 60.890625 L 20.570312 22.882812 C 20.570312 19.894531 22.980469 17.460938 25.945312 17.460938 L 26.300781 17.460938 C 26.371094 17.257812 26.445312 17.058594 26.535156 16.871094 L 25.945312 16.871094 C 22.652344 16.871094 19.984375 19.5625 19.984375 22.882812 L 19.984375 60.890625 C 19.984375 64.210938 22.652344 66.902344 25.945312 66.902344 L 48.726562 66.902344 C 52.019531 66.902344 54.6875 64.210938 54.6875 60.890625 L 54.6875 22.882812 C 54.6875 19.5625 52.019531 16.871094 48.726562 16.871094 L 48.132812 16.871094 C 48.226562 17.058594 48.300781 17.257812 48.371094 17.460938 L 48.726562 17.460938"/></g><path fill="#664A5A" d="M 51.007812 29.46875 L 51.007812 58.582031 C 51.007812 61.121094 48.90625 63.183594 46.3125 63.183594 L 28.359375 63.183594 C 25.765625 63.183594 23.664062 61.121094 23.664062 58.582031 L 23.664062 29.46875 C 23.664062 26.925781 25.765625 24.867188 28.359375 24.867188 L 46.3125 24.867188 C 48.90625 24.867188 51.007812 26.925781 51.007812 29.46875 Z M 28.359375 24.273438 C 25.449219 24.273438 23.078125 26.605469 23.078125 29.46875 L 23.078125 58.582031 C 23.078125 61.445312 25.449219 63.777344 28.359375 63.777344 L 46.3125 63.777344 C 49.222656 63.777344 51.59375 61.445312 51.59375 58.582031 L 51.59375 29.46875 C 51.59375 26.605469 49.222656 24.273438 46.3125 24.273438 L 28.359375 24.273438"/><path fill="#664A5A" d="M 50.421875 29.46875 L 50.421875 58.582031 C 50.421875 60.792969 48.578125 62.59375 46.3125 62.59375 L 28.359375 62.59375 C 26.09375 62.59375 24.25 60.792969 24.25 58.582031 L 24.25 29.46875 C 24.25 27.257812 26.09375 25.457031 28.359375 25.457031 L 46.3125 25.457031 C 48.578125 25.457031 50.421875 27.257812 50.421875 29.46875 Z M 43.941406 24.867188 L 28.359375 24.867188 C 25.765625 24.867188 23.664062 26.925781 23.664062 29.46875 L 23.664062 58.582031 C 23.664062 61.121094 25.765625 63.183594 28.359375 63.183594 L 46.3125 63.183594 C 48.90625 63.183594 51.007812 61.121094 51.007812 58.582031 L 51.007812 29.46875 C 51.007812 26.925781 48.90625 24.867188 46.3125 24.867188 L 43.941406 24.867188"/><path fill="#664A5A" d="M 44.171875 14.492188 C 44.171875 14.511719 44.167969 14.53125 44.164062 14.550781 C 45.34375 14.738281 46.375 15.371094 47.078125 16.277344 L 47.804688 16.277344 C 47.003906 15.039062 45.699219 14.164062 44.15625 13.953125 C 44.167969 14.101562 44.175781 14.253906 44.175781 14.40625 C 44.175781 14.433594 44.171875 14.464844 44.171875 14.492188"/><path fill="#664A5A" d="M 30.507812 14.550781 C 30.503906 14.535156 30.5 14.519531 30.5 14.5 C 30.5 14.464844 30.496094 14.4375 30.496094 14.40625 C 30.496094 14.253906 30.503906 14.101562 30.511719 13.953125 C 28.972656 14.164062 27.667969 15.039062 26.867188 16.277344 L 27.59375 16.277344 C 28.296875 15.371094 29.328125 14.738281 30.507812 14.550781"/><path fill="#664A5A" d="M 48.058594 21.148438 L 26.609375 21.148438 L 26.609375 19.144531 C 26.609375 18.550781 26.722656 17.984375 26.925781 17.460938 L 26.300781 17.460938 C 26.125 17.992188 26.023438 18.554688 26.023438 19.144531 L 26.023438 21.148438 C 26.023438 21.476562 26.289062 21.738281 26.609375 21.738281 L 48.058594 21.738281 C 48.386719 21.738281 48.648438 21.476562 48.648438 21.148438 L 48.648438 19.144531 C 48.648438 18.554688 48.546875 17.992188 48.371094 17.460938 L 47.75 17.460938 C 47.949219 17.984375 48.058594 18.550781 48.058594 19.144531 L 48.058594 21.148438"/><path fill="#664A5A" d="M 47.46875 16.871094 L 48.132812 16.871094 C 48.035156 16.664062 47.925781 16.46875 47.804688 16.277344 L 47.078125 16.277344 C 47.222656 16.464844 47.351562 16.660156 47.46875 16.871094"/><path fill="#664A5A" d="M 27.203125 16.871094 C 27.320312 16.660156 27.449219 16.464844 27.59375 16.277344 L 26.867188 16.277344 C 26.746094 16.46875 26.636719 16.664062 26.535156 16.871094 L 27.203125 16.871094"/><path fill="#664A5A" d="M 47.75 17.460938 L 48.371094 17.460938 C 48.300781 17.257812 48.226562 17.058594 48.132812 16.871094 L 47.46875 16.871094 C 47.574219 17.058594 47.667969 17.257812 47.75 17.460938"/><path fill="#664A5A" d="M 26.925781 17.460938 C 27.003906 17.257812 27.097656 17.058594 27.203125 16.871094 L 26.535156 16.871094 C 26.445312 17.058594 26.371094 17.257812 26.300781 17.460938 L 26.925781 17.460938"/><path fill="#664A5A" d="M 30.8125 15.105469 C 30.949219 15.089844 31.085938 15.082031 31.222656 15.082031 L 31.089844 15.082031 C 30.785156 15.082031 30.539062 14.851562 30.507812 14.550781 C 29.328125 14.738281 28.296875 15.371094 27.59375 16.277344 L 28.371094 16.277344 C 29.003906 15.636719 29.851562 15.203125 30.8125 15.105469"/><path fill="#664A5A" d="M 43.585938 15.082031 L 43.449219 15.082031 C 43.585938 15.082031 43.722656 15.089844 43.859375 15.105469 C 44.820312 15.203125 45.667969 15.636719 46.300781 16.277344 L 47.078125 16.277344 C 46.375 15.371094 45.34375 14.738281 44.164062 14.550781 C 44.132812 14.847656 43.886719 15.082031 43.585938 15.082031"/><path fill="#664A5A" d="M 47.472656 19.144531 L 47.472656 20.554688 L 27.199219 20.554688 L 27.199219 19.144531 C 27.199219 18.546875 27.332031 17.976562 27.558594 17.460938 L 26.925781 17.460938 C 26.722656 17.984375 26.609375 18.550781 26.609375 19.144531 L 26.609375 21.148438 L 48.058594 21.148438 L 48.058594 19.144531 C 48.058594 18.550781 47.949219 17.984375 47.75 17.460938 L 47.113281 17.460938 C 47.34375 17.976562 47.472656 18.546875 47.472656 19.144531"/><path fill="#664A5A" d="M 46.78125 16.871094 L 47.46875 16.871094 C 47.351562 16.660156 47.222656 16.464844 47.078125 16.277344 L 46.300781 16.277344 C 46.480469 16.460938 46.640625 16.65625 46.78125 16.871094"/><path fill="#664A5A" d="M 28.371094 16.277344 L 27.59375 16.277344 C 27.449219 16.464844 27.320312 16.660156 27.203125 16.871094 L 27.886719 16.871094 C 28.03125 16.65625 28.191406 16.460938 28.371094 16.277344"/><path fill="#664A5A" d="M 27.558594 17.460938 C 27.652344 17.253906 27.761719 17.058594 27.886719 16.871094 L 27.203125 16.871094 C 27.097656 17.058594 27.003906 17.257812 26.925781 17.460938 L 27.558594 17.460938"/><path fill="#664A5A" d="M 47.113281 17.460938 L 47.75 17.460938 C 47.667969 17.257812 47.574219 17.058594 47.46875 16.871094 L 46.78125 16.871094 C 46.910156 17.058594 47.019531 17.253906 47.113281 17.460938"/><g clip-path="url(#c)"><path fill="#664A5A" d="M 31.105469 13.902344 C 31.359375 10.65625 34.050781 8.097656 37.335938 8.097656 C 40.621094 8.097656 43.3125 10.65625 43.566406 13.902344 C 43.703125 13.90625 43.84375 13.910156 43.976562 13.925781 C 44.039062 13.933594 44.097656 13.945312 44.15625 13.953125 C 43.925781 10.359375 40.957031 7.507812 37.335938 7.507812 C 33.714844 7.507812 30.746094 10.359375 30.511719 13.953125 C 30.574219 13.945312 30.632812 13.933594 30.691406 13.925781 C 30.828125 13.910156 30.96875 13.90625 31.105469 13.902344"/></g><path fill="#664A5A" d="M 30.5 14.5 C 30.5 14.519531 30.503906 14.535156 30.507812 14.550781 C 30.589844 14.539062 30.667969 14.523438 30.753906 14.515625 C 30.90625 14.5 31.066406 14.492188 31.222656 14.492188 L 31.089844 14.492188 C 31.085938 14.460938 31.082031 14.433594 31.082031 14.40625 C 31.082031 14.234375 31.09375 14.070312 31.105469 13.902344 C 30.96875 13.90625 30.828125 13.910156 30.691406 13.925781 C 30.632812 13.933594 30.574219 13.945312 30.511719 13.953125 C 30.503906 14.101562 30.496094 14.253906 30.496094 14.40625 C 30.496094 14.4375 30.5 14.464844 30.5 14.5"/><path fill="#664A5A" d="M 43.566406 13.902344 C 43.578125 14.070312 43.589844 14.234375 43.589844 14.40625 C 43.589844 14.433594 43.585938 14.460938 43.585938 14.492188 L 43.449219 14.492188 C 43.605469 14.492188 43.765625 14.5 43.917969 14.515625 C 44.003906 14.523438 44.082031 14.539062 44.164062 14.550781 C 44.167969 14.53125 44.171875 14.511719 44.171875 14.492188 C 44.171875 14.464844 44.175781 14.433594 44.175781 14.40625 C 44.175781 14.253906 44.167969 14.101562 44.15625 13.953125 C 44.097656 13.945312 44.039062 13.933594 43.976562 13.925781 C 43.84375 13.910156 43.703125 13.90625 43.566406 13.902344"/><path fill="#664A5A" d="M 31.089844 15.082031 L 43.585938 15.082031 C 43.886719 15.082031 44.132812 14.847656 44.164062 14.550781 C 44.082031 14.539062 44.003906 14.523438 43.917969 14.515625 C 43.765625 14.5 43.605469 14.492188 43.449219 14.492188 L 31.222656 14.492188 C 31.066406 14.492188 30.90625 14.5 30.753906 14.515625 C 30.667969 14.523438 30.589844 14.539062 30.507812 14.550781 C 30.539062 14.851562 30.785156 15.082031 31.089844 15.082031"/><path fill="#664A5A" d="M 31.691406 13.898438 C 31.949219 10.984375 34.378906 8.691406 37.335938 8.691406 C 40.289062 8.691406 42.722656 10.984375 42.976562 13.898438 L 43.449219 13.898438 C 43.488281 13.898438 43.527344 13.902344 43.566406 13.902344 C 43.3125 10.65625 40.621094 8.097656 37.335938 8.097656 C 34.050781 8.097656 31.359375 10.65625 31.105469 13.902344 C 31.144531 13.902344 31.183594 13.898438 31.222656 13.898438 L 31.691406 13.898438"/><path fill="#664A5A" d="M 43.585938 14.492188 C 43.585938 14.460938 43.589844 14.433594 43.589844 14.40625 C 43.589844 14.234375 43.578125 14.070312 43.566406 13.902344 C 43.527344 13.902344 43.488281 13.898438 43.449219 13.898438 L 31.222656 13.898438 C 31.183594 13.898438 31.144531 13.902344 31.105469 13.902344 C 31.09375 14.070312 31.082031 14.234375 31.082031 14.40625 C 31.082031 14.433594 31.085938 14.460938 31.089844 14.492188 L 43.585938 14.492188"/><path fill="#664A5A" d="M 45.320312 50.351562 L 29.351562 50.351562 C 29.027344 50.351562 28.765625 50.617188 28.765625 50.941406 C 28.765625 51.269531 29.027344 51.535156 29.351562 51.535156 L 45.320312 51.535156 C 45.644531 51.535156 45.90625 51.269531 45.90625 50.941406 C 45.90625 50.617188 45.644531 50.351562 45.320312 50.351562"/><path fill="#664A5A" d="M 41.738281 54.179688 L 32.9375 54.179688 C 32.609375 54.179688 32.347656 54.445312 32.347656 54.773438 C 32.347656 55.101562 32.609375 55.363281 32.9375 55.363281 L 41.738281 55.363281 C 42.0625 55.363281 42.324219 55.101562 42.324219 54.773438 C 42.324219 54.445312 42.0625 54.179688 41.738281 54.179688"/><path fill="#664A5A" d="M 30.472656 38.980469 C 30.53125 38.390625 31.023438 37.933594 31.621094 37.933594 L 35.082031 37.933594 L 35.082031 34.445312 C 35.082031 33.800781 35.597656 33.277344 36.238281 33.277344 L 38.433594 33.277344 C 39.074219 33.277344 39.589844 33.800781 39.589844 34.445312 L 39.589844 37.933594 L 43.050781 37.933594 C 43.6875 37.933594 44.203125 38.453125 44.207031 39.097656 L 44.207031 41.316406 C 44.203125 41.960938 43.6875 42.480469 43.050781 42.480469 L 39.589844 42.480469 L 39.589844 45.972656 C 39.589844 46.574219 39.132812 47.070312 38.550781 47.128906 C 38.511719 47.136719 38.472656 47.136719 38.433594 47.136719 L 36.238281 47.136719 C 36.199219 47.136719 36.15625 47.136719 36.117188 47.128906 C 35.535156 47.070312 35.082031 46.574219 35.082031 45.972656 L 35.082031 42.480469 L 31.621094 42.480469 C 31.023438 42.480469 30.53125 42.023438 30.472656 41.433594 C 30.46875 41.394531 30.464844 41.355469 30.464844 41.316406 L 30.464844 39.097656 C 30.464844 39.058594 30.46875 39.019531 30.472656 38.980469 Z M 29.890625 41.496094 C 29.980469 42.394531 30.726562 43.074219 31.621094 43.074219 L 34.496094 43.074219 L 34.496094 45.972656 C 34.496094 46.875 35.167969 47.628906 36.054688 47.71875 C 36.113281 47.726562 36.171875 47.730469 36.234375 47.730469 C 36.234375 47.730469 36.238281 47.730469 36.238281 47.730469 L 38.4375 47.730469 C 38.496094 47.726562 38.554688 47.726562 38.609375 47.71875 C 39.503906 47.628906 40.175781 46.875 40.175781 45.972656 L 40.175781 43.074219 L 43.050781 43.074219 C 44.011719 43.074219 44.792969 42.285156 44.792969 41.316406 L 44.792969 39.097656 C 44.792969 38.128906 44.011719 37.339844 43.046875 37.339844 L 40.175781 37.339844 L 40.175781 34.445312 C 40.175781 33.472656 39.394531 32.6875 38.433594 32.683594 L 36.238281 32.683594 C 35.277344 32.683594 34.496094 33.472656 34.496094 34.445312 L 34.496094 37.34375 L 31.621094 37.339844 C 30.726562 37.339844 29.980469 38.019531 29.886719 38.921875 C 29.882812 38.976562 29.878906 39.03125 29.878906 39.097656 L 29.878906 41.316406 C 29.878906 41.375 29.882812 41.433594 29.890625 41.496094"/><path fill="#664A5A" d="M 31.054688 39.039062 C 31.085938 38.746094 31.328125 38.523438 31.621094 38.523438 L 35.082031 38.527344 C 35.238281 38.527344 35.386719 38.464844 35.496094 38.351562 C 35.605469 38.242188 35.667969 38.089844 35.667969 37.933594 L 35.667969 34.445312 C 35.667969 34.289062 35.726562 34.148438 35.835938 34.039062 C 35.941406 33.929688 36.085938 33.867188 36.238281 33.867188 L 38.433594 33.867188 C 38.746094 33.867188 39.003906 34.128906 39.003906 34.445312 L 39.003906 37.933594 C 39.003906 38.261719 39.265625 38.523438 39.589844 38.523438 L 43.050781 38.523438 C 43.363281 38.523438 43.617188 38.785156 43.617188 39.097656 L 43.617188 41.316406 C 43.617188 41.632812 43.363281 41.890625 43.050781 41.890625 L 39.589844 41.890625 C 39.433594 41.890625 39.285156 41.949219 39.175781 42.0625 C 39.066406 42.175781 39.003906 42.324219 39.003906 42.480469 L 39.003906 45.972656 C 39.003906 46.265625 38.785156 46.511719 38.488281 46.542969 C 38.472656 46.542969 38.453125 46.546875 38.433594 46.546875 L 36.238281 46.546875 C 36.222656 46.546875 36.203125 46.542969 36.179688 46.542969 C 35.886719 46.511719 35.667969 46.265625 35.667969 45.972656 L 35.667969 42.480469 C 35.667969 42.15625 35.40625 41.890625 35.082031 41.890625 L 31.621094 41.890625 C 31.328125 41.890625 31.085938 41.667969 31.058594 41.375 C 31.054688 41.355469 31.054688 41.335938 31.054688 41.316406 L 31.050781 39.109375 C 31.054688 39.085938 31.054688 39.0625 31.054688 39.039062 Z M 30.472656 41.433594 C 30.53125 42.023438 31.023438 42.480469 31.621094 42.480469 L 35.082031 42.480469 L 35.082031 45.972656 C 35.082031 46.574219 35.535156 47.070312 36.117188 47.128906 C 36.15625 47.136719 36.199219 47.136719 36.238281 47.136719 L 38.433594 47.136719 C 38.472656 47.136719 38.511719 47.136719 38.550781 47.128906 C 39.132812 47.070312 39.589844 46.574219 39.589844 45.972656 L 39.589844 42.480469 L 43.050781 42.480469 C 43.6875 42.480469 44.203125 41.960938 44.207031 41.316406 L 44.207031 39.097656 C 44.203125 38.453125 43.6875 37.933594 43.050781 37.933594 L 39.589844 37.933594 L 39.589844 34.445312 C 39.589844 33.800781 39.074219 33.277344 38.433594 33.277344 L 36.238281 33.277344 C 35.597656 33.277344 35.082031 33.800781 35.082031 34.445312 L 35.082031 37.933594 L 31.621094 37.933594 C 31.023438 37.933594 30.53125 38.390625 30.472656 38.980469 C 30.46875 39.019531 30.464844 39.058594 30.464844 39.097656 L 30.464844 41.316406 C 30.464844 41.355469 30.46875 41.394531 30.472656 41.433594"/></svg>