<svg xmlns="http://www.w3.org/2000/svg" width="75" viewBox="0 0 75 75" height="75" version="1.0"><defs><clipPath id="a"><path d="M 9.023438 20 L 65 20 L 65 68 L 9.023438 68 Z M 9.023438 20"/></clipPath><clipPath id="b"><path d="M 9.15625 7.757812 L 66.023438 7.757812 L 66.023438 49.53125 L 9.15625 49.53125 Z M 9.15625 7.757812"/></clipPath></defs><g clip-path="url(#a)"><path fill="#664A5A" d="M 52.476562 43.195312 C 51.902344 43.195312 51.4375 42.730469 51.4375 42.160156 L 51.4375 36.28125 C 51.4375 28.703125 45.257812 22.558594 37.644531 22.558594 C 30.027344 22.558594 23.851562 28.703125 23.851562 36.28125 L 23.851562 42.160156 C 23.851562 42.730469 23.382812 43.195312 22.8125 43.195312 C 22.238281 43.195312 21.773438 42.730469 21.773438 42.160156 L 21.773438 36.28125 C 21.773438 27.558594 28.886719 20.488281 37.648438 20.488281 C 46.410156 20.496094 53.515625 27.566406 53.519531 36.28125 L 53.519531 42.160156 C 53.519531 42.730469 53.050781 43.195312 52.476562 43.195312 Z M 38.464844 58.082031 C 42.160156 60.535156 46.164062 62.488281 50.378906 63.882812 C 54.894531 65.367188 58.503906 65.320312 60.523438 63.738281 C 61.53125 62.992188 62.105469 61.796875 62.050781 60.542969 C 61.179688 49.207031 37.25 48.707031 37.015625 48.699219 L 36.277344 48.699219 C 36.050781 48.699219 12.125 49.207031 11.246094 60.539062 C 11.195312 61.792969 11.769531 62.992188 12.78125 63.738281 C 14.804688 65.320312 18.40625 65.371094 22.929688 63.882812 C 27.140625 62.488281 31.148438 60.535156 34.839844 58.074219 C 33.601562 57.164062 32.429688 56.167969 31.328125 55.101562 C 30.933594 54.683594 30.953125 54.027344 31.371094 53.636719 C 31.773438 53.253906 32.40625 53.257812 32.808594 53.644531 C 34.015625 54.789062 35.296875 55.847656 36.648438 56.816406 C 38.003906 55.847656 39.289062 54.796875 40.488281 53.648438 C 40.902344 53.25 41.5625 53.257812 41.957031 53.667969 C 42.351562 54.0625 42.355469 54.695312 41.96875 55.101562 C 40.871094 56.167969 39.699219 57.164062 38.464844 58.082031 Z M 17.085938 67.039062 C 15.085938 67.136719 13.113281 66.546875 11.496094 65.371094 C 9.941406 64.191406 9.066406 62.324219 9.175781 60.382812 C 10.195312 47.171875 35.199219 46.640625 36.261719 46.625 L 37.03125 46.625 C 38.109375 46.640625 63.113281 47.171875 64.128906 60.382812 C 64.234375 62.324219 63.363281 64.191406 61.8125 65.371094 C 59.976562 66.804688 56.390625 68.046875 49.726562 65.851562 C 45.085938 64.320312 40.679688 62.140625 36.648438 59.375 C 32.625 62.140625 28.21875 64.320312 23.582031 65.851562 C 21.492188 66.585938 19.300781 66.988281 17.085938 67.039062"/></g><g clip-path="url(#b)"><path fill="#664A5A" d="M 46.734375 36.117188 C 43.421875 36.199219 40.460938 38.183594 39.140625 41.203125 C 44.265625 40.796875 46.101562 37.8125 46.730469 36.117188 Z M 37.929688 43.324219 C 37.828125 43.324219 37.734375 43.324219 37.628906 43.320312 C 37.054688 43.308594 36.597656 42.839844 36.605469 42.265625 C 36.605469 42.195312 36.617188 42.125 36.632812 42.050781 C 36.648438 41.96875 38.722656 33.554688 48.128906 34.050781 C 48.707031 34.082031 49.144531 34.566406 49.121094 35.140625 C 49.113281 35.160156 49.113281 35.1875 49.109375 35.214844 C 49.097656 35.292969 47.992188 43.324219 37.929688 43.324219 Z M 38.101562 9.828125 C 35.140625 9.828125 32.746094 12.214844 32.746094 15.15625 C 32.746094 18.101562 35.148438 20.484375 38.101562 20.484375 C 41.058594 20.484375 43.457031 18.101562 43.457031 15.15625 C 43.449219 12.214844 41.054688 9.828125 38.101562 9.828125 Z M 38.101562 22.558594 C 33.992188 22.558594 30.667969 19.242188 30.667969 15.15625 C 30.667969 11.066406 33.992188 7.757812 38.101562 7.757812 C 42.207031 7.757812 45.539062 11.074219 45.539062 15.15625 C 45.527344 19.242188 42.203125 22.554688 38.101562 22.558594 Z M 58.78125 49.472656 C 54.726562 49.46875 51.441406 46.199219 51.4375 42.160156 L 51.4375 40.125 C 51.4375 39.550781 51.902344 39.085938 52.476562 39.085938 C 53.050781 39.085938 53.519531 39.550781 53.519531 40.125 L 53.519531 42.160156 C 53.550781 45.050781 55.933594 47.375 58.839844 47.34375 C 61.703125 47.308594 64.019531 45.011719 64.050781 42.160156 L 64.050781 40.125 C 64.058594 39.550781 64.542969 39.097656 65.117188 39.113281 C 65.667969 39.128906 66.117188 39.570312 66.132812 40.125 L 66.132812 42.160156 C 66.128906 46.199219 62.839844 49.46875 58.78125 49.472656 Z M 16.503906 49.472656 C 12.449219 49.46875 9.164062 46.199219 9.15625 42.160156 L 9.15625 40.125 C 9.175781 39.550781 9.648438 39.097656 10.226562 39.113281 C 10.78125 39.128906 11.226562 39.570312 11.242188 40.125 L 11.242188 42.160156 C 11.273438 45.050781 13.660156 47.375 16.5625 47.34375 C 19.429688 47.308594 21.738281 45.011719 21.773438 42.160156 L 21.773438 40.125 C 21.773438 39.550781 22.238281 39.085938 22.8125 39.085938 C 23.382812 39.085938 23.851562 39.550781 23.851562 40.125 L 23.851562 42.160156 C 23.851562 46.199219 20.5625 49.46875 16.503906 49.472656"/></g><path fill="#664A5A" d="M 28.558594 36.117188 C 29.1875 37.8125 31.023438 40.796875 36.152344 41.203125 C 34.828125 38.183594 31.867188 36.199219 28.558594 36.117188 Z M 37.359375 43.324219 C 27.292969 43.324219 26.1875 35.292969 26.171875 35.214844 C 26.101562 34.644531 26.511719 34.128906 27.078125 34.0625 C 27.101562 34.054688 27.128906 34.054688 27.15625 34.050781 C 36.570312 33.535156 38.636719 41.96875 38.660156 42.050781 C 38.789062 42.605469 38.441406 43.164062 37.882812 43.292969 C 37.808594 43.308594 37.734375 43.320312 37.660156 43.320312 C 37.558594 43.320312 37.457031 43.324219 37.359375 43.324219"/><path fill="#664A5A" d="M 35.78125 39.691406 C 35.332031 39.691406 34.933594 39.398438 34.792969 38.972656 C 33.496094 35.433594 34.425781 31.472656 37.167969 28.871094 C 37.382812 28.675781 37.675781 28.585938 37.960938 28.621094 C 38.246094 28.65625 38.511719 28.800781 38.679688 29.035156 C 41.558594 32.851562 41.402344 36.351562 40.761719 38.613281 C 40.609375 39.160156 40.039062 39.488281 39.484375 39.328125 C 38.929688 39.175781 38.605469 38.609375 38.757812 38.054688 C 39.398438 35.769531 39.023438 33.328125 37.734375 31.339844 C 36.273438 33.367188 35.914062 35.988281 36.769531 38.328125 C 36.949219 38.878906 36.648438 39.460938 36.105469 39.636719 C 36 39.671875 35.894531 39.6875 35.78125 39.6875 L 35.78125 39.691406"/></svg>