<svg xmlns="http://www.w3.org/2000/svg" width="150" viewBox="0 0 150 150" height="150" version="1.0"><defs><clipPath id="a"><path d="M 15 29.414062 L 133.5 29.414062 L 133.5 120.914062 L 15 120.914062 Z M 15 29.414062"/></clipPath></defs><g clip-path="url(#a)"><path fill="#664A5A" d="M 15.035156 33.992188 C 15.035156 33.691406 15.066406 33.394531 15.125 33.097656 C 15.183594 32.804688 15.269531 32.519531 15.382812 32.238281 C 15.5 31.960938 15.636719 31.699219 15.804688 31.449219 C 15.96875 31.199219 16.160156 30.96875 16.371094 30.753906 C 16.582031 30.542969 16.8125 30.355469 17.0625 30.1875 C 17.308594 30.019531 17.574219 29.878906 17.847656 29.765625 C 18.125 29.648438 18.410156 29.5625 18.703125 29.503906 C 18.996094 29.445312 19.292969 29.414062 19.589844 29.414062 L 101.578125 29.414062 C 101.878906 29.414062 102.175781 29.445312 102.46875 29.503906 C 102.761719 29.5625 103.046875 29.648438 103.320312 29.765625 C 103.597656 29.878906 103.859375 30.019531 104.109375 30.1875 C 104.359375 30.355469 104.589844 30.542969 104.800781 30.753906 C 105.011719 30.96875 105.199219 31.199219 105.367188 31.449219 C 105.53125 31.699219 105.671875 31.960938 105.789062 32.238281 C 105.902344 32.519531 105.988281 32.804688 106.046875 33.097656 C 106.105469 33.394531 106.132812 33.691406 106.132812 33.992188 C 106.132812 34.292969 106.105469 34.589844 106.046875 34.882812 C 105.988281 35.179688 105.902344 35.464844 105.789062 35.742188 C 105.671875 36.019531 105.53125 36.28125 105.367188 36.53125 C 105.199219 36.78125 105.011719 37.011719 104.800781 37.226562 C 104.589844 37.4375 104.359375 37.628906 104.109375 37.792969 C 103.859375 37.960938 103.597656 38.101562 103.320312 38.21875 C 103.046875 38.332031 102.761719 38.417969 102.46875 38.476562 C 102.175781 38.535156 101.878906 38.566406 101.578125 38.566406 L 19.589844 38.566406 C 19.292969 38.566406 18.996094 38.535156 18.703125 38.476562 C 18.410156 38.417969 18.125 38.332031 17.847656 38.21875 C 17.574219 38.101562 17.308594 37.960938 17.0625 37.792969 C 16.8125 37.628906 16.582031 37.4375 16.371094 37.226562 C 16.160156 37.011719 15.96875 36.78125 15.804688 36.53125 C 15.636719 36.28125 15.5 36.019531 15.382812 35.742188 C 15.269531 35.464844 15.183594 35.179688 15.125 34.882812 C 15.066406 34.589844 15.035156 34.292969 15.035156 33.992188 Z M 128.910156 56.867188 L 19.589844 56.867188 C 19.292969 56.867188 18.996094 56.894531 18.703125 56.953125 C 18.410156 57.011719 18.125 57.097656 17.847656 57.214844 C 17.574219 57.328125 17.308594 57.46875 17.0625 57.636719 C 16.8125 57.804688 16.582031 57.992188 16.371094 58.207031 C 16.160156 58.417969 15.96875 58.648438 15.804688 58.898438 C 15.636719 59.148438 15.5 59.414062 15.382812 59.691406 C 15.269531 59.96875 15.183594 60.253906 15.125 60.546875 C 15.066406 60.84375 15.035156 61.140625 15.035156 61.441406 C 15.035156 61.742188 15.066406 62.039062 15.125 62.332031 C 15.183594 62.628906 15.269531 62.914062 15.382812 63.191406 C 15.5 63.46875 15.636719 63.734375 15.804688 63.984375 C 15.96875 64.230469 16.160156 64.464844 16.371094 64.675781 C 16.582031 64.886719 16.8125 65.078125 17.0625 65.246094 C 17.308594 65.410156 17.574219 65.550781 17.847656 65.667969 C 18.125 65.78125 18.410156 65.871094 18.703125 65.929688 C 18.996094 65.988281 19.292969 66.015625 19.589844 66.015625 L 128.910156 66.015625 C 129.207031 66.015625 129.503906 65.988281 129.796875 65.929688 C 130.089844 65.871094 130.375 65.78125 130.652344 65.667969 C 130.925781 65.550781 131.191406 65.410156 131.4375 65.246094 C 131.6875 65.078125 131.917969 64.886719 132.128906 64.675781 C 132.339844 64.464844 132.53125 64.230469 132.695312 63.984375 C 132.863281 63.734375 133 63.46875 133.117188 63.191406 C 133.230469 62.914062 133.316406 62.628906 133.375 62.332031 C 133.433594 62.039062 133.464844 61.742188 133.464844 61.441406 C 133.464844 61.140625 133.433594 60.84375 133.375 60.546875 C 133.316406 60.253906 133.230469 59.96875 133.117188 59.691406 C 133 59.414062 132.863281 59.148438 132.695312 58.898438 C 132.53125 58.648438 132.339844 58.417969 132.128906 58.207031 C 131.917969 57.992188 131.6875 57.804688 131.4375 57.636719 C 131.191406 57.46875 130.925781 57.328125 130.652344 57.214844 C 130.375 57.097656 130.089844 57.011719 129.796875 56.953125 C 129.503906 56.894531 129.207031 56.867188 128.910156 56.867188 Z M 128.910156 84.316406 L 19.589844 84.316406 C 19.292969 84.316406 18.996094 84.34375 18.703125 84.402344 C 18.410156 84.460938 18.125 84.550781 17.847656 84.664062 C 17.574219 84.777344 17.308594 84.921875 17.0625 85.085938 C 16.8125 85.253906 16.582031 85.445312 16.371094 85.65625 C 16.160156 85.867188 15.96875 86.097656 15.804688 86.347656 C 15.636719 86.597656 15.5 86.863281 15.382812 87.140625 C 15.269531 87.417969 15.183594 87.703125 15.125 88 C 15.066406 88.292969 15.035156 88.589844 15.035156 88.890625 C 15.035156 89.191406 15.066406 89.488281 15.125 89.785156 C 15.183594 90.078125 15.269531 90.363281 15.382812 90.640625 C 15.5 90.917969 15.636719 91.183594 15.804688 91.433594 C 15.96875 91.683594 16.160156 91.914062 16.371094 92.125 C 16.582031 92.339844 16.8125 92.527344 17.0625 92.695312 C 17.308594 92.863281 17.574219 93.003906 17.847656 93.117188 C 18.125 93.234375 18.410156 93.320312 18.703125 93.378906 C 18.996094 93.4375 19.292969 93.464844 19.589844 93.464844 L 128.910156 93.464844 C 129.207031 93.464844 129.503906 93.4375 129.796875 93.378906 C 130.089844 93.320312 130.375 93.234375 130.652344 93.117188 C 130.925781 93.003906 131.191406 92.863281 131.4375 92.695312 C 131.6875 92.527344 131.917969 92.339844 132.128906 92.125 C 132.339844 91.914062 132.53125 91.683594 132.695312 91.433594 C 132.863281 91.183594 133 90.917969 133.117188 90.640625 C 133.230469 90.363281 133.316406 90.078125 133.375 89.785156 C 133.433594 89.488281 133.464844 89.191406 133.464844 88.890625 C 133.464844 88.589844 133.433594 88.292969 133.375 88 C 133.316406 87.703125 133.230469 87.417969 133.117188 87.140625 C 133 86.863281 132.863281 86.597656 132.695312 86.347656 C 132.53125 86.097656 132.339844 85.867188 132.128906 85.65625 C 131.917969 85.445312 131.6875 85.253906 131.4375 85.085938 C 131.191406 84.921875 130.925781 84.777344 130.652344 84.664062 C 130.375 84.550781 130.089844 84.460938 129.796875 84.402344 C 129.503906 84.34375 129.207031 84.316406 128.910156 84.316406 Z M 128.910156 111.765625 L 19.589844 111.765625 C 19.292969 111.765625 18.996094 111.796875 18.703125 111.855469 C 18.410156 111.914062 18.125 112 17.847656 112.113281 C 17.574219 112.230469 17.308594 112.371094 17.0625 112.535156 C 16.8125 112.703125 16.582031 112.894531 16.371094 113.105469 C 16.160156 113.316406 15.96875 113.550781 15.804688 113.800781 C 15.636719 114.050781 15.5 114.3125 15.382812 114.589844 C 15.269531 114.867188 15.183594 115.152344 15.125 115.449219 C 15.066406 115.742188 15.035156 116.039062 15.035156 116.339844 C 15.035156 116.640625 15.066406 116.9375 15.125 117.234375 C 15.183594 117.527344 15.269531 117.8125 15.382812 118.089844 C 15.5 118.367188 15.636719 118.632812 15.804688 118.882812 C 15.96875 119.132812 16.160156 119.363281 16.371094 119.574219 C 16.582031 119.789062 16.8125 119.976562 17.0625 120.144531 C 17.308594 120.3125 17.574219 120.453125 17.847656 120.566406 C 18.125 120.683594 18.410156 120.769531 18.703125 120.828125 C 18.996094 120.886719 19.292969 120.914062 19.589844 120.914062 L 128.910156 120.914062 C 129.207031 120.914062 129.503906 120.886719 129.796875 120.828125 C 130.089844 120.769531 130.375 120.683594 130.652344 120.566406 C 130.925781 120.453125 131.191406 120.3125 131.4375 120.144531 C 131.6875 119.976562 131.917969 119.789062 132.128906 119.574219 C 132.339844 119.363281 132.53125 119.132812 132.695312 118.882812 C 132.863281 118.632812 133 118.367188 133.117188 118.089844 C 133.230469 117.8125 133.316406 117.527344 133.375 117.234375 C 133.433594 116.9375 133.464844 116.640625 133.464844 116.339844 C 133.464844 116.039062 133.433594 115.742188 133.375 115.449219 C 133.316406 115.152344 133.230469 114.867188 133.117188 114.589844 C 133 114.3125 132.863281 114.050781 132.695312 113.800781 C 132.53125 113.550781 132.339844 113.316406 132.128906 113.105469 C 131.917969 112.894531 131.6875 112.703125 131.4375 112.535156 C 131.191406 112.371094 130.925781 112.230469 130.652344 112.113281 C 130.375 112 130.089844 111.914062 129.796875 111.855469 C 129.503906 111.796875 129.207031 111.765625 128.910156 111.765625 Z M 128.910156 38.566406 C 129.207031 38.566406 129.503906 38.535156 129.796875 38.476562 C 130.089844 38.417969 130.375 38.332031 130.652344 38.21875 C 130.925781 38.101562 131.191406 37.960938 131.4375 37.792969 C 131.6875 37.628906 131.917969 37.4375 132.128906 37.226562 C 132.339844 37.011719 132.53125 36.78125 132.695312 36.53125 C 132.863281 36.28125 133 36.019531 133.117188 35.742188 C 133.230469 35.464844 133.316406 35.179688 133.375 34.882812 C 133.433594 34.589844 133.464844 34.292969 133.464844 33.992188 C 133.464844 33.691406 133.433594 33.394531 133.375 33.097656 C 133.316406 32.804688 133.230469 32.519531 133.117188 32.238281 C 133 31.960938 132.863281 31.699219 132.695312 31.449219 C 132.53125 31.199219 132.339844 30.96875 132.128906 30.753906 C 131.917969 30.542969 131.6875 30.355469 131.4375 30.1875 C 131.191406 30.019531 130.925781 29.878906 130.652344 29.765625 C 130.375 29.648438 130.089844 29.5625 129.796875 29.503906 C 129.503906 29.445312 129.207031 29.414062 128.910156 29.414062 C 128.609375 29.414062 128.3125 29.445312 128.019531 29.503906 C 127.726562 29.5625 127.441406 29.648438 127.164062 29.765625 C 126.890625 29.878906 126.625 30.019531 126.378906 30.1875 C 126.128906 30.355469 125.898438 30.542969 125.6875 30.753906 C 125.476562 30.96875 125.289062 31.199219 125.121094 31.449219 C 124.953125 31.699219 124.816406 31.960938 124.699219 32.238281 C 124.585938 32.519531 124.5 32.804688 124.441406 33.097656 C 124.382812 33.394531 124.351562 33.691406 124.351562 33.992188 C 124.351562 34.292969 124.382812 34.589844 124.441406 34.882812 C 124.5 35.179688 124.585938 35.464844 124.699219 35.742188 C 124.816406 36.019531 124.953125 36.28125 125.121094 36.53125 C 125.289062 36.78125 125.476562 37.011719 125.6875 37.226562 C 125.898438 37.4375 126.128906 37.628906 126.378906 37.792969 C 126.625 37.960938 126.890625 38.101562 127.164062 38.21875 C 127.441406 38.332031 127.726562 38.417969 128.019531 38.476562 C 128.3125 38.535156 128.609375 38.566406 128.910156 38.566406 Z M 115.242188 38.566406 C 115.542969 38.566406 115.839844 38.535156 116.132812 38.476562 C 116.425781 38.417969 116.710938 38.332031 116.988281 38.21875 C 117.261719 38.101562 117.527344 37.960938 117.773438 37.792969 C 118.023438 37.628906 118.253906 37.4375 118.464844 37.226562 C 118.675781 37.011719 118.863281 36.78125 119.03125 36.53125 C 119.195312 36.28125 119.335938 36.019531 119.453125 35.742188 C 119.566406 35.464844 119.652344 35.179688 119.710938 34.882812 C 119.769531 34.589844 119.796875 34.292969 119.796875 33.992188 C 119.796875 33.691406 119.769531 33.394531 119.710938 33.097656 C 119.652344 32.804688 119.566406 32.519531 119.453125 32.238281 C 119.335938 31.960938 119.195312 31.699219 119.03125 31.449219 C 118.863281 31.199219 118.675781 30.96875 118.464844 30.753906 C 118.253906 30.542969 118.023438 30.355469 117.773438 30.1875 C 117.527344 30.019531 117.261719 29.878906 116.988281 29.765625 C 116.710938 29.648438 116.425781 29.5625 116.132812 29.503906 C 115.839844 29.445312 115.542969 29.414062 115.242188 29.414062 C 114.945312 29.414062 114.648438 29.445312 114.355469 29.503906 C 114.0625 29.5625 113.777344 29.648438 113.5 29.765625 C 113.222656 29.878906 112.960938 30.019531 112.714844 30.1875 C 112.464844 30.355469 112.234375 30.542969 112.023438 30.753906 C 111.8125 30.96875 111.621094 31.199219 111.457031 31.449219 C 111.289062 31.699219 111.148438 31.960938 111.035156 32.238281 C 110.921875 32.519531 110.835938 32.804688 110.777344 33.097656 C 110.71875 33.394531 110.6875 33.691406 110.6875 33.992188 C 110.6875 34.292969 110.71875 34.589844 110.777344 34.882812 C 110.835938 35.179688 110.921875 35.464844 111.035156 35.742188 C 111.148438 36.019531 111.289062 36.28125 111.457031 36.53125 C 111.621094 36.78125 111.8125 37.011719 112.023438 37.226562 C 112.234375 37.4375 112.464844 37.628906 112.714844 37.792969 C 112.960938 37.960938 113.222656 38.101562 113.5 38.21875 C 113.777344 38.332031 114.0625 38.417969 114.355469 38.476562 C 114.648438 38.535156 114.945312 38.566406 115.242188 38.566406 Z M 115.242188 38.566406"/></g></svg>