<svg xmlns="http://www.w3.org/2000/svg" width="75" viewBox="0 0 75 75" height="75" version="1.0"><defs><clipPath id="a"><path d="M 7.5 14.4375 L 67.5 14.4375 L 67.5 60.9375 L 7.5 60.9375 Z M 7.5 14.4375"/></clipPath></defs><g clip-path="url(#a)"><path fill="#664A5A" d="M 12.753906 49.304688 C 14.402344 48.554688 16.316406 48.664062 17.871094 49.597656 L 18.167969 49.773438 C 19.484375 50.5625 21.132812 50.578125 22.46875 49.820312 L 24.019531 48.933594 C 25.621094 48.019531 27.574219 48.09375 29.15625 49.15625 C 30.425781 50.007812 32 50.273438 33.476562 49.882812 L 36.902344 48.980469 C 38.894531 48.453125 40.980469 48.734375 42.824219 49.808594 C 44.519531 50.796875 46.644531 50.695312 48.238281 49.546875 L 48.304688 49.5 C 50.769531 47.730469 54.074219 47.742188 56.527344 49.523438 L 56.597656 49.574219 C 58.148438 50.703125 60.203125 50.917969 61.953125 50.140625 L 66.050781 48.308594 C 64.761719 54.59375 52.453125 59.539062 37.5 59.539062 C 24.40625 59.539062 13.335938 55.746094 9.921875 50.585938 Z M 8.835938 47.222656 C 8.835938 43.632812 12.683594 40.144531 19.179688 37.789062 L 19.179688 44.847656 C 19.179688 46.648438 20.632812 48.113281 22.417969 48.113281 C 22.539062 48.113281 22.65625 48.105469 22.773438 48.09375 L 21.808594 48.644531 C 20.890625 49.164062 19.757812 49.152344 18.851562 48.613281 L 18.554688 48.433594 C 16.625 47.28125 14.25 47.144531 12.203125 48.070312 L 9.28125 49.394531 C 8.988281 48.6875 8.835938 47.960938 8.835938 47.222656 Z M 28.453125 35.691406 L 28.453125 47.296875 C 27.230469 46.863281 25.90625 46.832031 24.660156 47.203125 C 25.273438 46.609375 25.660156 45.773438 25.660156 44.847656 L 25.660156 37.035156 Z M 50.25 47.113281 C 49.292969 47.367188 48.367188 47.796875 47.527344 48.402344 L 47.460938 48.449219 C 47.175781 48.652344 46.867188 48.8125 46.546875 48.925781 L 46.546875 35.691406 L 49.339844 37.035156 L 49.339844 44.847656 C 49.339844 45.726562 49.6875 46.523438 50.25 47.113281 Z M 20.519531 37.042969 C 20.5625 36.910156 20.566406 36.761719 20.519531 36.617188 L 20.519531 36.347656 C 20.519531 34.511719 21.683594 32.910156 23.417969 32.363281 C 23.449219 32.355469 23.476562 32.34375 23.507812 32.328125 L 31.5 28.484375 C 33.007812 30.09375 35.136719 31.101562 37.5 31.101562 C 39.863281 31.101562 41.996094 30.09375 43.5 28.484375 L 51.492188 32.328125 C 51.523438 32.34375 51.550781 32.355469 51.582031 32.363281 C 53.316406 32.910156 54.480469 34.511719 54.480469 36.347656 L 54.480469 36.613281 C 54.480469 36.613281 54.480469 36.617188 54.476562 36.617188 C 54.429688 36.761719 54.433594 36.910156 54.480469 37.042969 L 54.480469 44.847656 C 54.480469 45.902344 53.628906 46.761719 52.582031 46.761719 C 51.53125 46.761719 50.679688 45.902344 50.679688 44.847656 L 50.679688 36.59375 C 50.679688 36.308594 50.503906 36.050781 50.234375 35.957031 C 50.175781 35.933594 50.113281 35.910156 50.054688 35.878906 L 46.164062 34.011719 C 45.957031 33.910156 45.714844 33.925781 45.519531 34.050781 C 45.324219 34.171875 45.207031 34.386719 45.207031 34.621094 L 45.207031 49.125 C 44.605469 49.101562 44 48.929688 43.441406 48.605469 C 41.347656 47.386719 38.902344 47.054688 36.5625 47.671875 L 33.136719 48.578125 C 32.03125 48.871094 30.851562 48.671875 29.851562 48 C 29.832031 47.988281 29.8125 47.976562 29.792969 47.960938 L 29.792969 34.621094 C 29.792969 34.386719 29.675781 34.171875 29.480469 34.050781 C 29.285156 33.925781 29.042969 33.910156 28.835938 34.011719 L 24.949219 35.878906 C 24.886719 35.910156 24.828125 35.933594 24.765625 35.957031 C 24.496094 36.050781 24.320312 36.308594 24.320312 36.59375 L 24.320312 44.847656 C 24.320312 45.902344 23.46875 46.761719 22.417969 46.761719 C 21.371094 46.761719 20.519531 45.902344 20.519531 44.847656 Z M 30.589844 22.785156 C 30.589844 18.945312 33.691406 15.820312 37.5 15.820312 C 41.308594 15.820312 44.410156 18.945312 44.410156 22.785156 C 44.410156 24.414062 43.851562 25.914062 42.917969 27.097656 C 42.832031 27.164062 42.757812 27.25 42.707031 27.355469 C 42.707031 27.355469 42.707031 27.355469 42.707031 27.359375 C 41.441406 28.824219 39.574219 29.753906 37.5 29.753906 C 35.425781 29.753906 33.558594 28.824219 32.292969 27.359375 C 32.292969 27.355469 32.292969 27.355469 32.292969 27.355469 C 32.242188 27.25 32.167969 27.164062 32.082031 27.101562 C 31.148438 25.914062 30.589844 24.414062 30.589844 22.785156 Z M 55.820312 44.847656 L 55.820312 37.789062 C 62.054688 40.046875 65.847656 43.351562 66.144531 46.789062 L 61.410156 48.902344 C 60.09375 49.492188 58.550781 49.328125 57.378906 48.480469 L 57.3125 48.429688 C 56.542969 47.871094 55.703125 47.460938 54.832031 47.191406 C 55.441406 46.597656 55.820312 45.765625 55.820312 44.847656 Z M 37.5 60.890625 C 54.324219 60.890625 67.503906 54.886719 67.503906 47.222656 C 67.503906 47.21875 67.503906 47.214844 67.503906 47.210938 C 67.503906 47.210938 67.503906 47.207031 67.503906 47.207031 C 67.496094 42.875 63.246094 38.9375 55.820312 36.355469 L 55.820312 36.347656 C 55.820312 33.933594 54.296875 31.828125 52.027344 31.089844 L 44.359375 27.402344 C 45.238281 26.082031 45.75 24.492188 45.75 22.785156 C 45.75 18.199219 42.050781 14.46875 37.5 14.46875 C 32.949219 14.46875 29.25 18.199219 29.25 22.785156 C 29.25 24.492188 29.761719 26.082031 30.640625 27.402344 L 22.972656 31.089844 C 20.703125 31.828125 19.179688 33.933594 19.179688 36.347656 L 19.179688 36.355469 C 11.746094 38.941406 7.496094 42.882812 7.496094 47.222656 C 7.496094 54.886719 20.675781 60.890625 37.5 60.890625"/></g><path fill="#664A5A" d="M 9.898438 30.671875 C 10.464844 31.238281 10.730469 32.015625 10.632812 32.8125 C 10.535156 33.609375 10.085938 34.300781 9.402344 34.707031 C 9.082031 34.898438 8.976562 35.3125 9.167969 35.632812 C 9.292969 35.847656 9.515625 35.964844 9.742188 35.964844 C 9.859375 35.964844 9.976562 35.933594 10.085938 35.871094 C 11.128906 35.246094 11.8125 34.195312 11.964844 32.980469 C 12.113281 31.765625 11.703125 30.574219 10.839844 29.714844 L 10.480469 29.351562 C 9.914062 28.789062 9.640625 28.003906 9.726562 27.207031 C 9.8125 26.40625 10.25 25.703125 10.925781 25.273438 C 11.238281 25.074219 11.332031 24.660156 11.132812 24.34375 C 10.933594 24.027344 10.523438 23.933594 10.207031 24.132812 C 9.1875 24.78125 8.527344 25.847656 8.394531 27.058594 C 8.261719 28.269531 8.679688 29.457031 9.539062 30.3125 L 9.898438 30.671875"/><path fill="#664A5A" d="M 17.914062 23.460938 C 18.480469 24.027344 18.746094 24.808594 18.648438 25.601562 C 18.550781 26.398438 18.101562 27.089844 17.417969 27.5 C 17.097656 27.6875 16.992188 28.101562 17.183594 28.421875 C 17.308594 28.636719 17.53125 28.753906 17.757812 28.753906 C 17.875 28.753906 17.992188 28.726562 18.101562 28.660156 C 19.144531 28.039062 19.828125 26.984375 19.976562 25.769531 C 20.128906 24.554688 19.71875 23.363281 18.855469 22.503906 L 18.496094 22.144531 C 17.929688 21.578125 17.65625 20.792969 17.742188 19.996094 C 17.832031 19.199219 18.265625 18.492188 18.941406 18.066406 C 19.253906 17.867188 19.347656 17.449219 19.148438 17.132812 C 18.953125 16.816406 18.539062 16.722656 18.226562 16.921875 C 17.203125 17.570312 16.542969 18.636719 16.410156 19.847656 C 16.28125 21.058594 16.695312 22.246094 17.554688 23.101562 L 17.914062 23.460938"/><path fill="#664A5A" d="M 64.535156 30.671875 C 65.097656 31.238281 65.367188 32.019531 65.269531 32.8125 C 65.171875 33.609375 64.722656 34.300781 64.039062 34.707031 C 63.71875 34.898438 63.613281 35.3125 63.800781 35.632812 C 63.925781 35.847656 64.148438 35.964844 64.378906 35.964844 C 64.496094 35.964844 64.613281 35.933594 64.71875 35.871094 C 65.765625 35.25 66.449219 34.195312 66.597656 32.980469 C 66.75 31.765625 66.339844 30.574219 65.476562 29.714844 L 65.117188 29.351562 C 64.550781 28.785156 64.277344 28.003906 64.363281 27.207031 C 64.449219 26.40625 64.886719 25.703125 65.558594 25.273438 C 65.875 25.074219 65.96875 24.660156 65.769531 24.34375 C 65.570312 24.027344 65.160156 23.933594 64.84375 24.132812 C 63.824219 24.78125 63.164062 25.847656 63.03125 27.058594 C 62.898438 28.269531 63.316406 29.457031 64.171875 30.3125 L 64.535156 30.671875"/><path fill="#664A5A" d="M 56.519531 23.460938 C 57.082031 24.027344 57.351562 24.808594 57.253906 25.601562 C 57.15625 26.398438 56.707031 27.089844 56.019531 27.5 C 55.703125 27.6875 55.597656 28.101562 55.785156 28.421875 C 55.910156 28.636719 56.132812 28.753906 56.363281 28.753906 C 56.480469 28.753906 56.597656 28.726562 56.703125 28.660156 C 57.75 28.039062 58.433594 26.984375 58.582031 25.769531 C 58.730469 24.554688 58.324219 23.363281 57.460938 22.503906 L 57.101562 22.144531 C 56.535156 21.578125 56.261719 20.792969 56.347656 19.996094 C 56.433594 19.199219 56.871094 18.492188 57.542969 18.066406 C 57.859375 17.867188 57.953125 17.449219 57.753906 17.132812 C 57.554688 16.816406 57.140625 16.722656 56.828125 16.921875 C 55.808594 17.570312 55.148438 18.640625 55.015625 19.847656 C 54.882812 21.058594 55.300781 22.246094 56.15625 23.101562 L 56.519531 23.460938"/></svg>