<svg xmlns="http://www.w3.org/2000/svg" width="750" viewBox="0 0 750 1125" height="1125" version="1.0"><defs><clipPath id="a"><path d="M 54.035156 251.25 L 729.589844 251.25 L 729.589844 837 L 54.035156 837 Z M 54.035156 251.25"/></clipPath></defs><g clip-path="url(#a)"><path fill="#664A5A" d="M 306.089844 672.976562 C 303.359375 672.976562 301.140625 670.753906 301.140625 668.027344 C 301.140625 665.292969 303.359375 663.074219 306.089844 663.074219 C 308.816406 663.074219 311.039062 665.292969 311.039062 668.027344 C 311.039062 670.753906 308.816406 672.976562 306.089844 672.976562 Z M 306.089844 658.957031 C 301.09375 658.957031 297.027344 663.023438 297.027344 668.027344 C 297.027344 673.027344 301.09375 677.09375 306.089844 677.09375 C 311.089844 677.09375 315.15625 673.027344 315.15625 668.027344 C 315.15625 663.023438 311.089844 658.957031 306.089844 658.957031 Z M 278.484375 654.855469 C 289.023438 643.835938 303.164062 636.511719 318.578125 636.230469 C 319.792969 636.210938 319.960938 637.613281 318.734375 637.792969 C 304.125 639.929688 291.003906 645.460938 280.53125 656.085938 C 279.582031 657.046875 277.332031 656.058594 278.484375 654.855469 Z M 323.839844 678.714844 C 325.773438 675.613281 326.882812 671.964844 326.882812 668.042969 C 326.882812 663.894531 325.632812 660.039062 323.496094 656.828125 C 329.667969 658.160156 335.867188 660.503906 341.957031 662.960938 C 337.511719 669.792969 331.1875 675.132812 323.839844 678.714844 Z M 314.378906 682.214844 C 310.792969 683.171875 307.242188 683.707031 303.707031 683.929688 C 296.179688 682.570312 290.441406 675.96875 290.441406 668.042969 C 290.441406 667.199219 290.511719 666.378906 290.632812 665.582031 C 290.632812 665.570312 290.632812 665.570312 290.632812 665.570312 C 290.992188 665.210938 291.363281 664.859375 291.734375 664.515625 C 299.742188 657.066406 308.367188 655.070312 317.203125 655.855469 C 320.613281 658.816406 322.765625 663.179688 322.765625 668.042969 C 322.765625 674.144531 319.367188 679.453125 314.378906 682.214844 Z M 274.921875 680.992188 C 279.179688 678.027344 282.808594 673.925781 286.421875 669.988281 C 286.960938 675.589844 289.78125 680.523438 293.941406 683.859375 C 287.589844 683.417969 281.253906 682.265625 274.921875 680.992188 Z M 343.726562 659.941406 C 336.191406 656.238281 327.898438 653.292969 319.574219 652.449219 C 316.640625 652.148438 313.703125 652.125 310.808594 652.421875 C 307.242188 652.78125 303.734375 653.617188 300.332031 655.058594 C 297.535156 656.238281 295.046875 657.816406 292.789062 659.644531 L 292.789062 659.652344 C 290.527344 661.464844 288.46875 663.511719 286.476562 665.652344 C 281.746094 670.753906 277.4375 676.339844 271.835938 680.359375 C 271.257812 680.789062 270.667969 681.183594 270.0625 681.570312 C 268.460938 682.570312 266.746094 683.445312 264.894531 684.148438 C 264.261719 684.382812 264.410156 685.257812 265.140625 685.148438 C 267.839844 684.695312 270.265625 683.777344 272.519531 682.511719 C 280.894531 685.589844 290.183594 687.15625 299.382812 686.988281 C 306.308594 686.863281 313.195312 685.765625 319.585938 683.613281 C 330.011719 680.101562 339.15625 673.777344 345.167969 664.269531 C 346.671875 664.894531 348.183594 665.5 349.675781 666.105469 C 350.9375 666.609375 352.667969 664.859375 351.183594 663.980469 C 349.757812 663.144531 348.296875 662.300781 346.785156 661.507812 C 345.78125 660.972656 344.753906 660.453125 343.726562 659.941406 Z M 719.535156 286.855469 C 713.800781 288.570312 707.671875 287.847656 700.222656 286.222656 C 699.402344 286.046875 698.582031 285.867188 697.757812 285.675781 C 691.789062 284.347656 685.617188 282.972656 679.304688 283.511719 C 673 284.042969 667.160156 286.457031 661.507812 288.789062 C 658.847656 289.886719 656.085938 291.023438 653.375 291.929688 C 636.972656 297.355469 617.457031 294.539062 602.441406 284.605469 C 601.835938 284.207031 601.066406 284.152344 600.410156 284.46875 C 599.761719 284.769531 599.328125 285.402344 599.257812 286.132812 C 598.5 293.882812 597.296875 299.988281 595.441406 305.351562 C 591.730469 316.1875 584.789062 324.519531 576.417969 328.226562 C 574.429688 329.089844 572.320312 329.75 570.097656 330.433594 C 565.726562 331.792969 561.199219 333.207031 557.578125 336.425781 C 555.386719 338.394531 553.738281 340.832031 552.160156 343.207031 C 549.996094 346.433594 547.949219 349.496094 544.8125 350.769531 C 541.945312 351.921875 538.210938 351.414062 534.824219 349.398438 C 534.566406 349.246094 534.304688 349.082031 534.058594 348.914062 C 539.203125 345.046875 543.605469 339.144531 546.589844 331.984375 C 548.882812 326.539062 550.359375 320.789062 551.792969 315.230469 C 552.902344 310.921875 554.050781 306.460938 555.546875 302.28125 L 555.660156 301.964844 C 555.949219 301.191406 555.75 300.328125 555.175781 299.765625 C 554.589844 299.191406 553.726562 299.027344 552.96875 299.328125 C 545.164062 302.5 537.691406 307.082031 530.78125 312.96875 C 529.546875 313.679688 528.320312 314.421875 527.117188 315.203125 C 535.398438 306.476562 542.078125 296.214844 546.472656 285.042969 C 576.242188 291.023438 609.914062 279.472656 631.335938 257.722656 C 663.152344 261.761719 694.40625 270.910156 723.648438 284.988281 C 722.363281 285.800781 720.957031 286.429688 719.535156 286.855469 Z M 510.113281 326.179688 C 508.6875 327.15625 507.230469 328.085938 505.765625 328.964844 C 503.652344 330.226562 501.511719 331.378906 499.34375 332.421875 C 486.769531 338.527344 473.207031 341.230469 459.269531 341.574219 C 457.832031 341.617188 456.394531 341.617188 454.9375 341.605469 C 454.894531 342.425781 454.855469 343.261719 454.789062 344.085938 C 454.539062 347.464844 454.085938 350.835938 453.347656 354.265625 C 450.585938 367.175781 444.859375 379.460938 436.554688 389.734375 C 424.246094 405.023438 407.210938 415.171875 388.527344 420.019531 C 387.28125 420.335938 386.035156 420.632812 384.773438 420.898438 C 385.046875 421.566406 385.292969 422.253906 385.539062 422.9375 C 396.308594 452.125 395.402344 484.710938 377.886719 511.632812 C 363.242188 534.136719 339.335938 548.914062 313.359375 553.746094 C 312.03125 553.992188 310.699219 554.210938 309.367188 554.402344 C 309.300781 555.089844 309.234375 555.785156 309.148438 556.472656 C 305.738281 587.429688 294.1875 616.613281 272.726562 639.925781 C 251.617188 662.851562 223.597656 676.742188 193.535156 682.679688 C 192.453125 682.898438 191.351562 683.101562 190.242188 683.296875 C 190.164062 684.039062 190.050781 684.765625 189.929688 685.492188 C 188.679688 693.671875 186.390625 701.589844 182.46875 709.136719 C 179.535156 714.800781 175.859375 720.058594 171.550781 724.765625 C 169.699219 726.78125 167.667969 728.546875 165.585938 730.261719 C 163.113281 731.996094 160.730469 733.710938 158.425781 735.367188 L 157.371094 736.121094 C 140.722656 748.089844 123.496094 760.464844 103.980469 766.613281 C 93.695312 769.859375 83.09375 770.976562 73.300781 769.945312 C 72.902344 769.902344 72.5 769.859375 72.105469 769.808594 C 71.351562 769.726562 70.601562 769.613281 69.855469 769.492188 C 69.378906 769.421875 68.886719 769.339844 68.402344 769.246094 C 67.429688 769.066406 66.46875 768.875 65.519531 768.640625 C 65.042969 768.53125 64.578125 768.425781 64.113281 768.296875 C 63.644531 768.171875 63.179688 768.050781 62.714844 767.914062 C 62.246094 767.777344 61.792969 767.640625 61.34375 767.503906 C 60.886719 767.351562 60.4375 767.203125 59.980469 767.050781 C 59.691406 766.957031 59.417969 766.84375 59.144531 766.746094 C 59.929688 765.019531 61.160156 763.429688 62.683594 762.191406 C 62.960938 761.972656 63.164062 761.6875 63.304688 761.371094 C 66.082031 754.523438 69.730469 748.128906 74.011719 742.050781 C 97.214844 751.96875 126.785156 742.832031 144.039062 725.671875 C 161.375 708.421875 169.328125 683.65625 168.027344 659.449219 C 197.265625 668.546875 229.691406 659.1875 251.136719 636.015625 C 275.066406 610.160156 281.324219 573.148438 271.601562 540.15625 C 302.554688 541.40625 333.148438 526.480469 349.484375 498.765625 C 359.207031 482.273438 362.9375 462.632812 359.085938 443.808594 C 356.234375 429.828125 348.980469 414.625 337.992188 404.484375 C 338.292969 403.976562 338.582031 403.472656 338.882812 402.972656 C 365.050781 404.855469 392.246094 401.617188 412.066406 382.820312 C 432.308594 363.613281 432.609375 335.554688 420.527344 312.324219 C 420.695312 312.203125 420.859375 312.0625 421.035156 311.949219 C 430.910156 318.46875 442.523438 321.871094 454.261719 322.257812 C 455.5 322.300781 456.722656 322.300781 457.941406 322.28125 C 468.664062 322.050781 479.378906 319.320312 488.882812 314.164062 C 507.667969 303.9375 520.589844 284.796875 523.84375 263.886719 C 527.527344 262.964844 531.246094 262.121094 534.976562 261.347656 C 536.363281 261.058594 537.746094 260.785156 539.148438 260.527344 C 557.675781 276.605469 585.3125 269.816406 605.34375 255.585938 C 612.53125 255.859375 619.722656 256.410156 626.878906 257.203125 C 618.570312 265.136719 609.128906 271.679688 598.132812 276.265625 C 581.507812 283.195312 564.65625 284.195312 547.582031 282.070312 C 546.492188 281.929688 545.410156 281.796875 544.328125 281.628906 C 544.003906 282.535156 543.644531 283.441406 543.273438 284.332031 C 536.484375 301.128906 525.183594 315.890625 510.113281 326.179688 Z M 496.757812 365.558594 C 491.378906 382.410156 489.03125 399.972656 487.878906 417.589844 C 478.074219 444.785156 476.605469 475.835938 472.890625 504.015625 C 467.351562 545.925781 455.730469 586.660156 439.054688 625.382812 C 438.523438 625.382812 437.988281 625.394531 437.449219 625.421875 C 436.808594 625.4375 436.175781 625.472656 435.527344 625.535156 C 435.449219 625.535156 435.367188 625.535156 435.296875 625.542969 C 434.804688 625.570312 434.324219 625.628906 433.84375 625.683594 C 433.566406 625.710938 433.292969 625.738281 433.035156 625.765625 C 432.652344 625.808594 432.265625 625.859375 431.882812 625.914062 C 431.664062 625.941406 431.457031 625.972656 431.253906 626.011719 C 430.964844 626.054688 430.679688 626.097656 430.402344 626.148438 C 429.976562 626.21875 429.566406 626.300781 429.140625 626.378906 C 428 626.601562 426.863281 626.847656 425.738281 627.152344 C 425.460938 625.972656 425.132812 624.804688 424.777344 623.667969 C 424.632812 623.160156 424.464844 622.664062 424.296875 622.167969 C 424.148438 621.71875 423.984375 621.265625 423.820312 620.828125 C 423.695312 620.496094 423.570312 620.167969 423.4375 619.835938 C 458.1875 544.492188 455.113281 457.902344 482.148438 379.816406 C 485.617188 369.761719 489.636719 359.933594 494.234375 350.382812 C 494.21875 350.367188 494.21875 350.367188 494.242188 350.359375 C 494.738281 349.769531 495.21875 349.179688 495.710938 348.589844 C 497.699219 346.214844 499.730469 343.910156 501.8125 341.683594 C 502.28125 341.175781 502.761719 340.683594 503.226562 340.191406 C 503.625 339.777344 504.035156 339.355469 504.445312 338.941406 C 505.082031 338.28125 505.722656 337.648438 506.367188 337.023438 C 507.847656 335.554688 509.355469 334.121094 510.894531 332.75 C 511.300781 332.371094 511.71875 332 512.140625 331.640625 C 512.46875 331.339844 512.800781 331.050781 513.144531 330.761719 C 513.71875 330.253906 514.296875 329.761719 514.886719 329.265625 C 515.414062 328.816406 515.957031 328.378906 516.488281 327.949219 C 507.96875 338.828125 501.199219 351.703125 496.757812 365.558594 Z M 486.613281 451.726562 C 486.480469 458.339844 486.332031 465.175781 486.085938 471.859375 C 484.109375 525.328125 475.359375 578.390625 460.089844 629.632812 C 460.082031 629.632812 460.082031 629.621094 460.070312 629.621094 C 459.480469 629.359375 458.875 629.125 458.269531 628.894531 C 458.121094 628.839844 457.96875 628.769531 457.804688 628.71875 C 457.214844 628.496094 456.640625 628.277344 456.035156 628.085938 C 455.871094 628.03125 455.691406 627.972656 455.511719 627.90625 C 454.882812 627.699219 454.242188 627.503906 453.59375 627.328125 C 453.566406 627.3125 453.554688 627.3125 453.523438 627.300781 C 452.800781 627.097656 452.058594 626.917969 451.316406 626.738281 C 448.132812 626 444.882812 625.558594 441.59375 625.4375 C 457.941406 589.296875 469.160156 550.816406 475 511.589844 C 478.9375 485.175781 480.035156 456.363281 487.21875 430.117188 C 486.929688 437.347656 486.769531 444.566406 486.613281 451.726562 Z M 472.917969 642.929688 C 473.601562 643.546875 474.605469 643.65625 475.398438 643.175781 C 482.488281 638.867188 490.761719 636.863281 498.675781 637.511719 C 504.011719 637.980469 509.382812 639.660156 514.210938 642.40625 C 514.804688 642.75 515.527344 642.78125 516.144531 642.464844 C 519.351562 640.871094 522.796875 640.089844 526.171875 640.214844 C 531.1875 640.390625 536.152344 642.121094 540.925781 645.332031 C 541.65625 645.824219 542.597656 645.796875 543.285156 645.289062 C 550.992188 639.660156 560.417969 636.453125 569.796875 636.273438 C 574.0625 636.203125 578.316406 636.742188 582.484375 637.867188 C 577.175781 644.621094 573.515625 652.753906 572.648438 661.015625 C 551.898438 653.195312 527.167969 659.574219 512.292969 675.984375 C 493.023438 656.8125 460.328125 653.125 437.257812 667.445312 C 430.171875 640.980469 400.996094 623.871094 374.46875 628.496094 C 375.585938 626 377.203125 623.734375 379.425781 621.980469 C 381.90625 620.019531 384.84375 618.917969 387.886719 618.492188 C 388.394531 618.425781 388.898438 618.367188 389.40625 618.339844 C 394.222656 618.023438 399.183594 619.234375 403.136719 621.222656 L 403.269531 621.292969 C 403.65625 621.496094 404.058594 621.691406 404.4375 621.910156 C 404.492188 621.9375 404.546875 621.980469 404.605469 622.007812 C 409.089844 624.515625 412.929688 627.933594 416 631.003906 C 416.441406 631.445312 416.867188 631.882812 417.277344 632.308594 C 417.453125 632.5 417.632812 632.679688 417.8125 632.871094 C 418.402344 633.503906 419.320312 633.679688 420.097656 633.351562 C 421.625 632.722656 423.171875 632.15625 424.695312 631.71875 C 424.722656 631.707031 424.753906 631.707031 424.777344 631.691406 C 424.792969 631.691406 424.792969 631.691406 424.808594 631.691406 C 428.890625 630.441406 433.0625 629.730469 437.242188 629.554688 C 438.066406 629.511719 438.890625 629.484375 439.71875 629.5 C 443.324219 629.511719 446.886719 629.921875 450.382812 630.742188 C 453.855469 631.558594 457.242188 632.765625 460.492188 634.339844 C 465.015625 636.546875 469.203125 639.429688 472.917969 642.929688 Z M 586.730469 638.867188 C 587.117188 638.789062 587.492188 638.59375 587.761719 638.304688 C 594.714844 631.242188 603.6875 626.371094 613.050781 624.585938 C 621.269531 623.019531 631.101562 624.859375 635.355469 630.960938 C 622.378906 631.171875 609.421875 636.359375 600.1875 645.523438 C 590.125 655.527344 585.269531 669.546875 585.921875 683.367188 C 576.339844 677.289062 563.777344 674.902344 553.425781 677.09375 C 534.246094 681.15625 521.109375 695.519531 514.445312 712.796875 C 507.136719 696.59375 490.386719 684.066406 473.410156 681.167969 C 461.917969 679.207031 450.179688 681.308594 439.984375 686.46875 C 437.78125 687.578125 435.65625 688.84375 433.609375 690.242188 C 431.730469 691.515625 429.917969 692.917969 428.203125 694.421875 C 427.878906 689.527344 426.917969 684.65625 425.339844 680.003906 C 425.039062 679.027344 424.683594 678.054688 424.296875 677.09375 C 422.3125 672.035156 419.609375 667.3125 416.277344 663.179688 C 405.730469 650.117188 389.4375 642.78125 372.921875 642.863281 C 372.226562 639.113281 372.347656 634.753906 373.609375 630.742188 C 386.59375 628.851562 399.558594 630.46875 411.296875 637.730469 C 423.050781 645 430.605469 656.003906 435.515625 668.589844 C 435.789062 669.300781 436.050781 670.015625 436.308594 670.726562 C 436.820312 670.441406 437.339844 670.152344 437.847656 669.878906 C 448.863281 663.925781 460.667969 660.601562 473.660156 661.78125 C 487.703125 663.058594 499.851562 669.316406 510.234375 678.398438 C 510.753906 678.835938 511.265625 679.300781 511.773438 679.757812 C 512.441406 679.003906 513.113281 678.273438 513.828125 677.578125 C 529.410156 661.683594 551.257812 656.84375 572.472656 663.828125 C 573.199219 664.058594 573.921875 664.320312 574.652344 664.59375 C 574.859375 663.757812 575.089844 662.921875 575.328125 662.097656 C 577.832031 653.25 581.429688 645.589844 586.730469 638.867188 Z M 635.328125 646.523438 C 628.46875 647.320312 621.789062 649.777344 616.277344 653.6875 C 605.523438 661.316406 599.460938 674.515625 600.09375 687.4375 L 600.09375 687.453125 C 598.40625 688.800781 596.691406 690.117188 594.933594 691.40625 C 593.101562 689.03125 590.890625 686.917969 588.417969 685.082031 C 587.722656 672.441406 591.5625 659.617188 600.078125 649.914062 C 609.613281 639.046875 623.09375 633.957031 636.867188 634.011719 C 638.203125 638.113281 637.132812 642.535156 635.328125 646.523438 Z M 631.347656 653.511719 C 623.476562 665.335938 613.859375 675.941406 602.984375 685.082031 C 603.589844 674.640625 607.773438 664.527344 616.074219 657.558594 C 621.378906 653.097656 627.441406 650.558594 633.746094 649.609375 C 632.96875 651.015625 632.144531 652.328125 631.347656 653.511719 Z M 589.914062 694.949219 C 589.332031 695.34375 588.742188 695.730469 588.144531 696.125 C 586.597656 697.140625 585.015625 698.140625 583.414062 699.101562 C 573.296875 692.476562 559.949219 690.679688 548.496094 694.972656 C 537.101562 699.257812 528.777344 708.925781 525.3125 720.21875 C 522.632812 720.617188 519.957031 720.933594 517.257812 721.179688 C 516.863281 719.355469 516.320312 717.570312 515.679688 715.8125 C 521.796875 699.925781 532.960938 686.277344 550.105469 681.101562 C 560.734375 677.902344 572.222656 678.757812 581.683594 684.859375 C 583.433594 685.984375 584.992188 687.207031 586.40625 688.511719 C 587.390625 689.417969 588.3125 690.375 589.148438 691.378906 C 589.894531 692.242188 590.578125 693.148438 591.207031 694.070312 C 590.78125 694.359375 590.359375 694.660156 589.914062 694.949219 Z M 527.695312 719.847656 C 531.273438 709.945312 538.773438 701.503906 548.828125 697.605469 C 559.632812 693.425781 571.160156 695.167969 580.714844 700.71875 C 564.363281 710.234375 546.316406 716.816406 527.695312 719.847656 Z M 513.734375 721.457031 C 513.046875 721.511719 512.347656 721.554688 511.644531 721.582031 C 511.386719 721.589844 511.125 721.605469 510.867188 721.617188 C 506.535156 721.8125 502.183594 721.828125 497.847656 721.632812 C 488.882812 701.050781 457.285156 693.550781 439.675781 707.378906 C 437.503906 706.375 435.351562 705.320312 433.214844 704.210938 C 432.265625 703.714844 431.332031 703.21875 430.402344 702.699219 C 429.671875 702.328125 428.964844 701.929688 428.261719 701.535156 C 428.316406 700.542969 428.359375 699.542969 428.359375 698.539062 C 428.359375 698.117188 428.359375 697.691406 428.328125 697.253906 C 428.976562 696.671875 429.632812 696.109375 430.304688 695.5625 C 432.703125 693.613281 435.261719 691.859375 437.929688 690.339844 C 448.792969 684.09375 461.628906 681.457031 474.222656 684.09375 C 493.023438 688.042969 505.65625 701.574219 512.582031 718.214844 C 513.003906 719.214844 513.402344 720.246094 513.785156 721.273438 C 513.796875 721.332031 513.828125 721.386719 513.839844 721.441406 C 513.8125 721.457031 513.777344 721.457031 513.734375 721.457031 Z M 443.035156 708.871094 C 451.25 703.65625 460.683594 701.175781 471.042969 704.210938 C 480.722656 707.0625 487.234375 713.332031 491.746094 721.25 C 475.140625 719.847656 458.664062 715.679688 443.035156 708.871094 Z M 425.519531 715.335938 C 424 718.230469 422.355469 721.085938 420.570312 723.910156 C 415.4375 732.128906 409.324219 740.0625 402.257812 747.648438 C 391.851562 758.832031 379.726562 769.148438 364.527344 779.648438 C 332.261719 795.273438 294.078125 797.152344 258.5 793.710938 C 216.109375 789.605469 173.363281 778.121094 130.542969 778.496094 C 141.515625 773.128906 151.351562 766.957031 159.589844 761.453125 C 159.605469 761.4375 159.617188 761.4375 159.632812 761.425781 C 201.761719 759.191406 243.152344 777.476562 285.421875 778.109375 C 327.226562 778.726562 368.738281 763.714844 400.410156 736.410156 C 408.691406 729.261719 416.261719 721.371094 422.996094 712.839844 C 424.632812 710.78125 426.207031 708.679688 427.726562 706.539062 C 427.824219 706.402344 427.9375 706.25 428.042969 706.117188 C 428.5625 706.402344 429.089844 706.679688 429.617188 706.964844 C 428.371094 709.777344 427 712.574219 425.519531 715.335938 Z M 337.90625 796.398438 C 330.019531 800.996094 322.617188 805.042969 315.554688 808.625 C 283.355469 815.949219 250.410156 819.464844 217.714844 812.753906 C 195.785156 808.242188 175.828125 796.742188 153.679688 793.273438 C 132.449219 789.949219 110.550781 797.390625 89.828125 791.277344 C 94.046875 790.773438 98.285156 789.992188 102.488281 788.949219 C 110.207031 787.027344 117.625 784.339844 124.632812 781.238281 C 173.15625 782.128906 220.335938 794.328125 268.804688 797.59375 C 296.3125 799.445312 324.992188 797.59375 350.9375 788.535156 C 346.8125 791.128906 342.476562 793.75 337.90625 796.398438 Z M 269.640625 826.863281 C 243.636719 834.023438 218.210938 834.84375 196.101562 829.203125 C 186.226562 826.695312 176.511719 822.785156 167.121094 819.027344 C 156.695312 814.839844 145.917969 810.503906 134.714844 807.980469 C 127.964844 806.441406 120.820312 805.480469 113.925781 804.550781 C 97.835938 802.351562 82.558594 800.285156 70.832031 791.804688 C 71.472656 791.859375 72.121094 791.902344 72.765625 791.925781 C 73.78125 791.980469 74.792969 792.007812 75.808594 792.035156 C 76.414062 792.050781 77.019531 792.050781 77.617188 792.050781 C 80.84375 792.050781 84.105469 791.882812 87.398438 791.558594 C 105.554688 799.84375 126.304688 794.023438 145.617188 795.453125 C 170.304688 797.265625 192.257812 810.863281 216.316406 815.800781 C 245.390625 821.78125 274.738281 819.933594 303.582031 814.390625 C 291.722656 819.792969 280.664062 823.839844 269.640625 826.863281 Z M 467.332031 385.320312 C 450.601562 419.9375 443.144531 456.914062 435.761719 498.203125 L 434.679688 504.28125 C 433.554688 510.59375 432.429688 516.945312 431.253906 523.3125 C 430.867188 525.433594 430.46875 527.5625 430.058594 529.691406 C 429.660156 531.816406 429.25 533.945312 428.824219 536.066406 C 427.945312 540.542969 427.03125 545.019531 426.054688 549.488281 C 425.660156 551.355469 425.242188 553.21875 424.820312 555.089844 C 424.570312 556.199219 424.308594 557.308594 424.070312 558.421875 C 423.820312 559.453125 423.570312 560.480469 423.324219 561.511719 C 423.0625 562.566406 422.816406 563.621094 422.558594 564.667969 C 422.296875 565.722656 422.03125 566.78125 421.765625 567.820312 C 421.484375 568.875 421.222656 569.921875 420.941406 570.964844 C 420.582031 572.347656 420.210938 573.71875 419.832031 575.109375 C 419.550781 576.121094 419.269531 577.125 418.980469 578.136719 C 418.964844 578.222656 418.9375 578.304688 418.910156 578.390625 C 418.425781 580.085938 417.917969 581.785156 417.414062 583.476562 C 416.140625 587.730469 414.777344 591.953125 413.328125 596.140625 C 412.652344 598.074219 411.957031 599.984375 411.242188 601.902344 C 411.226562 601.945312 411.214844 601.988281 411.183594 602.042969 C 411.050781 601.917969 410.925781 601.804688 410.792969 601.699219 C 410.488281 601.4375 410.1875 601.179688 409.871094 600.941406 C 409.691406 600.792969 409.511719 600.644531 409.335938 600.519531 C 409.035156 600.273438 408.734375 600.035156 408.429688 599.832031 C 407.992188 599.5 407.542969 599.175781 407.070312 598.875 C 407.023438 598.832031 406.960938 598.789062 406.910156 598.761719 C 406.582031 598.542969 406.25 598.320312 405.90625 598.128906 C 405.632812 597.941406 405.355469 597.773438 405.070312 597.609375 C 403.984375 596.964844 402.890625 596.375 401.765625 595.839844 C 401.203125 595.566406 400.628906 595.304688 400.050781 595.070312 C 399.558594 594.855469 399.050781 594.644531 398.539062 594.46875 C 398.433594 594.414062 398.320312 594.371094 398.214844 594.34375 C 397.828125 594.195312 397.457031 594.054688 397.078125 593.949219 C 396.816406 593.851562 396.554688 593.765625 396.28125 593.6875 C 395.976562 593.574219 395.691406 593.492188 395.386719 593.414062 C 394.910156 593.273438 394.441406 593.140625 393.960938 593.027344 C 393.90625 593 393.851562 592.984375 393.792969 592.984375 C 393.308594 592.847656 392.808594 592.738281 392.316406 592.640625 C 392.082031 592.585938 391.851562 592.535156 391.628906 592.492188 C 391.136719 592.394531 390.644531 592.3125 390.136719 592.242188 C 390.039062 592.21875 389.941406 592.199219 389.847656 592.191406 C 389.214844 592.09375 388.570312 592.011719 387.9375 591.953125 C 387.28125 591.890625 386.609375 591.832031 385.953125 591.804688 C 385.292969 591.765625 384.621094 591.75 383.964844 591.75 C 377.957031 591.75 372.070312 593.140625 366.953125 596.03125 C 355.464844 602.550781 347.796875 616.503906 347.425781 631.585938 C 347.101562 645.261719 352.488281 658.640625 361.855469 667.382812 C 362.636719 668.105469 363.445312 668.792969 364.28125 669.453125 C 364.585938 669.699219 364.898438 669.945312 365.214844 670.179688 C 365.335938 670.261719 365.449219 670.355469 365.570312 670.425781 C 365.820312 670.621094 366.082031 670.796875 366.339844 670.972656 C 366.644531 671.183594 366.945312 671.386719 367.242188 671.578125 C 368.808594 672.609375 370.441406 673.53125 372.128906 674.324219 C 372.664062 674.585938 373.210938 674.832031 373.757812 675.050781 C 374.308594 675.296875 374.855469 675.503906 375.40625 675.710938 C 376.066406 675.957031 376.738281 676.1875 377.40625 676.398438 C 377.863281 676.546875 378.328125 676.679688 378.792969 676.804688 C 379.261719 676.945312 379.726562 677.066406 380.207031 677.164062 C 381.398438 677.464844 382.617188 677.699219 383.824219 677.875 C 383.703125 678.054688 383.578125 678.21875 383.445312 678.386719 C 383.003906 678.960938 382.539062 679.523438 382.054688 680.074219 C 381.453125 680.769531 380.835938 681.457031 380.207031 682.132812 C 380.179688 682.171875 380.136719 682.195312 380.097656 682.238281 C 379.769531 682.582031 379.425781 682.941406 379.082031 683.285156 C 378.707031 683.65625 378.339844 684.007812 377.957031 684.367188 C 377.582031 684.726562 377.1875 685.082031 376.804688 685.441406 C 376.339844 685.847656 375.867188 686.257812 375.390625 686.671875 C 375.074219 686.933594 374.75 687.207031 374.417969 687.472656 C 373.992188 687.824219 373.554688 688.15625 373.125 688.484375 C 372.746094 688.785156 372.359375 689.074219 371.980469 689.363281 C 370.796875 690.226562 369.578125 691.050781 368.316406 691.84375 C 368.027344 692.039062 367.738281 692.214844 367.4375 692.398438 C 366.996094 692.667969 366.558594 692.925781 366.125 693.191406 C 365.667969 693.464844 365.203125 693.726562 364.738281 693.988281 C 363.839844 694.480469 362.9375 694.957031 362.019531 695.425781 C 361.089844 695.890625 360.128906 696.355469 359.164062 696.785156 C 358.671875 697.007812 358.195312 697.226562 357.695312 697.429688 C 357.210938 697.648438 356.710938 697.851562 356.21875 698.046875 C 355.726562 698.253906 355.234375 698.449219 354.722656 698.636719 C 354.285156 698.816406 353.835938 698.976562 353.394531 699.144531 C 351.691406 699.761719 349.949219 700.324219 348.183594 700.832031 C 347.769531 700.957031 347.347656 701.0625 346.921875 701.191406 C 346.46875 701.316406 346.011719 701.4375 345.5625 701.546875 C 345.054688 701.683594 344.550781 701.808594 344.042969 701.914062 C 343.382812 702.082031 342.707031 702.230469 342.039062 702.371094 C 322.316406 706.539062 301.5625 704.589844 281.515625 702.714844 L 278.933594 702.476562 C 256.679688 700.394531 235.007812 698.976562 214.628906 704.578125 C 201.144531 708.300781 188.640625 715.035156 177.390625 722.265625 C 179.863281 719.082031 182.015625 715.777344 183.84375 712.644531 C 188.695312 704.316406 192.203125 694.796875 193.320312 685.097656 C 256.8125 676.902344 309.632812 620.054688 313.253906 555.980469 C 340.472656 552.109375 365.914062 536.425781 381.125 513.277344 C 398.199219 487.265625 402.164062 451.09375 389.53125 422.242188 C 408.84375 418.347656 426.742188 407.601562 439.21875 392.25 C 449.628906 379.445312 457.242188 361.90625 459.039062 344.375 C 472.082031 344.949219 484.941406 342.179688 496.757812 336.882812 C 498.835938 335.933594 500.882812 334.921875 502.894531 333.824219 C 503.570312 333.46875 504.242188 333.09375 504.898438 332.714844 C 504.445312 333.136719 504.011719 333.574219 503.570312 334 C 502.964844 334.578125 502.375 335.167969 501.796875 335.773438 L 501.785156 335.785156 C 501.636719 335.921875 501.496094 336.074219 501.359375 336.214844 C 499.976562 337.621094 498.613281 339.0625 497.277344 340.53125 C 495.0625 342.960938 492.898438 345.484375 490.789062 348.089844 C 481.847656 359.136719 473.917969 371.667969 467.332031 385.320312 Z M 421.335938 615.214844 C 420.640625 613.828125 419.851562 612.5 419.023438 611.207031 C 418.757812 610.785156 418.46875 610.355469 418.171875 609.945312 C 417.976562 609.632812 417.757812 609.324219 417.523438 609.023438 C 417.398438 608.847656 417.277344 608.683594 417.140625 608.503906 C 416.890625 608.164062 416.632812 607.828125 416.359375 607.503906 C 416.140625 607.214844 415.894531 606.914062 415.65625 606.625 C 415.375 606.296875 415.09375 605.964844 414.8125 605.636719 C 414.671875 605.488281 414.546875 605.347656 414.410156 605.199219 C 417.140625 598.003906 419.578125 590.695312 421.765625 583.296875 C 422.03125 582.417969 422.285156 581.539062 422.53125 580.660156 C 422.816406 579.703125 423.09375 578.730469 423.367188 577.757812 C 424.308594 574.363281 425.214844 570.964844 426.082031 567.535156 C 426.285156 566.695312 426.488281 565.859375 426.699219 565.023438 C 426.90625 564.226562 427.09375 563.402344 427.289062 562.59375 C 427.550781 561.539062 427.796875 560.464844 428.042969 559.410156 C 428.289062 558.355469 428.535156 557.28125 428.78125 556.214844 C 429.265625 554.085938 429.742188 551.945312 430.195312 549.804688 C 433.433594 534.851562 436.105469 519.8125 438.742188 504.992188 L 439.824219 498.914062 C 447.136719 457.945312 454.539062 421.25 471.042969 387.105469 C 471.738281 385.644531 472.464844 384.203125 473.207031 382.777344 C 473.230469 382.699219 473.273438 382.613281 473.316406 382.546875 C 474.058594 381.105469 474.8125 379.691406 475.578125 378.277344 C 476.292969 376.964844 477.03125 375.660156 477.773438 374.371094 C 477.882812 374.160156 478.003906 373.972656 478.128906 373.761719 C 479.570312 371.28125 481.066406 368.839844 482.597656 366.453125 C 458.355469 427.207031 455.632812 497.558594 440.484375 560.140625 C 435.789062 579.507812 430.042969 598.75 422.296875 617.152344 C 422.214844 616.96875 422.117188 616.792969 422.03125 616.613281 C 421.800781 616.132812 421.566406 615.667969 421.335938 615.214844 Z M 423.695312 698.855469 C 421.503906 697.527344 419.332031 696.125 417.222656 694.683594 C 416.78125 694.394531 416.328125 694.09375 415.894531 693.78125 C 415.796875 692.875 415.671875 691.996094 415.496094 691.117188 C 412.378906 674.15625 397.421875 660.863281 380.316406 659.121094 C 378.125 655.964844 376.007812 652.398438 374.539062 648.542969 C 374.539062 648.527344 374.53125 648.515625 374.53125 648.5 L 374.53125 648.488281 C 374.046875 647.222656 373.636719 645.933594 373.324219 644.65625 C 389.574219 645.386719 405.292969 652.835938 415.152344 666.203125 C 418.347656 670.535156 420.703125 675.132812 422.296875 679.882812 C 422.761719 681.210938 423.15625 682.539062 423.480469 683.902344 C 424.597656 688.316406 425.097656 692.863281 425.039062 697.417969 C 424.589844 697.894531 424.132812 698.363281 423.695312 698.855469 Z M 287.382812 750.449219 C 324.636719 753.660156 360.691406 747.28125 390.546875 723.597656 C 399.242188 716.691406 407.058594 708.75 413.617188 699.882812 C 414.054688 699.292969 414.480469 698.695312 414.90625 698.089844 C 415.289062 698.351562 415.683594 698.625 416.082031 698.882812 C 417.714844 699.980469 419.363281 701.035156 421.035156 702.054688 C 421.222656 702.160156 421.40625 702.273438 421.597656 702.398438 C 421.953125 702.617188 422.3125 702.835938 422.664062 703.058594 C 422.96875 703.234375 423.269531 703.410156 423.570312 703.578125 C 423.859375 703.753906 424.164062 703.9375 424.464844 704.113281 C 405.167969 730.757812 378.917969 751.832031 347.753906 763.703125 C 326.933594 771.636719 304.5 775.351562 282.238281 774.566406 C 257.84375 773.71875 234.183594 767.214844 210.28125 762.878906 C 194.578125 760.027344 178.683594 758.171875 162.9375 759.199219 C 165.328125 757.582031 167.726562 755.949219 170.113281 754.300781 C 176.300781 750.078125 182.535156 745.796875 188.890625 741.792969 C 221.804688 740.253906 254.125 747.566406 287.382812 750.449219 Z M 393.34375 674.691406 L 393.328125 674.683594 C 392.480469 673.804688 391.65625 672.925781 390.820312 672.003906 C 388.625 669.632812 386.558594 667.230469 384.648438 664.867188 C 383.910156 663.953125 383.128906 662.976562 382.347656 661.929688 C 397.222656 665.296875 407.992188 676.109375 412.050781 691.007812 C 412.023438 691.007812 412 690.992188 411.980469 690.964844 C 407.976562 688 404.125 684.859375 400.449219 681.527344 L 400.433594 681.511719 C 398.089844 679.414062 395.71875 677.121094 393.34375 674.691406 Z M 397.800781 688.359375 C 398.363281 687.632812 398.914062 686.890625 399.417969 686.152344 L 399.4375 686.136719 C 399.488281 686.179688 399.527344 686.222656 399.585938 686.277344 C 400.652344 687.207031 401.722656 688.125 402.820312 689.019531 C 402.863281 689.058594 402.917969 689.101562 402.972656 689.144531 C 404.027344 690.023438 405.097656 690.886719 406.179688 691.738281 C 406.398438 691.898438 406.621094 692.082031 406.855469 692.242188 C 407.730469 692.941406 408.625 693.613281 409.527344 694.273438 C 409.800781 694.480469 410.066406 694.675781 410.335938 694.863281 C 410.882812 695.289062 411.460938 695.6875 412.023438 696.085938 C 394.824219 719.550781 370.660156 737.246094 341.941406 744.6875 C 302.757812 754.835938 262.449219 743.410156 223.203125 739.8125 C 213.488281 738.925781 203.5625 738.386719 193.714844 738.828125 C 208.800781 729.8125 224.574219 722.742188 241.769531 721.703125 C 253.15625 721.019531 264.726562 723.074219 275.917969 725.0625 C 281.582031 726.078125 287.425781 727.121094 293.226562 727.808594 C 319.53125 730.921875 345.464844 726.480469 366.230469 715.308594 C 368.113281 714.292969 369.949219 713.234375 371.742188 712.109375 C 372.457031 711.671875 373.167969 711.203125 373.871094 710.738281 C 374.679688 710.21875 375.488281 709.671875 376.28125 709.109375 C 377.75 708.0625 379.207031 706.992188 380.605469 705.882812 C 381.097656 705.496094 381.578125 705.113281 382.039062 704.714844 C 382.265625 704.550781 382.480469 704.371094 382.6875 704.191406 C 383.320312 703.65625 383.953125 703.121094 384.570312 702.574219 C 384.605469 702.546875 384.640625 702.519531 384.664062 702.496094 C 385.195312 702.027344 385.730469 701.546875 386.25 701.0625 C 386.539062 700.804688 386.839844 700.53125 387.128906 700.242188 C 387.488281 699.910156 387.84375 699.566406 388.203125 699.214844 C 388.542969 698.898438 388.871094 698.570312 389.203125 698.238281 C 389.53125 697.910156 389.863281 697.578125 390.179688 697.253906 C 390.503906 696.921875 390.820312 696.578125 391.121094 696.25 C 391.558594 695.792969 391.984375 695.34375 392.386719 694.878906 C 392.507812 694.765625 392.617188 694.640625 392.710938 694.519531 C 393.222656 693.972656 393.714844 693.425781 394.179688 692.863281 C 394.382812 692.628906 394.582031 692.40625 394.757812 692.175781 C 395.144531 691.738281 395.507812 691.296875 395.851562 690.84375 C 396.085938 690.570312 396.308594 690.296875 396.527344 690.023438 C 396.964844 689.46875 397.390625 688.921875 397.800781 688.359375 Z M 398.96875 609.148438 C 398.71875 608.972656 398.472656 608.789062 398.230469 608.628906 C 397.554688 608.171875 396.871094 607.75 396.15625 607.363281 C 395.882812 607.214844 395.621094 607.074219 395.347656 606.941406 C 395.101562 606.800781 394.839844 606.675781 394.59375 606.554688 C 394.015625 606.296875 393.429688 606.046875 392.835938 605.816406 C 392.550781 605.703125 392.273438 605.609375 391.984375 605.515625 C 391.65625 605.390625 391.3125 605.277344 390.988281 605.183594 C 390.453125 605.015625 389.914062 604.882812 389.371094 604.757812 C 386.679688 604.140625 383.910156 603.976562 381.167969 604.320312 C 368 605.992188 357.714844 619.054688 359.164062 632.269531 C 359.320312 633.625 359.59375 634.972656 359.988281 636.289062 C 360.097656 636.671875 360.226562 637.046875 360.375 637.425781 C 360.691406 638.347656 361.070312 639.253906 361.511719 640.144531 C 361.71875 640.558594 361.941406 640.96875 362.171875 641.367188 C 362.390625 641.761719 362.636719 642.160156 362.898438 642.5625 C 363.089844 642.878906 363.3125 643.203125 363.558594 643.519531 C 363.585938 643.574219 363.621094 643.628906 363.679688 643.699219 C 363.9375 644.082031 364.226562 644.464844 364.542969 644.839844 C 364.554688 644.867188 364.570312 644.875 364.585938 644.902344 C 364.597656 644.902344 364.597656 644.902344 364.597656 644.902344 C 364.871094 645.246094 365.160156 645.589844 365.464844 645.921875 C 365.667969 646.152344 365.886719 646.386719 366.109375 646.617188 C 366.3125 646.839844 366.519531 647.03125 366.722656 647.242188 C 366.808594 647.320312 366.890625 647.402344 366.96875 647.472656 C 367.257812 647.746094 367.550781 648.023438 367.839844 648.253906 C 367.890625 648.308594 367.929688 648.367188 367.984375 648.394531 C 368.300781 648.675781 368.632812 648.957031 368.972656 649.203125 C 369.300781 649.460938 369.632812 649.722656 369.976562 649.941406 C 370.167969 650.082031 370.34375 650.214844 370.539062 650.339844 C 370.660156 650.433594 370.796875 650.53125 370.933594 650.613281 C 371.015625 650.832031 371.113281 651.050781 371.207031 651.261719 C 371.375 651.683594 371.566406 652.105469 371.769531 652.535156 C 372.78125 654.796875 373.992188 656.953125 375.253906 658.957031 C 375.707031 659.667969 376.175781 660.371094 376.625 661.042969 C 376.84375 661.367188 377.0625 661.675781 377.285156 661.992188 C 378.699219 664.003906 380.121094 665.828125 381.441406 667.445312 C 383.222656 669.660156 385.125 671.878906 387.128906 674.078125 C 386.96875 674.078125 386.8125 674.0625 386.652344 674.050781 C 386.351562 674.035156 386.0625 674.007812 385.773438 673.964844 C 385.351562 673.925781 384.9375 673.882812 384.527344 673.8125 C 384.007812 673.75 383.480469 673.664062 382.960938 673.558594 C 382.539062 673.488281 382.125 673.40625 381.714844 673.292969 C 381.082031 673.171875 380.453125 673.003906 379.824219 672.828125 C 379.328125 672.6875 378.835938 672.539062 378.339844 672.378906 C 377.835938 672.210938 377.324219 672.046875 376.832031 671.851562 C 376.339844 671.660156 375.84375 671.472656 375.347656 671.261719 C 374.855469 671.058594 374.378906 670.839844 373.898438 670.605469 C 373.414062 670.382812 372.9375 670.136719 372.457031 669.890625 C 372.15625 669.726562 371.839844 669.5625 371.539062 669.382812 C 369.054688 667.984375 366.738281 666.292969 364.652344 664.359375 C 356.148438 656.417969 351.242188 644.207031 351.542969 631.691406 C 351.867188 618.011719 358.726562 605.429688 368.984375 599.613281 C 373.5 597.0625 378.679688 595.824219 384.007812 595.824219 C 393.46875 595.824219 403.3125 599.722656 410.390625 606.941406 C 410.433594 606.984375 410.488281 607.035156 410.542969 607.089844 C 410.542969 607.089844 410.558594 607.105469 410.574219 607.117188 C 410.574219 607.132812 410.585938 607.144531 410.59375 607.160156 C 411.601562 608.199219 412.546875 609.289062 413.441406 610.441406 C 414.367188 611.644531 415.234375 612.894531 416.027344 614.199219 C 416.277344 614.59375 416.507812 614.980469 416.746094 615.375 C 416.753906 615.394531 416.753906 615.402344 416.765625 615.417969 C 417.003906 615.84375 417.25 616.273438 417.46875 616.710938 C 417.484375 616.722656 417.496094 616.738281 417.496094 616.75 C 417.714844 617.160156 417.917969 617.574219 418.128906 617.996094 C 418.152344 618.050781 418.179688 618.109375 418.207031 618.148438 C 418.417969 618.578125 418.621094 619.015625 418.8125 619.457031 C 419.234375 620.414062 419.648438 621.402344 420.019531 622.402344 L 420.019531 622.417969 C 420.15625 622.789062 420.296875 623.167969 420.414062 623.539062 C 420.539062 623.898438 420.660156 624.257812 420.757812 624.613281 C 420.828125 624.789062 420.882812 624.953125 420.921875 625.132812 L 420.941406 625.148438 C 421.257812 626.191406 421.546875 627.25 421.785156 628.316406 C 421.777344 628.316406 421.75 628.332031 421.734375 628.34375 C 421.089844 628.550781 420.457031 628.78125 419.832031 629.027344 C 419.632812 628.839844 419.457031 628.648438 419.269531 628.453125 C 418.8125 628 418.359375 627.546875 417.878906 627.082031 L 417.863281 627.082031 C 417.195312 626.414062 416.484375 625.753906 415.738281 625.078125 C 414.753906 624.1875 413.710938 623.308594 412.613281 622.445312 C 412.035156 621.992188 411.4375 621.550781 410.832031 621.101562 C 410.433594 620.8125 410.023438 620.539062 409.597656 620.265625 C 409.378906 620.109375 409.167969 619.976562 408.949219 619.824219 C 408.605469 619.605469 408.253906 619.386719 407.894531 619.175781 C 407.664062 619.027344 407.429688 618.894531 407.199219 618.753906 C 407.199219 618.738281 407.183594 618.738281 407.183594 618.738281 C 407.058594 618.464844 406.910156 618.191406 406.757812 617.917969 C 406.460938 617.382812 406.136719 616.859375 405.8125 616.335938 C 405.496094 615.832031 405.140625 615.324219 404.765625 614.839844 C 404.589844 614.59375 404.402344 614.363281 404.203125 614.117188 C 404.027344 613.882812 403.839844 613.652344 403.628906 613.414062 C 403.234375 612.949219 402.820312 612.507812 402.398438 612.085938 C 402.1875 611.867188 401.96875 611.644531 401.75 611.453125 C 401.535156 611.234375 401.316406 611.03125 401.082031 610.835938 C 400.410156 610.230469 399.691406 609.667969 398.96875 609.148438 Z M 368.394531 639.539062 C 368.4375 640.417969 368.523438 641.3125 368.640625 642.203125 C 368.683594 642.476562 368.726562 642.765625 368.78125 643.039062 C 368.667969 643.054688 368.550781 643.054688 368.4375 643.066406 C 368 642.597656 367.601562 642.105469 367.234375 641.597656 C 367.011719 641.3125 366.808594 641.023438 366.613281 640.722656 C 366.339844 640.335938 366.082031 639.925781 365.84375 639.5 C 365.667969 639.183594 365.492188 638.867188 365.324219 638.550781 C 365.148438 638.199219 364.96875 637.839844 364.804688 637.46875 C 364.652344 637.109375 364.5 636.742188 364.367188 636.371094 C 364.226562 636.027344 364.105469 635.675781 364.007812 635.316406 C 363.980469 635.289062 363.980469 635.261719 363.964844 635.234375 C 363.859375 634.859375 363.761719 634.488281 363.664062 634.121094 C 363.613281 633.890625 363.558594 633.652344 363.515625 633.40625 C 363.472656 633.257812 363.445312 633.089844 363.417969 632.929688 L 363.417969 632.914062 C 363.40625 632.84375 363.390625 632.773438 363.382812 632.695312 C 363.339844 632.429688 363.296875 632.15625 363.269531 631.882812 C 363.253906 631.859375 363.253906 631.84375 363.253906 631.816406 C 362.0625 620.933594 370.855469 609.78125 381.6875 608.410156 C 382.855469 608.257812 384.035156 608.230469 385.195312 608.296875 C 385.40625 608.3125 385.609375 608.324219 385.8125 608.355469 C 385.941406 608.367188 386.074219 608.382812 386.199219 608.394531 C 386.285156 608.394531 386.363281 608.410156 386.445312 608.417969 C 386.707031 608.460938 386.980469 608.503906 387.242188 608.542969 C 387.886719 608.65625 388.527344 608.789062 389.160156 608.972656 C 389.242188 608.980469 389.328125 609.007812 389.40625 609.042969 C 389.710938 609.121094 389.996094 609.21875 390.285156 609.316406 C 390.46875 609.367188 390.628906 609.421875 390.792969 609.492188 C 391.039062 609.570312 391.289062 609.667969 391.535156 609.765625 C 391.867188 609.886719 392.191406 610.027344 392.507812 610.175781 C 394.59375 611.125 396.570312 612.386719 398.3125 613.925781 C 398.582031 614.15625 398.855469 614.417969 399.121094 614.664062 C 399.367188 614.898438 399.601562 615.128906 399.820312 615.375 C 399.871094 615.417969 399.914062 615.472656 399.945312 615.515625 C 399.886719 615.5 399.84375 615.472656 399.789062 615.472656 C 399.28125 615.308594 398.761719 615.171875 398.25 615.050781 C 397.527344 614.855469 396.800781 614.707031 396.085938 614.582031 C 395.566406 614.488281 395.042969 614.40625 394.523438 614.347656 C 393.976562 614.277344 393.414062 614.222656 392.867188 614.199219 C 392.765625 614.1875 392.683594 614.171875 392.589844 614.1875 C 392.082031 614.144531 391.578125 614.128906 391.066406 614.128906 C 385.746094 614.128906 380.753906 615.683594 376.871094 618.738281 C 373.46875 621.417969 371.003906 625.21875 369.632812 629.589844 C 369.425781 630.238281 369.246094 630.882812 369.097656 631.542969 C 368.605469 633.625 368.359375 635.824219 368.359375 638.074219 C 368.359375 638.566406 368.367188 639.046875 368.394531 639.539062 Z M 68.183594 787.441406 C 67.226562 787.328125 66.277344 787.207031 65.332031 787.070312 C 60.449219 782.050781 57.855469 776.0625 58.1875 770.78125 C 58.609375 770.933594 59.035156 771.082031 59.472656 771.222656 C 59.859375 771.355469 60.253906 771.480469 60.65625 771.59375 C 61.617188 771.894531 62.574219 772.164062 63.558594 772.402344 C 63.972656 772.507812 64.386719 772.605469 64.796875 772.703125 C 65.246094 772.816406 65.703125 772.910156 66.152344 773.007812 C 66.976562 773.167969 67.796875 773.335938 68.640625 773.457031 C 69.335938 773.597656 70.0625 773.695312 70.789062 773.785156 C 71.296875 773.871094 71.816406 773.925781 72.324219 773.976562 C 72.78125 774.035156 73.246094 774.089844 73.695312 774.117188 C 74.3125 774.1875 74.929688 774.222656 75.550781 774.265625 C 76 774.292969 76.457031 774.320312 76.90625 774.347656 C 86.09375 774.785156 95.789062 773.511719 105.214844 770.535156 C 125.363281 764.179688 142.847656 751.628906 159.773438 739.472656 L 160.8125 738.714844 C 175.957031 727.851562 194.796875 714.316406 215.722656 708.554688 C 235.460938 703.121094 255.855469 704.441406 278.554688 706.566406 L 281.128906 706.8125 C 301.5 708.722656 322.546875 710.699219 342.890625 706.402344 C 344.109375 706.144531 345.328125 705.867188 346.523438 705.554688 C 347.726562 705.25 348.910156 704.921875 350.089844 704.5625 C 350.433594 704.464844 350.757812 704.371094 351.089844 704.261719 C 353.886719 703.382812 356.605469 702.382812 359.234375 701.257812 C 359.699219 701.0625 360.167969 700.859375 360.636719 700.640625 C 361.84375 700.105469 363.039062 699.53125 364.199219 698.941406 C 364.640625 698.722656 365.050781 698.5 365.476562 698.265625 C 366.011719 697.992188 366.53125 697.703125 367.039062 697.402344 C 367.671875 697.058594 368.289062 696.699219 368.894531 696.332031 C 369.289062 696.101562 369.6875 695.855469 370.074219 695.605469 C 370.582031 695.300781 371.058594 694.984375 371.539062 694.660156 C 372.03125 694.34375 372.511719 694.027344 372.980469 693.683594 C 373.457031 693.367188 373.925781 693.023438 374.378906 692.679688 C 374.839844 692.355469 375.296875 692.011719 375.75 691.652344 C 376.199219 691.324219 376.640625 690.964844 377.078125 690.59375 C 377.519531 690.253906 377.957031 689.898438 378.382812 689.511719 C 378.808594 689.167969 379.234375 688.800781 379.640625 688.414062 C 380.070312 688.042969 380.480469 687.660156 380.878906 687.277344 C 381.289062 686.90625 381.6875 686.507812 382.074219 686.109375 C 382.46875 685.722656 382.855469 685.328125 383.222656 684.929688 C 383.992188 684.132812 384.71875 683.3125 385.414062 682.476562 C 385.773438 682.0625 386.117188 681.648438 386.445312 681.226562 C 386.785156 680.796875 387.128906 680.375 387.433594 679.933594 C 387.707031 679.609375 387.953125 679.265625 388.203125 678.90625 C 388.351562 678.703125 388.5 678.492188 388.652344 678.273438 C 388.859375 678.273438 389.054688 678.273438 389.257812 678.273438 C 389.78125 678.273438 390.300781 678.273438 390.820312 678.234375 C 390.902344 678.246094 390.972656 678.234375 391.050781 678.234375 C 392.824219 680.015625 394.582031 681.730469 396.332031 683.355469 C 396.238281 683.515625 396.128906 683.679688 396.007812 683.832031 C 395.523438 684.519531 395.03125 685.191406 394.523438 685.863281 C 394.179688 686.328125 393.828125 686.796875 393.441406 687.261719 C 393.273438 687.496094 393.082031 687.726562 392.894531 687.964844 C 392.605469 688.316406 392.316406 688.6875 392 689.046875 C 391.613281 689.539062 391.207031 690.023438 390.777344 690.488281 C 390.65625 690.648438 390.519531 690.816406 390.355469 690.980469 C 389.96875 691.433594 389.574219 691.871094 389.160156 692.3125 C 388.886719 692.644531 388.585938 692.96875 388.269531 693.285156 C 387.722656 693.875 387.15625 694.453125 386.582031 695.027344 C 386.117188 695.511719 385.636719 695.988281 385.160156 696.441406 C 384.296875 697.289062 383.410156 698.105469 382.511719 698.914062 C 382.097656 699.285156 381.6875 699.652344 381.265625 699.996094 C 380.972656 700.253906 380.683594 700.515625 380.386719 700.761719 C 379.890625 701.175781 379.394531 701.574219 378.902344 701.957031 C 377.996094 702.714844 377.078125 703.425781 376.148438 704.125 C 375.734375 704.429688 375.3125 704.746094 374.882812 705.03125 C 374.445312 705.363281 374.019531 705.679688 373.566406 705.976562 C 372.664062 706.609375 371.726562 707.238281 370.796875 707.832031 C 369.484375 708.695312 368.148438 709.503906 366.777344 710.296875 C 365.957031 710.765625 365.121094 711.230469 364.28125 711.6875 C 344.261719 722.460938 319.1875 726.726562 293.71875 723.71875 C 288.03125 723.050781 282.238281 722.019531 276.648438 721.019531 C 265.207031 718.96875 253.386719 716.875 241.523438 717.585938 C 220.8125 718.835938 202.378906 728.257812 184.839844 739.5 C 183.34375 740.445312 181.847656 741.417969 180.371094 742.390625 C 176.144531 745.191406 171.949219 748.058594 167.792969 750.914062 C 164.28125 753.316406 160.800781 755.699219 157.3125 758.023438 C 156.300781 758.691406 155.273438 759.378906 154.214844 760.0625 C 153.144531 760.765625 152.046875 761.480469 150.925781 762.179688 C 141.875 767.96875 131.296875 774.0625 119.726562 778.867188 C 117.707031 779.703125 115.648438 780.496094 113.566406 781.238281 C 109.644531 782.664062 105.609375 783.914062 101.496094 784.945312 C 93.503906 786.933594 85.40625 787.933594 77.589844 787.933594 C 76.550781 787.933594 75.523438 787.917969 74.496094 787.878906 C 73.449219 787.839844 72.421875 787.796875 71.394531 787.714844 C 70.433594 787.644531 69.484375 787.566406 68.542969 787.46875 C 68.429688 787.453125 68.308594 787.441406 68.183594 787.441406 Z M 86.917969 726.285156 C 102.171875 730.015625 119.023438 726.269531 131.121094 715.75 C 145.453125 703.277344 149.980469 685.027344 150.550781 666.695312 C 154.078125 663.460938 157.601562 660.207031 161.128906 656.941406 C 161.648438 656.460938 162.171875 655.976562 162.691406 655.484375 C 162.953125 655.253906 163.210938 655.007812 163.472656 654.769531 C 163.5 655.113281 163.527344 655.457031 163.542969 655.800781 C 163.613281 656.527344 163.667969 657.253906 163.695312 657.96875 C 165.011719 680.417969 159.921875 702.46875 144.230469 720.289062 C 135.113281 730.648438 123.15625 738.386719 109.714844 741.761719 C 97.890625 744.722656 86.574219 743.542969 75.464844 740.035156 C 78.953125 735.300781 82.804688 730.730469 86.917969 726.285156 Z M 107.515625 706.03125 C 116.105469 698.089844 124.933594 690.050781 133.46875 682.28125 C 137.933594 678.21875 142.410156 674.144531 146.894531 670.039062 C 145.835938 685.203125 142.121094 700.066406 131.464844 711.398438 C 120.503906 723.050781 103.882812 727.386719 88.507812 724.554688 C 94.472656 718.246094 100.921875 712.136719 107.515625 706.03125 Z M 184.046875 635.289062 C 204.316406 639.992188 226.695312 633.792969 241.726562 619.113281 C 258.808594 602.453125 264.234375 576.261719 256.734375 553.964844 C 260.136719 549.3125 263.425781 544.589844 266.605469 539.804688 C 266.976562 539.839844 267.347656 539.882812 267.707031 539.910156 C 276.621094 571.308594 272.699219 605.542969 250.921875 631.363281 C 230.703125 655.316406 197.539062 665.996094 167.878906 657.226562 C 167.726562 655.238281 167.503906 653.25 167.230469 651.269531 C 172.871094 645.992188 178.488281 640.664062 184.046875 635.289062 Z M 254.414062 557.105469 C 260.050781 576.886719 255.898438 599.199219 242.125 614.882812 C 227.984375 630.996094 205.960938 637.347656 185.292969 634.082031 C 210.121094 610.011719 233.882812 584.738281 254.414062 557.105469 Z M 269.886719 534.835938 C 272.039062 531.519531 274.132812 528.152344 276.179688 524.75 C 278.992188 520.074219 281.691406 515.324219 284.324219 510.523438 C 301.800781 509.328125 318.597656 500.242188 328.339844 485.148438 C 340.035156 466.984375 339.226562 441.902344 327.15625 424.273438 C 330.132812 418.523438 333.21875 412.816406 336.4375 407.203125 C 345.695312 417.5625 352.71875 428.71875 355.890625 443.273438 C 359.726562 460.988281 356.796875 479.40625 348.128906 495.265625 C 332.355469 524.105469 301.78125 538.527344 270.609375 536.972656 C 269.921875 536.945312 269.253906 536.910156 268.566406 536.867188 C 269.007812 536.195312 269.460938 535.511719 269.886719 534.835938 Z M 308.667969 461.910156 C 314.0625 450.601562 319.53125 439.105469 325.359375 427.742188 C 334.011719 443.425781 335.753906 462.660156 327.761719 479.253906 C 319.835938 495.675781 303.179688 506.1875 285.492188 508.378906 C 293.804688 493.082031 301.320312 477.304688 308.667969 461.910156 Z M 349.253906 386.375 C 349.335938 386.25 349.414062 386.140625 349.5 386.015625 C 365.1875 386.417969 381.605469 379.609375 392.21875 368.921875 C 404.507812 356.585938 409.925781 338.984375 407.910156 322.0625 C 411.4375 319.183594 415.03125 316.382812 418.691406 313.664062 C 422.75 323.339844 425.96875 333.277344 425.917969 344.015625 C 425.847656 357.65625 420.195312 370.074219 410.609375 379.664062 C 392.097656 398.203125 365.835938 401.546875 340.71875 399.875 C 343.460938 395.304688 346.300781 390.792969 349.253906 386.375 Z M 405.648438 323.917969 C 406.398438 338.84375 401.519531 353.992188 391.269531 365.175781 C 380.589844 376.824219 366.75 381.722656 352.199219 382.066406 C 367.328125 360.304688 385.390625 340.761719 405.648438 323.917969 Z M 435.199219 302.253906 C 447.625 310.980469 465.796875 310.222656 479.15625 303.003906 C 493.390625 295.296875 503.492188 282.136719 510.632812 267.496094 C 513.746094 266.5625 516.882812 265.683594 520.039062 264.863281 C 516.679688 283.34375 505.902344 300.234375 489.636719 310.234375 C 479.691406 316.355469 468.5 319.222656 457.214844 319.347656 C 456.140625 319.363281 455.070312 319.347656 454.003906 319.320312 C 443.070312 318.949219 432.132812 316.039062 422.253906 311.085938 C 426.488281 308.015625 430.8125 305.078125 435.199219 302.253906 Z M 505.390625 269.113281 C 500.152344 279.378906 493.734375 288.84375 484.109375 296.132812 C 470.285156 306.601562 451.921875 309.082031 437.847656 300.574219 C 458.917969 287.335938 481.628906 276.703125 505.390625 269.113281 Z M 600.039062 255.4375 C 593.085938 260.25 585.515625 264.082031 576.777344 265.832031 C 564.945312 268.222656 552.519531 266.21875 542.535156 259.894531 C 561.515625 256.503906 580.796875 255.023438 600.039062 255.4375 Z M 729.574219 284.320312 C 729.476562 283.644531 729.0625 283.054688 728.464844 282.765625 C 698.847656 268.085938 667.128906 258.4375 634.777344 254.035156 C 633.394531 253.84375 632.007812 253.667969 630.609375 253.5 C 623.890625 252.664062 617.15625 252.074219 610.390625 251.699219 C 608.71875 251.609375 607.046875 251.539062 605.359375 251.484375 C 582.816406 250.605469 560.1875 252.277344 537.964844 256.546875 C 537.183594 256.710938 536.390625 256.863281 535.605469 257.027344 C 535.125 257.125 534.632812 257.222656 534.148438 257.316406 C 530.886719 257.988281 527.625 258.714844 524.390625 259.507812 C 523.15625 259.796875 521.929688 260.113281 520.699219 260.429688 C 518.109375 261.089844 515.511719 261.789062 512.925781 262.527344 C 511.253906 263.007812 509.558594 263.503906 507.886719 264.023438 C 481.875 271.972656 457.046875 283.476562 434.171875 298.050781 C 433.40625 298.535156 432.640625 299.027344 431.867188 299.535156 C 427.339844 302.457031 422.882812 305.519531 418.523438 308.703125 C 418.425781 308.769531 418.335938 308.835938 418.222656 308.90625 C 417.992188 309.082031 417.742188 309.265625 417.511719 309.441406 C 417.34375 309.546875 417.195312 309.671875 417.027344 309.800781 C 413.679688 312.253906 410.390625 314.789062 407.15625 317.382812 C 406.496094 317.921875 405.835938 318.441406 405.179688 318.976562 C 383.042969 337.050781 363.433594 358.246094 347.25 381.996094 C 346.769531 382.699219 346.292969 383.394531 345.824219 384.097656 C 345.464844 384.617188 345.125 385.152344 344.796875 385.671875 C 341.78125 390.21875 338.910156 394.839844 336.140625 399.515625 C 335.6875 400.261719 335.25 401.011719 334.820312 401.769531 C 334.644531 402.042969 334.476562 402.332031 334.328125 402.605469 C 334.054688 403.070312 333.78125 403.535156 333.519531 404.019531 C 330.363281 409.480469 327.347656 415.039062 324.414062 420.625 C 323.890625 421.609375 323.371094 422.613281 322.863281 423.613281 C 316.585938 435.742188 310.722656 448.050781 304.953125 460.136719 C 297.261719 476.257812 289.375 492.820312 280.609375 508.78125 C 280.269531 509.410156 279.925781 510.03125 279.582031 510.648438 C 277.332031 514.691406 275.027344 518.703125 272.65625 522.636719 C 271.160156 525.125 269.640625 527.589844 268.0625 530.03125 C 267.308594 531.253906 266.527344 532.476562 265.746094 533.683594 C 265.140625 534.605469 264.550781 535.511719 263.933594 536.410156 C 263.316406 537.359375 262.683594 538.308594 262.039062 539.25 C 259.75 542.65625 257.390625 546.03125 254.976562 549.367188 C 254.28125 550.351562 253.5625 551.34375 252.839844 552.320312 C 231.511719 581.417969 206.507812 607.898438 180.382812 633.105469 C 180.082031 633.40625 179.765625 633.707031 179.449219 634.011719 C 175.132812 638.167969 170.78125 642.296875 166.410156 646.398438 C 165.257812 647.488281 164.089844 648.570312 162.9375 649.652344 C 161.46875 651.023438 159.992188 652.398438 158.523438 653.757812 C 158.042969 654.207031 157.558594 654.648438 157.082031 655.085938 C 154.929688 657.089844 152.757812 659.082031 150.609375 661.058594 C 149.460938 662.113281 148.316406 663.167969 147.183594 664.199219 C 141.679688 669.246094 136.183594 674.253906 130.707031 679.238281 C 122.164062 687.015625 113.320312 695.054688 104.71875 703.015625 C 97.449219 709.734375 90.359375 716.472656 83.886719 723.5 C 83.417969 723.992188 82.96875 724.5 82.53125 724.996094 C 78.511719 729.410156 74.769531 733.941406 71.394531 738.660156 C 70.996094 739.183594 70.625 739.71875 70.257812 740.253906 C 66.074219 746.261719 62.476562 752.574219 59.679688 759.339844 C 57.183594 761.503906 55.375 764.320312 54.59375 767.363281 C 54.574219 767.378906 54.574219 767.378906 54.574219 767.394531 C 54.550781 767.503906 54.523438 767.597656 54.511719 767.707031 C 54.441406 767.941406 54.386719 768.171875 54.328125 768.433594 C 53.042969 775.53125 55.992188 783.390625 62.453125 790.003906 L 62.902344 790.457031 C 76.042969 803.5625 95.023438 806.125 113.363281 808.625 C 120.175781 809.546875 127.226562 810.503906 133.808594 811.988281 C 144.6875 814.453125 155.316406 818.722656 165.601562 822.835938 C 175.105469 826.667969 184.933594 830.601562 195.085938 833.1875 C 205.109375 835.75 215.78125 837.015625 226.878906 837.015625 C 240.988281 837.015625 255.785156 834.957031 270.738281 830.839844 C 288.9375 825.832031 306.105469 818.164062 320.421875 810.75 C 324.453125 808.664062 328.269531 806.609375 331.804688 804.628906 C 334.714844 803 337.441406 801.4375 339.964844 799.96875 C 352.640625 792.597656 363.613281 785.535156 373.292969 778.453125 C 373.324219 778.453125 373.335938 778.4375 373.363281 778.410156 C 381.386719 772.566406 388.515625 766.71875 395.003906 760.695312 C 398.609375 757.351562 402.023438 753.933594 405.273438 750.449219 C 417.328125 737.484375 426.742188 723.5 433.265625 708.84375 C 434.3125 709.367188 435.351562 709.890625 436.410156 710.367188 C 437.300781 710.808594 438.207031 711.230469 439.121094 711.632812 C 456.652344 719.574219 475.253906 724.28125 493.96875 725.546875 C 495.75 725.671875 497.539062 725.75 499.316406 725.804688 C 500.933594 725.859375 502.554688 725.890625 504.175781 725.890625 C 506.355469 725.890625 508.558594 725.847656 510.742188 725.75 C 510.851562 725.75 510.949219 725.734375 511.054688 725.734375 C 511.5625 725.707031 512.074219 725.679688 512.582031 725.652344 C 513.445312 725.609375 514.324219 725.558594 515.183594 725.476562 C 516.117188 725.417969 517.050781 725.335938 517.972656 725.257812 C 520.070312 725.0625 522.164062 724.816406 524.25 724.527344 C 524.96875 724.433594 525.664062 724.335938 526.375 724.226562 C 546.878906 721.152344 566.738281 713.894531 584.550781 703.234375 C 585.375 702.742188 586.183594 702.246094 586.984375 701.75 C 587.847656 701.203125 588.707031 700.667969 589.558594 700.105469 C 590.082031 699.761719 590.601562 699.433594 591.125 699.089844 C 591.863281 698.597656 592.601562 698.089844 593.332031 697.578125 C 594.648438 696.691406 595.953125 695.757812 597.238281 694.808594 C 598.390625 693.972656 599.53125 693.109375 600.65625 692.242188 C 601.4375 691.625 602.21875 691.023438 602.984375 690.390625 C 615.25 680.523438 626.054688 668.878906 634.777344 655.785156 C 636.066406 653.863281 637.449219 651.628906 638.632812 649.1875 C 639.097656 648.226562 639.535156 647.242188 639.917969 646.222656 C 641.359375 642.421875 642.097656 638.304688 641.183594 634.207031 C 641.058594 633.652344 640.90625 633.089844 640.71875 632.542969 C 640.550781 632.050781 640.359375 631.585938 640.15625 631.117188 C 635.859375 621.496094 623.132812 618.480469 612.285156 620.546875 C 608.550781 621.25 604.878906 622.417969 601.351562 623.96875 C 595.644531 626.503906 590.316406 630.089844 585.746094 634.515625 C 585.65625 634.488281 585.542969 634.453125 585.445312 634.425781 C 580.304688 632.832031 575.027344 632.078125 569.726562 632.15625 C 559.960938 632.351562 550.183594 635.535156 542.023438 641.144531 C 536.96875 637.988281 531.6875 636.289062 526.324219 636.097656 C 522.617188 635.972656 518.832031 636.730469 515.292969 638.320312 C 510.207031 635.578125 504.597656 633.890625 499.015625 633.40625 C 490.730469 632.738281 482.121094 634.65625 474.605469 638.882812 C 471.296875 635.972656 467.691406 633.476562 463.851562 631.429688 C 479.335938 579.664062 488.195312 526.039062 490.199219 472.019531 C 490.445312 465.296875 490.59375 458.453125 490.730469 451.824219 C 491.007812 439.667969 491.269531 427.328125 492.175781 415.066406 C 492.40625 411.8125 492.695312 408.574219 493.039062 405.339844 C 494.410156 392.234375 496.699219 379.292969 500.671875 366.824219 C 507.105469 346.707031 518.640625 328.789062 533.164062 316.328125 C 533.207031 316.300781 533.261719 316.257812 533.304688 316.222656 C 538.683594 311.636719 544.382812 307.875 550.324219 305.007812 C 549.390625 308.070312 548.582031 311.171875 547.8125 314.199219 C 546.414062 319.621094 544.976562 325.21875 542.808594 330.390625 C 539.679688 337.859375 534.933594 343.769531 529.472656 347.035156 C 528.914062 347.378906 528.539062 347.96875 528.488281 348.625 C 528.417969 349.285156 528.679688 349.933594 529.1875 350.359375 C 530.355469 351.371094 531.519531 352.222656 532.714844 352.933594 C 537.214844 355.597656 542.296875 356.214844 546.347656 354.582031 C 550.667969 352.828125 553.164062 349.109375 555.574219 345.5 C 557.085938 343.234375 558.507812 341.105469 560.320312 339.503906 C 563.273438 336.867188 567.179688 335.660156 571.320312 334.371094 C 573.558594 333.671875 575.871094 332.960938 578.078125 331.984375 C 587.503906 327.824219 595.253906 318.605469 599.335938 306.695312 C 601.023438 301.8125 602.203125 296.378906 603.003906 289.808594 C 618.609375 298.972656 638.097656 301.316406 654.664062 295.828125 C 657.527344 294.882812 660.355469 293.714844 663.085938 292.589844 C 668.691406 290.273438 673.984375 288.09375 679.664062 287.59375 C 685.332031 287.117188 691.183594 288.4375 696.851562 289.695312 C 697.6875 289.886719 698.523438 290.066406 699.347656 290.257812 C 706.328125 291.769531 713.746094 292.878906 720.710938 290.804688 C 723.753906 289.90625 726.59375 288.28125 728.941406 286.117188 C 729.4375 285.660156 729.667969 284.988281 729.574219 284.320312"/></g></svg>