<?xml version="1.0" standalone="no"?>
<!DOCTYPE svg PUBLIC "-//W3C//DTD SVG 20010904//EN"
 "http://www.w3.org/TR/2001/REC-SVG-20010904/DTD/svg10.dtd">
<svg version="1.0" xmlns="http://www.w3.org/2000/svg"
 width="1190.000000pt" height="1010.000000pt" viewBox="0 0 1190.000000 1010.000000"
 preserveAspectRatio="xMidYMid meet">
<metadata>
Created by potrace 1.16, written by Peter Selinger 2001-2019
</metadata>
<g transform="translate(0.000000,1010.000000) scale(0.100000,-0.100000)"
fill="#664a5a" stroke="none">
<path d="M9170 10040 c-1119 -64 -2142 -470 -3021 -1200 -157 -131 -495 -469
-620 -620 -365 -442 -575 -792 -991 -1660 -246 -512 -427 -868 -543 -1065
-332 -566 -722 -1057 -1325 -1669 -344 -348 -584 -574 -1430 -1344 -513 -467
-734 -720 -876 -1002 -26 -52 -65 -117 -85 -144 -48 -63 -63 -118 -57 -209 7
-107 50 -190 153 -292 92 -92 186 -149 326 -199 123 -44 233 -67 529 -111 401
-59 467 -77 850 -227 331 -130 486 -181 640 -212 486 -98 1032 -32 1597 193
425 169 1015 504 1408 799 427 319 734 669 925 1052 24 47 44 87 46 89 2 2 54
-19 116 -47 215 -95 476 -172 708 -208 144 -22 486 -30 636 -15 222 23 456 77
673 157 234 86 559 270 756 429 256 205 513 501 617 712 37 75 42 94 46 172 5
111 -17 171 -90 236 -80 72 -138 90 -298 90 -116 0 -145 -3 -205 -24 -106 -36
-212 -92 -292 -155 l-73 -57 -42 12 c-75 20 -217 28 -307 18 -103 -12 -245
-57 -324 -104 -60 -36 -82 -42 -91 -26 -3 5 -41 22 -83 37 -67 25 -92 29 -173
28 -59 0 -110 -6 -135 -16 -37 -14 -43 -14 -77 3 -75 38 -189 62 -293 63 -115
0 -187 -14 -290 -55 l-73 -30 -84 57 c-45 31 -84 62 -86 69 -2 6 17 83 42 171
172 608 297 1284 355 1919 29 312 39 506 51 945 18 703 42 964 121 1288 127
521 427 961 806 1183 37 21 68 37 70 36 2 -3 -63 -249 -85 -322 -49 -158 -129
-273 -260 -377 -27 -22 -27 -29 -3 -60 33 -42 117 -80 187 -86 108 -8 179 32
255 146 90 133 132 163 299 217 47 14 110 40 141 56 186 99 327 330 371 608 7
48 17 80 23 77 263 -118 319 -131 550 -130 209 0 244 8 473 99 245 97 295 101
567 44 251 -52 395 -43 507 31 47 31 65 60 52 81 -10 17 -228 119 -399 187
-479 190 -997 311 -1505 351 -188 15 -516 20 -680 11z m350 -74 c0 -9 -159
-95 -221 -119 -115 -46 -194 -61 -324 -61 -94 0 -137 5 -197 22 -91 26 -192
72 -181 82 9 8 175 34 328 50 184 20 595 38 595 26z m415 -25 l49 -6 -54 -48
c-318 -278 -725 -411 -1152 -377 -73 6 -148 13 -165 16 -24 5 -33 3 -33 -7 0
-28 -114 -247 -177 -343 -79 -119 -236 -285 -352 -372 -97 -72 -281 -170 -392
-208 -154 -52 -245 -68 -530 -92 l-66 -5 -16 -112 c-86 -603 -521 -1069 -1145
-1227 -27 -7 -41 -16 -38 -23 24 -58 72 -223 93 -317 31 -144 42 -416 23 -567
-82 -653 -573 -1186 -1240 -1345 -69 -16 -134 -31 -145 -34 -19 -3 -22 -16
-34 -106 -35 -284 -120 -566 -248 -823 -281 -561 -756 -966 -1377 -1170 -88
-29 -213 -64 -276 -77 l-115 -24 -21 -105 c-51 -249 -155 -451 -317 -617 -59
-60 -394 -306 -577 -424 -260 -167 -467 -259 -705 -314 -123 -29 -388 -26
-512 5 -51 12 -93 26 -93 30 0 3 14 23 31 44 17 21 54 84 83 140 28 57 69 130
90 163 l39 61 71 -23 c198 -63 424 -56 651 20 323 108 567 321 725 630 100
197 148 389 157 622 l6 161 76 -19 c634 -152 1303 185 1601 807 108 226 151
411 157 683 6 210 -4 323 -41 478 l-23 94 102 0 c352 0 723 153 984 405 124
120 209 234 281 380 108 219 144 368 144 605 0 179 -16 275 -70 432 -60 171
-150 328 -254 441 -29 32 -50 60 -48 63 3 3 106 6 229 8 173 3 251 8 340 24
502 91 842 368 945 772 15 59 19 108 18 230 -1 174 -20 270 -88 435 -19 48
-32 85 -28 83 4 -2 39 -20 79 -41 160 -82 308 -116 514 -117 150 0 253 15 377
57 339 113 613 394 732 751 16 48 32 108 35 134 8 54 3 52 171 86 l91 19 39
-29 c181 -137 459 -164 733 -72 95 32 241 103 306 149 l50 35 130 -6 c72 -3
152 -9 180 -13z m345 -46 c294 -52 524 -110 790 -200 252 -86 566 -218 556
-234 -11 -18 -105 -36 -181 -35 -47 1 -142 14 -231 33 -285 59 -357 53 -617
-48 -234 -92 -255 -96 -447 -96 -211 1 -308 25 -489 121 -46 24 -94 44 -107
44 -27 0 -26 3 -49 -150 -18 -124 -68 -276 -116 -356 -48 -79 -137 -173 -200
-211 -30 -17 -103 -48 -162 -68 -183 -60 -216 -84 -318 -231 -31 -44 -70 -89
-85 -100 -34 -22 -121 -25 -168 -6 l-28 12 49 53 c123 131 157 206 269 602 59
207 52 228 -61 180 -79 -33 -218 -119 -286 -176 -27 -22 -49 -38 -49 -35 0 4
21 32 47 64 68 84 127 178 185 297 39 80 55 104 67 100 9 -2 68 -9 133 -15
413 -38 887 123 1218 413 56 50 83 66 105 67 17 0 96 -11 175 -25z m-2126
-155 c-34 -147 -119 -319 -223 -450 -303 -383 -809 -505 -1303 -315 -51 20
-96 39 -100 43 -4 4 38 38 93 76 l101 68 61 -31 c107 -54 213 -74 347 -68 139
6 207 23 325 81 203 100 373 272 515 524 l53 92 61 19 c89 28 86 30 70 -39z
m-270 -67 c-134 -233 -312 -410 -490 -489 -103 -45 -217 -67 -329 -61 -100 4
-201 30 -254 64 -23 15 -22 16 95 86 162 96 409 220 588 296 151 65 380 150
404 150 8 1 3 -16 -14 -46z m-1409 -785 c57 -154 77 -247 82 -383 8 -198 -30
-340 -129 -492 -198 -303 -520 -468 -984 -503 -116 -9 -314 -5 -314 6 0 2 31
52 69 111 l68 108 94 7 c357 27 673 239 818 550 63 133 83 221 88 393 l5 150
81 63 c44 34 84 62 88 62 3 0 19 -33 34 -72z m-265 -263 c-13 -100 -54 -234
-99 -323 -108 -213 -322 -388 -552 -452 -89 -24 -242 -41 -230 -25 4 5 43 57
86 115 184 248 443 529 685 746 l115 102 3 -36 c2 -20 -1 -77 -8 -127z m1796
-37 c-202 -312 -322 -704 -370 -1216 -12 -119 -24 -189 -46 -260 -77 -250
-120 -491 -180 -1002 -50 -432 -73 -588 -117 -815 -101 -523 -262 -1053 -472
-1556 l-32 -76 -77 -7 c-43 -3 -92 -10 -109 -15 l-32 -9 -16 53 c-8 29 -15 59
-15 66 0 7 27 78 61 158 110 264 211 583 294 925 63 263 122 571 230 1202 148
865 231 1250 354 1640 96 305 228 626 290 704 46 58 272 290 282 290 5 0 -16
-37 -45 -82z m-214 -55 c-400 -441 -662 -969 -857 -1728 -67 -259 -121 -524
-231 -1130 -97 -535 -155 -815 -219 -1063 -44 -168 -161 -542 -170 -542 -3 0
-26 15 -52 34 -120 85 -252 127 -402 128 -180 1 -307 -49 -426 -167 -228 -228
-275 -614 -114 -925 97 -188 239 -306 437 -363 l83 -24 -68 -69 c-129 -132
-286 -226 -492 -294 -176 -58 -271 -72 -541 -77 -235 -5 -328 0 -790 43 -242
23 -619 23 -765 0 -264 -41 -494 -126 -742 -275 -46 -27 -80 -44 -75 -37 127
203 190 344 218 491 10 50 19 92 21 94 1 2 49 12 105 22 425 76 846 294 1187
615 261 244 493 595 616 928 64 173 114 392 131 572 l6 71 90 17 c516 99 992
476 1192 945 171 399 191 875 51 1246 -14 37 -24 70 -22 71 2 2 43 15 93 29
259 76 464 197 652 387 110 111 198 236 271 383 82 166 122 294 155 496 l6 36
128 6 c189 9 393 61 542 138 30 15 57 28 58 29 2 0 -32 -39 -76 -87z m-331
-640 c-48 -131 -127 -404 -180 -623 -82 -338 -129 -591 -266 -1435 -153 -940
-277 -1438 -494 -1989 l-11 -28 -64 95 -63 94 54 159 c133 392 206 714 373
1632 90 501 130 691 201 977 85 335 220 716 341 960 54 109 131 246 135 241 2
-2 -10 -39 -26 -83z m-2276 -708 c100 -151 167 -316 196 -485 20 -118 16 -326
-10 -447 -113 -538 -521 -936 -1078 -1054 -96 -20 -393 -39 -393 -25 0 4 26
48 58 99 32 51 89 146 127 212 38 66 70 121 71 123 1 2 35 8 75 13 319 45 604
251 734 533 124 268 107 636 -40 881 l-35 57 67 121 c36 67 71 129 76 138 9
14 17 9 54 -35 25 -28 68 -87 98 -131z m-246 -385 c60 -220 44 -436 -45 -628
-111 -242 -344 -427 -618 -492 -44 -11 -82 -18 -84 -15 -2 2 34 77 81 167 47
90 140 278 207 418 67 140 179 370 247 510 l125 255 34 -70 c18 -38 42 -104
53 -145z m2661 -205 c-18 -702 -57 -1136 -151 -1700 -62 -371 -177 -883 -269
-1195 l-32 -106 -68 23 c-37 13 -103 28 -147 34 -43 7 -79 13 -81 14 -2 1 24
65 57 142 227 531 405 1158 495 1743 14 91 44 325 66 520 23 195 50 411 61
480 20 128 70 382 75 378 1 -2 -2 -151 -6 -333z m-3712 -1582 c77 -345 66
-660 -32 -959 -42 -127 -139 -310 -226 -426 -207 -276 -499 -461 -843 -535
-119 -26 -431 -24 -537 3 l-75 19 -8 47 -9 46 104 100 c56 54 122 115 145 136
l41 37 67 -12 c41 -7 121 -9 204 -6 482 18 863 321 989 785 23 88 26 114 26
282 0 159 -3 196 -22 264 -25 91 -34 65 78 224 35 51 67 92 70 92 4 0 17 -44
28 -97z m-230 -288 c53 -285 -10 -583 -172 -809 -51 -71 -170 -188 -238 -234
-82 -56 -229 -121 -333 -147 -110 -28 -285 -42 -379 -31 l-57 8 238 241 c346
352 599 636 826 930 50 64 94 114 98 110 3 -5 11 -35 17 -68z m2372 -597 c205
-62 365 -224 440 -448 31 -93 16 -96 -72 -15 -40 37 -89 77 -109 88 -20 12
-45 36 -55 54 -31 59 -114 132 -193 171 -73 36 -78 37 -186 37 -105 0 -114 -2
-178 -34 -130 -63 -222 -187 -248 -331 -24 -138 19 -260 132 -372 38 -37 80
-91 95 -120 35 -70 92 -152 170 -249 l64 -79 -32 6 c-238 42 -438 219 -513
456 -84 264 -26 538 150 714 68 69 152 116 235 133 30 6 64 13 75 15 37 8 159
-6 225 -26z m-74 -203 c27 -8 71 -29 96 -48 l47 -33 -100 4 c-74 3 -112 0
-151 -12 -162 -52 -259 -192 -262 -378 -1 -100 -9 -100 -52 -5 -41 90 -40 178
3 269 61 129 187 218 309 218 33 0 83 -7 110 -15z m145 -175 c90 -28 151 -66
257 -160 l93 -81 77 25 c42 14 108 31 146 37 85 14 247 6 331 -16 91 -25 232
-97 309 -159 38 -31 73 -56 76 -56 4 0 45 17 91 39 110 51 175 66 284 65 97 0
172 -18 264 -62 49 -23 59 -24 95 -13 149 43 217 38 342 -24 40 -19 80 -35 90
-35 9 0 38 13 63 30 148 95 346 142 503 120 113 -16 112 -16 84 -53 -42 -55
-95 -172 -118 -259 -12 -45 -22 -84 -23 -86 -1 -1 -38 7 -81 20 -66 18 -104
22 -229 22 -133 1 -161 -3 -247 -26 -162 -45 -310 -126 -414 -226 l-51 -48
-39 34 c-111 97 -266 177 -422 219 -87 24 -116 27 -277 27 -167 1 -187 -1
-278 -26 -78 -22 -167 -58 -259 -106 -5 -2 -8 2 -8 8 0 29 -57 152 -105 225
-94 146 -227 259 -396 339 -148 70 -237 90 -411 90 -94 1 -144 5 -140 11 74
128 228 177 393 125z m3926 -109 c59 -26 105 -68 82 -75 -8 -2 -41 -7 -75 -10
-70 -6 -206 -47 -279 -83 -145 -73 -286 -211 -358 -350 -59 -115 -84 -199 -98
-333 l-12 -110 -31 20 c-18 10 -74 33 -126 51 -113 38 -276 50 -382 29 -263
-51 -500 -246 -629 -515 -40 -83 -40 -84 -46 -68 -3 7 -27 47 -54 89 -135 207
-377 371 -618 420 -110 22 -292 15 -406 -15 -95 -25 -260 -104 -331 -159 l-52
-40 -6 52 c-15 129 -74 290 -148 403 -150 229 -427 392 -700 410 l-86 6 -7 34
c-7 39 2 133 16 154 6 11 41 14 166 14 133 -1 170 -4 237 -23 150 -43 287
-125 399 -238 88 -90 137 -163 205 -304 30 -63 56 -116 57 -118 1 -1 45 18 97
42 52 25 137 57 189 73 87 26 107 28 264 28 148 0 180 -3 250 -23 150 -43 320
-137 455 -251 l35 -29 69 65 c126 119 269 196 444 240 48 12 107 17 207 16
118 0 155 -4 237 -26 53 -15 102 -28 108 -29 5 -2 26 43 45 99 55 163 120 279
197 352 107 100 230 172 358 211 92 28 253 23 327 -9z m141 -213 c-8 -111 -16
-122 -105 -141 -244 -53 -442 -243 -503 -483 -11 -43 -20 -105 -20 -138 0 -61
-1 -62 -42 -94 l-42 -32 -54 52 -54 53 5 105 c9 192 79 357 212 499 145 155
348 248 544 250 l64 1 -5 -72z m-4273 -143 c306 -89 533 -312 619 -607 30
-104 43 -232 26 -253 -10 -12 -21 -8 -75 28 -59 39 -64 45 -70 87 -19 123
-103 270 -213 371 -81 74 -215 142 -316 161 -69 13 -70 14 -104 67 -31 48 -82
159 -82 177 0 12 129 -6 215 -31z m4195 -76 c-40 -73 -215 -285 -339 -409
-123 -123 -146 -142 -149 -123 -6 36 26 142 68 232 66 138 209 261 354 307 64
20 79 18 66 -7z m-8003 -274 c-8 -244 -47 -414 -137 -601 -84 -175 -229 -351
-385 -467 -96 -72 -270 -158 -380 -187 -154 -42 -409 -36 -548 12 l-37 13 52
66 c29 36 71 86 93 111 l41 46 54 -10 c30 -6 114 -8 185 -5 110 4 144 9 225
35 366 120 584 438 618 904 l7 96 105 97 c82 75 106 92 109 78 2 -10 1 -94 -2
-188z m3892 33 c140 -68 273 -216 325 -366 8 -23 13 -42 11 -42 -8 0 -119 93
-205 171 -79 71 -233 239 -253 275 -13 22 17 13 122 -38z m-4179 -112 c0 -43
-43 -258 -65 -322 -102 -303 -312 -501 -597 -560 -77 -16 -286 -20 -300 -6
-11 11 180 197 547 532 160 146 315 288 345 317 58 55 70 62 70 39z m4211
-145 c41 -36 43 -40 30 -63 -7 -14 -44 -60 -82 -102 -249 -277 -555 -451 -933
-531 -295 -63 -562 -60 -968 9 -349 59 -454 70 -613 63 -361 -17 -646 -137
-1184 -500 -465 -313 -555 -369 -766 -472 -166 -81 -394 -162 -555 -197 -89
-19 -137 -22 -309 -23 l-203 0 -35 40 c-43 48 -83 132 -91 187 -6 46 -20 45
118 12 59 -14 115 -18 260 -18 164 0 197 3 295 26 306 72 547 200 1048 557
429 305 640 426 879 506 310 103 600 116 1218 54 262 -26 697 -36 840 -20 270
31 493 107 683 230 82 54 229 189 268 246 13 19 31 35 40 35 9 0 36 -17 60
-39z m3027 4 c100 -24 196 -78 276 -156 l71 -70 -62 -40 -61 -41 -74 35 c-101
48 -186 67 -304 67 -186 0 -324 -57 -456 -190 -63 -64 -85 -96 -124 -176 -26
-55 -48 -100 -48 -101 -1 -1 -28 -5 -62 -8 l-61 -7 -13 46 c-12 44 -11 48 24
122 104 218 248 369 441 461 146 69 314 91 453 58z m-1611 -76 c249 -63 449
-234 578 -493 30 -60 55 -113 55 -118 0 -4 -58 -8 -130 -8 l-129 0 -17 33
c-53 104 -154 195 -286 257 -225 105 -480 93 -676 -31 -21 -13 -30 -10 -118
35 -95 48 -95 48 -88 80 8 40 26 59 98 108 216 148 477 198 713 137z m-1199
-118 l92 -73 -30 -42 c-48 -67 -199 -229 -280 -302 -344 -307 -744 -486 -1198
-534 -145 -16 -559 -8 -742 15 -74 9 -261 34 -415 55 -438 61 -655 82 -955 93
l-65 2 160 81 c166 83 319 140 465 171 64 13 127 18 255 18 174 -1 206 -5 552
-65 260 -44 372 -53 587 -47 417 12 740 110 1051 318 118 79 291 239 365 337
25 33 50 57 55 53 6 -3 52 -39 103 -80z m2764 -75 c72 -14 198 -62 198 -76 0
-11 -231 -123 -347 -169 -185 -73 -513 -161 -521 -140 -9 22 77 150 147 219
86 86 164 131 273 160 88 23 153 25 250 6z m-2463 -133 c5 -3 -67 -100 -138
-183 -459 -538 -1073 -882 -1756 -984 -183 -28 -405 -38 -580 -26 -220 14
-380 39 -810 125 -547 110 -650 125 -939 134 l-199 6 213 143 212 142 128 0
c241 0 461 -20 1080 -99 173 -22 367 -45 430 -50 168 -16 523 -14 672 4 418
49 777 188 1091 422 117 89 317 285 396 389 l54 72 71 -46 c39 -26 73 -47 75
-49z m821 -12 c112 -35 231 -126 303 -230 l30 -44 -69 7 c-106 11 -312 53
-426 87 -115 34 -289 97 -302 109 -11 11 107 66 180 85 76 19 199 13 284 -14z
m-730 -43 c0 -19 -107 -215 -173 -317 -180 -279 -456 -562 -793 -812 -142
-106 -227 -149 -419 -212 -323 -106 -626 -150 -1035 -150 -363 1 -608 26
-1308 137 -639 102 -848 127 -1180 142 l-153 7 101 53 c55 30 162 93 237 140
l137 87 200 -6 c253 -7 409 -30 956 -141 579 -117 719 -136 1030 -136 207 0
386 16 560 51 582 117 1106 395 1515 804 103 104 260 285 298 346 13 21 27 25
27 7z m-4730 -1293 c217 -21 434 -49 1015 -134 748 -108 924 -125 1305 -125
353 0 582 26 850 94 63 16 126 32 140 36 32 8 -174 -117 -363 -219 -164 -89
-195 -98 -483 -147 -276 -47 -454 -63 -709 -63 -234 0 -352 9 -550 43 -155 27
-286 66 -577 171 -490 176 -592 196 -928 183 -331 -13 -594 -11 -665 5 l-60
14 111 22 c121 24 307 82 388 121 49 23 58 24 206 19 85 -3 229 -12 320 -20z
m-860 -215 c60 -8 185 -10 420 -5 467 10 525 0 1016 -178 513 -187 691 -220
1159 -221 283 -1 399 7 649 45 71 10 132 19 135 19 16 -2 -201 -87 -329 -130
-567 -189 -1087 -209 -1555 -60 -55 18 -214 77 -354 132 -427 167 -514 192
-866 243 -132 20 -267 40 -300 46 -169 29 -329 81 -424 137 l-46 27 125 5
c115 5 130 3 205 -22 44 -15 118 -32 165 -38z"/>
<path d="M4645 3470 c-201 -27 -399 -125 -564 -278 -23 -23 -41 -47 -39 -54 9
-26 40 -19 81 19 149 137 312 218 537 268 68 14 95 25 95 35 0 18 -29 21 -110
10z"/>
<path d="M4510 3184 c-137 -36 -226 -101 -393 -284 -112 -124 -183 -184 -259
-221 -27 -13 -48 -29 -48 -36 0 -17 10 -17 82 8 l61 20 96 -25 c438 -114 885
-1 1101 279 36 46 47 55 64 49 42 -14 90 -10 94 7 2 13 -28 33 -115 77 -205
104 -349 142 -526 141 -56 0 -127 -7 -157 -15z m238 -96 c79 -117 68 -253 -28
-349 -41 -41 -54 -47 -116 -59 -38 -7 -87 -13 -109 -13 -114 0 -235 139 -235
269 0 28 8 39 62 79 113 85 192 114 315 114 l82 1 29 -42z m260 -30 c61 -22
112 -44 112 -48 0 -5 -20 -33 -45 -64 -45 -54 -123 -120 -198 -166 l-39 -23
18 34 c11 21 19 65 22 116 4 77 -1 108 -33 186 -9 23 8 19 163 -35z m-789
-287 c11 -21 32 -52 46 -70 l27 -31 -29 0 c-25 0 -174 23 -229 35 -19 4 -10
16 65 90 l86 84 7 -35 c4 -19 17 -52 27 -73z"/>
<path d="M4450 3068 c-55 -29 -84 -75 -84 -138 0 -121 123 -197 231 -141 61
30 86 78 81 150 -5 68 -27 103 -84 131 -52 26 -89 25 -144 -2z m133 -89 c25
-30 22 -75 -8 -104 -49 -49 -125 -16 -125 55 0 73 86 105 133 49z"/>
</g>
</svg>
