<svg xmlns="http://www.w3.org/2000/svg" width="750" viewBox="0 0 750 300" height="300" version="1.0"><defs><clipPath id="a"><path d="M 494 51 L 499 51 L 499 57 L 494 57 Z M 494 51"/></clipPath><clipPath id="b"><path d="M 420.765625 48.371094 L 615.074219 -0.046875 L 649.890625 139.679688 L 455.582031 188.097656 Z M 420.765625 48.371094"/></clipPath><clipPath id="c"><path d="M 420.765625 48.371094 L 615.074219 -0.046875 L 649.890625 139.679688 L 455.582031 188.097656 Z M 420.765625 48.371094"/></clipPath><clipPath id="d"><path d="M 493 61 L 500 61 L 500 68 L 493 68 Z M 493 61"/></clipPath><clipPath id="e"><path d="M 420.765625 48.371094 L 615.074219 -0.046875 L 649.890625 139.679688 L 455.582031 188.097656 Z M 420.765625 48.371094"/></clipPath><clipPath id="f"><path d="M 420.765625 48.371094 L 615.074219 -0.046875 L 649.890625 139.679688 L 455.582031 188.097656 Z M 420.765625 48.371094"/></clipPath><clipPath id="g"><path d="M 547 52 L 550 52 L 550 57 L 547 57 Z M 547 52"/></clipPath><clipPath id="h"><path d="M 420.765625 48.371094 L 615.074219 -0.046875 L 649.890625 139.679688 L 455.582031 188.097656 Z M 420.765625 48.371094"/></clipPath><clipPath id="i"><path d="M 420.765625 48.371094 L 615.074219 -0.046875 L 649.890625 139.679688 L 455.582031 188.097656 Z M 420.765625 48.371094"/></clipPath><clipPath id="j"><path d="M 493 70 L 499 70 L 499 78 L 493 78 Z M 493 70"/></clipPath><clipPath id="k"><path d="M 420.765625 48.371094 L 615.074219 -0.046875 L 649.890625 139.679688 L 455.582031 188.097656 Z M 420.765625 48.371094"/></clipPath><clipPath id="l"><path d="M 420.765625 48.371094 L 615.074219 -0.046875 L 649.890625 139.679688 L 455.582031 188.097656 Z M 420.765625 48.371094"/></clipPath><clipPath id="m"><path d="M 554 57 L 556 57 L 556 62 L 554 62 Z M 554 57"/></clipPath><clipPath id="n"><path d="M 420.765625 48.371094 L 615.074219 -0.046875 L 649.890625 139.679688 L 455.582031 188.097656 Z M 420.765625 48.371094"/></clipPath><clipPath id="o"><path d="M 420.765625 48.371094 L 615.074219 -0.046875 L 649.890625 139.679688 L 455.582031 188.097656 Z M 420.765625 48.371094"/></clipPath><clipPath id="p"><path d="M 490 79 L 497 79 L 497 86 L 490 86 Z M 490 79"/></clipPath><clipPath id="q"><path d="M 420.765625 48.371094 L 615.074219 -0.046875 L 649.890625 139.679688 L 455.582031 188.097656 Z M 420.765625 48.371094"/></clipPath><clipPath id="r"><path d="M 420.765625 48.371094 L 615.074219 -0.046875 L 649.890625 139.679688 L 455.582031 188.097656 Z M 420.765625 48.371094"/></clipPath><clipPath id="s"><path d="M 547 67 L 556 67 L 556 69 L 547 69 Z M 547 67"/></clipPath><clipPath id="t"><path d="M 420.765625 48.371094 L 615.074219 -0.046875 L 649.890625 139.679688 L 455.582031 188.097656 Z M 420.765625 48.371094"/></clipPath><clipPath id="u"><path d="M 420.765625 48.371094 L 615.074219 -0.046875 L 649.890625 139.679688 L 455.582031 188.097656 Z M 420.765625 48.371094"/></clipPath><clipPath id="v"><path d="M 583 58 L 586 58 L 586 61 L 583 61 Z M 583 58"/></clipPath><clipPath id="w"><path d="M 420.765625 48.371094 L 615.074219 -0.046875 L 649.890625 139.679688 L 455.582031 188.097656 Z M 420.765625 48.371094"/></clipPath><clipPath id="x"><path d="M 420.765625 48.371094 L 615.074219 -0.046875 L 649.890625 139.679688 L 455.582031 188.097656 Z M 420.765625 48.371094"/></clipPath><clipPath id="y"><path d="M 588 57 L 590 57 L 590 61 L 588 61 Z M 588 57"/></clipPath><clipPath id="z"><path d="M 420.765625 48.371094 L 615.074219 -0.046875 L 649.890625 139.679688 L 455.582031 188.097656 Z M 420.765625 48.371094"/></clipPath><clipPath id="A"><path d="M 420.765625 48.371094 L 615.074219 -0.046875 L 649.890625 139.679688 L 455.582031 188.097656 Z M 420.765625 48.371094"/></clipPath><clipPath id="B"><path d="M 561 64 L 564 64 L 564 69 L 561 69 Z M 561 64"/></clipPath><clipPath id="C"><path d="M 420.765625 48.371094 L 615.074219 -0.046875 L 649.890625 139.679688 L 455.582031 188.097656 Z M 420.765625 48.371094"/></clipPath><clipPath id="D"><path d="M 420.765625 48.371094 L 615.074219 -0.046875 L 649.890625 139.679688 L 455.582031 188.097656 Z M 420.765625 48.371094"/></clipPath><clipPath id="E"><path d="M 490 85 L 497 85 L 497 93 L 490 93 Z M 490 85"/></clipPath><clipPath id="F"><path d="M 420.765625 48.371094 L 615.074219 -0.046875 L 649.890625 139.679688 L 455.582031 188.097656 Z M 420.765625 48.371094"/></clipPath><clipPath id="G"><path d="M 420.765625 48.371094 L 615.074219 -0.046875 L 649.890625 139.679688 L 455.582031 188.097656 Z M 420.765625 48.371094"/></clipPath><clipPath id="H"><path d="M 591 62 L 593 62 L 593 67 L 591 67 Z M 591 62"/></clipPath><clipPath id="I"><path d="M 420.765625 48.371094 L 615.074219 -0.046875 L 649.890625 139.679688 L 455.582031 188.097656 Z M 420.765625 48.371094"/></clipPath><clipPath id="J"><path d="M 420.765625 48.371094 L 615.074219 -0.046875 L 649.890625 139.679688 L 455.582031 188.097656 Z M 420.765625 48.371094"/></clipPath><clipPath id="K"><path d="M 569 74 L 570 74 L 570 78 L 569 78 Z M 569 74"/></clipPath><clipPath id="L"><path d="M 420.765625 48.371094 L 615.074219 -0.046875 L 649.890625 139.679688 L 455.582031 188.097656 Z M 420.765625 48.371094"/></clipPath><clipPath id="M"><path d="M 420.765625 48.371094 L 615.074219 -0.046875 L 649.890625 139.679688 L 455.582031 188.097656 Z M 420.765625 48.371094"/></clipPath><clipPath id="N"><path d="M 492 93 L 497 93 L 497 99 L 492 99 Z M 492 93"/></clipPath><clipPath id="O"><path d="M 420.765625 48.371094 L 615.074219 -0.046875 L 649.890625 139.679688 L 455.582031 188.097656 Z M 420.765625 48.371094"/></clipPath><clipPath id="P"><path d="M 420.765625 48.371094 L 615.074219 -0.046875 L 649.890625 139.679688 L 455.582031 188.097656 Z M 420.765625 48.371094"/></clipPath><clipPath id="Q"><path d="M 594 69 L 596 69 L 596 74 L 594 74 Z M 594 69"/></clipPath><clipPath id="R"><path d="M 420.765625 48.371094 L 615.074219 -0.046875 L 649.890625 139.679688 L 455.582031 188.097656 Z M 420.765625 48.371094"/></clipPath><clipPath id="S"><path d="M 420.765625 48.371094 L 615.074219 -0.046875 L 649.890625 139.679688 L 455.582031 188.097656 Z M 420.765625 48.371094"/></clipPath><clipPath id="T"><path d="M 595 78 L 597 78 L 597 80 L 595 80 Z M 595 78"/></clipPath><clipPath id="U"><path d="M 420.765625 48.371094 L 615.074219 -0.046875 L 649.890625 139.679688 L 455.582031 188.097656 Z M 420.765625 48.371094"/></clipPath><clipPath id="V"><path d="M 420.765625 48.371094 L 615.074219 -0.046875 L 649.890625 139.679688 L 455.582031 188.097656 Z M 420.765625 48.371094"/></clipPath><clipPath id="W"><path d="M 528 117 L 536 117 L 536 119 L 528 119 Z M 528 117"/></clipPath><clipPath id="X"><path d="M 420.765625 48.371094 L 615.074219 -0.046875 L 649.890625 139.679688 L 455.582031 188.097656 Z M 420.765625 48.371094"/></clipPath><clipPath id="Y"><path d="M 420.765625 48.371094 L 615.074219 -0.046875 L 649.890625 139.679688 L 455.582031 188.097656 Z M 420.765625 48.371094"/></clipPath><clipPath id="Z"><path d="M 561 109 L 568 109 L 568 113 L 561 113 Z M 561 109"/></clipPath><clipPath id="aa"><path d="M 420.765625 48.371094 L 615.074219 -0.046875 L 649.890625 139.679688 L 455.582031 188.097656 Z M 420.765625 48.371094"/></clipPath><clipPath id="ab"><path d="M 420.765625 48.371094 L 615.074219 -0.046875 L 649.890625 139.679688 L 455.582031 188.097656 Z M 420.765625 48.371094"/></clipPath><clipPath id="ac"><path d="M 572 108 L 575 108 L 575 111 L 572 111 Z M 572 108"/></clipPath><clipPath id="ad"><path d="M 420.765625 48.371094 L 615.074219 -0.046875 L 649.890625 139.679688 L 455.582031 188.097656 Z M 420.765625 48.371094"/></clipPath><clipPath id="ae"><path d="M 420.765625 48.371094 L 615.074219 -0.046875 L 649.890625 139.679688 L 455.582031 188.097656 Z M 420.765625 48.371094"/></clipPath><clipPath id="af"><path d="M 522 123 L 525 123 L 525 130 L 522 130 Z M 522 123"/></clipPath><clipPath id="ag"><path d="M 420.765625 48.371094 L 615.074219 -0.046875 L 649.890625 139.679688 L 455.582031 188.097656 Z M 420.765625 48.371094"/></clipPath><clipPath id="ah"><path d="M 420.765625 48.371094 L 615.074219 -0.046875 L 649.890625 139.679688 L 455.582031 188.097656 Z M 420.765625 48.371094"/></clipPath><clipPath id="ai"><path d="M 570 115 L 573 115 L 573 120 L 570 120 Z M 570 115"/></clipPath><clipPath id="aj"><path d="M 420.765625 48.371094 L 615.074219 -0.046875 L 649.890625 139.679688 L 455.582031 188.097656 Z M 420.765625 48.371094"/></clipPath><clipPath id="ak"><path d="M 420.765625 48.371094 L 615.074219 -0.046875 L 649.890625 139.679688 L 455.582031 188.097656 Z M 420.765625 48.371094"/></clipPath><clipPath id="al"><path d="M 536 123 L 543 123 L 543 125 L 536 125 Z M 536 123"/></clipPath><clipPath id="am"><path d="M 420.765625 48.371094 L 615.074219 -0.046875 L 649.890625 139.679688 L 455.582031 188.097656 Z M 420.765625 48.371094"/></clipPath><clipPath id="an"><path d="M 420.765625 48.371094 L 615.074219 -0.046875 L 649.890625 139.679688 L 455.582031 188.097656 Z M 420.765625 48.371094"/></clipPath><clipPath id="ao"><path d="M 614 105 L 617 105 L 617 111 L 614 111 Z M 614 105"/></clipPath><clipPath id="ap"><path d="M 420.765625 48.371094 L 615.074219 -0.046875 L 649.890625 139.679688 L 455.582031 188.097656 Z M 420.765625 48.371094"/></clipPath><clipPath id="aq"><path d="M 420.765625 48.371094 L 615.074219 -0.046875 L 649.890625 139.679688 L 455.582031 188.097656 Z M 420.765625 48.371094"/></clipPath><clipPath id="ar"><path d="M 529 127 L 533 127 L 533 137 L 529 137 Z M 529 127"/></clipPath><clipPath id="as"><path d="M 420.765625 48.371094 L 615.074219 -0.046875 L 649.890625 139.679688 L 455.582031 188.097656 Z M 420.765625 48.371094"/></clipPath><clipPath id="at"><path d="M 420.765625 48.371094 L 615.074219 -0.046875 L 649.890625 139.679688 L 455.582031 188.097656 Z M 420.765625 48.371094"/></clipPath><clipPath id="au"><path d="M 565 124 L 568 124 L 568 130 L 565 130 Z M 565 124"/></clipPath><clipPath id="av"><path d="M 420.765625 48.371094 L 615.074219 -0.046875 L 649.890625 139.679688 L 455.582031 188.097656 Z M 420.765625 48.371094"/></clipPath><clipPath id="aw"><path d="M 420.765625 48.371094 L 615.074219 -0.046875 L 649.890625 139.679688 L 455.582031 188.097656 Z M 420.765625 48.371094"/></clipPath><clipPath id="ax"><path d="M 620 110 L 623 110 L 623 115 L 620 115 Z M 620 110"/></clipPath><clipPath id="ay"><path d="M 420.765625 48.371094 L 615.074219 -0.046875 L 649.890625 139.679688 L 455.582031 188.097656 Z M 420.765625 48.371094"/></clipPath><clipPath id="az"><path d="M 420.765625 48.371094 L 615.074219 -0.046875 L 649.890625 139.679688 L 455.582031 188.097656 Z M 420.765625 48.371094"/></clipPath><clipPath id="aA"><path d="M 591 117 L 594 117 L 594 125 L 591 125 Z M 591 117"/></clipPath><clipPath id="aB"><path d="M 420.765625 48.371094 L 615.074219 -0.046875 L 649.890625 139.679688 L 455.582031 188.097656 Z M 420.765625 48.371094"/></clipPath><clipPath id="aC"><path d="M 420.765625 48.371094 L 615.074219 -0.046875 L 649.890625 139.679688 L 455.582031 188.097656 Z M 420.765625 48.371094"/></clipPath><clipPath id="aD"><path d="M 555 126 L 560 126 L 560 128 L 555 128 Z M 555 126"/></clipPath><clipPath id="aE"><path d="M 420.765625 48.371094 L 615.074219 -0.046875 L 649.890625 139.679688 L 455.582031 188.097656 Z M 420.765625 48.371094"/></clipPath><clipPath id="aF"><path d="M 420.765625 48.371094 L 615.074219 -0.046875 L 649.890625 139.679688 L 455.582031 188.097656 Z M 420.765625 48.371094"/></clipPath><clipPath id="aG"><path d="M 536 132 L 539 132 L 539 140 L 536 140 Z M 536 132"/></clipPath><clipPath id="aH"><path d="M 420.765625 48.371094 L 615.074219 -0.046875 L 649.890625 139.679688 L 455.582031 188.097656 Z M 420.765625 48.371094"/></clipPath><clipPath id="aI"><path d="M 420.765625 48.371094 L 615.074219 -0.046875 L 649.890625 139.679688 L 455.582031 188.097656 Z M 420.765625 48.371094"/></clipPath><clipPath id="aJ"><path d="M 626 116 L 629 116 L 629 119 L 626 119 Z M 626 116"/></clipPath><clipPath id="aK"><path d="M 420.765625 48.371094 L 615.074219 -0.046875 L 649.890625 139.679688 L 455.582031 188.097656 Z M 420.765625 48.371094"/></clipPath><clipPath id="aL"><path d="M 420.765625 48.371094 L 615.074219 -0.046875 L 649.890625 139.679688 L 455.582031 188.097656 Z M 420.765625 48.371094"/></clipPath><clipPath id="aM"><path d="M 595 124 L 597 124 L 597 129 L 595 129 Z M 595 124"/></clipPath><clipPath id="aN"><path d="M 420.765625 48.371094 L 615.074219 -0.046875 L 649.890625 139.679688 L 455.582031 188.097656 Z M 420.765625 48.371094"/></clipPath><clipPath id="aO"><path d="M 420.765625 48.371094 L 615.074219 -0.046875 L 649.890625 139.679688 L 455.582031 188.097656 Z M 420.765625 48.371094"/></clipPath><clipPath id="aP"><path d="M 561 133 L 563 133 L 563 139 L 561 139 Z M 561 133"/></clipPath><clipPath id="aQ"><path d="M 420.765625 48.371094 L 615.074219 -0.046875 L 649.890625 139.679688 L 455.582031 188.097656 Z M 420.765625 48.371094"/></clipPath><clipPath id="aR"><path d="M 420.765625 48.371094 L 615.074219 -0.046875 L 649.890625 139.679688 L 455.582031 188.097656 Z M 420.765625 48.371094"/></clipPath><clipPath id="aS"><path d="M 542 139 L 545 139 L 545 144 L 542 144 Z M 542 139"/></clipPath><clipPath id="aT"><path d="M 420.765625 48.371094 L 615.074219 -0.046875 L 649.890625 139.679688 L 455.582031 188.097656 Z M 420.765625 48.371094"/></clipPath><clipPath id="aU"><path d="M 420.765625 48.371094 L 615.074219 -0.046875 L 649.890625 139.679688 L 455.582031 188.097656 Z M 420.765625 48.371094"/></clipPath><clipPath id="aV"><path d="M 548 138 L 552 138 L 552 141 L 548 141 Z M 548 138"/></clipPath><clipPath id="aW"><path d="M 420.765625 48.371094 L 615.074219 -0.046875 L 649.890625 139.679688 L 455.582031 188.097656 Z M 420.765625 48.371094"/></clipPath><clipPath id="aX"><path d="M 420.765625 48.371094 L 615.074219 -0.046875 L 649.890625 139.679688 L 455.582031 188.097656 Z M 420.765625 48.371094"/></clipPath><clipPath id="aY"><path d="M 599 130 L 601 130 L 601 134 L 599 134 Z M 599 130"/></clipPath><clipPath id="aZ"><path d="M 420.765625 48.371094 L 615.074219 -0.046875 L 649.890625 139.679688 L 455.582031 188.097656 Z M 420.765625 48.371094"/></clipPath><clipPath id="ba"><path d="M 420.765625 48.371094 L 615.074219 -0.046875 L 649.890625 139.679688 L 455.582031 188.097656 Z M 420.765625 48.371094"/></clipPath><clipPath id="bb"><path d="M 606 131 L 610 131 L 610 135 L 606 135 Z M 606 131"/></clipPath><clipPath id="bc"><path d="M 420.765625 48.371094 L 615.074219 -0.046875 L 649.890625 139.679688 L 455.582031 188.097656 Z M 420.765625 48.371094"/></clipPath><clipPath id="bd"><path d="M 420.765625 48.371094 L 615.074219 -0.046875 L 649.890625 139.679688 L 455.582031 188.097656 Z M 420.765625 48.371094"/></clipPath><clipPath id="be"><path d="M 503 49 L 506 49 L 506 55 L 503 55 Z M 503 49"/></clipPath><clipPath id="bf"><path d="M 420.765625 48.371094 L 615.074219 -0.046875 L 649.890625 139.679688 L 455.582031 188.097656 Z M 420.765625 48.371094"/></clipPath><clipPath id="bg"><path d="M 420.765625 48.371094 L 615.074219 -0.046875 L 649.890625 139.679688 L 455.582031 188.097656 Z M 420.765625 48.371094"/></clipPath><clipPath id="bh"><path d="M 505 59 L 510 59 L 510 66 L 505 66 Z M 505 59"/></clipPath><clipPath id="bi"><path d="M 420.765625 48.371094 L 615.074219 -0.046875 L 649.890625 139.679688 L 455.582031 188.097656 Z M 420.765625 48.371094"/></clipPath><clipPath id="bj"><path d="M 420.765625 48.371094 L 615.074219 -0.046875 L 649.890625 139.679688 L 455.582031 188.097656 Z M 420.765625 48.371094"/></clipPath><clipPath id="bk"><path d="M 542 60 L 548 60 L 548 62 L 542 62 Z M 542 60"/></clipPath><clipPath id="bl"><path d="M 420.765625 48.371094 L 615.074219 -0.046875 L 649.890625 139.679688 L 455.582031 188.097656 Z M 420.765625 48.371094"/></clipPath><clipPath id="bm"><path d="M 420.765625 48.371094 L 615.074219 -0.046875 L 649.890625 139.679688 L 455.582031 188.097656 Z M 420.765625 48.371094"/></clipPath><clipPath id="bn"><path d="M 505 69 L 510 69 L 510 76 L 505 76 Z M 505 69"/></clipPath><clipPath id="bo"><path d="M 420.765625 48.371094 L 615.074219 -0.046875 L 649.890625 139.679688 L 455.582031 188.097656 Z M 420.765625 48.371094"/></clipPath><clipPath id="bp"><path d="M 420.765625 48.371094 L 615.074219 -0.046875 L 649.890625 139.679688 L 455.582031 188.097656 Z M 420.765625 48.371094"/></clipPath><clipPath id="bq"><path d="M 505 75 L 512 75 L 512 85 L 505 85 Z M 505 75"/></clipPath><clipPath id="br"><path d="M 420.765625 48.371094 L 615.074219 -0.046875 L 649.890625 139.679688 L 455.582031 188.097656 Z M 420.765625 48.371094"/></clipPath><clipPath id="bs"><path d="M 420.765625 48.371094 L 615.074219 -0.046875 L 649.890625 139.679688 L 455.582031 188.097656 Z M 420.765625 48.371094"/></clipPath><clipPath id="bt"><path d="M 584 65 L 588 65 L 588 68 L 584 68 Z M 584 65"/></clipPath><clipPath id="bu"><path d="M 420.765625 48.371094 L 615.074219 -0.046875 L 649.890625 139.679688 L 455.582031 188.097656 Z M 420.765625 48.371094"/></clipPath><clipPath id="bv"><path d="M 420.765625 48.371094 L 615.074219 -0.046875 L 649.890625 139.679688 L 455.582031 188.097656 Z M 420.765625 48.371094"/></clipPath><clipPath id="bw"><path d="M 554 74 L 563 74 L 563 77 L 554 77 Z M 554 74"/></clipPath><clipPath id="bx"><path d="M 420.765625 48.371094 L 615.074219 -0.046875 L 649.890625 139.679688 L 455.582031 188.097656 Z M 420.765625 48.371094"/></clipPath><clipPath id="by"><path d="M 420.765625 48.371094 L 615.074219 -0.046875 L 649.890625 139.679688 L 455.582031 188.097656 Z M 420.765625 48.371094"/></clipPath><clipPath id="bz"><path d="M 503 86 L 511 86 L 511 97 L 503 97 Z M 503 86"/></clipPath><clipPath id="bA"><path d="M 420.765625 48.371094 L 615.074219 -0.046875 L 649.890625 139.679688 L 455.582031 188.097656 Z M 420.765625 48.371094"/></clipPath><clipPath id="bB"><path d="M 420.765625 48.371094 L 615.074219 -0.046875 L 649.890625 139.679688 L 455.582031 188.097656 Z M 420.765625 48.371094"/></clipPath><clipPath id="bC"><path d="M 587 74 L 591 74 L 591 78 L 587 78 Z M 587 74"/></clipPath><clipPath id="bD"><path d="M 420.765625 48.371094 L 615.074219 -0.046875 L 649.890625 139.679688 L 455.582031 188.097656 Z M 420.765625 48.371094"/></clipPath><clipPath id="bE"><path d="M 420.765625 48.371094 L 615.074219 -0.046875 L 649.890625 139.679688 L 455.582031 188.097656 Z M 420.765625 48.371094"/></clipPath><clipPath id="bF"><path d="M 450 30 L 646 30 L 646 170 L 450 170 Z M 450 30"/></clipPath><clipPath id="bG"><path d="M 420.765625 48.371094 L 615.074219 -0.046875 L 649.890625 139.679688 L 455.582031 188.097656 Z M 420.765625 48.371094"/></clipPath><clipPath id="bH"><path d="M 420.765625 48.371094 L 615.074219 -0.046875 L 649.890625 139.679688 L 455.582031 188.097656 Z M 420.765625 48.371094"/></clipPath><clipPath id="bI"><path d="M 619 102 L 628 102 L 628 104 L 619 104 Z M 619 102"/></clipPath><clipPath id="bJ"><path d="M 420.765625 48.371094 L 615.074219 -0.046875 L 649.890625 139.679688 L 455.582031 188.097656 Z M 420.765625 48.371094"/></clipPath><clipPath id="bK"><path d="M 420.765625 48.371094 L 615.074219 -0.046875 L 649.890625 139.679688 L 455.582031 188.097656 Z M 420.765625 48.371094"/></clipPath><clipPath id="bL"><path d="M 556 117 L 564 117 L 564 121 L 556 121 Z M 556 117"/></clipPath><clipPath id="bM"><path d="M 420.765625 48.371094 L 615.074219 -0.046875 L 649.890625 139.679688 L 455.582031 188.097656 Z M 420.765625 48.371094"/></clipPath><clipPath id="bN"><path d="M 420.765625 48.371094 L 615.074219 -0.046875 L 649.890625 139.679688 L 455.582031 188.097656 Z M 420.765625 48.371094"/></clipPath><clipPath id="bO"><path d="M 626 107 L 633 107 L 633 109 L 626 109 Z M 626 107"/></clipPath><clipPath id="bP"><path d="M 420.765625 48.371094 L 615.074219 -0.046875 L 649.890625 139.679688 L 455.582031 188.097656 Z M 420.765625 48.371094"/></clipPath><clipPath id="bQ"><path d="M 420.765625 48.371094 L 615.074219 -0.046875 L 649.890625 139.679688 L 455.582031 188.097656 Z M 420.765625 48.371094"/></clipPath><clipPath id="bR"><path d="M 598 115 L 604 115 L 604 120 L 598 120 Z M 598 115"/></clipPath><clipPath id="bS"><path d="M 420.765625 48.371094 L 615.074219 -0.046875 L 649.890625 139.679688 L 455.582031 188.097656 Z M 420.765625 48.371094"/></clipPath><clipPath id="bT"><path d="M 420.765625 48.371094 L 615.074219 -0.046875 L 649.890625 139.679688 L 455.582031 188.097656 Z M 420.765625 48.371094"/></clipPath><clipPath id="bU"><path d="M 542 130 L 548 130 L 548 132 L 542 132 Z M 542 130"/></clipPath><clipPath id="bV"><path d="M 420.765625 48.371094 L 615.074219 -0.046875 L 649.890625 139.679688 L 455.582031 188.097656 Z M 420.765625 48.371094"/></clipPath><clipPath id="bW"><path d="M 420.765625 48.371094 L 615.074219 -0.046875 L 649.890625 139.679688 L 455.582031 188.097656 Z M 420.765625 48.371094"/></clipPath><clipPath id="bX"><path d="M 601 124 L 607 124 L 607 129 L 601 129 Z M 601 124"/></clipPath><clipPath id="bY"><path d="M 420.765625 48.371094 L 615.074219 -0.046875 L 649.890625 139.679688 L 455.582031 188.097656 Z M 420.765625 48.371094"/></clipPath><clipPath id="bZ"><path d="M 420.765625 48.371094 L 615.074219 -0.046875 L 649.890625 139.679688 L 455.582031 188.097656 Z M 420.765625 48.371094"/></clipPath></defs><g fill="#664A5A"><g><g><path d="M 13.738281 6.519531 C 10.128906 7.101562 6.871094 8.617188 4.308594 11.292969 C 1.746094 13.972656 1.980469 16.882812 5.007812 19.210938 C 6.402344 20.261719 8.035156 20.957031 9.664062 21.425781 C 13.738281 22.472656 17.699219 22.238281 21.65625 21.191406 C 28.875 19.445312 35.046875 15.601562 40.871094 11.179688 C 41.800781 10.480469 42.734375 10.246094 43.898438 10.597656 C 46.925781 11.410156 49.953125 12.226562 52.980469 13.039062 C 64.855469 15.953125 76.730469 18.511719 89.074219 17.464844 C 95.480469 17 101.882812 15.71875 108.171875 14.320312 C 122.492188 11.179688 134.835938 4.425781 145.199219 -5.9375 C 148.808594 -9.546875 151.949219 -13.738281 155.675781 -17.234375 C 156.027344 -17.582031 156.839844 -18.046875 156.257812 -18.628906 C 155.792969 -19.328125 154.863281 -19.328125 154.164062 -18.746094 C 153.347656 -18.164062 152.648438 -17.582031 151.949219 -16.882812 C 147.527344 -12.457031 142.636719 -8.734375 137.863281 -4.890625 C 128.3125 2.679688 117.601562 8.152344 105.726562 10.945312 C 95.828125 13.390625 85.699219 15.484375 75.335938 14.320312 C 67.300781 13.507812 59.5 11.992188 51.816406 9.898438 C 49.601562 9.316406 47.507812 8.734375 44.945312 8.035156 C 51.234375 3.027344 56.589844 -2.445312 61.480469 -8.152344 C 75.335938 -24.453125 87.09375 -42.265625 97.339844 -61.011719 C 105.839844 -76.730469 115.15625 -91.984375 126.21875 -106.074219 C 129.476562 -110.265625 132.972656 -114.339844 136.582031 -118.765625 C 136.699219 -117.601562 136.117188 -117.136719 135.765625 -116.4375 C 134.019531 -112.828125 132.039062 -109.21875 131.109375 -105.144531 C 130.875 -104.675781 130.644531 -103.980469 131.457031 -103.746094 C 132.15625 -103.511719 132.738281 -103.511719 133.089844 -104.210938 C 133.785156 -105.609375 134.601562 -106.890625 135.300781 -108.171875 C 139.492188 -116.203125 143.800781 -124.121094 149.503906 -131.109375 C 150.089844 -131.691406 151.367188 -132.273438 150.671875 -133.320312 C 150.089844 -134.253906 148.808594 -134.253906 147.757812 -134.253906 C 146.363281 -134.253906 145.546875 -133.4375 144.730469 -132.507812 C 142.867188 -130.527344 140.65625 -128.78125 138.675781 -127.035156 C 136.582031 -125.285156 134.601562 -123.308594 132.738281 -121.328125 C 118.765625 -105.839844 107.355469 -88.492188 96.992188 -70.328125 C 87.09375 -53.09375 76.617188 -36.210938 63.925781 -20.84375 C 56.589844 -11.761719 49.253906 -2.679688 40.402344 5.125 C 39.121094 6.289062 37.957031 6.636719 36.210938 6.402344 C 28.761719 5.125 21.191406 5.125 13.738281 6.519531 Z M 34.117188 8.617188 C 34.464844 8.734375 34.816406 8.847656 35.511719 8.964844 C 29.34375 13.507812 23.289062 17.234375 16.183594 18.863281 C 14.207031 19.210938 12.226562 19.5625 10.246094 18.628906 C 7.683594 17.347656 7.21875 15.136719 9.199219 12.925781 C 11.179688 10.828125 13.738281 9.664062 16.535156 9.082031 C 22.355469 8.152344 28.292969 7.917969 34.117188 8.617188 Z M 34.117188 8.617188" transform="translate(30 177.75)"/></g></g></g><g fill="#664A5A"><g><g><path d="M 22.355469 4.773438 C 33.300781 0.699219 55.890625 -16.535156 77.664062 -19.445312 C 76.964844 -20.957031 75.917969 -20.957031 74.984375 -20.957031 C 56.007812 -18.863281 31.089844 -2.445312 23.753906 1.046875 C 20.492188 2.5625 17.117188 3.609375 13.390625 3.957031 C 10.710938 4.191406 8.265625 3.609375 6.402344 1.398438 C 1.980469 -4.308594 1.628906 -10.246094 4.542969 -16.652344 C 5.125 -17.929688 5.820312 -18.628906 7.453125 -18.164062 C 9.664062 -17.582031 11.875 -17.699219 14.089844 -18.398438 C 18.628906 -19.910156 22.355469 -22.707031 25.734375 -25.964844 C 26.316406 -26.546875 26.664062 -27.128906 27.011719 -27.828125 C 27.945312 -29.691406 27.59375 -31.554688 25.847656 -32.835938 C 23.054688 -34.816406 20.027344 -35.980469 16.652344 -34.929688 C 7.917969 -32.371094 1.28125 -27.246094 -1.980469 -18.511719 C -3.957031 -13.15625 -3.375 -8.035156 -0.582031 -3.375 C 5.125 5.9375 11.875 8.734375 22.355469 4.773438 Z M 22.125 -30.507812 C 20.726562 -26.199219 13.15625 -21.425781 8.5 -21.890625 C 10.363281 -25.964844 17.929688 -30.738281 22.125 -30.507812 Z M 22.125 -30.507812" transform="translate(180.554 177.75)"/></g></g></g><g fill="#664A5A"><g><g><path d="M 75.101562 -22.007812 C 74.636719 -22.007812 74.171875 -21.773438 73.820312 -21.65625 C 69.28125 -19.445312 64.738281 -17.117188 60.429688 -14.554688 C 54.375 -10.828125 48.320312 -7.101562 41.800781 -3.957031 C 38.539062 -2.445312 35.164062 -0.699219 31.554688 -0.117188 C 27.710938 0.464844 26.898438 -0.347656 27.246094 -4.074219 C 27.246094 -4.308594 27.246094 -4.65625 27.246094 -4.890625 C 27.710938 -7.800781 28.644531 -10.480469 29.925781 -13.039062 C 31.671875 -16.765625 33.535156 -20.375 35.398438 -23.984375 C 36.328125 -25.847656 37.027344 -27.710938 37.609375 -29.691406 C 38.308594 -32.371094 37.261719 -34.464844 35.28125 -36.210938 C 33.300781 -37.84375 31.4375 -37.144531 29.574219 -36.09375 C 27.480469 -34.929688 25.734375 -33.417969 23.984375 -31.789062 C 17.699219 -26.199219 11.761719 -20.261719 5.9375 -14.320312 C 4.890625 -13.15625 3.84375 -12.109375 1.980469 -11.644531 C 2.097656 -13.273438 2.679688 -14.554688 3.261719 -15.835938 C 4.773438 -19.210938 6.753906 -22.355469 8.847656 -25.382812 C 10.828125 -27.945312 10.246094 -30.273438 7.683594 -31.902344 C 6.519531 -32.601562 5.589844 -32.601562 4.65625 -31.671875 C -0.234375 -26.898438 -3.261719 -21.308594 -3.027344 -14.207031 C -2.910156 -11.992188 -2.097656 -10.128906 -0.699219 -8.5 C 0.929688 -6.636719 2.445312 -6.402344 4.425781 -7.917969 C 5.238281 -8.5 6.054688 -9.082031 6.753906 -9.78125 C 12.457031 -15.484375 17.816406 -21.65625 23.984375 -26.898438 C 26.546875 -29.109375 28.992188 -31.207031 32.835938 -32.484375 C 31.320312 -28.761719 29.34375 -25.847656 27.59375 -22.9375 C 24.335938 -17.347656 22.9375 -11.410156 23.519531 -5.125 C 23.984375 0.234375 28.0625 5.007812 34.929688 2.5625 C 38.773438 1.164062 42.5 -0.464844 45.992188 -2.445312 C 52.746094 -6.054688 59.035156 -10.128906 65.554688 -13.972656 C 68.929688 -15.835938 72.191406 -17.699219 75.453125 -19.5625 C 75.917969 -19.910156 76.730469 -20.027344 76.5 -20.957031 C 76.265625 -21.539062 75.800781 -22.007812 75.101562 -22.007812 Z M 75.101562 -22.007812" transform="translate(256.471 177.75)"/></g></g></g><g fill="#664A5A"><g><g><path d="M 96.527344 -19.445312 C 97.339844 -20.261719 97.109375 -20.957031 95.945312 -21.308594 C 94.898438 -21.773438 94.082031 -21.308594 93.265625 -20.84375 C 89.425781 -18.511719 85.929688 -15.71875 82.554688 -12.808594 C 77.898438 -8.847656 73.007812 -5.125 67.417969 -2.328125 C 57.519531 2.679688 47.15625 6.636719 36.210938 8.734375 C 29.226562 10.128906 22.125 10.828125 15.019531 10.011719 C 10.363281 9.429688 6.171875 8.152344 2.210938 5.707031 C 1.398438 5.238281 0.464844 4.890625 -0.117188 3.84375 C 1.046875 3.375 2.097656 2.910156 3.144531 2.5625 C 5.472656 1.746094 7.683594 0.816406 9.898438 -0.234375 C 16.183594 -3.492188 22.238281 -7.335938 28.0625 -11.292969 C 36.5625 -17.117188 44.480469 -23.753906 52.046875 -30.625 C 58.683594 -36.5625 64.507812 -43.429688 71.492188 -48.902344 C 72.308594 -49.601562 72.074219 -50.300781 71.375 -50.648438 C 69.746094 -51.582031 68.117188 -51.699219 66.484375 -50.648438 C 65.320312 -49.835938 64.273438 -48.902344 63.226562 -47.855469 C 55.890625 -41.101562 49.019531 -33.882812 41.566406 -27.363281 C 30.507812 -17.699219 18.628906 -9.082031 5.355469 -2.5625 C 2.679688 -1.28125 -0.117188 0.117188 -3.261719 0.816406 C -3.261719 -0.347656 -2.792969 -1.046875 -2.328125 -1.863281 C 2.445312 -12.226562 7.335938 -22.472656 11.992188 -32.953125 C 17.929688 -46.226562 23.753906 -59.734375 30.507812 -72.773438 C 36.328125 -84.183594 42.847656 -95.128906 50.648438 -105.257812 C 54.375 -110.148438 57.984375 -115.273438 64.273438 -117.367188 C 63.691406 -118.417969 62.875 -118.648438 61.828125 -118.882812 C 60.199219 -119.117188 58.800781 -118.535156 57.402344 -117.835938 C 52.980469 -115.390625 49.601562 -111.78125 46.457031 -108.054688 C 36.09375 -95.59375 28.179688 -81.738281 21.191406 -67.300781 C 16.300781 -57.519531 11.875 -47.507812 7.453125 -37.492188 C 3.261719 -28.0625 -1.164062 -18.863281 -5.472656 -9.546875 C -6.402344 -7.453125 -7.453125 -5.472656 -8.382812 -3.375 C -9.429688 -1.398438 -9.429688 -1.398438 -11.410156 -2.210938 C -13.039062 -2.792969 -14.671875 -3.261719 -16.417969 -3.492188 C -18.398438 -3.84375 -20.492188 -3.726562 -22.238281 -2.679688 C -25.152344 -0.929688 -25.152344 2.445312 -22.355469 4.191406 C -20.84375 5.125 -19.210938 5.589844 -17.582031 5.820312 C -16.300781 5.9375 -15.019531 6.171875 -13.855469 6.289062 C -13.625 6.984375 -13.855469 7.453125 -14.089844 7.800781 C -18.628906 16.535156 -23.289062 25.152344 -28.761719 33.300781 C -32.136719 38.425781 -35.863281 43.546875 -40.402344 47.855469 C -42.265625 49.71875 -44.480469 51.347656 -47.039062 52.164062 C -47.621094 52.398438 -48.789062 51.929688 -48.789062 52.980469 C -48.789062 53.910156 -47.738281 54.261719 -47.039062 54.492188 C -46.691406 54.609375 -46.34375 54.609375 -45.992188 54.609375 C -43.316406 54.609375 -40.519531 54.144531 -38.074219 52.746094 C -34.582031 50.648438 -31.902344 47.507812 -29.34375 44.363281 C -22.472656 35.511719 -16.535156 25.964844 -11.410156 15.835938 C -9.78125 12.691406 -8.035156 9.546875 -6.289062 6.402344 C -5.472656 4.773438 -4.773438 4.65625 -3.027344 5.707031 C -2.910156 5.820312 -2.679688 5.9375 -2.445312 6.054688 C 2.097656 8.847656 6.753906 11.292969 11.992188 12.109375 C 21.773438 13.738281 31.4375 13.273438 40.984375 11.0625 C 47.972656 9.429688 54.726562 6.871094 61.246094 3.84375 C 65.789062 1.746094 70.445312 -0.234375 74.871094 -2.792969 C 81.621094 -6.636719 87.445312 -11.761719 93.5 -16.652344 C 94.546875 -17.464844 95.59375 -18.398438 96.527344 -19.445312 Z M -10.945312 1.398438 C -11.179688 2.328125 -11.644531 3.027344 -12.691406 3.261719 C -14.089844 3.492188 -15.601562 3.492188 -17 3.375 C -17.699219 3.375 -18.398438 3.375 -19.097656 3.261719 C -20.492188 2.910156 -20.957031 2.097656 -20.375 0.699219 C -19.792969 -0.816406 -17.699219 -1.746094 -15.71875 -1.28125 C -14.4375 -0.929688 -13.15625 -0.582031 -12.109375 0.117188 C -11.644531 0.464844 -10.828125 0.582031 -10.945312 1.398438 Z M -10.945312 1.398438" transform="translate(329.827 177.75)"/></g></g></g><g fill="#664A5A"><g><g><path d="M 8.152344 -3.726562 C 8.382812 -1.28125 8.734375 1.164062 9.898438 3.375 C 13.855469 10.828125 21.773438 12.457031 28.410156 9.664062 C 41.800781 3.957031 66.953125 -18.046875 81.390625 -19.792969 C 81.273438 -20.261719 81.273438 -20.492188 81.15625 -20.609375 C 77.199219 -25.035156 41.453125 -0.464844 29.691406 5.238281 C 26.664062 6.753906 23.636719 8.035156 20.144531 8.035156 C 18.398438 7.917969 17.234375 7.21875 16.535156 5.589844 C 15.835938 3.957031 15.484375 2.210938 15.484375 0.347656 C 15.371094 -3.84375 16.183594 -7.800781 17.816406 -11.761719 C 19.097656 -15.019531 21.074219 -17.929688 22.820312 -20.957031 C 24.101562 -23.402344 23.871094 -24.21875 21.425781 -25.382812 C 20.726562 -25.734375 20.027344 -26.199219 19.328125 -25.964844 C 18.046875 -25.5 17.347656 -26.199219 16.417969 -26.78125 C 12.925781 -28.761719 9.429688 -29.226562 5.9375 -27.011719 C -2.445312 -21.773438 -6.289062 -13.855469 -6.054688 -4.191406 C -6.054688 -0.929688 -2.328125 0.929688 0.699219 -0.464844 C 1.863281 -1.046875 2.910156 -1.863281 3.726562 -2.792969 C 5.007812 -3.957031 6.289062 -5.238281 7.683594 -6.636719 C 8.152344 -5.472656 8.035156 -4.542969 8.152344 -3.726562 Z M 1.628906 -5.125 C 0.816406 -4.425781 -0.117188 -3.84375 -1.398438 -2.910156 C -1.398438 -5.472656 -0.929688 -7.335938 -0.234375 -8.964844 C 1.863281 -14.320312 4.890625 -18.863281 9.316406 -22.589844 C 10.128906 -23.289062 11.179688 -23.753906 12.109375 -24.335938 C 12.691406 -24.683594 13.507812 -24.800781 13.972656 -23.984375 C 14.4375 -23.289062 14.902344 -22.707031 14.320312 -21.773438 C 10.597656 -15.835938 6.984375 -9.78125 1.628906 -5.125 Z M 1.628906 -5.125" transform="translate(422.977 177.75)"/></g></g></g><g clip-path="url(#a)"><g clip-path="url(#b)"><g clip-path="url(#c)"><path fill="#7B5A6D" d="M 494.1875 51.035156 C 496.023438 52.269531 497.371094 54.320312 498.617188 56.542969 C 496.988281 54.960938 495.675781 52.859375 494.1875 51.035156" fill-rule="evenodd"/></g></g></g><g clip-path="url(#d)"><g clip-path="url(#e)"><g clip-path="url(#f)"><path fill="#7B5A6D" d="M 493.800781 61.132812 L 494.261719 61.015625 C 495.800781 63.246094 497.765625 64.777344 499.179688 67.207031 C 497.140625 65.597656 495.484375 63.34375 493.800781 61.132812" fill-rule="evenodd"/></g></g></g><g clip-path="url(#g)"><g clip-path="url(#h)"><g clip-path="url(#i)"><path fill="#7B5A6D" d="M 547.429688 52.765625 C 548.371094 53.203125 548.5 54.992188 549.0625 56.070312 C 548.050781 55.75 547.878906 54.03125 547.429688 52.765625" fill-rule="evenodd"/></g></g></g><g clip-path="url(#j)"><g clip-path="url(#k)"><g clip-path="url(#l)"><path fill="#7B5A6D" d="M 493.15625 70.804688 C 494.945312 72.910156 496.789062 74.921875 498.460938 77.222656 C 496.441406 75.5 494.628906 73.429688 493.15625 70.804688" fill-rule="evenodd"/></g></g></g><g clip-path="url(#m)"><g clip-path="url(#n)"><g clip-path="url(#o)"><path fill="#7B5A6D" d="M 554.289062 57.667969 C 555.199219 58.230469 555.445312 59.898438 555.839844 61.3125 C 554.945312 60.738281 554.734375 59 554.289062 57.667969" fill-rule="evenodd"/></g></g></g><g clip-path="url(#p)"><g clip-path="url(#q)"><g clip-path="url(#r)"><path fill="#7B5A6D" d="M 490.386719 79.074219 C 492.679688 80.976562 494.78125 83.210938 496.597656 85.914062 C 494.417969 83.816406 492.308594 81.601562 490.386719 79.074219" fill-rule="evenodd"/></g></g></g><g clip-path="url(#s)"><g clip-path="url(#t)"><g clip-path="url(#u)"><path fill="#7B5A6D" d="M 547.84375 67.335938 C 550.320312 66.859375 552.980469 67.945312 555.457031 68.183594 C 553.292969 68.976562 550.300781 67.480469 547.84375 67.335938" fill-rule="evenodd"/></g></g></g><g clip-path="url(#v)"><g clip-path="url(#w)"><g clip-path="url(#x)"><path fill="#7B5A6D" d="M 583.359375 58.648438 C 584.058594 59.054688 584.632812 59.671875 585.097656 60.476562 C 584.179688 60.433594 583.832031 59.433594 583.359375 58.648438" fill-rule="evenodd"/></g></g></g><g clip-path="url(#y)"><g clip-path="url(#z)"><g clip-path="url(#A)"><path fill="#7B5A6D" d="M 589.195312 57.519531 C 589.652344 58.226562 589.398438 59.617188 589.265625 60.402344 C 588.5625 59.550781 589.078125 58.316406 589.195312 57.519531" fill-rule="evenodd"/></g></g></g><g clip-path="url(#B)"><g clip-path="url(#C)"><g clip-path="url(#D)"><path fill="#7B5A6D" d="M 561.867188 64.8125 C 562.652344 65.433594 562.921875 67.816406 563.039062 68.871094 C 562.421875 67.898438 562.292969 66.101562 561.867188 64.8125" fill-rule="evenodd"/></g></g></g><g clip-path="url(#E)"><g clip-path="url(#F)"><g clip-path="url(#G)"><path fill="#7B5A6D" d="M 490.683594 85.449219 C 492.710938 87.378906 494.417969 89.832031 496.214844 92.136719 C 494.058594 90.429688 492.382812 87.921875 490.683594 85.449219" fill-rule="evenodd"/></g></g></g><g clip-path="url(#H)"><g clip-path="url(#I)"><g clip-path="url(#J)"><path fill="#7B5A6D" d="M 592.753906 62.113281 C 592.929688 63.46875 592.542969 65.601562 591.84375 66.855469 C 591.792969 65.0625 592.230469 63.5625 592.753906 62.113281" fill-rule="evenodd"/></g></g></g><g clip-path="url(#K)"><g clip-path="url(#L)"><g clip-path="url(#M)"><path fill="#7B5A6D" d="M 569.25 74.421875 C 569.90625 75.207031 569.378906 76.390625 569.289062 77.152344 C 568.695312 76.839844 569.195312 75.183594 569.25 74.421875" fill-rule="evenodd"/></g></g></g><g clip-path="url(#N)"><g clip-path="url(#O)"><g clip-path="url(#P)"><path fill="#7B5A6D" d="M 492.578125 93.6875 C 493.972656 95.011719 495.140625 96.71875 496.328125 98.394531 C 494.828125 97.355469 493.207031 95.464844 492.578125 93.6875" fill-rule="evenodd"/></g></g></g><g clip-path="url(#Q)"><g clip-path="url(#R)"><g clip-path="url(#S)"><path fill="#7B5A6D" d="M 595.175781 69.894531 C 595.65625 70.589844 594.914062 72.738281 594.148438 73.539062 C 594.203125 72.148438 594.648438 71 595.175781 69.894531" fill-rule="evenodd"/></g></g></g><g clip-path="url(#T)"><g clip-path="url(#U)"><g clip-path="url(#V)"><path fill="#7B5A6D" d="M 596.726562 78.054688 C 596.394531 78.714844 596 79.339844 595.398438 79.835938 C 595.460938 79.019531 596.042969 78.503906 596.726562 78.054688" fill-rule="evenodd"/></g></g></g><g clip-path="url(#W)"><g clip-path="url(#X)"><g clip-path="url(#Y)"><path fill="#7B5A6D" d="M 535.316406 117.867188 C 533.449219 118.542969 530.769531 118.707031 528.792969 118.847656 C 530.339844 117.890625 533.484375 117.875 535.316406 117.867188" fill-rule="evenodd"/></g></g></g><g clip-path="url(#Z)"><g clip-path="url(#aa)"><g clip-path="url(#ab)"><path fill="#7B5A6D" d="M 567.117188 109.140625 C 565.457031 110.378906 563.148438 111.226562 561.121094 112.242188 C 562.398438 110.851562 564.871094 109.511719 567.117188 109.140625" fill-rule="evenodd"/></g></g></g><g clip-path="url(#ac)"><g clip-path="url(#ad)"><g clip-path="url(#ae)"><path fill="#7B5A6D" d="M 572.226562 108.347656 C 573.195312 108.671875 573.757812 109.671875 574.160156 110.925781 C 573.332031 110.371094 572.761719 109.394531 572.226562 108.347656" fill-rule="evenodd"/></g></g></g><g clip-path="url(#af)"><g clip-path="url(#ag)"><g clip-path="url(#ah)"><path fill="#7B5A6D" d="M 522.042969 123.429688 C 523.679688 124.289062 524.117188 127.132812 524.847656 129.503906 C 523.609375 127.996094 523.085938 125.28125 522.042969 123.429688" fill-rule="evenodd"/></g></g></g><g clip-path="url(#ai)"><g clip-path="url(#aj)"><g clip-path="url(#ak)"><path fill="#7B5A6D" d="M 570.449219 115.402344 C 571.324219 116.371094 571.863281 117.914062 572.414062 119.425781 C 571.585938 118.457031 570.675781 116.671875 570.449219 115.402344" fill-rule="evenodd"/></g></g></g><g clip-path="url(#al)"><g clip-path="url(#am)"><g clip-path="url(#an)"><path fill="#7B5A6D" d="M 542.171875 124.0625 C 540.78125 124.582031 537.835938 124.703125 536.945312 124.394531 C 538.535156 123.695312 540.734375 123.789062 542.171875 124.0625" fill-rule="evenodd"/></g></g></g><g clip-path="url(#ao)"><g clip-path="url(#ap)"><g clip-path="url(#aq)"><path fill="#7B5A6D" d="M 614.449219 105.242188 C 615.523438 106.390625 615.941406 108.628906 616.566406 110.519531 C 615.574219 109.371094 614.808594 106.746094 614.449219 105.242188" fill-rule="evenodd"/></g></g></g><g clip-path="url(#ar)"><g clip-path="url(#as)"><g clip-path="url(#at)"><path fill="#7B5A6D" d="M 529.550781 127.046875 C 531.175781 129.136719 532.257812 133.925781 532.503906 136.953125 C 531.347656 134.074219 530.355469 129.792969 529.550781 127.046875" fill-rule="evenodd"/></g></g></g><g clip-path="url(#au)"><g clip-path="url(#av)"><g clip-path="url(#aw)"><path fill="#7B5A6D" d="M 565.898438 124.277344 C 567.03125 125.175781 567.402344 127.347656 567.941406 129.253906 C 566.914062 128.292969 566.042969 125.980469 565.898438 124.277344" fill-rule="evenodd"/></g></g></g><g clip-path="url(#ax)"><g clip-path="url(#ay)"><g clip-path="url(#az)"><path fill="#7B5A6D" d="M 620.472656 110.679688 C 621.886719 110.976562 622.105469 113.257812 622.667969 114.96875 C 621.660156 114.003906 621.226562 112.0625 620.472656 110.679688" fill-rule="evenodd"/></g></g></g><g clip-path="url(#aA)"><g clip-path="url(#aB)"><g clip-path="url(#aC)"><path fill="#7B5A6D" d="M 592.765625 117.742188 C 592.996094 117.636719 593.066406 117.824219 593.257812 117.78125 C 592.9375 120.082031 592.632812 122.394531 592.042969 124.535156 C 591.785156 122.488281 592.289062 119.777344 592.765625 117.742188" fill-rule="evenodd"/></g></g></g><g clip-path="url(#aD)"><g clip-path="url(#aE)"><g clip-path="url(#aF)"><path fill="#7B5A6D" d="M 555.546875 127.339844 C 556.339844 126.882812 557.839844 127.101562 559.074219 126.621094 C 558.886719 127.972656 556.574219 127.238281 555.546875 127.339844" fill-rule="evenodd"/></g></g></g><g clip-path="url(#aG)"><g clip-path="url(#aH)"><g clip-path="url(#aI)"><path fill="#7B5A6D" d="M 536.292969 132.78125 C 537.546875 134.382812 538.210938 137.492188 538.679688 139.765625 C 537.628906 137.867188 536.96875 135.308594 536.292969 132.78125" fill-rule="evenodd"/></g></g></g><g clip-path="url(#aJ)"><g clip-path="url(#aK)"><g clip-path="url(#aL)"><path fill="#7B5A6D" d="M 626.988281 116.148438 C 627.875 116.535156 628.292969 117.703125 628.652344 118.960938 C 627.792969 118.589844 627.089844 117.101562 626.988281 116.148438" fill-rule="evenodd"/></g></g></g><g clip-path="url(#aM)"><g clip-path="url(#aN)"><g clip-path="url(#aO)"><path fill="#7B5A6D" d="M 595.835938 124.230469 C 596.066406 124.132812 596.125 124.3125 596.324219 124.269531 C 596.742188 126.03125 596.453125 127.363281 596.320312 128.792969 C 595.628906 127.945312 595.78125 125.480469 595.835938 124.230469" fill-rule="evenodd"/></g></g></g><g clip-path="url(#aP)"><g clip-path="url(#aQ)"><g clip-path="url(#aR)"><path fill="#7B5A6D" d="M 561.230469 133.34375 C 562.496094 134.195312 562.222656 137.105469 562.363281 138.539062 C 561.480469 137.464844 561.511719 134.894531 561.230469 133.34375" fill-rule="evenodd"/></g></g></g><g clip-path="url(#aS)"><g clip-path="url(#aT)"><g clip-path="url(#aU)"><path fill="#7B5A6D" d="M 542.691406 139.738281 C 543.625 139.945312 544.695312 142.730469 543.976562 143.601562 C 543.601562 142.347656 542.707031 140.894531 542.691406 139.738281" fill-rule="evenodd"/></g></g></g><g clip-path="url(#aV)"><g clip-path="url(#aW)"><g clip-path="url(#aX)"><path fill="#7B5A6D" d="M 548.226562 138.679688 C 549.769531 138.902344 550.796875 139.980469 551.980469 140.804688 C 550.804688 140.824219 549.167969 139.765625 548.226562 138.679688" fill-rule="evenodd"/></g></g></g><g clip-path="url(#aY)"><g clip-path="url(#aZ)"><g clip-path="url(#ba)"><path fill="#7B5A6D" d="M 599.546875 130.085938 C 599.777344 129.976562 599.84375 130.164062 600.039062 130.125 C 599.992188 131.34375 600.191406 132.703125 600 133.84375 C 599.320312 132.78125 599.589844 131.183594 599.546875 130.085938" fill-rule="evenodd"/></g></g></g><g clip-path="url(#bb)"><g clip-path="url(#bc)"><g clip-path="url(#bd)"><path fill="#7B5A6D" d="M 606.441406 131.910156 C 607.753906 132.441406 608.769531 133.472656 609.699219 134.648438 C 608.414062 134.066406 607.378906 133.074219 606.441406 131.910156" fill-rule="evenodd"/></g></g></g><g clip-path="url(#be)"><g clip-path="url(#bf)"><g clip-path="url(#bg)"><path fill="#7B5A6D" d="M 505.933594 49.722656 C 505.746094 50.984375 505.007812 53.035156 503.8125 54.121094 C 504.136719 52.421875 505.042969 51.078125 505.933594 49.722656" fill-rule="evenodd"/></g></g></g><g clip-path="url(#bh)"><g clip-path="url(#bi)"><g clip-path="url(#bj)"><path fill="#7B5A6D" d="M 509.871094 59.0625 C 509.1875 61.101562 507.097656 63.410156 505.472656 65.320312 C 506.140625 63.269531 508.507812 61.121094 509.871094 59.0625" fill-rule="evenodd"/></g></g></g><g clip-path="url(#bk)"><g clip-path="url(#bl)"><g clip-path="url(#bm)"><path fill="#7B5A6D" d="M 542.390625 60.3125 C 543.921875 60.335938 546.300781 60.804688 547.730469 61.722656 C 545.8125 61.480469 544.085938 60.925781 542.390625 60.3125" fill-rule="evenodd"/></g></g></g><g clip-path="url(#bn)"><g clip-path="url(#bo)"><g clip-path="url(#bp)"><path fill="#7B5A6D" d="M 509.945312 69.042969 C 509.238281 71.027344 506.890625 73.140625 505.316406 75.03125 C 506.054688 73.066406 508.535156 71.03125 509.945312 69.042969" fill-rule="evenodd"/></g></g></g><g clip-path="url(#bq)"><g clip-path="url(#br)"><g clip-path="url(#bs)"><path fill="#7B5A6D" d="M 511.757812 75.683594 C 510.574219 78.453125 507.523438 81.222656 505.992188 84.214844 C 506.882812 81.265625 509.632812 78.320312 511.757812 75.683594" fill-rule="evenodd"/></g></g></g><g clip-path="url(#bt)"><g clip-path="url(#bu)"><g clip-path="url(#bv)"><path fill="#7B5A6D" d="M 584.796875 65.066406 C 585.769531 65.226562 586.945312 66.917969 587.902344 67.839844 C 586.453125 67.601562 585.90625 65.859375 584.796875 65.066406" fill-rule="evenodd"/></g></g></g><g clip-path="url(#bw)"><g clip-path="url(#bx)"><g clip-path="url(#by)"><path fill="#7B5A6D" d="M 562.273438 76.160156 C 559.523438 75.589844 556.800781 74.96875 554.207031 74.136719 C 556.144531 74.351562 560.25 74.664062 562.273438 76.160156" fill-rule="evenodd"/></g></g></g><g clip-path="url(#bz)"><g clip-path="url(#bA)"><g clip-path="url(#bB)"><path fill="#7B5A6D" d="M 503.605469 96.582031 C 505.1875 93.640625 507.382812 90.332031 509.746094 87.632812 C 509.976562 87.371094 510.265625 86.71875 510.691406 86.914062 C 508.210938 90.070312 506.199219 93.5 503.605469 96.582031" fill-rule="evenodd"/></g></g></g><g clip-path="url(#bC)"><g clip-path="url(#bD)"><g clip-path="url(#bE)"><path fill="#7B5A6D" d="M 587.785156 74.480469 C 588.75 74.738281 589.972656 76.410156 590.8125 77.589844 C 589.652344 76.804688 588.863281 75.398438 587.785156 74.480469" fill-rule="evenodd"/></g></g></g><g clip-path="url(#bF)"><g clip-path="url(#bG)"><g clip-path="url(#bH)"><path fill="#7B5A6D" d="M 594.886719 114.636719 C 594.527344 112.972656 594.449219 110.191406 593.488281 109.019531 C 593.429688 110.445312 593.71875 113.699219 594.886719 114.636719 Z M 593.109375 108.140625 C 594.125 108.195312 593.429688 107.214844 593.378906 106.628906 L 592.921875 106.742188 C 593.179688 107.328125 592.992188 107.640625 593.109375 108.140625 Z M 611.890625 141.523438 C 611.796875 141.53125 611.707031 141.539062 611.703125 141.40625 C 607.65625 138.414062 604.832031 133.597656 601.816406 128.867188 C 597.660156 122.34375 593.15625 115.664062 591.9375 106.015625 C 591.097656 106.742188 589.726562 108.230469 589.628906 109.660156 C 589.589844 110.199219 590.042969 110.742188 590.042969 111.324219 C 590.03125 112.261719 589.347656 113.285156 589.132812 114.136719 C 588.597656 116.246094 589.046875 116.953125 589.542969 119.027344 C 590.054688 121.144531 589.371094 123.632812 590.375 125.59375 C 590.917969 126.652344 592.453125 127.128906 592.953125 128.179688 C 594.054688 130.496094 594.195312 133.03125 596.171875 134.628906 C 596.792969 135.132812 597.742188 135.3125 598.40625 135.847656 C 600.304688 137.386719 601.480469 139.636719 604.128906 139.425781 C 606.441406 141.578125 609.773438 142.042969 612.082031 144.214844 C 614.328125 144.128906 615.699219 145.492188 617.996094 145.320312 C 616.695312 144 616.515625 141.960938 615.566406 140.117188 C 615.175781 139.347656 614.265625 138.8125 613.90625 137.953125 C 613.636719 137.320312 613.695312 136.460938 613.375 135.828125 C 612.878906 134.839844 611.429688 134.375 610.988281 133.363281 C 610.492188 132.214844 610.660156 130.804688 610.230469 129.679688 C 610.023438 129.125 609.542969 128.671875 609.363281 128.121094 C 609.039062 127.140625 609.230469 126.015625 608.90625 125.007812 C 608.679688 124.289062 608.117188 123.6875 607.925781 122.996094 C 607.582031 121.765625 607.75 120.453125 607.320312 119.273438 C 607.144531 118.800781 606.671875 118.332031 606.488281 117.875 C 606.070312 116.875 606.144531 115.738281 605.730469 114.835938 C 605.34375 114.003906 604.066406 113.410156 603.496094 112.332031 C 603.148438 111.667969 603.152344 110.878906 602.851562 110.394531 C 601.992188 109.007812 599.742188 108.800781 599.214844 106.78125 C 597.734375 106.179688 596.082031 105.84375 594.058594 106.128906 C 594.871094 113.171875 596.605469 118.5625 599.398438 123.664062 C 603.210938 130.644531 607.546875 136.734375 612.238281 141.597656 C 612.082031 141.636719 612.023438 141.515625 611.890625 141.523438 Z M 608.085938 99.734375 C 610.988281 100.5625 613.082031 102.722656 616.078125 103.390625 C 613.847656 101.15625 611.097656 99.800781 607.9375 99.128906 Z M 638.019531 109.367188 C 637.085938 107.972656 635.367188 107.449219 634.386719 106.402344 C 633.078125 105.023438 632.40625 103.5625 630.445312 103.519531 C 629.277344 101.496094 627.179688 101.644531 625.140625 100.96875 C 623.757812 100.511719 622.710938 99.234375 621.199219 98.726562 C 620.792969 98.585938 620.289062 98.71875 619.875 98.570312 C 618.8125 98.195312 617.898438 97.351562 616.765625 97.089844 C 614.683594 96.609375 610.300781 97.109375 608.160156 98.101562 C 609.355469 99.019531 610.875 99.496094 612.21875 100.160156 C 613.621094 100.855469 614.960938 101.578125 616.304688 102.363281 C 617.914062 104.300781 620.070312 105.59375 622.03125 107.222656 C 623.988281 108.859375 625.757812 110.730469 627.789062 112.238281 C 629.820312 113.765625 631.800781 115.375 633.773438 116.882812 C 635.746094 118.382812 638.207031 119.363281 639.453125 121.585938 C 635.660156 118.914062 631.957031 115.972656 628.015625 113.152344 C 626.125 111.800781 624.125 110.539062 622.175781 109.121094 C 620.242188 107.710938 618.636719 105.722656 616.683594 104.523438 C 615.265625 103.652344 613.589844 103.082031 612.101562 102.285156 C 610.667969 101.515625 609.257812 100.394531 607.589844 100.339844 C 607.40625 103.046875 608.964844 105.714844 610.507812 106.875 C 610.34375 111.09375 614.640625 111.222656 616.074219 113.058594 C 617.316406 114.660156 617.445312 116.507812 619.070312 117.316406 C 619.601562 117.582031 620.371094 117.363281 621.078125 117.621094 C 622.34375 118.082031 623.429688 119.367188 624.484375 119.679688 C 625.214844 119.886719 626.054688 119.644531 626.796875 119.90625 C 627.484375 120.148438 627.886719 120.949219 628.578125 121.238281 C 629.457031 121.597656 630.253906 121.132812 631.152344 121.238281 C 631.75 121.3125 632.34375 121.835938 632.9375 121.925781 C 634.109375 122.101562 635.347656 121.714844 636.460938 121.851562 C 638.339844 122.082031 640.714844 123.453125 642.144531 124.628906 C 642.890625 125.238281 643.382812 126.304688 644.53125 126.449219 C 644.953125 121.453125 641.957031 116.085938 639.722656 112.332031 C 637.339844 112.933594 635.015625 113.441406 633.394531 112.777344 C 635.179688 111.96875 637.308594 112.394531 639.191406 112.140625 C 638.734375 111.082031 638.566406 110.1875 638.019531 109.367188 Z M 592.394531 98.808594 C 592.539062 98.292969 592.253906 97.515625 592.242188 96.910156 L 591.640625 97.0625 C 592.046875 97.667969 591.367188 99.042969 592.394531 98.808594 Z M 554.363281 149.726562 C 555.230469 146.5625 555.832031 142.960938 554.515625 138.71875 C 552.539062 132.34375 548.136719 126.195312 544.976562 122.390625 C 544.71875 121.855469 544.980469 121.621094 544.828125 121.144531 C 543.667969 120.125 542.816406 118.898438 541.335938 118.140625 C 540.570312 117.746094 539.574219 117.75 538.875 117.300781 C 538.328125 116.949219 537.964844 116.230469 537.402344 115.894531 C 536.140625 115.152344 532.96875 114.289062 530.769531 113.84375 C 529.804688 113.644531 528.746094 113.808594 527.507812 113.683594 C 525.273438 113.457031 522.941406 113.53125 520.234375 114.210938 C 518.210938 114.714844 515.890625 115.566406 514.890625 117.3125 C 520.621094 118.21875 526.074219 119.582031 529.964844 123.554688 C 534.425781 125.84375 538.265625 129.535156 541.941406 133.46875 C 545.550781 137.339844 548.871094 142.433594 550.121094 148.851562 C 547.492188 143.371094 545.265625 137.761719 541.480469 133.582031 C 539.804688 131.722656 537.867188 129.996094 535.804688 128.226562 C 533.878906 126.574219 531.6875 124.296875 529.625 123.476562 C 528.5625 123.050781 527.179688 122.820312 525.984375 122.449219 C 522.199219 121.277344 518.40625 120.53125 514.28125 120.046875 C 515.609375 122.21875 516.640625 125.324219 519.015625 126.765625 C 519.972656 127.351562 520.695312 127.085938 521.214844 127.828125 C 521.6875 128.515625 521.828125 129.613281 522.160156 130.332031 C 522.515625 131.117188 522.847656 132.027344 523.21875 132.65625 C 523.933594 133.847656 525.007812 135.515625 526.0625 136.300781 C 526.667969 136.757812 528.183594 136.730469 528.75 137.40625 C 529.671875 138.496094 529.582031 139.9375 530.5625 140.816406 C 531.777344 141.90625 533.445312 142.027344 535.308594 141.738281 C 536.671875 143.96875 538.773438 144.976562 541.441406 145.046875 C 543.644531 146.242188 545.578125 147.894531 547.085938 150.25 C 549.558594 150.574219 551.332031 152.054688 552.5 154.546875 C 553.804688 153.390625 553.910156 151.386719 554.363281 149.726562 Z M 566.128906 100.03125 C 565.535156 100.183594 566.464844 101.265625 565.640625 101.285156 C 562.671875 101.503906 559.78125 102.695312 560.21875 105.375 C 557.996094 107.003906 555.835938 108.667969 556.386719 111.972656 C 554.660156 114.199219 551.988281 115.863281 552.445312 119.40625 C 551.488281 120.71875 550.085938 122.171875 551.074219 124.261719 C 548.957031 126.738281 551.242188 128.71875 552.777344 131.738281 C 554.933594 135.972656 557.34375 142.144531 556.484375 146.613281 C 557.96875 146.070312 559.382812 145.480469 560.3125 144.535156 C 560.875 143.960938 560.933594 143.074219 561.414062 142.484375 C 562.6875 140.9375 564.792969 140.34375 566.078125 138.585938 C 565.566406 136.273438 567.691406 135.808594 568.960938 134.636719 C 569.875 133.800781 570.730469 132.546875 571.234375 131.492188 C 571.597656 130.738281 571.527344 129.640625 571.996094 128.726562 C 572.558594 127.621094 573.6875 127.03125 574.269531 126.222656 C 575.066406 125.117188 575.917969 123.464844 576.054688 121.746094 C 576.144531 120.640625 575.539062 120.121094 575.601562 118.632812 C 575.628906 117.960938 576.238281 117.53125 576.429688 116.8125 C 577.046875 114.554688 576.535156 112.132812 575.378906 109.339844 C 576.035156 106.609375 574.75 101.859375 572.421875 100.71875 C 568.097656 113.171875 565.257812 126.519531 556.300781 136.1875 C 559.394531 130.511719 563.164062 125.210938 565.40625 119.074219 C 565.964844 117.539062 566.882812 116.207031 567.375 114.714844 C 569.023438 109.789062 569.46875 104.886719 569.957031 99.234375 C 568.8125 98.921875 567.289062 99.441406 566.128906 100.03125 Z M 565.453125 94.070312 C 564.96875 93.519531 563.933594 93.875 563.03125 94.03125 C 563.171875 94.910156 565.40625 94.4375 565.453125 94.070312 Z M 559.996094 94.789062 C 560.394531 94.6875 560.847656 94.511719 561.097656 94.671875 C 561.066406 93.855469 560.421875 94.074219 559.84375 94.183594 Z M 558.0625 94.785156 C 558.292969 94.847656 559.441406 95.136719 559.277344 94.484375 C 559.320312 93.957031 557.777344 94.339844 558.0625 94.785156 Z M 494.308594 117.441406 C 501.523438 115.738281 507.417969 116.222656 513.070312 117.121094 C 515.828125 113.863281 520.308594 112.628906 524.554688 112.164062 C 525.539062 112.058594 526.746094 112.5 528.042969 112.585938 C 528.867188 112.640625 529.722656 112.386719 530.429688 112.472656 C 532.324219 112.707031 535.902344 113.878906 537.402344 114.609375 C 538.347656 115.070312 538.9375 115.957031 539.789062 116.429688 C 540.566406 116.867188 541.554688 116.863281 542.25 117.269531 C 543.429688 117.949219 545.1875 119.566406 545.847656 120.726562 C 546.121094 121.207031 546.128906 121.746094 546.375 122.203125 C 547.066406 123.484375 548.398438 124.355469 548.992188 125.582031 C 550.308594 125.019531 549.582031 123.613281 549.675781 122.511719 C 549.796875 121.113281 550.671875 120.09375 551.421875 119.179688 C 551.152344 115.746094 553.3125 113.78125 555.363281 111.738281 C 554.984375 108.5 556.769531 106.5625 559.15625 104.996094 C 559.035156 102.214844 561.632812 100.660156 564.730469 100.21875 C 565.382812 98.652344 568.515625 97.871094 570.230469 98.363281 C 570.367188 97.289062 570.78125 96.375 570.53125 95.0625 C 545.660156 95.425781 512.625 104.578125 494.3125 117.441406 Z M 549.007812 95.910156 C 549.339844 95.910156 550.628906 96.183594 550.523438 95.53125 C 550.496094 95.023438 548.785156 95.449219 549.007812 95.910156 Z M 537.523438 97.648438 C 537.410156 97.710938 537.375 97.816406 537.445312 97.988281 L 537.523438 98.289062 C 541.300781 97.308594 545.980469 96.953125 548.816406 95.796875 C 545.667969 95.386719 541.195312 97.179688 537.523438 97.648438 Z M 567.351562 80.375 C 568.023438 82.117188 569.003906 83.921875 569.664062 85.769531 C 569.960938 86.589844 569.96875 87.941406 570.910156 88.195312 C 570.515625 84.988281 569.121094 81.578125 567.394531 79.882812 L 567.085938 79.957031 C 567.15625 80.128906 567.167969 80.394531 567.351562 80.375 Z M 501.027344 91.421875 C 500.085938 95.046875 499.085938 98.769531 497.839844 102.53125 C 496.683594 106.019531 495.617188 109.71875 493.554688 112.46875 C 492.066406 114.460938 489.207031 116.246094 487.070312 118.113281 C 480.511719 123.859375 474.566406 129.964844 469.023438 136.160156 C 461.332031 144.757812 456.664062 153.570312 451.503906 164.066406 C 450.855469 165.542969 450.46875 168.515625 452.828125 168.738281 C 454 167.390625 453.292969 164.675781 453.929688 162.820312 C 454.246094 161.886719 455.011719 160.859375 455.558594 159.671875 C 456.046875 158.609375 456.792969 157.625 457.378906 156.636719 C 458.636719 154.519531 459.636719 152.195312 460.792969 150.304688 C 465.785156 142.144531 472.5 135.222656 479.828125 128.464844 C 483.515625 125.074219 487.761719 121.449219 493.09375 119.679688 C 504.578125 115.875 513.714844 119.175781 523.296875 120.703125 C 522.910156 119.699219 521.730469 119.625 520.871094 119.371094 C 517.957031 118.511719 514.980469 118.300781 511.816406 117.917969 C 507.695312 117.417969 503.582031 116.710938 498.972656 117.414062 C 496.164062 117.832031 492.316406 119.441406 489.988281 118.839844 C 502.28125 110.238281 518.273438 103.871094 535.777344 98.402344 C 520.101562 101.410156 504.90625 108.597656 493.554688 115.054688 C 496.355469 113.074219 497.0625 109.953125 498.101562 106.820312 C 499.234375 103.421875 500.230469 100.042969 500.875 96.617188 C 501.203125 94.867188 501.679688 92.800781 501.179688 91.382812 Z M 574.796875 44.335938 C 576.1875 46.660156 578.09375 48.746094 579.265625 51.285156 C 580.375 53.667969 581.503906 56.773438 581.992188 59.636719 C 582.371094 61.859375 582.015625 64.210938 582.253906 66.503906 C 582.40625 67.976562 583.074219 69.539062 583.046875 70.984375 C 583.039062 71.703125 582.734375 72.164062 582.859375 72.800781 C 583.121094 74.15625 584.230469 75.214844 584.976562 76.144531 C 583.980469 79.152344 587.535156 80.679688 588.234375 82.753906 C 588.519531 83.589844 588.203125 84.636719 588.613281 85.558594 C 589.191406 86.847656 590.273438 87.570312 591.71875 87.6875 C 592.214844 84.082031 592.589844 80.179688 591.839844 75.886719 C 590.535156 68.40625 586.101562 61.054688 584.308594 55.347656 C 587.199219 59.664062 589.683594 65.742188 591.613281 71.75 C 592.292969 73.867188 592.402344 76.238281 593.203125 78.128906 C 593.941406 79.871094 593.742188 81.703125 593.769531 83.632812 C 593.789062 85.332031 593.757812 86.835938 593.804688 88.296875 C 596.703125 86.863281 597.246094 84.003906 598.957031 81.851562 C 598.570312 79.628906 600.164062 78.125 599.953125 76.125 C 599.882812 75.476562 599.457031 74.949219 599.347656 74.339844 C 599.191406 73.519531 599.476562 72.644531 599.382812 71.910156 C 599.199219 70.496094 598.433594 69.414062 598.097656 68.039062 C 597.800781 66.847656 598.035156 66.027344 597.679688 65.078125 C 597.175781 63.746094 596.003906 63.332031 595.105469 61.851562 C 594.644531 61.089844 594.511719 60.027344 593.96875 59.230469 C 593.121094 57.984375 591.492188 57.273438 590.480469 56.230469 C 588.742188 54.4375 587.277344 52.8125 585.253906 52.050781 C 584.125 50.042969 581.847656 49.386719 580.21875 47.984375 C 578.507812 46.511719 577.109375 44.515625 574.835938 43.84375 L 574.53125 43.917969 C 574.601562 44.089844 574.613281 44.355469 574.796875 44.335938 Z M 531.820312 46.335938 C 532 46.839844 532 47.53125 532.234375 48.007812 C 533.101562 49.738281 535.144531 50.6875 534.925781 52.980469 C 535.367188 54.109375 537.203125 54.976562 537.539062 56.359375 C 537.679688 56.945312 537.289062 57.78125 537.390625 58.332031 C 537.707031 60.023438 539.054688 62.101562 539.960938 63.496094 C 540.925781 64.984375 542.390625 66.167969 543.371094 67.484375 C 542.683594 71.292969 547.167969 71.078125 548.371094 73.335938 C 548.800781 74.140625 548.679688 75.320312 549.242188 76.179688 C 550.488281 78.082031 553.480469 77.429688 554.964844 78.464844 C 555.398438 78.765625 555.5625 79.492188 555.949219 79.832031 C 558.199219 81.828125 561.382812 81.058594 563.410156 82.648438 C 564.183594 86.386719 566.621094 87.328125 569.476562 87.589844 C 565.648438 74.933594 559.191406 68.007812 551.484375 61.914062 C 547.269531 58.585938 542.917969 55.503906 539.285156 51.734375 C 545.015625 55.589844 550.703125 59.988281 556.257812 64.917969 C 558.867188 67.238281 561.269531 69.910156 563.648438 73.234375 C 566.628906 77.410156 570.609375 80.988281 571.675781 88.003906 C 574.160156 86.046875 573.085938 81.128906 572.09375 78.066406 C 571.226562 75.390625 571.585938 73.308594 570.429688 71.386719 C 569.835938 70.40625 568.699219 69.921875 568.003906 68.765625 C 567.175781 67.375 566.636719 65.089844 565.734375 64.167969 C 564.585938 62.996094 562.929688 62.910156 561.90625 61.738281 C 561.3125 61.058594 561.101562 60.101562 560.507812 59.34375 C 559.695312 58.332031 557.980469 57.691406 556.90625 56.535156 C 555.578125 55.101562 554.867188 53.59375 553.722656 52.8125 C 553.074219 52.367188 551.832031 52.246094 550.882812 51.746094 C 550.226562 51.402344 549.734375 50.867188 549.136719 50.566406 C 548.46875 50.234375 547.761719 49.710938 547.128906 49.617188 C 546.441406 49.511719 545.761719 49.925781 545.082031 49.804688 C 544 49.605469 542.625 48.375 541.375 47.828125 C 539.996094 47.222656 538.554688 46.757812 537.28125 46.265625 C 534.433594 45.175781 532.300781 43.144531 530.003906 41.628906 L 529.703125 41.703125 C 529.9375 43.511719 531.222656 44.660156 531.820312 46.335938 Z M 494.796875 40.566406 C 494 40.949219 493.453125 40.070312 492.902344 40.714844 C 491.484375 42.78125 492.449219 46.289062 492.824219 49.441406 C 492.601562 49.867188 491.457031 49.734375 491.230469 50.164062 C 490.480469 53.234375 490.695312 56.894531 491.683594 61.015625 C 491.476562 61.535156 490.421875 61.546875 490.164062 62.035156 C 489.203125 64.898438 489.230469 68.355469 490.160156 72.359375 C 489.859375 72.820312 488.910156 72.894531 488.457031 73.265625 C 487.230469 76.421875 487.226562 80.578125 488.867188 85.257812 C 489.082031 85.867188 489.585938 86.402344 489.625 87.003906 C 489.671875 87.695312 488.925781 88.378906 488.867188 89.128906 C 488.542969 93.027344 491.09375 96.65625 492.726562 99.453125 C 492.574219 102.019531 494.3125 104.71875 495.679688 106.136719 C 498.3125 98.902344 501.039062 90.582031 501.453125 81.476562 C 501.644531 77.113281 501.511719 72.222656 501.304688 67.324219 C 501.050781 61.214844 500.898438 54.847656 499.574219 48.726562 C 501.671875 54.40625 502.234375 61.757812 502.445312 66.71875 C 502.597656 70.238281 503.320312 73.53125 503.347656 76.8125 C 503.433594 86.480469 502.015625 95.617188 500.113281 103.902344 C 504.285156 101.4375 507.589844 97.734375 510.734375 93.515625 C 513.296875 90.078125 518.347656 83.335938 515.550781 78.609375 C 516.496094 75.199219 517.628906 71.320312 516.808594 67.492188 C 516.648438 66.773438 516.320312 65.304688 515.75 64.53125 C 515.488281 64.183594 514.425781 63.894531 514.15625 63.316406 C 513.839844 62.640625 514.144531 61.679688 514.042969 60.925781 C 513.609375 57.820312 512.488281 54.296875 511.242188 51.625 C 510.722656 51.492188 509.933594 51.800781 509.6875 51.207031 C 509.292969 46.59375 506.890625 42.109375 504.160156 40.003906 C 503.46875 40.089844 503.449219 41.035156 502.71875 40.6875 C 500.460938 36.863281 497.808594 33.691406 494.273438 31.988281 C 495.054688 35.214844 495.664062 38.328125 494.796875 40.566406 Z M 502.984375 39.171875 C 503.34375 39.433594 504.179688 38.898438 504.578125 39.097656 C 507.511719 41.296875 509.539062 45.007812 510.714844 50.144531 C 513.847656 51.742188 514.769531 58.785156 515.101562 62.597656 C 519.5 66.429688 518.003906 74.394531 516.609375 78.347656 C 518.730469 82.296875 516.160156 87.039062 514.257812 90.21875 C 511.535156 94.769531 507.335938 99.734375 502.84375 103.222656 C 501.941406 103.929688 500.609375 104.46875 499.8125 105.269531 C 498.332031 106.75 498.171875 110.5 497.230469 112.363281 C 508.515625 105.890625 525.53125 98.945312 542.332031 95.636719 C 552.277344 93.683594 562.128906 93.066406 570.761719 92.746094 C 570.894531 91.371094 569.875 90.074219 569.703125 88.496094 C 566.261719 88.433594 563.585938 87.09375 562.429688 83.21875 C 559.558594 82.054688 555.988281 82.058594 554.167969 79.148438 C 550.996094 78.769531 548.023438 78.070312 547.3125 73.597656 C 545.976562 72.351562 543.550781 72.023438 542.613281 69.609375 C 542.402344 69.066406 542.570312 68.335938 542.3125 67.75 C 541.996094 67.046875 541.089844 66.4375 540.527344 65.773438 C 539.945312 65.082031 539.484375 64.300781 539.015625 63.570312 C 537.675781 61.488281 535.742188 58.695312 536.632812 56.585938 C 535.730469 55.363281 534.734375 54.304688 533.832031 53.09375 C 533.542969 52.492188 533.941406 52.304688 533.832031 51.800781 C 531.214844 48.335938 528.566406 42.6875 527.617188 37.871094 C 528.96875 38.148438 529.210938 39.386719 529.964844 40.1875 C 534.160156 44.609375 540.050781 46.046875 545.308594 48.78125 C 547.570312 48.421875 549.128906 49.433594 551.035156 50.417969 C 552.289062 51.066406 553.691406 51.542969 554.523438 52.128906 C 555.96875 53.164062 556.753906 54.980469 558.121094 56.230469 C 559.035156 57.074219 560.007812 57.5625 560.734375 58.320312 C 561.578125 59.214844 561.90625 60.28125 562.742188 61.207031 C 563.855469 62.445312 565.613281 62.582031 566.527344 63.488281 C 567.769531 64.714844 568.019531 66.761719 569.03125 68.347656 C 570.113281 70.058594 571.503906 70.714844 572.097656 72.257812 C 572.660156 73.730469 572.449219 75.425781 573.113281 77.648438 C 573.691406 79.574219 574.265625 81.492188 574.550781 84.0625 C 573.773438 85.960938 573.546875 88.1875 572.089844 89.675781 C 572.613281 90.519531 572.761719 91.996094 573.113281 93.132812 C 579.066406 93.589844 585.15625 93.828125 591.222656 94.097656 C 591.753906 92.566406 591.527344 90.585938 591.679688 88.828125 C 589.582031 88.128906 586.984375 86.363281 587.328125 82.980469 C 586.597656 81.640625 585.128906 80.949219 584.449219 79.175781 C 584.136719 78.375 584.273438 77.390625 583.957031 76.5625 C 583.472656 75.289062 582.078125 74.394531 581.796875 73.066406 C 581.640625 72.339844 582.066406 71.71875 582.066406 70.90625 C 582.058594 69.496094 581.457031 67.925781 581.308594 66.578125 C 581.0625 64.328125 581.355469 62.226562 581.003906 60.203125 C 580.664062 58.226562 580 56.117188 579.339844 54.167969 C 577.738281 49.445312 574.34375 46.519531 572.605469 41.980469 C 574.019531 41.414062 575.28125 42.867188 576.390625 43.617188 C 578 44.703125 579.265625 45.839844 580.824219 47.1875 C 581.554688 47.820312 582.660156 48.121094 583.476562 48.785156 C 584.589844 49.695312 585.421875 51.015625 586.46875 51.746094 C 587.261719 52.304688 588.429688 52.414062 589.195312 53.003906 C 590.054688 53.65625 590.558594 54.804688 591.28125 55.546875 C 592.351562 56.648438 593.644531 57.140625 594.5 58.132812 C 595.253906 59.011719 595.414062 60.265625 596.132812 61.433594 C 597.0625 62.957031 598.25 63.492188 598.699219 64.664062 C 599.132812 65.785156 599.023438 66.902344 599.421875 68.195312 C 599.707031 69.121094 600.226562 69.890625 600.402344 70.851562 C 600.578125 71.804688 600.203125 72.9375 600.441406 74.226562 C 600.542969 74.769531 600.929688 75.257812 601.011719 75.859375 C 601.191406 77.269531 600.28125 78.445312 600.097656 79.960938 C 599.851562 81.992188 599.839844 82.503906 598.621094 84.359375 C 597.464844 86.109375 596.738281 87.707031 595.132812 89.09375 C 594.703125 89.464844 594.328125 89.371094 593.765625 89.433594 C 593.757812 90.980469 593.566406 92.417969 593.609375 93.992188 C 598.125 95 602.339844 96.492188 606.644531 97.835938 C 608.910156 95.832031 614.308594 95.402344 616.992188 96.0625 C 618.089844 96.332031 618.957031 97.097656 619.914062 97.429688 C 620.957031 97.808594 621.816406 98.039062 622.753906 98.496094 C 623.589844 98.90625 624.449219 99.621094 625.367188 99.941406 C 625.925781 100.144531 626.640625 99.988281 627.1875 100.136719 C 628.578125 100.511719 629.503906 101.652344 631.011719 102.566406 C 632.65625 103.570312 634.4375 103.578125 635.332031 105.683594 C 637.339844 106.554688 638.386719 108.359375 639.796875 110.699219 C 640.335938 111.578125 641.164062 112.230469 641.695312 113.125 C 642.257812 114.074219 642.445312 115.167969 642.980469 116.355469 C 643.316406 117.097656 643.972656 117.714844 644.308594 118.441406 C 645.808594 121.722656 646.117188 125.398438 645.210938 128.539062 C 643.261719 127.792969 642.648438 126.347656 641.351562 125.308594 C 640.144531 124.351562 638.375 123.332031 636.917969 123.03125 C 635.902344 122.816406 634.71875 123.242188 633.390625 123.097656 C 632.816406 123.039062 632.003906 122.488281 631.117188 122.378906 C 629.222656 122.136719 627.496094 122.40625 626.382812 120.8125 C 624.046875 121.324219 622.519531 119.230469 620.847656 118.648438 C 619.570312 118.199219 618.300781 118.144531 617.25 117.128906 C 616.375 116.277344 616.210938 114.960938 615.277344 113.75 C 614.238281 112.378906 611.617188 112.132812 610.585938 110.402344 C 610.050781 109.515625 610.105469 108.386719 609.714844 107.554688 C 608.984375 106.023438 607.320312 105.304688 606.761719 102.804688 C 606.542969 101.851562 606.640625 101.03125 606.796875 99.734375 C 603.25 96.976562 597.757812 97.472656 593.460938 95.964844 C 594.867188 95.566406 596.632812 96.382812 598.34375 96.195312 C 597.050781 94.839844 594.886719 94.945312 593.195312 94.257812 C 592.839844 91.203125 593.394531 88.007812 592.894531 85.296875 C 592.039062 85.753906 592.546875 86.921875 592.519531 87.648438 C 592.421875 89.761719 592.167969 92.457031 591.835938 94.59375 C 585.113281 94.832031 578.910156 94.21875 572.613281 93.738281 C 572.027344 92.136719 572.027344 89.566406 570.914062 88.839844 C 570.550781 89.628906 571.660156 91.582031 571.78125 92.976562 C 571.882812 93.464844 571.609375 93.730469 571.027344 93.8125 C 572.203125 97.285156 569.945312 100.433594 570.226562 104.171875 C 571.457031 103.207031 571.527344 101.359375 571.894531 99.886719 C 572.273438 98.378906 572.519531 96.773438 572.84375 95.296875 C 579.007812 95.117188 584.941406 95.328125 590.921875 95.464844 C 591.351562 95.742188 591.707031 96.15625 591.90625 96.835938 C 592.0625 96.453125 592.105469 96.011719 592.628906 95.84375 C 593.371094 99.046875 593.445312 101.84375 593.910156 104.882812 C 595.832031 105.574219 598.28125 104.863281 599.898438 106.289062 C 600.316406 106.660156 600.316406 107.332031 600.765625 107.847656 C 601.558594 108.753906 602.988281 109.144531 603.53125 109.898438 C 603.917969 110.429688 603.945312 111.332031 604.402344 112.105469 C 604.988281 113.082031 606.242188 113.742188 606.640625 114.609375 C 607.71875 116.925781 608.191406 120.105469 609.019531 122.882812 C 609.25 123.628906 609.800781 124.195312 610.003906 124.894531 C 610.289062 125.847656 610.144531 126.917969 610.421875 127.855469 C 610.640625 128.570312 611.226562 129.320312 611.484375 130.171875 C 611.785156 131.171875 611.664062 132.3125 612.046875 133.097656 C 612.519531 134.042969 613.910156 134.472656 614.433594 135.5625 C 615.3125 137.386719 615.371094 139.300781 616.863281 140.121094 C 617.0625 141.714844 617.488281 142.921875 618.261719 143.804688 C 619.4375 145.132812 621.4375 145.152344 622.242188 146.195312 C 621.851562 147.097656 620.386719 146.761719 619.628906 146.6875 C 617.589844 146.488281 616.132812 146.125 614.207031 145.621094 C 613.257812 145.367188 612.160156 145.285156 611.476562 145.007812 C 610.324219 144.546875 609.488281 143.238281 608.335938 142.730469 C 606.601562 141.960938 604.984375 141.769531 604.050781 140.40625 C 601.023438 140.511719 599.886719 138.105469 597.570312 136.375 C 596.964844 135.925781 596.070312 135.722656 595.523438 135.28125 C 594.371094 134.324219 593.238281 132.507812 592.726562 131.132812 C 592.421875 130.328125 592.496094 129.390625 592.085938 128.554688 C 591.515625 127.417969 590.054688 126.957031 589.546875 126.121094 C 588.382812 124.222656 589.15625 122.089844 588.523438 119.445312 C 588.394531 118.902344 587.902344 118.375 587.765625 117.695312 C 587.566406 116.71875 587.882812 115.585938 588.105469 114.550781 C 588.300781 113.679688 588.953125 112.664062 589.019531 111.746094 C 589.070312 111.027344 588.621094 110.371094 588.679688 109.734375 C 588.84375 107.898438 590.363281 105.988281 591.9375 105.371094 C 591.542969 102.382812 591.152344 99.390625 590.65625 96.335938 C 585.246094 95.753906 579.332031 96.019531 573.640625 95.902344 C 573.503906 96.667969 572.316406 98.585938 572.65625 99.695312 C 572.855469 100.367188 574.085938 100.898438 574.542969 101.480469 C 575.078125 102.160156 575.726562 103.289062 576.023438 104.175781 C 576.558594 105.78125 576.117188 107.035156 576.4375 109.074219 C 576.957031 112.363281 578.652344 115.382812 576.660156 118.367188 C 577.648438 123.265625 575.691406 126.394531 572.867188 128.992188 C 572.292969 132.433594 570.304688 135.015625 567.289062 136.992188 C 567.582031 139.824219 564.226562 140.96875 562.472656 142.867188 C 561.78125 143.625 561.507812 144.839844 560.730469 145.558594 C 559.457031 146.746094 558.066406 147.210938 556.449219 147.753906 C 554.761719 150.613281 555.214844 154.757812 552.277344 156.859375 C 551.253906 154.988281 550.421875 152.582031 548.414062 151.691406 C 547.757812 151.402344 547.097656 151.496094 546.371094 151.238281 C 545.007812 148.914062 543.121094 147.476562 541.214844 146.066406 C 538.367188 146.167969 536.234375 145.058594 534.773438 142.835938 C 531.355469 143.15625 529.03125 141.660156 527.953125 138.085938 C 524.875 137.078125 522.328125 133.910156 520.757812 129.878906 C 520.597656 129.464844 520.648438 128.746094 520.378906 128.359375 C 519.851562 127.609375 518.480469 127.484375 517.539062 126.648438 C 515.496094 124.84375 514.308594 122.121094 513.375 119.625 C 507.472656 119.011719 500.886719 117.941406 493.890625 120.285156 C 487.863281 122.3125 483.5625 126.304688 479.410156 130.023438 C 471.015625 137.550781 464.160156 145.421875 458.976562 154.628906 C 457.640625 156.996094 456.03125 159.039062 455.070312 161.570312 C 454.082031 164.136719 454.765625 167.125 453.019531 169.496094 C 449.355469 168.6875 450.210938 166.09375 451.582031 163.082031 C 453.382812 159.117188 455.4375 154.792969 457.195312 151.363281 C 459.925781 146.035156 463.613281 141.433594 467.015625 137.144531 C 468.773438 134.929688 470.960938 132.707031 472.96875 130.664062 C 477.183594 126.378906 481.140625 122.449219 485.632812 118.152344 C 489.152344 114.789062 493.988281 112.210938 495.222656 107.539062 C 494.285156 105.890625 492.929688 104.460938 492.15625 102.335938 C 491.851562 101.5 491.9375 100.484375 491.628906 99.566406 C 490.828125 97.207031 489.054688 95.597656 488.445312 93.265625 C 488.1875 92.265625 487.90625 90.816406 487.878906 89.695312 C 487.855469 88.679688 488.570312 87.988281 488.527344 87.117188 C 488.453125 85.664062 487.472656 84.203125 487.125 82.789062 C 486.183594 78.96875 486.039062 73.503906 489.0625 71.824219 C 488.15625 67.152344 488 62.925781 490.546875 60.332031 C 489.761719 55.726562 488.820312 51.03125 491.652344 48.605469 C 491.144531 45.203125 490.761719 41.875 492.335938 39.726562 C 493.082031 39.414062 493.492188 39.664062 494.191406 39.425781 C 494.695312 36.742188 493.25 32.933594 492.910156 30.390625 C 496.960938 31.304688 500.28125 35.296875 502.984375 39.171875" fill-rule="evenodd"/></g></g></g><g clip-path="url(#bI)"><g clip-path="url(#bJ)"><g clip-path="url(#bK)"><path fill="#7B5A6D" d="M 619.757812 103.277344 C 621.363281 102.777344 625.210938 102.195312 627.257812 102.378906 C 625.472656 102.863281 621.636719 103.960938 619.757812 103.277344" fill-rule="evenodd"/></g></g></g><g clip-path="url(#bL)"><g clip-path="url(#bM)"><g clip-path="url(#bN)"><path fill="#7B5A6D" d="M 563.621094 117.746094 C 562.464844 119.375 558.382812 119.238281 556.382812 120.359375 C 557.117188 119.074219 561.527344 118.21875 563.621094 117.746094" fill-rule="evenodd"/></g></g></g><g clip-path="url(#bO)"><g clip-path="url(#bP)"><g clip-path="url(#bQ)"><path fill="#7B5A6D" d="M 626.648438 108.332031 C 627.855469 107.660156 630.847656 107.613281 632.332031 107.882812 C 630.78125 108.320312 628.277344 108.488281 626.648438 108.332031" fill-rule="evenodd"/></g></g></g><g clip-path="url(#bR)"><g clip-path="url(#bS)"><g clip-path="url(#bT)"><path fill="#7B5A6D" d="M 598.261719 115.242188 C 600.070312 116.453125 601.667969 118.019531 603.226562 119.652344 C 601.667969 118.886719 599.746094 116.855469 598.261719 115.242188" fill-rule="evenodd"/></g></g></g><g clip-path="url(#bU)"><g clip-path="url(#bV)"><g clip-path="url(#bW)"><path fill="#7B5A6D" d="M 542.355469 130.625 C 543.78125 130.195312 545.832031 130.570312 547.136719 131.050781 C 545.832031 131.28125 543.640625 131.144531 542.355469 130.625" fill-rule="evenodd"/></g></g></g><g clip-path="url(#bX)"><g clip-path="url(#bY)"><g clip-path="url(#bZ)"><path fill="#7B5A6D" d="M 601.597656 124.730469 C 602.136719 124.472656 603.210938 125.476562 604.019531 126.0625 C 604.902344 126.710938 605.800781 127.441406 606.4375 128.039062 C 604.84375 127.765625 602.992188 126.054688 601.597656 124.730469" fill-rule="evenodd"/></g></g></g><g fill="#664A5A"><g><g><path d="M 13.390625 1.722656 L 26.320312 -28.542969 L 23.128906 -28.542969 L 13.390625 -5.542969 L 3.609375 -28.542969 L 0.417969 -28.542969 Z M 13.390625 1.722656" transform="translate(302.861 258.895)"/></g></g></g><g fill="#664A5A"><g><g><path d="M 20.105469 0 L 20.105469 -2.730469 L 6.085938 -2.730469 L 6.085938 -12.886719 L 19.6875 -12.886719 L 19.6875 -15.65625 L 6.085938 -15.65625 L 6.085938 -25.816406 L 20.105469 -25.816406 L 20.105469 -28.542969 L 3.148438 -28.542969 L 3.148438 0 Z M 20.105469 0" transform="translate(348.407 258.895)"/></g></g></g><g fill="#664A5A"><g><g><path d="M 6.085938 -14.105469 L 6.085938 -25.730469 L 12.71875 -25.730469 C 14.441406 -25.730469 15.824219 -25.1875 16.875 -24.09375 C 17.882812 -23.003906 18.429688 -21.660156 18.429688 -19.980469 C 18.429688 -18.300781 17.882812 -16.917969 16.789062 -15.785156 C 15.699219 -14.648438 14.355469 -14.105469 12.71875 -14.105469 Z M 21.367188 -19.9375 C 21.367188 -22.375 20.441406 -24.472656 18.679688 -26.109375 C 16.957031 -27.707031 14.816406 -28.542969 12.300781 -28.542969 L 3.148438 -28.542969 L 3.148438 0 L 6.085938 0 L 6.085938 -11.292969 L 9.488281 -11.292969 L 17.882812 0 L 21.828125 0 L 13.011719 -11.292969 C 15.238281 -11.417969 17.125 -12.214844 18.679688 -13.683594 C 20.441406 -15.320312 21.367188 -17.421875 21.367188 -19.9375 Z M 21.367188 -19.9375" transform="translate(390.468 258.895)"/></g></g></g><g fill="#664A5A"><g><g><path d="M 6.378906 -2.730469 L 23.296875 -28.542969 L 1.929688 -28.542969 L 1.929688 -25.816406 L 17.964844 -25.816406 L 1.050781 0 L 22.582031 0 L 22.582031 -2.730469 Z M 6.378906 -2.730469" transform="translate(432.11 258.895)"/></g></g></g><g fill="#664A5A"><g><g><path d="M 6.085938 0 L 6.085938 -28.542969 L 3.148438 -28.542969 L 3.148438 0 Z M 6.085938 0" transform="translate(475.262 258.895)"/></g></g></g><g fill="#664A5A"><g><g><path d="M 29.34375 -8.730469 L 26.109375 -8.730469 C 25.101562 -6.882812 23.71875 -5.375 21.953125 -4.28125 C 20.191406 -3.148438 18.21875 -2.601562 16.121094 -2.601562 C 12.972656 -2.601562 10.285156 -3.734375 8.058594 -6.085938 C 5.875 -8.3125 4.828125 -11.039062 4.828125 -14.230469 C 4.828125 -17.421875 5.875 -20.148438 8.058594 -22.414062 C 9.066406 -23.464844 10.285156 -24.304688 11.667969 -24.933594 C 13.011719 -25.5625 14.355469 -25.898438 15.699219 -25.898438 C 17 -25.898438 18.132812 -25.730469 19.140625 -25.4375 C 22.207031 -24.515625 24.515625 -22.667969 26.066406 -19.855469 L 29.300781 -19.855469 C 28.207031 -22.542969 26.488281 -24.726562 24.09375 -26.402344 C 21.660156 -28.082031 19.015625 -28.921875 16.121094 -28.921875 C 12.132812 -28.921875 8.773438 -27.453125 6.003906 -24.558594 C 4.703125 -23.214844 3.695312 -21.617188 2.980469 -19.855469 C 2.226562 -18.09375 1.890625 -16.203125 1.890625 -14.230469 C 1.890625 -10.199219 3.230469 -6.800781 6.003906 -3.945312 C 8.773438 -1.007812 12.132812 0.417969 16.121094 0.417969 C 19.015625 0.417969 21.660156 -0.417969 24.136719 -2.097656 C 26.53125 -3.777344 28.25 -5.960938 29.34375 -8.730469 Z M 29.34375 -8.730469" transform="translate(503.303 258.895)"/></g></g></g><g fill="#664A5A"><g><g><path d="M 6.085938 0 L 6.085938 -12.761719 L 19.058594 -12.761719 L 19.058594 0 L 21.996094 0 L 21.996094 -28.542969 L 19.058594 -28.542969 L 19.058594 -15.699219 L 6.085938 -15.699219 L 6.085938 -28.542969 L 3.148438 -28.542969 L 3.148438 0 Z M 6.085938 0" transform="translate(552.71 258.895)"/></g></g></g><g fill="#664A5A"><g><g><path d="M 28.292969 -14.355469 C 28.292969 -11.082031 27.117188 -8.3125 24.851562 -6.042969 C 22.542969 -3.734375 19.769531 -2.601562 16.539062 -2.601562 C 13.308594 -2.601562 10.535156 -3.734375 8.269531 -6.042969 C 5.960938 -8.3125 4.828125 -11.082031 4.828125 -14.355469 C 4.828125 -17.546875 5.960938 -20.316406 8.269531 -22.625 C 10.535156 -24.894531 13.308594 -26.066406 16.539062 -26.066406 C 19.769531 -26.066406 22.542969 -24.894531 24.851562 -22.625 C 27.117188 -20.316406 28.292969 -17.546875 28.292969 -14.355469 Z M 31.230469 -14.355469 C 31.230469 -16.371094 30.8125 -18.261719 30.054688 -20.066406 C 29.300781 -21.828125 28.25 -23.382812 26.90625 -24.726562 C 25.5625 -26.027344 24.011719 -27.074219 22.25 -27.832031 C 20.441406 -28.585938 18.554688 -29.007812 16.539062 -29.007812 C 14.523438 -29.007812 12.59375 -28.585938 10.832031 -27.832031 C 9.066406 -27.074219 7.515625 -26.027344 6.171875 -24.726562 C 4.828125 -23.382812 3.777344 -21.828125 3.023438 -20.066406 C 2.265625 -18.261719 1.890625 -16.371094 1.890625 -14.355469 C 1.890625 -12.339844 2.265625 -10.410156 3.023438 -8.648438 C 3.777344 -6.84375 4.828125 -5.289062 6.171875 -3.945312 C 7.515625 -2.601562 9.066406 -1.554688 10.832031 -0.796875 C 12.59375 -0.0429688 14.523438 0.335938 16.539062 0.335938 C 18.554688 0.335938 20.441406 -0.0429688 22.25 -0.796875 C 24.011719 -1.554688 25.5625 -2.601562 26.90625 -3.945312 C 28.25 -5.289062 29.300781 -6.84375 30.054688 -8.648438 C 30.8125 -10.410156 31.230469 -12.339844 31.230469 -14.355469 Z M 31.230469 -14.355469" transform="translate(596.661 258.895)"/></g></g></g><g fill="#664A5A"><g><g><path d="M 13.390625 1.722656 L 26.320312 -28.542969 L 23.128906 -28.542969 L 13.390625 -5.542969 L 3.609375 -28.542969 L 0.417969 -28.542969 Z M 13.390625 1.722656" transform="translate(648.587 258.895)"/></g></g></g><g fill="#664A5A"><g><g><path d="M 7.765625 -10.496094 L 12.972656 -23.632812 L 18.132812 -10.496094 Z M 25.480469 0 L 12.972656 -30.519531 L 0.417969 0 L 3.609375 0 L 6.675781 -7.765625 L 19.226562 -7.765625 L 22.289062 0 Z M 18.636719 -37.484375 L 15.027344 -37.484375 L 11.667969 -31.484375 L 14.019531 -31.484375 Z M 18.636719 -37.484375" transform="translate(694.132 258.895)"/></g></g></g></svg>