<svg xmlns="http://www.w3.org/2000/svg" width="750" viewBox="0 0 750 300" height="300" version="1.0"><defs><clipPath id="a"><path d="M 511 63 L 516 63 L 516 69 L 511 69 Z M 511 63"/></clipPath><clipPath id="b"><path d="M 438.277344 60.597656 L 632.269531 12.261719 L 666.917969 151.320312 L 472.925781 199.65625 Z M 438.277344 60.597656"/></clipPath><clipPath id="c"><path d="M 438.277344 60.597656 L 632.269531 12.261719 L 666.917969 151.320312 L 472.925781 199.65625 Z M 438.277344 60.597656"/></clipPath><clipPath id="d"><path d="M 511 73 L 517 73 L 517 80 L 511 80 Z M 511 73"/></clipPath><clipPath id="e"><path d="M 438.277344 60.597656 L 632.269531 12.261719 L 666.917969 151.320312 L 472.925781 199.65625 Z M 438.277344 60.597656"/></clipPath><clipPath id="f"><path d="M 438.277344 60.597656 L 632.269531 12.261719 L 666.917969 151.320312 L 472.925781 199.65625 Z M 438.277344 60.597656"/></clipPath><clipPath id="g"><path d="M 564 64 L 567 64 L 567 69 L 564 69 Z M 564 64"/></clipPath><clipPath id="h"><path d="M 438.277344 60.597656 L 632.269531 12.261719 L 666.917969 151.320312 L 472.925781 199.65625 Z M 438.277344 60.597656"/></clipPath><clipPath id="i"><path d="M 438.277344 60.597656 L 632.269531 12.261719 L 666.917969 151.320312 L 472.925781 199.65625 Z M 438.277344 60.597656"/></clipPath><clipPath id="j"><path d="M 510 82 L 516 82 L 516 90 L 510 90 Z M 510 82"/></clipPath><clipPath id="k"><path d="M 438.277344 60.597656 L 632.269531 12.261719 L 666.917969 151.320312 L 472.925781 199.65625 Z M 438.277344 60.597656"/></clipPath><clipPath id="l"><path d="M 438.277344 60.597656 L 632.269531 12.261719 L 666.917969 151.320312 L 472.925781 199.65625 Z M 438.277344 60.597656"/></clipPath><clipPath id="m"><path d="M 571 69 L 574 69 L 574 74 L 571 74 Z M 571 69"/></clipPath><clipPath id="n"><path d="M 438.277344 60.597656 L 632.269531 12.261719 L 666.917969 151.320312 L 472.925781 199.65625 Z M 438.277344 60.597656"/></clipPath><clipPath id="o"><path d="M 438.277344 60.597656 L 632.269531 12.261719 L 666.917969 151.320312 L 472.925781 199.65625 Z M 438.277344 60.597656"/></clipPath><clipPath id="p"><path d="M 507 91 L 514 91 L 514 98 L 507 98 Z M 507 91"/></clipPath><clipPath id="q"><path d="M 438.277344 60.597656 L 632.269531 12.261719 L 666.917969 151.320312 L 472.925781 199.65625 Z M 438.277344 60.597656"/></clipPath><clipPath id="r"><path d="M 438.277344 60.597656 L 632.269531 12.261719 L 666.917969 151.320312 L 472.925781 199.65625 Z M 438.277344 60.597656"/></clipPath><clipPath id="s"><path d="M 565 79 L 573 79 L 573 81 L 565 81 Z M 565 79"/></clipPath><clipPath id="t"><path d="M 438.277344 60.597656 L 632.269531 12.261719 L 666.917969 151.320312 L 472.925781 199.65625 Z M 438.277344 60.597656"/></clipPath><clipPath id="u"><path d="M 438.277344 60.597656 L 632.269531 12.261719 L 666.917969 151.320312 L 472.925781 199.65625 Z M 438.277344 60.597656"/></clipPath><clipPath id="v"><path d="M 600 70 L 603 70 L 603 73 L 600 73 Z M 600 70"/></clipPath><clipPath id="w"><path d="M 438.277344 60.597656 L 632.269531 12.261719 L 666.917969 151.320312 L 472.925781 199.65625 Z M 438.277344 60.597656"/></clipPath><clipPath id="x"><path d="M 438.277344 60.597656 L 632.269531 12.261719 L 666.917969 151.320312 L 472.925781 199.65625 Z M 438.277344 60.597656"/></clipPath><clipPath id="y"><path d="M 606 69 L 607 69 L 607 73 L 606 73 Z M 606 69"/></clipPath><clipPath id="z"><path d="M 438.277344 60.597656 L 632.269531 12.261719 L 666.917969 151.320312 L 472.925781 199.65625 Z M 438.277344 60.597656"/></clipPath><clipPath id="A"><path d="M 438.277344 60.597656 L 632.269531 12.261719 L 666.917969 151.320312 L 472.925781 199.65625 Z M 438.277344 60.597656"/></clipPath><clipPath id="B"><path d="M 579 76 L 581 76 L 581 81 L 579 81 Z M 579 76"/></clipPath><clipPath id="C"><path d="M 438.277344 60.597656 L 632.269531 12.261719 L 666.917969 151.320312 L 472.925781 199.65625 Z M 438.277344 60.597656"/></clipPath><clipPath id="D"><path d="M 438.277344 60.597656 L 632.269531 12.261719 L 666.917969 151.320312 L 472.925781 199.65625 Z M 438.277344 60.597656"/></clipPath><clipPath id="E"><path d="M 508 97 L 514 97 L 514 105 L 508 105 Z M 508 97"/></clipPath><clipPath id="F"><path d="M 438.277344 60.597656 L 632.269531 12.261719 L 666.917969 151.320312 L 472.925781 199.65625 Z M 438.277344 60.597656"/></clipPath><clipPath id="G"><path d="M 438.277344 60.597656 L 632.269531 12.261719 L 666.917969 151.320312 L 472.925781 199.65625 Z M 438.277344 60.597656"/></clipPath><clipPath id="H"><path d="M 609 74 L 610 74 L 610 79 L 609 79 Z M 609 74"/></clipPath><clipPath id="I"><path d="M 438.277344 60.597656 L 632.269531 12.261719 L 666.917969 151.320312 L 472.925781 199.65625 Z M 438.277344 60.597656"/></clipPath><clipPath id="J"><path d="M 438.277344 60.597656 L 632.269531 12.261719 L 666.917969 151.320312 L 472.925781 199.65625 Z M 438.277344 60.597656"/></clipPath><clipPath id="K"><path d="M 586 86 L 587 86 L 587 90 L 586 90 Z M 586 86"/></clipPath><clipPath id="L"><path d="M 438.277344 60.597656 L 632.269531 12.261719 L 666.917969 151.320312 L 472.925781 199.65625 Z M 438.277344 60.597656"/></clipPath><clipPath id="M"><path d="M 438.277344 60.597656 L 632.269531 12.261719 L 666.917969 151.320312 L 472.925781 199.65625 Z M 438.277344 60.597656"/></clipPath><clipPath id="N"><path d="M 509 105 L 514 105 L 514 111 L 509 111 Z M 509 105"/></clipPath><clipPath id="O"><path d="M 438.277344 60.597656 L 632.269531 12.261719 L 666.917969 151.320312 L 472.925781 199.65625 Z M 438.277344 60.597656"/></clipPath><clipPath id="P"><path d="M 438.277344 60.597656 L 632.269531 12.261719 L 666.917969 151.320312 L 472.925781 199.65625 Z M 438.277344 60.597656"/></clipPath><clipPath id="Q"><path d="M 611 81 L 613 81 L 613 86 L 611 86 Z M 611 81"/></clipPath><clipPath id="R"><path d="M 438.277344 60.597656 L 632.269531 12.261719 L 666.917969 151.320312 L 472.925781 199.65625 Z M 438.277344 60.597656"/></clipPath><clipPath id="S"><path d="M 438.277344 60.597656 L 632.269531 12.261719 L 666.917969 151.320312 L 472.925781 199.65625 Z M 438.277344 60.597656"/></clipPath><clipPath id="T"><path d="M 612 90 L 614 90 L 614 92 L 612 92 Z M 612 90"/></clipPath><clipPath id="U"><path d="M 438.277344 60.597656 L 632.269531 12.261719 L 666.917969 151.320312 L 472.925781 199.65625 Z M 438.277344 60.597656"/></clipPath><clipPath id="V"><path d="M 438.277344 60.597656 L 632.269531 12.261719 L 666.917969 151.320312 L 472.925781 199.65625 Z M 438.277344 60.597656"/></clipPath><clipPath id="W"><path d="M 546 129 L 553 129 L 553 131 L 546 131 Z M 546 129"/></clipPath><clipPath id="X"><path d="M 438.277344 60.597656 L 632.269531 12.261719 L 666.917969 151.320312 L 472.925781 199.65625 Z M 438.277344 60.597656"/></clipPath><clipPath id="Y"><path d="M 438.277344 60.597656 L 632.269531 12.261719 L 666.917969 151.320312 L 472.925781 199.65625 Z M 438.277344 60.597656"/></clipPath><clipPath id="Z"><path d="M 578 120 L 585 120 L 585 125 L 578 125 Z M 578 120"/></clipPath><clipPath id="aa"><path d="M 438.277344 60.597656 L 632.269531 12.261719 L 666.917969 151.320312 L 472.925781 199.65625 Z M 438.277344 60.597656"/></clipPath><clipPath id="ab"><path d="M 438.277344 60.597656 L 632.269531 12.261719 L 666.917969 151.320312 L 472.925781 199.65625 Z M 438.277344 60.597656"/></clipPath><clipPath id="ac"><path d="M 589 120 L 592 120 L 592 123 L 589 123 Z M 589 120"/></clipPath><clipPath id="ad"><path d="M 438.277344 60.597656 L 632.269531 12.261719 L 666.917969 151.320312 L 472.925781 199.65625 Z M 438.277344 60.597656"/></clipPath><clipPath id="ae"><path d="M 438.277344 60.597656 L 632.269531 12.261719 L 666.917969 151.320312 L 472.925781 199.65625 Z M 438.277344 60.597656"/></clipPath><clipPath id="af"><path d="M 539 135 L 543 135 L 543 142 L 539 142 Z M 539 135"/></clipPath><clipPath id="ag"><path d="M 438.277344 60.597656 L 632.269531 12.261719 L 666.917969 151.320312 L 472.925781 199.65625 Z M 438.277344 60.597656"/></clipPath><clipPath id="ah"><path d="M 438.277344 60.597656 L 632.269531 12.261719 L 666.917969 151.320312 L 472.925781 199.65625 Z M 438.277344 60.597656"/></clipPath><clipPath id="ai"><path d="M 587 127 L 590 127 L 590 132 L 587 132 Z M 587 127"/></clipPath><clipPath id="aj"><path d="M 438.277344 60.597656 L 632.269531 12.261719 L 666.917969 151.320312 L 472.925781 199.65625 Z M 438.277344 60.597656"/></clipPath><clipPath id="ak"><path d="M 438.277344 60.597656 L 632.269531 12.261719 L 666.917969 151.320312 L 472.925781 199.65625 Z M 438.277344 60.597656"/></clipPath><clipPath id="al"><path d="M 554 135 L 560 135 L 560 137 L 554 137 Z M 554 135"/></clipPath><clipPath id="am"><path d="M 438.277344 60.597656 L 632.269531 12.261719 L 666.917969 151.320312 L 472.925781 199.65625 Z M 438.277344 60.597656"/></clipPath><clipPath id="an"><path d="M 438.277344 60.597656 L 632.269531 12.261719 L 666.917969 151.320312 L 472.925781 199.65625 Z M 438.277344 60.597656"/></clipPath><clipPath id="ao"><path d="M 631 117 L 634 117 L 634 123 L 631 123 Z M 631 117"/></clipPath><clipPath id="ap"><path d="M 438.277344 60.597656 L 632.269531 12.261719 L 666.917969 151.320312 L 472.925781 199.65625 Z M 438.277344 60.597656"/></clipPath><clipPath id="aq"><path d="M 438.277344 60.597656 L 632.269531 12.261719 L 666.917969 151.320312 L 472.925781 199.65625 Z M 438.277344 60.597656"/></clipPath><clipPath id="ar"><path d="M 546 138 L 550 138 L 550 149 L 546 149 Z M 546 138"/></clipPath><clipPath id="as"><path d="M 438.277344 60.597656 L 632.269531 12.261719 L 666.917969 151.320312 L 472.925781 199.65625 Z M 438.277344 60.597656"/></clipPath><clipPath id="at"><path d="M 438.277344 60.597656 L 632.269531 12.261719 L 666.917969 151.320312 L 472.925781 199.65625 Z M 438.277344 60.597656"/></clipPath><clipPath id="au"><path d="M 583 136 L 586 136 L 586 141 L 583 141 Z M 583 136"/></clipPath><clipPath id="av"><path d="M 438.277344 60.597656 L 632.269531 12.261719 L 666.917969 151.320312 L 472.925781 199.65625 Z M 438.277344 60.597656"/></clipPath><clipPath id="aw"><path d="M 438.277344 60.597656 L 632.269531 12.261719 L 666.917969 151.320312 L 472.925781 199.65625 Z M 438.277344 60.597656"/></clipPath><clipPath id="ax"><path d="M 637 122 L 640 122 L 640 127 L 637 127 Z M 637 122"/></clipPath><clipPath id="ay"><path d="M 438.277344 60.597656 L 632.269531 12.261719 L 666.917969 151.320312 L 472.925781 199.65625 Z M 438.277344 60.597656"/></clipPath><clipPath id="az"><path d="M 438.277344 60.597656 L 632.269531 12.261719 L 666.917969 151.320312 L 472.925781 199.65625 Z M 438.277344 60.597656"/></clipPath><clipPath id="aA"><path d="M 609 129 L 611 129 L 611 137 L 609 137 Z M 609 129"/></clipPath><clipPath id="aB"><path d="M 438.277344 60.597656 L 632.269531 12.261719 L 666.917969 151.320312 L 472.925781 199.65625 Z M 438.277344 60.597656"/></clipPath><clipPath id="aC"><path d="M 438.277344 60.597656 L 632.269531 12.261719 L 666.917969 151.320312 L 472.925781 199.65625 Z M 438.277344 60.597656"/></clipPath><clipPath id="aD"><path d="M 572 138 L 577 138 L 577 140 L 572 140 Z M 572 138"/></clipPath><clipPath id="aE"><path d="M 438.277344 60.597656 L 632.269531 12.261719 L 666.917969 151.320312 L 472.925781 199.65625 Z M 438.277344 60.597656"/></clipPath><clipPath id="aF"><path d="M 438.277344 60.597656 L 632.269531 12.261719 L 666.917969 151.320312 L 472.925781 199.65625 Z M 438.277344 60.597656"/></clipPath><clipPath id="aG"><path d="M 553 144 L 556 144 L 556 152 L 553 152 Z M 553 144"/></clipPath><clipPath id="aH"><path d="M 438.277344 60.597656 L 632.269531 12.261719 L 666.917969 151.320312 L 472.925781 199.65625 Z M 438.277344 60.597656"/></clipPath><clipPath id="aI"><path d="M 438.277344 60.597656 L 632.269531 12.261719 L 666.917969 151.320312 L 472.925781 199.65625 Z M 438.277344 60.597656"/></clipPath><clipPath id="aJ"><path d="M 644 127 L 646 127 L 646 131 L 644 131 Z M 644 127"/></clipPath><clipPath id="aK"><path d="M 438.277344 60.597656 L 632.269531 12.261719 L 666.917969 151.320312 L 472.925781 199.65625 Z M 438.277344 60.597656"/></clipPath><clipPath id="aL"><path d="M 438.277344 60.597656 L 632.269531 12.261719 L 666.917969 151.320312 L 472.925781 199.65625 Z M 438.277344 60.597656"/></clipPath><clipPath id="aM"><path d="M 612 135 L 614 135 L 614 141 L 612 141 Z M 612 135"/></clipPath><clipPath id="aN"><path d="M 438.277344 60.597656 L 632.269531 12.261719 L 666.917969 151.320312 L 472.925781 199.65625 Z M 438.277344 60.597656"/></clipPath><clipPath id="aO"><path d="M 438.277344 60.597656 L 632.269531 12.261719 L 666.917969 151.320312 L 472.925781 199.65625 Z M 438.277344 60.597656"/></clipPath><clipPath id="aP"><path d="M 578 145 L 580 145 L 580 151 L 578 151 Z M 578 145"/></clipPath><clipPath id="aQ"><path d="M 438.277344 60.597656 L 632.269531 12.261719 L 666.917969 151.320312 L 472.925781 199.65625 Z M 438.277344 60.597656"/></clipPath><clipPath id="aR"><path d="M 438.277344 60.597656 L 632.269531 12.261719 L 666.917969 151.320312 L 472.925781 199.65625 Z M 438.277344 60.597656"/></clipPath><clipPath id="aS"><path d="M 559 151 L 562 151 L 562 156 L 559 156 Z M 559 151"/></clipPath><clipPath id="aT"><path d="M 438.277344 60.597656 L 632.269531 12.261719 L 666.917969 151.320312 L 472.925781 199.65625 Z M 438.277344 60.597656"/></clipPath><clipPath id="aU"><path d="M 438.277344 60.597656 L 632.269531 12.261719 L 666.917969 151.320312 L 472.925781 199.65625 Z M 438.277344 60.597656"/></clipPath><clipPath id="aV"><path d="M 565 150 L 570 150 L 570 153 L 565 153 Z M 565 150"/></clipPath><clipPath id="aW"><path d="M 438.277344 60.597656 L 632.269531 12.261719 L 666.917969 151.320312 L 472.925781 199.65625 Z M 438.277344 60.597656"/></clipPath><clipPath id="aX"><path d="M 438.277344 60.597656 L 632.269531 12.261719 L 666.917969 151.320312 L 472.925781 199.65625 Z M 438.277344 60.597656"/></clipPath><clipPath id="aY"><path d="M 616 141 L 618 141 L 618 146 L 616 146 Z M 616 141"/></clipPath><clipPath id="aZ"><path d="M 438.277344 60.597656 L 632.269531 12.261719 L 666.917969 151.320312 L 472.925781 199.65625 Z M 438.277344 60.597656"/></clipPath><clipPath id="ba"><path d="M 438.277344 60.597656 L 632.269531 12.261719 L 666.917969 151.320312 L 472.925781 199.65625 Z M 438.277344 60.597656"/></clipPath><clipPath id="bb"><path d="M 623 143 L 627 143 L 627 147 L 623 147 Z M 623 143"/></clipPath><clipPath id="bc"><path d="M 438.277344 60.597656 L 632.269531 12.261719 L 666.917969 151.320312 L 472.925781 199.65625 Z M 438.277344 60.597656"/></clipPath><clipPath id="bd"><path d="M 438.277344 60.597656 L 632.269531 12.261719 L 666.917969 151.320312 L 472.925781 199.65625 Z M 438.277344 60.597656"/></clipPath><clipPath id="be"><path d="M 521 61 L 524 61 L 524 67 L 521 67 Z M 521 61"/></clipPath><clipPath id="bf"><path d="M 438.277344 60.597656 L 632.269531 12.261719 L 666.917969 151.320312 L 472.925781 199.65625 Z M 438.277344 60.597656"/></clipPath><clipPath id="bg"><path d="M 438.277344 60.597656 L 632.269531 12.261719 L 666.917969 151.320312 L 472.925781 199.65625 Z M 438.277344 60.597656"/></clipPath><clipPath id="bh"><path d="M 522 71 L 528 71 L 528 78 L 522 78 Z M 522 71"/></clipPath><clipPath id="bi"><path d="M 438.277344 60.597656 L 632.269531 12.261719 L 666.917969 151.320312 L 472.925781 199.65625 Z M 438.277344 60.597656"/></clipPath><clipPath id="bj"><path d="M 438.277344 60.597656 L 632.269531 12.261719 L 666.917969 151.320312 L 472.925781 199.65625 Z M 438.277344 60.597656"/></clipPath><clipPath id="bk"><path d="M 559 72 L 565 72 L 565 74 L 559 74 Z M 559 72"/></clipPath><clipPath id="bl"><path d="M 438.277344 60.597656 L 632.269531 12.261719 L 666.917969 151.320312 L 472.925781 199.65625 Z M 438.277344 60.597656"/></clipPath><clipPath id="bm"><path d="M 438.277344 60.597656 L 632.269531 12.261719 L 666.917969 151.320312 L 472.925781 199.65625 Z M 438.277344 60.597656"/></clipPath><clipPath id="bn"><path d="M 522 81 L 528 81 L 528 88 L 522 88 Z M 522 81"/></clipPath><clipPath id="bo"><path d="M 438.277344 60.597656 L 632.269531 12.261719 L 666.917969 151.320312 L 472.925781 199.65625 Z M 438.277344 60.597656"/></clipPath><clipPath id="bp"><path d="M 438.277344 60.597656 L 632.269531 12.261719 L 666.917969 151.320312 L 472.925781 199.65625 Z M 438.277344 60.597656"/></clipPath><clipPath id="bq"><path d="M 523 87 L 530 87 L 530 97 L 523 97 Z M 523 87"/></clipPath><clipPath id="br"><path d="M 438.277344 60.597656 L 632.269531 12.261719 L 666.917969 151.320312 L 472.925781 199.65625 Z M 438.277344 60.597656"/></clipPath><clipPath id="bs"><path d="M 438.277344 60.597656 L 632.269531 12.261719 L 666.917969 151.320312 L 472.925781 199.65625 Z M 438.277344 60.597656"/></clipPath><clipPath id="bt"><path d="M 601 77 L 606 77 L 606 80 L 601 80 Z M 601 77"/></clipPath><clipPath id="bu"><path d="M 438.277344 60.597656 L 632.269531 12.261719 L 666.917969 151.320312 L 472.925781 199.65625 Z M 438.277344 60.597656"/></clipPath><clipPath id="bv"><path d="M 438.277344 60.597656 L 632.269531 12.261719 L 666.917969 151.320312 L 472.925781 199.65625 Z M 438.277344 60.597656"/></clipPath><clipPath id="bw"><path d="M 571 86 L 580 86 L 580 89 L 571 89 Z M 571 86"/></clipPath><clipPath id="bx"><path d="M 438.277344 60.597656 L 632.269531 12.261719 L 666.917969 151.320312 L 472.925781 199.65625 Z M 438.277344 60.597656"/></clipPath><clipPath id="by"><path d="M 438.277344 60.597656 L 632.269531 12.261719 L 666.917969 151.320312 L 472.925781 199.65625 Z M 438.277344 60.597656"/></clipPath><clipPath id="bz"><path d="M 520 98 L 529 98 L 529 109 L 520 109 Z M 520 98"/></clipPath><clipPath id="bA"><path d="M 438.277344 60.597656 L 632.269531 12.261719 L 666.917969 151.320312 L 472.925781 199.65625 Z M 438.277344 60.597656"/></clipPath><clipPath id="bB"><path d="M 438.277344 60.597656 L 632.269531 12.261719 L 666.917969 151.320312 L 472.925781 199.65625 Z M 438.277344 60.597656"/></clipPath><clipPath id="bC"><path d="M 604 86 L 608 86 L 608 90 L 604 90 Z M 604 86"/></clipPath><clipPath id="bD"><path d="M 438.277344 60.597656 L 632.269531 12.261719 L 666.917969 151.320312 L 472.925781 199.65625 Z M 438.277344 60.597656"/></clipPath><clipPath id="bE"><path d="M 438.277344 60.597656 L 632.269531 12.261719 L 666.917969 151.320312 L 472.925781 199.65625 Z M 438.277344 60.597656"/></clipPath><clipPath id="bF"><path d="M 467 42 L 663 42 L 663 182 L 467 182 Z M 467 42"/></clipPath><clipPath id="bG"><path d="M 438.277344 60.597656 L 632.269531 12.261719 L 666.917969 151.320312 L 472.925781 199.65625 Z M 438.277344 60.597656"/></clipPath><clipPath id="bH"><path d="M 438.277344 60.597656 L 632.269531 12.261719 L 666.917969 151.320312 L 472.925781 199.65625 Z M 438.277344 60.597656"/></clipPath><clipPath id="bI"><path d="M 636 114 L 645 114 L 645 116 L 636 116 Z M 636 114"/></clipPath><clipPath id="bJ"><path d="M 438.277344 60.597656 L 632.269531 12.261719 L 666.917969 151.320312 L 472.925781 199.65625 Z M 438.277344 60.597656"/></clipPath><clipPath id="bK"><path d="M 438.277344 60.597656 L 632.269531 12.261719 L 666.917969 151.320312 L 472.925781 199.65625 Z M 438.277344 60.597656"/></clipPath><clipPath id="bL"><path d="M 573 129 L 581 129 L 581 133 L 573 133 Z M 573 129"/></clipPath><clipPath id="bM"><path d="M 438.277344 60.597656 L 632.269531 12.261719 L 666.917969 151.320312 L 472.925781 199.65625 Z M 438.277344 60.597656"/></clipPath><clipPath id="bN"><path d="M 438.277344 60.597656 L 632.269531 12.261719 L 666.917969 151.320312 L 472.925781 199.65625 Z M 438.277344 60.597656"/></clipPath><clipPath id="bO"><path d="M 643 119 L 650 119 L 650 121 L 643 121 Z M 643 119"/></clipPath><clipPath id="bP"><path d="M 438.277344 60.597656 L 632.269531 12.261719 L 666.917969 151.320312 L 472.925781 199.65625 Z M 438.277344 60.597656"/></clipPath><clipPath id="bQ"><path d="M 438.277344 60.597656 L 632.269531 12.261719 L 666.917969 151.320312 L 472.925781 199.65625 Z M 438.277344 60.597656"/></clipPath><clipPath id="bR"><path d="M 615 127 L 621 127 L 621 132 L 615 132 Z M 615 127"/></clipPath><clipPath id="bS"><path d="M 438.277344 60.597656 L 632.269531 12.261719 L 666.917969 151.320312 L 472.925781 199.65625 Z M 438.277344 60.597656"/></clipPath><clipPath id="bT"><path d="M 438.277344 60.597656 L 632.269531 12.261719 L 666.917969 151.320312 L 472.925781 199.65625 Z M 438.277344 60.597656"/></clipPath><clipPath id="bU"><path d="M 559 142 L 565 142 L 565 143 L 559 143 Z M 559 142"/></clipPath><clipPath id="bV"><path d="M 438.277344 60.597656 L 632.269531 12.261719 L 666.917969 151.320312 L 472.925781 199.65625 Z M 438.277344 60.597656"/></clipPath><clipPath id="bW"><path d="M 438.277344 60.597656 L 632.269531 12.261719 L 666.917969 151.320312 L 472.925781 199.65625 Z M 438.277344 60.597656"/></clipPath><clipPath id="bX"><path d="M 618 136 L 624 136 L 624 140 L 618 140 Z M 618 136"/></clipPath><clipPath id="bY"><path d="M 438.277344 60.597656 L 632.269531 12.261719 L 666.917969 151.320312 L 472.925781 199.65625 Z M 438.277344 60.597656"/></clipPath><clipPath id="bZ"><path d="M 438.277344 60.597656 L 632.269531 12.261719 L 666.917969 151.320312 L 472.925781 199.65625 Z M 438.277344 60.597656"/></clipPath></defs><g fill="#664A5A"><g><g><path d="M 13.738281 6.519531 C 10.128906 7.101562 6.871094 8.617188 4.308594 11.292969 C 1.746094 13.972656 1.980469 16.882812 5.007812 19.210938 C 6.402344 20.257812 8.035156 20.957031 9.664062 21.425781 C 13.738281 22.472656 17.699219 22.238281 21.65625 21.191406 C 28.875 19.445312 35.046875 15.601562 40.867188 11.175781 C 41.800781 10.480469 42.730469 10.246094 43.894531 10.59375 C 46.921875 11.410156 49.949219 12.226562 52.976562 13.039062 C 64.855469 15.953125 76.730469 18.511719 89.070312 17.464844 C 95.476562 17 101.878906 15.71875 108.167969 14.320312 C 122.488281 11.175781 134.832031 4.425781 145.195312 -5.9375 C 148.804688 -9.546875 151.945312 -13.738281 155.671875 -17.230469 C 156.023438 -17.582031 156.835938 -18.046875 156.253906 -18.628906 C 155.789062 -19.328125 154.859375 -19.328125 154.160156 -18.746094 C 153.34375 -18.164062 152.644531 -17.582031 151.945312 -16.882812 C 147.523438 -12.457031 142.632812 -8.734375 137.859375 -4.890625 C 128.3125 2.679688 117.597656 8.152344 105.722656 10.945312 C 95.824219 13.390625 85.695312 15.484375 75.332031 14.320312 C 67.300781 13.507812 59.496094 11.992188 51.8125 9.898438 C 49.601562 9.316406 47.503906 8.734375 44.945312 8.035156 C 51.230469 3.027344 56.585938 -2.445312 61.476562 -8.152344 C 75.332031 -24.453125 87.09375 -42.265625 97.339844 -61.011719 C 105.839844 -76.730469 115.152344 -91.984375 126.214844 -106.070312 C 129.476562 -110.261719 132.96875 -114.339844 136.578125 -118.761719 C 136.695312 -117.597656 136.113281 -117.132812 135.761719 -116.433594 C 134.015625 -112.824219 132.035156 -109.214844 131.105469 -105.140625 C 130.871094 -104.675781 130.640625 -103.976562 131.453125 -103.742188 C 132.152344 -103.511719 132.734375 -103.511719 133.085938 -104.207031 C 133.78125 -105.605469 134.597656 -106.886719 135.296875 -108.167969 C 139.488281 -116.203125 143.796875 -124.117188 149.5 -131.105469 C 150.082031 -131.6875 151.363281 -132.269531 150.667969 -133.316406 C 150.082031 -134.25 148.804688 -134.25 147.753906 -134.25 C 146.359375 -134.25 145.542969 -133.433594 144.726562 -132.503906 C 142.863281 -130.523438 140.652344 -128.777344 138.671875 -127.03125 C 136.578125 -125.285156 134.597656 -123.304688 132.734375 -121.324219 C 118.761719 -105.839844 107.351562 -88.488281 96.988281 -70.328125 C 87.09375 -53.09375 76.613281 -36.210938 63.921875 -20.839844 C 56.585938 -11.761719 49.25 -2.679688 40.402344 5.125 C 39.121094 6.289062 37.957031 6.636719 36.210938 6.402344 C 28.757812 5.125 21.191406 5.125 13.738281 6.519531 Z M 34.117188 8.617188 C 34.464844 8.734375 34.8125 8.847656 35.511719 8.964844 C 29.339844 13.507812 23.285156 17.230469 16.183594 18.863281 C 14.203125 19.210938 12.226562 19.5625 10.246094 18.628906 C 7.683594 17.347656 7.21875 15.136719 9.199219 12.925781 C 11.175781 10.828125 13.738281 9.664062 16.535156 9.082031 C 22.355469 8.152344 28.292969 7.917969 34.117188 8.617188 Z M 34.117188 8.617188" transform="translate(35.118 204.068)"/></g></g></g><g fill="#664A5A"><g><g><path d="M 22.355469 4.773438 C 33.300781 0.699219 55.886719 -16.535156 77.660156 -19.445312 C 76.964844 -20.957031 75.914062 -20.957031 74.984375 -20.957031 C 56.003906 -18.863281 31.089844 -2.445312 23.753906 1.046875 C 20.492188 2.5625 17.117188 3.609375 13.390625 3.957031 C 10.710938 4.191406 8.265625 3.609375 6.402344 1.398438 C 1.980469 -4.308594 1.628906 -10.246094 4.539062 -16.648438 C 5.125 -17.929688 5.820312 -18.628906 7.453125 -18.164062 C 9.664062 -17.582031 11.875 -17.699219 14.089844 -18.398438 C 18.628906 -19.910156 22.355469 -22.703125 25.730469 -25.964844 C 26.3125 -26.546875 26.664062 -27.128906 27.011719 -27.828125 C 27.945312 -29.691406 27.59375 -31.554688 25.847656 -32.835938 C 23.054688 -34.8125 20.027344 -35.976562 16.648438 -34.929688 C 7.917969 -32.367188 1.28125 -27.246094 -1.980469 -18.511719 C -3.957031 -13.15625 -3.375 -8.035156 -0.582031 -3.375 C 5.125 5.9375 11.875 8.734375 22.355469 4.773438 Z M 22.121094 -30.503906 C 20.726562 -26.199219 13.15625 -21.425781 8.5 -21.890625 C 10.363281 -25.964844 17.929688 -30.738281 22.121094 -30.503906 Z M 22.121094 -30.503906" transform="translate(185.655 204.068)"/></g></g></g><g fill="#664A5A"><g><g><path d="M 75.101562 -22.007812 C 74.632812 -22.007812 74.167969 -21.773438 73.820312 -21.65625 C 69.277344 -19.445312 64.738281 -17.117188 60.429688 -14.554688 C 54.375 -10.828125 48.320312 -7.101562 41.800781 -3.957031 C 38.539062 -2.445312 35.164062 -0.699219 31.554688 -0.117188 C 27.710938 0.464844 26.894531 -0.347656 27.246094 -4.074219 C 27.246094 -4.308594 27.246094 -4.65625 27.246094 -4.890625 C 27.710938 -7.800781 28.644531 -10.480469 29.921875 -13.039062 C 31.671875 -16.765625 33.53125 -20.375 35.394531 -23.984375 C 36.328125 -25.847656 37.027344 -27.710938 37.609375 -29.691406 C 38.308594 -32.367188 37.257812 -34.464844 35.28125 -36.210938 C 33.300781 -37.839844 31.4375 -37.140625 29.574219 -36.09375 C 27.476562 -34.929688 25.730469 -33.417969 23.984375 -31.785156 C 17.699219 -26.199219 11.761719 -20.257812 5.9375 -14.320312 C 4.890625 -13.15625 3.84375 -12.109375 1.980469 -11.644531 C 2.097656 -13.273438 2.679688 -14.554688 3.261719 -15.835938 C 4.773438 -19.210938 6.753906 -22.355469 8.847656 -25.382812 C 10.828125 -27.945312 10.246094 -30.273438 7.683594 -31.902344 C 6.519531 -32.601562 5.589844 -32.601562 4.65625 -31.671875 C -0.234375 -26.894531 -3.261719 -21.308594 -3.027344 -14.203125 C -2.910156 -11.992188 -2.097656 -10.128906 -0.699219 -8.5 C 0.929688 -6.636719 2.445312 -6.402344 4.425781 -7.917969 C 5.238281 -8.5 6.054688 -9.082031 6.753906 -9.78125 C 12.457031 -15.484375 17.8125 -21.65625 23.984375 -26.894531 C 26.546875 -29.109375 28.992188 -31.203125 32.835938 -32.484375 C 31.320312 -28.757812 29.339844 -25.847656 27.59375 -22.9375 C 24.335938 -17.347656 22.9375 -11.410156 23.519531 -5.125 C 23.984375 0.234375 28.0625 5.007812 34.929688 2.5625 C 38.773438 1.164062 42.5 -0.464844 45.992188 -2.445312 C 52.746094 -6.054688 59.03125 -10.128906 65.550781 -13.972656 C 68.929688 -15.835938 72.1875 -17.699219 75.449219 -19.5625 C 75.914062 -19.910156 76.730469 -20.027344 76.496094 -20.957031 C 76.265625 -21.539062 75.796875 -22.007812 75.101562 -22.007812 Z M 75.101562 -22.007812" transform="translate(261.565 204.068)"/></g></g></g><g fill="#664A5A"><g><g><path d="M 96.523438 -19.445312 C 97.339844 -20.257812 97.105469 -20.957031 95.941406 -21.308594 C 94.894531 -21.773438 94.078125 -21.308594 93.265625 -20.839844 C 89.421875 -18.511719 85.929688 -15.71875 82.550781 -12.808594 C 77.894531 -8.847656 73.003906 -5.125 67.414062 -2.328125 C 57.519531 2.679688 47.15625 6.636719 36.210938 8.734375 C 29.226562 10.128906 22.121094 10.828125 15.019531 10.011719 C 10.363281 9.429688 6.171875 8.152344 2.210938 5.707031 C 1.398438 5.238281 0.464844 4.890625 -0.117188 3.84375 C 1.046875 3.375 2.097656 2.910156 3.144531 2.5625 C 5.472656 1.746094 7.683594 0.816406 9.898438 -0.234375 C 16.183594 -3.492188 22.238281 -7.335938 28.0625 -11.292969 C 36.558594 -17.117188 44.476562 -23.753906 52.046875 -30.621094 C 58.683594 -36.558594 64.503906 -43.429688 71.492188 -48.902344 C 72.304688 -49.601562 72.074219 -50.300781 71.375 -50.648438 C 69.746094 -51.582031 68.113281 -51.695312 66.484375 -50.648438 C 65.320312 -49.832031 64.273438 -48.902344 63.222656 -47.855469 C 55.886719 -41.101562 49.019531 -33.882812 41.566406 -27.363281 C 30.503906 -17.699219 18.628906 -9.082031 5.355469 -2.5625 C 2.679688 -1.28125 -0.117188 0.117188 -3.261719 0.816406 C -3.261719 -0.347656 -2.792969 -1.046875 -2.328125 -1.863281 C 2.445312 -12.226562 7.335938 -22.472656 11.992188 -32.949219 C 17.929688 -46.222656 23.753906 -59.730469 30.503906 -72.769531 C 36.328125 -84.183594 42.847656 -95.125 50.648438 -105.257812 C 54.375 -110.148438 57.984375 -115.269531 64.273438 -117.367188 C 63.691406 -118.414062 62.875 -118.648438 61.828125 -118.878906 C 60.195312 -119.113281 58.800781 -118.53125 57.402344 -117.832031 C 52.976562 -115.386719 49.601562 -111.777344 46.457031 -108.050781 C 36.09375 -95.59375 28.175781 -81.738281 21.191406 -67.300781 C 16.300781 -57.519531 11.875 -47.503906 7.453125 -37.492188 C 3.261719 -28.0625 -1.164062 -18.863281 -5.472656 -9.546875 C -6.402344 -7.453125 -7.453125 -5.472656 -8.382812 -3.375 C -9.429688 -1.398438 -9.429688 -1.398438 -11.410156 -2.210938 C -13.039062 -2.792969 -14.671875 -3.261719 -16.417969 -3.492188 C -18.398438 -3.84375 -20.492188 -3.726562 -22.238281 -2.679688 C -25.148438 -0.929688 -25.148438 2.445312 -22.355469 4.191406 C -20.839844 5.125 -19.210938 5.589844 -17.582031 5.820312 C -16.300781 5.9375 -15.019531 6.171875 -13.855469 6.289062 C -13.621094 6.984375 -13.855469 7.453125 -14.089844 7.800781 C -18.628906 16.535156 -23.285156 25.148438 -28.757812 33.300781 C -32.136719 38.421875 -35.863281 43.546875 -40.402344 47.855469 C -42.265625 49.71875 -44.476562 51.347656 -47.039062 52.164062 C -47.621094 52.394531 -48.785156 51.929688 -48.785156 52.976562 C -48.785156 53.910156 -47.738281 54.257812 -47.039062 54.492188 C -46.691406 54.609375 -46.339844 54.609375 -45.992188 54.609375 C -43.3125 54.609375 -40.519531 54.140625 -38.074219 52.746094 C -34.582031 50.648438 -31.902344 47.503906 -29.339844 44.363281 C -22.472656 35.511719 -16.535156 25.964844 -11.410156 15.835938 C -9.78125 12.691406 -8.035156 9.546875 -6.289062 6.402344 C -5.472656 4.773438 -4.773438 4.65625 -3.027344 5.707031 C -2.910156 5.820312 -2.679688 5.9375 -2.445312 6.054688 C 2.097656 8.847656 6.753906 11.292969 11.992188 12.109375 C 21.773438 13.738281 31.4375 13.273438 40.984375 11.0625 C 47.972656 9.429688 54.722656 6.871094 61.246094 3.84375 C 65.785156 1.746094 70.441406 -0.234375 74.867188 -2.792969 C 81.621094 -6.636719 87.441406 -11.761719 93.496094 -16.648438 C 94.542969 -17.464844 95.59375 -18.398438 96.523438 -19.445312 Z M -10.945312 1.398438 C -11.175781 2.328125 -11.644531 3.027344 -12.691406 3.261719 C -14.089844 3.492188 -15.601562 3.492188 -17 3.375 C -17.699219 3.375 -18.398438 3.375 -19.09375 3.261719 C -20.492188 2.910156 -20.957031 2.097656 -20.375 0.699219 C -19.792969 -0.816406 -17.699219 -1.746094 -15.71875 -1.28125 C -14.4375 -0.929688 -13.15625 -0.582031 -12.109375 0.117188 C -11.644531 0.464844 -10.828125 0.582031 -10.945312 1.398438 Z M -10.945312 1.398438" transform="translate(334.912 204.068)"/></g></g></g><g fill="#664A5A"><g><g><path d="M 8.152344 -3.726562 C 8.382812 -1.28125 8.734375 1.164062 9.898438 3.375 C 13.855469 10.828125 21.773438 12.457031 28.410156 9.664062 C 41.800781 3.957031 66.949219 -18.046875 81.386719 -19.792969 C 81.269531 -20.257812 81.269531 -20.492188 81.15625 -20.609375 C 77.195312 -25.035156 41.449219 -0.464844 29.691406 5.238281 C 26.664062 6.753906 23.636719 8.035156 20.144531 8.035156 C 18.398438 7.917969 17.230469 7.21875 16.535156 5.589844 C 15.835938 3.957031 15.484375 2.210938 15.484375 0.347656 C 15.371094 -3.84375 16.183594 -7.800781 17.8125 -11.761719 C 19.09375 -15.019531 21.074219 -17.929688 22.820312 -20.957031 C 24.101562 -23.402344 23.867188 -24.21875 21.425781 -25.382812 C 20.726562 -25.730469 20.027344 -26.199219 19.328125 -25.964844 C 18.046875 -25.5 17.347656 -26.199219 16.417969 -26.78125 C 12.925781 -28.757812 9.429688 -29.226562 5.9375 -27.011719 C -2.445312 -21.773438 -6.289062 -13.855469 -6.054688 -4.191406 C -6.054688 -0.929688 -2.328125 0.929688 0.699219 -0.464844 C 1.863281 -1.046875 2.910156 -1.863281 3.726562 -2.792969 C 5.007812 -3.957031 6.289062 -5.238281 7.683594 -6.636719 C 8.152344 -5.472656 8.035156 -4.539062 8.152344 -3.726562 Z M 1.628906 -5.125 C 0.816406 -4.425781 -0.117188 -3.84375 -1.398438 -2.910156 C -1.398438 -5.472656 -0.929688 -7.335938 -0.234375 -8.964844 C 1.863281 -14.320312 4.890625 -18.863281 9.316406 -22.589844 C 10.128906 -23.285156 11.175781 -23.753906 12.109375 -24.335938 C 12.691406 -24.683594 13.507812 -24.800781 13.972656 -23.984375 C 14.4375 -23.285156 14.902344 -22.703125 14.320312 -21.773438 C 10.59375 -15.835938 6.984375 -9.78125 1.628906 -5.125 Z M 1.628906 -5.125" transform="translate(428.052 204.068)"/></g></g></g><g clip-path="url(#a)"><g clip-path="url(#b)"><g clip-path="url(#c)"><path fill="#7B5A6D" d="M 511.566406 63.199219 C 513.398438 64.425781 514.742188 66.464844 515.984375 68.679688 C 514.359375 67.105469 513.050781 65.011719 511.566406 63.199219" fill-rule="evenodd"/></g></g></g><g clip-path="url(#d)"><g clip-path="url(#e)"><g clip-path="url(#f)"><path fill="#7B5A6D" d="M 511.171875 73.246094 L 511.632812 73.132812 C 513.167969 75.351562 515.128906 76.871094 516.539062 79.292969 C 514.503906 77.691406 512.851562 75.449219 511.171875 73.246094" fill-rule="evenodd"/></g></g></g><g clip-path="url(#g)"><g clip-path="url(#h)"><g clip-path="url(#i)"><path fill="#7B5A6D" d="M 564.710938 64.882812 C 565.648438 65.316406 565.777344 67.09375 566.335938 68.167969 C 565.324219 67.851562 565.15625 66.140625 564.710938 64.882812" fill-rule="evenodd"/></g></g></g><g clip-path="url(#j)"><g clip-path="url(#k)"><g clip-path="url(#l)"><path fill="#7B5A6D" d="M 510.519531 82.878906 C 512.304688 84.96875 514.144531 86.972656 515.8125 89.261719 C 513.796875 87.546875 511.992188 85.492188 510.519531 82.878906" fill-rule="evenodd"/></g></g></g><g clip-path="url(#m)"><g clip-path="url(#n)"><g clip-path="url(#o)"><path fill="#7B5A6D" d="M 571.554688 69.757812 C 572.457031 70.316406 572.703125 71.976562 573.097656 73.382812 C 572.203125 72.8125 571.996094 71.082031 571.554688 69.757812" fill-rule="evenodd"/></g></g></g><g clip-path="url(#p)"><g clip-path="url(#q)"><g clip-path="url(#r)"><path fill="#7B5A6D" d="M 507.75 91.109375 C 510.039062 93.003906 512.132812 95.226562 513.945312 97.914062 C 511.769531 95.828125 509.667969 93.621094 507.75 91.109375" fill-rule="evenodd"/></g></g></g><g clip-path="url(#s)"><g clip-path="url(#t)"><g clip-path="url(#u)"><path fill="#7B5A6D" d="M 565.113281 79.386719 C 567.585938 78.90625 570.234375 79.988281 572.710938 80.222656 C 570.546875 81.015625 567.566406 79.527344 565.113281 79.386719" fill-rule="evenodd"/></g></g></g><g clip-path="url(#v)"><g clip-path="url(#w)"><g clip-path="url(#x)"><path fill="#7B5A6D" d="M 600.566406 70.710938 C 601.265625 71.113281 601.835938 71.730469 602.300781 72.527344 C 601.382812 72.484375 601.039062 71.492188 600.566406 70.710938" fill-rule="evenodd"/></g></g></g><g clip-path="url(#y)"><g clip-path="url(#z)"><g clip-path="url(#A)"><path fill="#7B5A6D" d="M 606.394531 69.582031 C 606.847656 70.285156 606.59375 71.667969 606.460938 72.453125 C 605.761719 71.601562 606.277344 70.375 606.394531 69.582031" fill-rule="evenodd"/></g></g></g><g clip-path="url(#B)"><g clip-path="url(#C)"><g clip-path="url(#D)"><path fill="#7B5A6D" d="M 579.113281 76.859375 C 579.894531 77.480469 580.164062 79.847656 580.277344 80.902344 C 579.660156 79.933594 579.535156 78.144531 579.113281 76.859375" fill-rule="evenodd"/></g></g></g><g clip-path="url(#E)"><g clip-path="url(#F)"><g clip-path="url(#G)"><path fill="#7B5A6D" d="M 508.046875 97.457031 C 510.0625 99.375 511.765625 101.816406 513.558594 104.105469 C 511.410156 102.410156 509.738281 99.914062 508.046875 97.457031" fill-rule="evenodd"/></g></g></g><g clip-path="url(#H)"><g clip-path="url(#I)"><g clip-path="url(#J)"><path fill="#7B5A6D" d="M 609.941406 74.152344 C 610.117188 75.5 609.726562 77.625 609.027344 78.875 C 608.980469 77.085938 609.417969 75.59375 609.941406 74.152344" fill-rule="evenodd"/></g></g></g><g clip-path="url(#K)"><g clip-path="url(#L)"><g clip-path="url(#M)"><path fill="#7B5A6D" d="M 586.472656 86.421875 C 587.128906 87.203125 586.601562 88.378906 586.511719 89.140625 C 585.917969 88.828125 586.417969 87.179688 586.472656 86.421875" fill-rule="evenodd"/></g></g></g><g clip-path="url(#N)"><g clip-path="url(#O)"><g clip-path="url(#P)"><path fill="#7B5A6D" d="M 509.925781 105.652344 C 511.320312 106.972656 512.484375 108.671875 513.667969 110.339844 C 512.171875 109.304688 510.554688 107.421875 509.925781 105.652344" fill-rule="evenodd"/></g></g></g><g clip-path="url(#Q)"><g clip-path="url(#R)"><g clip-path="url(#S)"><path fill="#7B5A6D" d="M 612.351562 81.898438 C 612.832031 82.589844 612.089844 84.726562 611.328125 85.523438 C 611.378906 84.140625 611.824219 82.996094 612.351562 81.898438" fill-rule="evenodd"/></g></g></g><g clip-path="url(#T)"><g clip-path="url(#U)"><g clip-path="url(#V)"><path fill="#7B5A6D" d="M 613.894531 90.015625 C 613.566406 90.675781 613.167969 91.296875 612.570312 91.792969 C 612.628906 90.976562 613.210938 90.464844 613.894531 90.015625" fill-rule="evenodd"/></g></g></g><g clip-path="url(#W)"><g clip-path="url(#X)"><g clip-path="url(#Y)"><path fill="#7B5A6D" d="M 552.570312 129.691406 C 550.703125 130.363281 548.03125 130.53125 546.058594 130.671875 C 547.605469 129.71875 550.742188 129.703125 552.570312 129.691406" fill-rule="evenodd"/></g></g></g><g clip-path="url(#Z)"><g clip-path="url(#aa)"><g clip-path="url(#ab)"><path fill="#7B5A6D" d="M 584.316406 120.980469 C 582.660156 122.214844 580.355469 123.058594 578.328125 124.070312 C 579.609375 122.691406 582.074219 121.351562 584.316406 120.980469" fill-rule="evenodd"/></g></g></g><g clip-path="url(#ac)"><g clip-path="url(#ad)"><g clip-path="url(#ae)"><path fill="#7B5A6D" d="M 589.421875 120.1875 C 590.386719 120.511719 590.945312 121.503906 591.347656 122.753906 C 590.519531 122.203125 589.953125 121.230469 589.421875 120.1875" fill-rule="evenodd"/></g></g></g><g clip-path="url(#af)"><g clip-path="url(#ag)"><g clip-path="url(#ah)"><path fill="#7B5A6D" d="M 539.320312 135.238281 C 540.953125 136.089844 541.386719 138.925781 542.113281 141.28125 C 540.875 139.78125 540.355469 137.082031 539.320312 135.238281" fill-rule="evenodd"/></g></g></g><g clip-path="url(#ai)"><g clip-path="url(#aj)"><g clip-path="url(#ak)"><path fill="#7B5A6D" d="M 587.636719 127.210938 C 588.511719 128.175781 589.046875 129.710938 589.597656 131.214844 C 588.773438 130.253906 587.863281 128.476562 587.636719 127.210938" fill-rule="evenodd"/></g></g></g><g clip-path="url(#al)"><g clip-path="url(#am)"><g clip-path="url(#an)"><path fill="#7B5A6D" d="M 559.40625 135.851562 C 558.019531 136.371094 555.082031 136.492188 554.1875 136.1875 C 555.777344 135.492188 557.976562 135.582031 559.40625 135.851562" fill-rule="evenodd"/></g></g></g><g clip-path="url(#ao)"><g clip-path="url(#ap)"><g clip-path="url(#aq)"><path fill="#7B5A6D" d="M 631.566406 117.066406 C 632.636719 118.210938 633.050781 120.4375 633.675781 122.320312 C 632.6875 121.175781 631.921875 118.5625 631.566406 117.066406" fill-rule="evenodd"/></g></g></g><g clip-path="url(#ar)"><g clip-path="url(#as)"><g clip-path="url(#at)"><path fill="#7B5A6D" d="M 546.808594 138.832031 C 548.429688 140.910156 549.503906 145.675781 549.746094 148.691406 C 548.59375 145.828125 547.609375 141.566406 546.808594 138.832031" fill-rule="evenodd"/></g></g></g><g clip-path="url(#au)"><g clip-path="url(#av)"><g clip-path="url(#aw)"><path fill="#7B5A6D" d="M 583.089844 136.050781 C 584.21875 136.945312 584.589844 139.105469 585.125 141 C 584.101562 140.046875 583.234375 137.746094 583.089844 136.050781" fill-rule="evenodd"/></g></g></g><g clip-path="url(#ax)"><g clip-path="url(#ay)"><g clip-path="url(#az)"><path fill="#7B5A6D" d="M 637.570312 122.472656 C 638.984375 122.769531 639.199219 125.039062 639.761719 126.742188 C 638.757812 125.78125 638.324219 123.851562 637.570312 122.472656" fill-rule="evenodd"/></g></g></g><g clip-path="url(#aA)"><g clip-path="url(#aB)"><g clip-path="url(#aC)"><path fill="#7B5A6D" d="M 609.914062 129.527344 C 610.144531 129.417969 610.210938 129.605469 610.402344 129.5625 C 610.082031 131.855469 609.777344 134.15625 609.1875 136.285156 C 608.929688 134.25 609.433594 131.550781 609.914062 129.527344" fill-rule="evenodd"/></g></g></g><g clip-path="url(#aD)"><g clip-path="url(#aE)"><g clip-path="url(#aF)"><path fill="#7B5A6D" d="M 572.753906 139.105469 C 573.546875 138.648438 575.042969 138.867188 576.277344 138.386719 C 576.089844 139.734375 573.78125 139 572.753906 139.105469" fill-rule="evenodd"/></g></g></g><g clip-path="url(#aG)"><g clip-path="url(#aH)"><g clip-path="url(#aI)"><path fill="#7B5A6D" d="M 553.53125 144.535156 C 554.785156 146.128906 555.445312 149.222656 555.910156 151.488281 C 554.863281 149.597656 554.207031 147.050781 553.53125 144.535156" fill-rule="evenodd"/></g></g></g><g clip-path="url(#aJ)"><g clip-path="url(#aK)"><g clip-path="url(#aL)"><path fill="#7B5A6D" d="M 644.074219 127.914062 C 644.957031 128.296875 645.371094 129.460938 645.734375 130.710938 C 644.875 130.339844 644.171875 128.863281 644.074219 127.914062" fill-rule="evenodd"/></g></g></g><g clip-path="url(#aM)"><g clip-path="url(#aN)"><g clip-path="url(#aO)"><path fill="#7B5A6D" d="M 612.972656 135.984375 C 613.203125 135.882812 613.261719 136.0625 613.460938 136.019531 C 613.875 137.773438 613.585938 139.097656 613.453125 140.519531 C 612.761719 139.679688 612.917969 137.226562 612.972656 135.984375" fill-rule="evenodd"/></g></g></g><g clip-path="url(#aP)"><g clip-path="url(#aQ)"><g clip-path="url(#aR)"><path fill="#7B5A6D" d="M 578.421875 145.078125 C 579.6875 145.925781 579.414062 148.824219 579.550781 150.25 C 578.671875 149.179688 578.703125 146.621094 578.421875 145.078125" fill-rule="evenodd"/></g></g></g><g clip-path="url(#aS)"><g clip-path="url(#aT)"><g clip-path="url(#aU)"><path fill="#7B5A6D" d="M 559.917969 151.457031 C 560.84375 151.660156 561.914062 154.433594 561.195312 155.300781 C 560.820312 154.054688 559.929688 152.605469 559.917969 151.457031" fill-rule="evenodd"/></g></g></g><g clip-path="url(#aV)"><g clip-path="url(#aW)"><g clip-path="url(#aX)"><path fill="#7B5A6D" d="M 565.441406 150.398438 C 566.980469 150.621094 568.007812 151.691406 569.1875 152.511719 C 568.015625 152.53125 566.378906 151.480469 565.441406 150.398438" fill-rule="evenodd"/></g></g></g><g clip-path="url(#aY)"><g clip-path="url(#aZ)"><g clip-path="url(#ba)"><path fill="#7B5A6D" d="M 616.671875 141.804688 C 616.902344 141.699219 616.96875 141.882812 617.160156 141.84375 C 617.117188 143.058594 617.3125 144.414062 617.121094 145.546875 C 616.441406 144.492188 616.714844 142.902344 616.671875 141.804688" fill-rule="evenodd"/></g></g></g><g clip-path="url(#bb)"><g clip-path="url(#bc)"><g clip-path="url(#bd)"><path fill="#7B5A6D" d="M 623.550781 143.617188 C 624.859375 144.144531 625.875 145.171875 626.800781 146.339844 C 625.523438 145.761719 624.488281 144.773438 623.550781 143.617188" fill-rule="evenodd"/></g></g></g><g clip-path="url(#be)"><g clip-path="url(#bf)"><g clip-path="url(#bg)"><path fill="#7B5A6D" d="M 523.289062 61.882812 C 523.101562 63.140625 522.363281 65.179688 521.171875 66.261719 C 521.492188 64.570312 522.398438 63.230469 523.289062 61.882812" fill-rule="evenodd"/></g></g></g><g clip-path="url(#bh)"><g clip-path="url(#bi)"><g clip-path="url(#bj)"><path fill="#7B5A6D" d="M 527.214844 71.175781 C 526.527344 73.203125 524.441406 75.507812 522.820312 77.40625 C 523.488281 75.367188 525.851562 73.226562 527.214844 71.175781" fill-rule="evenodd"/></g></g></g><g clip-path="url(#bk)"><g clip-path="url(#bl)"><g clip-path="url(#bm)"><path fill="#7B5A6D" d="M 559.671875 72.398438 C 561.203125 72.417969 563.578125 72.886719 565 73.796875 C 563.089844 73.558594 561.363281 73.007812 559.671875 72.398438" fill-rule="evenodd"/></g></g></g><g clip-path="url(#bn)"><g clip-path="url(#bo)"><g clip-path="url(#bp)"><path fill="#7B5A6D" d="M 527.28125 81.109375 C 526.574219 83.085938 524.230469 85.191406 522.65625 87.074219 C 523.394531 85.121094 525.871094 83.09375 527.28125 81.109375" fill-rule="evenodd"/></g></g></g><g clip-path="url(#bq)"><g clip-path="url(#br)"><g clip-path="url(#bs)"><path fill="#7B5A6D" d="M 529.085938 87.71875 C 527.902344 90.476562 524.855469 93.234375 523.324219 96.21875 C 524.21875 93.277344 526.960938 90.34375 529.085938 87.71875" fill-rule="evenodd"/></g></g></g><g clip-path="url(#bt)"><g clip-path="url(#bu)"><g clip-path="url(#bv)"><path fill="#7B5A6D" d="M 601.996094 77.097656 C 602.96875 77.253906 604.140625 78.9375 605.09375 79.855469 C 603.648438 79.617188 603.105469 77.886719 601.996094 77.097656" fill-rule="evenodd"/></g></g></g><g clip-path="url(#bw)"><g clip-path="url(#bx)"><g clip-path="url(#by)"><path fill="#7B5A6D" d="M 579.507812 88.15625 C 576.761719 87.589844 574.046875 86.976562 571.457031 86.148438 C 573.390625 86.359375 577.488281 86.667969 579.507812 88.15625" fill-rule="evenodd"/></g></g></g><g clip-path="url(#bz)"><g clip-path="url(#bA)"><g clip-path="url(#bB)"><path fill="#7B5A6D" d="M 520.933594 108.527344 C 522.515625 105.601562 524.710938 102.300781 527.070312 99.617188 C 527.296875 99.355469 527.589844 98.703125 528.015625 98.898438 C 525.535156 102.042969 523.523438 105.457031 520.933594 108.527344" fill-rule="evenodd"/></g></g></g><g clip-path="url(#bC)"><g clip-path="url(#bD)"><g clip-path="url(#bE)"><path fill="#7B5A6D" d="M 604.972656 86.464844 C 605.933594 86.722656 607.15625 88.386719 607.992188 89.558594 C 606.835938 88.777344 606.050781 87.378906 604.972656 86.464844" fill-rule="evenodd"/></g></g></g><g clip-path="url(#bF)"><g clip-path="url(#bG)"><g clip-path="url(#bH)"><path fill="#7B5A6D" d="M 612.03125 126.433594 C 611.675781 124.777344 611.597656 122.007812 610.640625 120.839844 C 610.582031 122.257812 610.867188 125.5 612.03125 126.433594 Z M 610.261719 119.96875 C 611.277344 120.019531 610.582031 119.046875 610.535156 118.460938 L 610.074219 118.574219 C 610.332031 119.15625 610.144531 119.46875 610.261719 119.96875 Z M 628.984375 153.179688 C 628.890625 153.191406 628.800781 153.199219 628.796875 153.066406 C 624.761719 150.089844 621.945312 145.296875 618.941406 140.59375 C 614.792969 134.101562 610.300781 127.453125 609.09375 117.851562 C 608.257812 118.574219 606.886719 120.058594 606.785156 121.480469 C 606.746094 122.019531 607.203125 122.558594 607.199219 123.136719 C 607.1875 124.070312 606.503906 125.089844 606.289062 125.9375 C 605.753906 128.039062 606.199219 128.742188 606.695312 130.808594 C 607.203125 132.914062 606.519531 135.390625 607.519531 137.339844 C 608.0625 138.394531 609.59375 138.867188 610.089844 139.914062 C 611.1875 142.21875 611.328125 144.742188 613.300781 146.332031 C 613.917969 146.832031 614.867188 147.011719 615.53125 147.542969 C 617.421875 149.074219 618.59375 151.3125 621.238281 151.097656 C 623.546875 153.242188 626.871094 153.699219 629.171875 155.859375 C 631.414062 155.773438 632.785156 157.128906 635.074219 156.957031 C 633.78125 155.644531 633.601562 153.617188 632.65625 151.777344 C 632.265625 151.015625 631.359375 150.480469 631 149.625 C 630.730469 148.996094 630.789062 148.140625 630.472656 147.511719 C 629.976562 146.527344 628.53125 146.070312 628.089844 145.058594 C 627.597656 143.917969 627.761719 142.511719 627.339844 141.394531 C 627.128906 140.839844 626.648438 140.390625 626.472656 139.84375 C 626.152344 138.867188 626.339844 137.75 626.019531 136.742188 C 625.792969 136.027344 625.230469 135.429688 625.039062 134.742188 C 624.699219 133.519531 624.867188 132.210938 624.4375 131.039062 C 624.265625 130.566406 623.792969 130.101562 623.609375 129.644531 C 623.195312 128.652344 623.269531 127.519531 622.855469 126.621094 C 622.46875 125.792969 621.195312 125.207031 620.625 124.128906 C 620.28125 123.472656 620.289062 122.683594 619.984375 122.203125 C 619.128906 120.824219 616.882812 120.621094 616.359375 118.609375 C 614.878906 118.011719 613.230469 117.675781 611.210938 117.964844 C 612.019531 124.976562 613.746094 130.335938 616.527344 135.414062 C 620.328125 142.363281 624.652344 148.417969 629.332031 153.253906 C 629.175781 153.292969 629.117188 153.175781 628.984375 153.179688 Z M 625.21875 111.589844 C 628.113281 112.410156 630.203125 114.5625 633.195312 115.21875 C 630.96875 113 628.222656 111.652344 625.070312 110.988281 Z M 655.089844 121.15625 C 654.160156 119.765625 652.441406 119.25 651.464844 118.207031 C 650.160156 116.835938 649.492188 115.378906 647.53125 115.339844 C 646.367188 113.328125 644.273438 113.476562 642.242188 112.804688 C 640.859375 112.351562 639.816406 111.082031 638.304688 110.574219 C 637.902344 110.4375 637.398438 110.570312 636.988281 110.421875 C 635.925781 110.046875 635.011719 109.210938 633.882812 108.949219 C 631.804688 108.472656 627.429688 108.972656 625.296875 109.964844 C 626.484375 110.878906 628 111.347656 629.34375 112.007812 C 630.742188 112.703125 632.078125 113.417969 633.421875 114.199219 C 635.023438 116.128906 637.175781 117.414062 639.132812 119.03125 C 641.082031 120.660156 642.851562 122.523438 644.875 124.019531 C 646.902344 125.539062 648.875 127.140625 650.84375 128.636719 C 652.8125 130.128906 655.269531 131.101562 656.511719 133.316406 C 652.726562 130.660156 649.03125 127.734375 645.101562 124.929688 C 643.210938 123.585938 641.222656 122.328125 639.277344 120.921875 C 637.34375 119.519531 635.742188 117.539062 633.796875 116.351562 C 632.382812 115.484375 630.707031 114.914062 629.222656 114.125 C 627.792969 113.359375 626.386719 112.242188 624.722656 112.191406 C 624.535156 114.886719 626.089844 117.539062 627.628906 118.691406 C 627.464844 122.894531 631.753906 123.019531 633.183594 124.847656 C 634.421875 126.4375 634.546875 128.277344 636.167969 129.082031 C 636.699219 129.347656 637.46875 129.128906 638.171875 129.382812 C 639.433594 129.839844 640.519531 131.121094 641.574219 131.429688 C 642.300781 131.636719 643.136719 131.394531 643.878906 131.652344 C 644.566406 131.894531 644.964844 132.691406 645.65625 132.976562 C 646.535156 133.335938 647.332031 132.871094 648.226562 132.976562 C 648.824219 133.050781 649.414062 133.570312 650.007812 133.660156 C 651.179688 133.832031 652.414062 133.449219 653.527344 133.582031 C 655.402344 133.808594 657.769531 135.175781 659.195312 136.34375 C 659.9375 136.949219 660.429688 138.007812 661.574219 138.15625 C 662 133.179688 659.011719 127.839844 656.785156 124.105469 C 654.40625 124.703125 652.089844 125.214844 650.46875 124.554688 C 652.253906 123.746094 654.378906 124.167969 656.257812 123.917969 C 655.800781 122.863281 655.632812 121.972656 655.089844 121.15625 Z M 609.558594 110.679688 C 609.699219 110.164062 609.417969 109.394531 609.40625 108.789062 L 608.804688 108.941406 C 609.210938 109.542969 608.527344 110.914062 609.558594 110.679688 Z M 571.558594 161.390625 C 572.425781 158.242188 573.027344 154.65625 571.71875 150.433594 C 569.75 144.089844 565.359375 137.972656 562.210938 134.1875 C 561.953125 133.652344 562.214844 133.421875 562.0625 132.945312 C 560.902344 131.933594 560.054688 130.710938 558.578125 129.960938 C 557.8125 129.566406 556.816406 129.570312 556.121094 129.125 C 555.574219 128.777344 555.214844 128.058594 554.652344 127.726562 C 553.394531 126.988281 550.226562 126.128906 548.035156 125.6875 C 547.074219 125.492188 546.015625 125.65625 544.777344 125.535156 C 542.550781 125.308594 540.21875 125.382812 537.519531 126.0625 C 535.5 126.566406 533.183594 127.414062 532.179688 129.152344 C 537.898438 130.050781 543.34375 131.40625 547.226562 135.355469 C 551.671875 137.632812 555.507812 141.300781 559.167969 145.214844 C 562.769531 149.066406 566.078125 154.132812 567.324219 160.519531 C 564.703125 155.066406 562.484375 149.488281 558.710938 145.332031 C 557.039062 143.480469 555.105469 141.765625 553.050781 140.003906 C 551.128906 138.359375 548.941406 136.09375 546.886719 135.28125 C 545.828125 134.855469 544.445312 134.628906 543.253906 134.257812 C 539.472656 133.09375 535.6875 132.355469 531.570312 131.878906 C 532.894531 134.035156 533.921875 137.125 536.292969 138.558594 C 537.246094 139.140625 537.96875 138.878906 538.488281 139.617188 C 538.957031 140.300781 539.097656 141.394531 539.429688 142.109375 C 539.78125 142.890625 540.113281 143.796875 540.484375 144.417969 C 541.199219 145.605469 542.265625 147.265625 543.316406 148.046875 C 543.925781 148.5 545.4375 148.472656 546 149.144531 C 546.917969 150.230469 546.832031 151.664062 547.808594 152.539062 C 549.019531 153.621094 550.683594 153.742188 552.542969 153.453125 C 553.902344 155.671875 556 156.671875 558.664062 156.738281 C 560.859375 157.929688 562.789062 159.570312 564.292969 161.914062 C 566.761719 162.238281 568.527344 163.710938 569.695312 166.1875 C 570.996094 165.035156 571.105469 163.039062 571.558594 161.390625 Z M 583.339844 111.914062 C 582.742188 112.070312 583.671875 113.144531 582.847656 113.160156 C 579.886719 113.386719 577 114.570312 577.433594 117.238281 C 575.214844 118.859375 573.054688 120.519531 573.605469 123.808594 C 571.878906 126.027344 569.214844 127.6875 569.667969 131.210938 C 568.710938 132.519531 567.308594 133.964844 568.292969 136.042969 C 566.179688 138.511719 568.460938 140.480469 569.988281 143.488281 C 572.140625 147.699219 574.539062 153.839844 573.675781 158.289062 C 575.15625 157.746094 576.570312 157.160156 577.5 156.21875 C 578.0625 155.648438 578.121094 154.761719 578.601562 154.175781 C 579.875 152.636719 581.976562 152.042969 583.261719 150.289062 C 582.75 147.992188 584.871094 147.523438 586.140625 146.359375 C 587.054688 145.527344 587.90625 144.277344 588.410156 143.230469 C 588.773438 142.476562 588.703125 141.382812 589.171875 140.472656 C 589.734375 139.371094 590.863281 138.785156 591.441406 137.980469 C 592.242188 136.878906 593.09375 135.234375 593.230469 133.523438 C 593.316406 132.421875 592.714844 131.90625 592.777344 130.421875 C 592.808594 129.753906 593.417969 129.324219 593.609375 128.609375 C 594.226562 126.363281 593.714844 123.953125 592.5625 121.171875 C 593.222656 118.457031 591.941406 113.726562 589.617188 112.59375 C 585.296875 124.992188 582.449219 138.28125 573.5 147.910156 C 576.59375 142.257812 580.363281 136.980469 582.601562 130.871094 C 583.160156 129.34375 584.078125 128.015625 584.570312 126.53125 C 586.21875 121.625 586.667969 116.746094 587.160156 111.121094 C 586.015625 110.808594 584.496094 111.324219 583.339844 111.914062 Z M 582.667969 105.980469 C 582.183594 105.433594 581.152344 105.789062 580.25 105.945312 C 580.390625 106.820312 582.621094 106.347656 582.667969 105.980469 Z M 577.21875 106.699219 C 577.621094 106.601562 578.070312 106.425781 578.320312 106.585938 C 578.289062 105.773438 577.648438 105.988281 577.070312 106.097656 Z M 575.289062 106.699219 C 575.519531 106.761719 576.664062 107.046875 576.503906 106.398438 C 576.546875 105.871094 575.003906 106.257812 575.289062 106.699219 Z M 511.640625 129.300781 C 518.839844 127.59375 524.726562 128.074219 530.363281 128.964844 C 533.121094 125.71875 537.59375 124.488281 541.832031 124.023438 C 542.816406 123.917969 544.015625 124.355469 545.3125 124.441406 C 546.136719 124.492188 546.992188 124.238281 547.695312 124.328125 C 549.585938 124.558594 553.15625 125.71875 554.652344 126.445312 C 555.597656 126.90625 556.1875 127.789062 557.035156 128.257812 C 557.8125 128.691406 558.800781 128.6875 559.492188 129.09375 C 560.667969 129.765625 562.421875 131.375 563.078125 132.53125 C 563.351562 133.007812 563.359375 133.546875 563.605469 134 C 564.292969 135.273438 565.621094 136.140625 566.210938 137.363281 C 567.527344 136.796875 566.804688 135.398438 566.898438 134.304688 C 567.019531 132.914062 567.894531 131.894531 568.644531 130.984375 C 568.375 127.566406 570.535156 125.609375 572.585938 123.578125 C 572.207031 120.355469 573.988281 118.421875 576.375 116.863281 C 576.253906 114.09375 578.851562 112.546875 581.945312 112.101562 C 582.59375 110.542969 585.722656 109.761719 587.433594 110.253906 C 587.570312 109.183594 587.984375 108.273438 587.734375 106.964844 C 562.914062 107.34375 529.929688 116.480469 511.640625 129.296875 Z M 566.25 107.828125 C 566.585938 107.828125 567.871094 108.097656 567.765625 107.449219 C 567.738281 106.941406 566.03125 107.367188 566.25 107.828125 Z M 554.785156 109.5625 C 554.675781 109.625 554.640625 109.730469 554.710938 109.902344 L 554.785156 110.203125 C 558.558594 109.222656 563.226562 108.863281 566.0625 107.714844 C 562.917969 107.308594 558.453125 109.09375 554.785156 109.5625 Z M 584.574219 92.351562 C 585.242188 94.082031 586.21875 95.875 586.878906 97.714844 C 587.171875 98.53125 587.179688 99.878906 588.121094 100.132812 C 587.730469 96.9375 586.339844 93.542969 584.617188 91.855469 L 584.308594 91.933594 C 584.378906 92.105469 584.390625 92.371094 584.574219 92.351562 Z M 518.367188 103.390625 C 517.421875 107.003906 516.421875 110.707031 515.175781 114.453125 C 514.015625 117.929688 512.949219 121.609375 510.886719 124.347656 C 509.398438 126.332031 506.546875 128.113281 504.414062 129.972656 C 497.863281 135.695312 491.921875 141.777344 486.386719 147.949219 C 478.703125 156.511719 474.035156 165.289062 468.878906 175.738281 C 468.230469 177.207031 467.839844 180.167969 470.195312 180.390625 C 471.367188 179.046875 470.664062 176.34375 471.300781 174.496094 C 471.617188 173.566406 472.382812 172.542969 472.929688 171.363281 C 473.417969 170.304688 474.164062 169.324219 474.75 168.335938 C 476.007812 166.230469 477.003906 163.917969 478.160156 162.035156 C 483.148438 153.90625 489.855469 147.015625 497.175781 140.28125 C 500.859375 136.902344 505.097656 133.292969 510.425781 131.527344 C 521.890625 127.734375 531.007812 131.011719 540.570312 132.519531 C 540.183594 131.527344 539.007812 131.449219 538.152344 131.199219 C 535.242188 130.34375 532.273438 130.136719 529.113281 129.757812 C 525 129.265625 520.894531 128.5625 516.292969 129.265625 C 513.488281 129.6875 509.648438 131.289062 507.324219 130.695312 C 519.597656 122.121094 535.566406 115.769531 553.042969 110.316406 C 537.394531 113.320312 522.222656 120.488281 510.886719 126.921875 C 513.6875 124.949219 514.390625 121.839844 515.433594 118.722656 C 516.566406 115.339844 517.5625 111.976562 518.207031 108.566406 C 518.539062 106.820312 519.011719 104.765625 518.515625 103.355469 Z M 592.03125 56.46875 C 593.417969 58.785156 595.320312 60.855469 596.484375 63.382812 C 597.589844 65.757812 598.714844 68.84375 599.203125 71.695312 C 599.582031 73.90625 599.222656 76.246094 599.457031 78.53125 C 599.605469 79.996094 600.273438 81.550781 600.25 82.988281 C 600.238281 83.707031 599.933594 84.164062 600.058594 84.800781 C 600.316406 86.148438 601.421875 87.203125 602.167969 88.125 C 601.171875 91.121094 604.722656 92.636719 605.417969 94.703125 C 605.699219 95.535156 605.382812 96.574219 605.792969 97.492188 C 606.367188 98.777344 607.445312 99.496094 608.890625 99.609375 C 609.386719 96.019531 609.765625 92.136719 609.019531 87.863281 C 607.722656 80.417969 603.300781 73.101562 601.519531 67.425781 C 604.398438 71.71875 606.875 77.769531 608.796875 83.746094 C 609.472656 85.851562 609.582031 88.210938 610.378906 90.09375 C 611.117188 91.828125 610.914062 93.652344 610.941406 95.570312 C 610.957031 97.261719 610.925781 98.757812 610.96875 100.214844 C 613.867188 98.785156 614.410156 95.9375 616.121094 93.792969 C 615.734375 91.582031 617.328125 90.085938 617.117188 88.09375 C 617.046875 87.449219 616.621094 86.921875 616.511719 86.316406 C 616.359375 85.503906 616.644531 84.632812 616.550781 83.898438 C 616.367188 82.492188 615.605469 81.414062 615.269531 80.046875 C 614.976562 78.859375 615.210938 78.046875 614.859375 77.101562 C 614.351562 75.777344 613.183594 75.363281 612.289062 73.890625 C 611.828125 73.132812 611.695312 72.074219 611.160156 71.28125 C 610.3125 70.042969 608.6875 69.335938 607.675781 68.296875 C 605.945312 66.515625 604.484375 64.898438 602.460938 64.140625 C 601.335938 62.144531 599.0625 61.492188 597.441406 60.097656 C 595.730469 58.632812 594.339844 56.648438 592.070312 55.980469 L 591.765625 56.054688 C 591.839844 56.226562 591.847656 56.488281 592.03125 56.46875 Z M 549.132812 58.492188 C 549.3125 58.992188 549.308594 59.679688 549.546875 60.15625 C 550.40625 61.878906 552.445312 62.824219 552.226562 65.105469 C 552.667969 66.226562 554.5 67.089844 554.835938 68.464844 C 554.972656 69.046875 554.582031 69.882812 554.683594 70.429688 C 555 72.113281 556.34375 74.183594 557.246094 75.570312 C 558.207031 77.046875 559.671875 78.226562 560.644531 79.535156 C 559.960938 83.328125 564.433594 83.109375 565.632812 85.355469 C 566.0625 86.15625 565.9375 87.332031 566.5 88.1875 C 567.742188 90.078125 570.730469 89.425781 572.210938 90.453125 C 572.640625 90.757812 572.808594 91.480469 573.191406 91.816406 C 575.433594 93.800781 578.617188 93.035156 580.636719 94.613281 C 581.40625 98.335938 583.839844 99.269531 586.691406 99.527344 C 582.875 86.933594 576.4375 80.042969 568.75 73.988281 C 564.546875 70.675781 560.203125 67.613281 556.578125 63.859375 C 562.296875 67.691406 567.972656 72.066406 573.511719 76.972656 C 576.113281 79.28125 578.511719 81.933594 580.882812 85.246094 C 583.851562 89.398438 587.824219 92.957031 588.882812 99.941406 C 591.363281 97.988281 590.296875 93.09375 589.308594 90.046875 C 588.441406 87.386719 588.804688 85.308594 587.652344 83.398438 C 587.0625 82.421875 585.925781 81.945312 585.234375 80.792969 C 584.410156 79.410156 583.871094 77.136719 582.972656 76.21875 C 581.824219 75.050781 580.171875 74.96875 579.152344 73.800781 C 578.558594 73.125 578.347656 72.171875 577.757812 71.421875 C 576.949219 70.414062 575.238281 69.777344 574.164062 68.625 C 572.839844 67.199219 572.132812 65.703125 570.992188 64.921875 C 570.34375 64.480469 569.101562 64.359375 568.15625 63.863281 C 567.5 63.519531 567.011719 62.988281 566.414062 62.691406 C 565.746094 62.359375 565.039062 61.839844 564.410156 61.746094 C 563.722656 61.644531 563.046875 62.054688 562.367188 61.933594 C 561.289062 61.738281 559.917969 60.515625 558.667969 59.96875 C 557.292969 59.371094 555.851562 58.90625 554.582031 58.417969 C 551.742188 57.335938 549.617188 55.316406 547.324219 53.808594 L 547.023438 53.882812 C 547.253906 55.683594 548.535156 56.828125 549.132812 58.492188 Z M 512.183594 52.777344 C 511.386719 53.15625 510.839844 52.28125 510.289062 52.925781 C 508.875 54.984375 509.835938 58.476562 510.207031 61.613281 C 509.984375 62.035156 508.84375 61.90625 508.613281 62.332031 C 507.863281 65.390625 508.078125 69.03125 509.058594 73.132812 C 508.851562 73.652344 507.800781 73.664062 507.542969 74.152344 C 506.582031 77 506.605469 80.441406 507.53125 84.425781 C 507.230469 84.886719 506.28125 84.960938 505.828125 85.332031 C 504.605469 88.472656 504.59375 92.609375 506.230469 97.265625 C 506.445312 97.875 506.945312 98.40625 506.984375 99.003906 C 507.03125 99.691406 506.289062 100.375 506.226562 101.121094 C 505.902344 105 508.445312 108.613281 510.074219 111.394531 C 509.917969 113.949219 511.652344 116.632812 513.015625 118.046875 C 515.648438 110.839844 518.378906 102.558594 518.796875 93.492188 C 518.988281 89.152344 518.863281 84.28125 518.65625 79.40625 C 518.410156 73.328125 518.261719 66.988281 516.945312 60.898438 C 519.035156 66.546875 519.589844 73.863281 519.796875 78.800781 C 519.945312 82.308594 520.664062 85.582031 520.691406 88.851562 C 520.769531 98.472656 519.347656 107.570312 517.441406 115.816406 C 521.609375 113.359375 524.910156 109.671875 528.050781 105.472656 C 530.609375 102.046875 535.660156 95.332031 532.871094 90.628906 C 533.816406 87.234375 534.949219 83.375 534.132812 79.5625 C 533.976562 78.84375 533.644531 77.382812 533.078125 76.617188 C 532.816406 76.269531 531.757812 75.984375 531.488281 75.40625 C 531.175781 74.734375 531.480469 73.78125 531.375 73.027344 C 530.949219 69.9375 529.828125 66.429688 528.589844 63.773438 C 528.070312 63.640625 527.28125 63.949219 527.035156 63.355469 C 526.644531 58.765625 524.25 54.304688 521.53125 52.210938 C 520.839844 52.292969 520.816406 53.234375 520.089844 52.890625 C 517.839844 49.085938 515.191406 45.929688 511.664062 44.238281 C 512.445312 47.449219 513.050781 50.550781 512.183594 52.777344 Z M 520.355469 51.382812 C 520.710938 51.644531 521.546875 51.113281 521.945312 51.304688 C 524.871094 53.496094 526.894531 57.1875 528.0625 62.300781 C 531.1875 63.886719 532.105469 70.894531 532.429688 74.691406 C 536.820312 78.5 535.324219 86.433594 533.925781 90.367188 C 536.042969 94.296875 533.472656 99.019531 531.570312 102.1875 C 528.847656 106.71875 524.652344 111.660156 520.167969 115.136719 C 519.265625 115.839844 517.9375 116.382812 517.140625 117.175781 C 515.660156 118.652344 515.496094 122.386719 514.558594 124.238281 C 525.824219 117.789062 542.816406 110.863281 559.589844 107.558594 C 569.515625 105.609375 579.351562 104.988281 587.96875 104.660156 C 588.101562 103.292969 587.085938 102.003906 586.914062 100.429688 C 583.480469 100.371094 580.808594 99.039062 579.660156 95.179688 C 576.792969 94.027344 573.230469 94.03125 571.414062 91.136719 C 568.25 90.761719 565.28125 90.070312 564.578125 85.617188 C 563.242188 84.375 560.824219 84.050781 559.890625 81.648438 C 559.679688 81.113281 559.84375 80.382812 559.589844 79.796875 C 559.273438 79.097656 558.371094 78.496094 557.8125 77.835938 C 557.226562 77.144531 556.769531 76.367188 556.304688 75.644531 C 554.964844 73.574219 553.039062 70.792969 553.929688 68.691406 C 553.027344 67.476562 552.035156 66.421875 551.136719 65.214844 C 550.847656 64.617188 551.246094 64.429688 551.136719 63.933594 C 548.527344 60.484375 545.886719 54.863281 544.941406 50.070312 C 546.292969 50.34375 546.53125 51.578125 547.285156 52.375 C 551.46875 56.773438 557.347656 58.199219 562.59375 60.917969 C 564.851562 60.554688 566.40625 61.5625 568.308594 62.542969 C 569.5625 63.1875 570.960938 63.65625 571.789062 64.242188 C 573.230469 65.269531 574.015625 67.082031 575.375 68.324219 C 576.289062 69.160156 577.257812 69.644531 577.984375 70.402344 C 578.824219 71.289062 579.152344 72.351562 579.988281 73.273438 C 581.097656 74.503906 582.851562 74.636719 583.765625 75.542969 C 585 76.761719 585.25 78.796875 586.257812 80.375 C 587.335938 82.078125 588.726562 82.730469 589.316406 84.265625 C 589.875 85.730469 589.664062 87.417969 590.328125 89.632812 C 590.902344 91.546875 591.472656 93.453125 591.757812 96.011719 C 590.980469 97.902344 590.753906 100.121094 589.296875 101.605469 C 589.820312 102.441406 589.964844 103.914062 590.316406 105.042969 C 596.257812 105.496094 602.332031 105.726562 608.390625 105.992188 C 608.921875 104.46875 608.695312 102.492188 608.851562 100.742188 C 606.757812 100.050781 604.167969 98.296875 604.511719 94.925781 C 603.78125 93.59375 602.316406 92.910156 601.640625 91.144531 C 601.328125 90.34375 601.46875 89.363281 601.152344 88.539062 C 600.667969 87.273438 599.277344 86.386719 598.996094 85.066406 C 598.84375 84.339844 599.265625 83.71875 599.265625 82.910156 C 599.257812 81.507812 598.660156 79.945312 598.515625 78.605469 C 598.269531 76.367188 598.566406 74.273438 598.214844 72.261719 C 597.878906 70.292969 597.214844 68.191406 596.558594 66.253906 C 594.960938 61.554688 591.578125 58.644531 589.84375 54.125 C 591.257812 53.5625 592.515625 55.007812 593.621094 55.753906 C 595.230469 56.832031 596.492188 57.960938 598.046875 59.304688 C 598.773438 59.933594 599.878906 60.230469 600.691406 60.890625 C 601.800781 61.796875 602.628906 63.109375 603.675781 63.839844 C 604.46875 64.390625 605.628906 64.503906 606.394531 65.085938 C 607.253906 65.738281 607.753906 66.878906 608.476562 67.617188 C 609.542969 68.714844 610.835938 69.203125 611.6875 70.1875 C 612.441406 71.0625 612.597656 72.3125 613.3125 73.472656 C 614.242188 74.988281 615.425781 75.523438 615.875 76.6875 C 616.308594 77.800781 616.195312 78.914062 616.589844 80.199219 C 616.878906 81.125 617.394531 81.886719 617.570312 82.84375 C 617.746094 83.792969 617.371094 84.917969 617.605469 86.207031 C 617.707031 86.742188 618.09375 87.230469 618.171875 87.832031 C 618.355469 89.230469 617.441406 90.40625 617.257812 91.910156 C 617.011719 93.933594 617 94.445312 615.78125 96.292969 C 614.625 98.03125 613.902344 99.625 612.296875 101.003906 C 611.867188 101.375 611.492188 101.28125 610.929688 101.34375 C 610.925781 102.882812 610.730469 104.316406 610.773438 105.882812 C 615.277344 106.882812 619.484375 108.367188 623.78125 109.699219 C 626.042969 107.703125 631.429688 107.273438 634.109375 107.925781 C 635.207031 108.195312 636.070312 108.953125 637.023438 109.285156 C 638.066406 109.660156 638.925781 109.890625 639.859375 110.347656 C 640.691406 110.75 641.550781 111.460938 642.46875 111.785156 C 643.027344 111.984375 643.738281 111.828125 644.285156 111.976562 C 645.671875 112.347656 646.597656 113.480469 648.097656 114.394531 C 649.738281 115.386719 651.519531 115.398438 652.410156 117.492188 C 654.414062 118.355469 655.453125 120.152344 656.863281 122.480469 C 657.402344 123.355469 658.226562 124.003906 658.753906 124.894531 C 659.316406 125.839844 659.503906 126.925781 660.035156 128.109375 C 660.371094 128.84375 661.027344 129.460938 661.359375 130.183594 C 662.855469 133.449219 663.160156 137.105469 662.253906 140.230469 C 660.308594 139.492188 659.699219 138.050781 658.402344 137.019531 C 657.199219 136.066406 655.433594 135.054688 653.980469 134.753906 C 652.964844 134.542969 651.785156 134.96875 650.460938 134.824219 C 649.886719 134.765625 649.074219 134.21875 648.191406 134.113281 C 646.300781 133.875 644.578125 134.144531 643.464844 132.558594 C 641.132812 133.066406 639.609375 130.984375 637.941406 130.40625 C 636.667969 129.960938 635.398438 129.90625 634.351562 128.894531 C 633.480469 128.046875 633.316406 126.742188 632.386719 125.53125 C 631.351562 124.171875 628.734375 123.925781 627.707031 122.207031 C 627.171875 121.324219 627.226562 120.199219 626.839844 119.371094 C 626.113281 117.847656 624.449219 117.136719 623.894531 114.644531 C 623.675781 113.699219 623.773438 112.882812 623.933594 111.589844 C 620.394531 108.847656 614.910156 109.34375 610.621094 107.847656 C 612.027344 107.449219 613.789062 108.261719 615.5 108.074219 C 614.207031 106.726562 612.046875 106.832031 610.359375 106.148438 C 610.003906 103.105469 610.5625 99.929688 610.066406 97.230469 C 609.210938 97.683594 609.714844 98.847656 609.6875 99.570312 C 609.589844 101.671875 609.335938 104.359375 609 106.484375 C 602.289062 106.726562 596.097656 106.117188 589.816406 105.648438 C 589.230469 104.054688 589.234375 101.496094 588.121094 100.769531 C 587.761719 101.554688 588.863281 103.5 588.988281 104.886719 C 589.089844 105.375 588.8125 105.640625 588.234375 105.722656 C 589.402344 109.179688 587.144531 112.3125 587.425781 116.035156 C 588.65625 115.074219 588.726562 113.234375 589.09375 111.765625 C 589.472656 110.265625 589.71875 108.667969 590.042969 107.195312 C 596.195312 107.011719 602.121094 107.21875 608.089844 107.351562 C 608.519531 107.628906 608.871094 108.039062 609.070312 108.714844 C 609.226562 108.335938 609.269531 107.894531 609.789062 107.726562 C 610.53125 110.917969 610.601562 113.699219 611.0625 116.722656 C 612.984375 117.414062 615.425781 116.699219 617.039062 118.117188 C 617.460938 118.488281 617.457031 119.15625 617.90625 119.667969 C 618.695312 120.570312 620.125 120.960938 620.664062 121.707031 C 621.046875 122.238281 621.078125 123.136719 621.53125 123.90625 C 622.117188 124.878906 623.367188 125.535156 623.761719 126.394531 C 624.839844 128.699219 625.304688 131.867188 626.132812 134.628906 C 626.363281 135.371094 626.914062 135.9375 627.113281 136.628906 C 627.398438 137.582031 627.253906 138.648438 627.527344 139.582031 C 627.746094 140.289062 628.328125 141.035156 628.589844 141.882812 C 628.886719 142.878906 628.765625 144.015625 629.148438 144.796875 C 629.621094 145.734375 631.007812 146.160156 631.527344 147.25 C 632.40625 149.058594 632.460938 150.964844 633.949219 151.785156 C 634.148438 153.367188 634.570312 154.570312 635.339844 155.449219 C 636.511719 156.769531 638.511719 156.789062 639.3125 157.824219 C 638.921875 158.722656 637.460938 158.390625 636.703125 158.316406 C 634.667969 158.121094 633.214844 157.757812 631.292969 157.257812 C 630.34375 157.007812 629.253906 156.925781 628.570312 156.648438 C 627.417969 156.191406 626.585938 154.890625 625.4375 154.386719 C 623.707031 153.621094 622.089844 153.429688 621.160156 152.078125 C 618.136719 152.183594 617.003906 149.789062 614.695312 148.070312 C 614.089844 147.621094 613.195312 147.421875 612.652344 146.980469 C 611.503906 146.027344 610.371094 144.222656 609.863281 142.855469 C 609.558594 142.054688 609.632812 141.117188 609.226562 140.289062 C 608.65625 139.15625 607.199219 138.699219 606.691406 137.867188 C 605.53125 135.980469 606.304688 133.851562 605.675781 131.222656 C 605.550781 130.683594 605.058594 130.160156 604.921875 129.484375 C 604.722656 128.511719 605.039062 127.382812 605.265625 126.351562 C 605.460938 125.484375 606.113281 124.472656 606.175781 123.558594 C 606.230469 122.84375 605.78125 122.191406 605.839844 121.558594 C 606.003906 119.730469 607.523438 117.828125 609.097656 117.210938 C 608.703125 114.238281 608.316406 111.257812 607.824219 108.21875 C 602.421875 107.644531 596.519531 107.914062 590.839844 107.796875 C 590.703125 108.5625 589.515625 110.472656 589.851562 111.578125 C 590.054688 112.242188 591.277344 112.773438 591.738281 113.351562 C 592.269531 114.027344 592.917969 115.152344 593.210938 116.03125 C 593.742188 117.628906 593.304688 118.882812 593.621094 120.910156 C 594.136719 124.179688 595.824219 127.1875 593.835938 130.160156 C 594.820312 135.03125 592.867188 138.148438 590.042969 140.734375 C 589.46875 144.160156 587.480469 146.734375 584.46875 148.703125 C 584.761719 151.523438 581.410156 152.664062 579.65625 154.554688 C 578.96875 155.308594 578.691406 156.519531 577.914062 157.234375 C 576.644531 158.421875 575.253906 158.886719 573.640625 159.425781 C 571.953125 162.273438 572.402344 166.394531 569.46875 168.488281 C 568.449219 166.628906 567.625 164.234375 565.621094 163.351562 C 564.960938 163.0625 564.304688 163.15625 563.578125 162.898438 C 562.222656 160.589844 560.339844 159.160156 558.4375 157.753906 C 555.59375 157.859375 553.464844 156.753906 552.007812 154.546875 C 548.597656 154.867188 546.277344 153.378906 545.203125 149.824219 C 542.132812 148.820312 539.59375 145.671875 538.027344 141.660156 C 537.871094 141.246094 537.921875 140.53125 537.652344 140.148438 C 537.125 139.402344 535.757812 139.277344 534.816406 138.445312 C 532.78125 136.652344 531.597656 133.941406 530.667969 131.457031 C 524.773438 130.851562 518.203125 129.792969 511.21875 132.128906 C 505.203125 134.148438 500.90625 138.128906 496.757812 141.832031 C 488.371094 149.332031 481.523438 157.171875 476.34375 166.339844 C 475.007812 168.695312 473.402344 170.730469 472.4375 173.253906 C 471.453125 175.804688 472.128906 178.78125 470.386719 181.140625 C 466.730469 180.339844 467.585938 177.757812 468.957031 174.761719 C 470.757812 170.8125 472.8125 166.503906 474.566406 163.089844 C 477.296875 157.785156 480.980469 153.203125 484.382812 148.929688 C 486.136719 146.722656 488.320312 144.511719 490.328125 142.472656 C 494.539062 138.207031 498.492188 134.292969 502.976562 130.011719 C 506.492188 126.660156 511.324219 124.09375 512.558594 119.4375 C 511.625 117.800781 510.273438 116.378906 509.5 114.261719 C 509.199219 113.433594 509.285156 112.417969 508.976562 111.507812 C 508.179688 109.160156 506.410156 107.558594 505.804688 105.234375 C 505.546875 104.246094 505.269531 102.796875 505.242188 101.6875 C 505.21875 100.675781 505.929688 99.984375 505.886719 99.117188 C 505.816406 97.667969 504.839844 96.214844 504.492188 94.8125 C 503.554688 91.007812 503.417969 85.570312 506.4375 83.894531 C 505.535156 79.242188 505.378906 75.039062 507.925781 72.453125 C 507.144531 67.871094 506.207031 63.199219 509.035156 60.78125 C 508.535156 57.394531 508.15625 54.082031 509.726562 51.945312 C 510.46875 51.632812 510.878906 51.882812 511.578125 51.640625 C 512.085938 48.972656 510.644531 45.179688 510.308594 42.652344 C 514.351562 43.554688 517.660156 47.527344 520.355469 51.382812" fill-rule="evenodd"/></g></g></g><g clip-path="url(#bI)"><g clip-path="url(#bJ)"><g clip-path="url(#bK)"><path fill="#7B5A6D" d="M 636.863281 115.105469 C 638.46875 114.609375 642.308594 114.027344 644.351562 114.207031 C 642.570312 114.691406 638.742188 115.785156 636.863281 115.105469" fill-rule="evenodd"/></g></g></g><g clip-path="url(#bL)"><g clip-path="url(#bM)"><g clip-path="url(#bN)"><path fill="#7B5A6D" d="M 580.824219 129.550781 C 579.667969 131.171875 575.59375 131.039062 573.59375 132.15625 C 574.328125 130.875 578.734375 130.023438 580.824219 129.550781" fill-rule="evenodd"/></g></g></g><g clip-path="url(#bO)"><g clip-path="url(#bP)"><g clip-path="url(#bQ)"><path fill="#7B5A6D" d="M 643.738281 120.132812 C 644.945312 119.460938 647.933594 119.414062 649.414062 119.683594 C 647.867188 120.117188 645.367188 120.289062 643.738281 120.132812" fill-rule="evenodd"/></g></g></g><g clip-path="url(#bR)"><g clip-path="url(#bS)"><g clip-path="url(#bT)"><path fill="#7B5A6D" d="M 615.402344 127.03125 C 617.207031 128.238281 618.796875 129.792969 620.351562 131.417969 C 618.796875 130.65625 616.878906 128.636719 615.402344 127.03125" fill-rule="evenodd"/></g></g></g><g clip-path="url(#bU)"><g clip-path="url(#bV)"><g clip-path="url(#bW)"><path fill="#7B5A6D" d="M 559.585938 142.386719 C 561.011719 141.953125 563.054688 142.328125 564.355469 142.804688 C 563.058594 143.039062 560.871094 142.902344 559.585938 142.386719" fill-rule="evenodd"/></g></g></g><g clip-path="url(#bX)"><g clip-path="url(#bY)"><g clip-path="url(#bZ)"><path fill="#7B5A6D" d="M 618.722656 136.476562 C 619.261719 136.214844 620.332031 137.214844 621.140625 137.800781 C 622.019531 138.441406 622.917969 139.171875 623.554688 139.765625 C 621.960938 139.492188 620.117188 137.789062 618.722656 136.476562" fill-rule="evenodd"/></g></g></g><g fill="#664A5A"><g><g><path d="M 12.113281 1.558594 L 23.8125 -25.824219 L 20.925781 -25.824219 L 12.113281 -5.011719 L 3.265625 -25.824219 L 0.378906 -25.824219 Z M 12.113281 1.558594" transform="translate(319.278 268.678)"/></g></g></g><g fill="#664A5A"><g><g><path d="M 18.191406 0 L 18.191406 -2.46875 L 5.507812 -2.46875 L 5.507812 -11.660156 L 17.8125 -11.660156 L 17.8125 -14.164062 L 5.507812 -14.164062 L 5.507812 -23.355469 L 18.191406 -23.355469 L 18.191406 -25.824219 L 2.847656 -25.824219 L 2.847656 0 Z M 18.191406 0" transform="translate(360.482 268.678)"/></g></g></g><g fill="#664A5A"><g><g><path d="M 5.507812 -12.761719 L 5.507812 -23.277344 L 11.507812 -23.277344 C 13.0625 -23.277344 14.316406 -22.785156 15.265625 -21.796875 C 16.175781 -20.8125 16.671875 -19.59375 16.671875 -18.078125 C 16.671875 -16.558594 16.175781 -15.304688 15.191406 -14.277344 C 14.203125 -13.253906 12.988281 -12.761719 11.507812 -12.761719 Z M 19.328125 -18.039062 C 19.328125 -20.242188 18.496094 -22.140625 16.898438 -23.621094 C 15.34375 -25.0625 13.40625 -25.824219 11.125 -25.824219 L 2.847656 -25.824219 L 2.847656 0 L 5.507812 0 L 5.507812 -10.214844 L 8.582031 -10.214844 L 16.175781 0 L 19.746094 0 L 11.773438 -10.214844 C 13.785156 -10.328125 15.492188 -11.050781 16.898438 -12.378906 C 18.496094 -13.859375 19.328125 -15.761719 19.328125 -18.039062 Z M 19.328125 -18.039062" transform="translate(398.534 268.678)"/></g></g></g><g fill="#664A5A"><g><g><path d="M 5.773438 -2.46875 L 21.078125 -25.824219 L 1.746094 -25.824219 L 1.746094 -23.355469 L 16.253906 -23.355469 L 0.949219 0 L 20.429688 0 L 20.429688 -2.46875 Z M 5.773438 -2.46875" transform="translate(436.206 268.678)"/></g></g></g><g fill="#664A5A"><g><g><path d="M 5.507812 0 L 5.507812 -25.824219 L 2.847656 -25.824219 L 2.847656 0 Z M 5.507812 0" transform="translate(475.245 268.678)"/></g></g></g><g fill="#664A5A"><g><g><path d="M 26.546875 -7.898438 L 23.621094 -7.898438 C 22.710938 -6.226562 21.457031 -4.859375 19.859375 -3.875 C 18.265625 -2.847656 16.480469 -2.355469 14.582031 -2.355469 C 11.734375 -2.355469 9.304688 -3.378906 7.292969 -5.507812 C 5.316406 -7.519531 4.367188 -9.988281 4.367188 -12.875 C 4.367188 -15.761719 5.316406 -18.226562 7.292969 -20.277344 C 8.203125 -21.226562 9.304688 -21.988281 10.558594 -22.558594 C 11.773438 -23.128906 12.988281 -23.429688 14.203125 -23.429688 C 15.378906 -23.429688 16.40625 -23.277344 17.316406 -23.011719 C 20.089844 -22.179688 22.179688 -20.507812 23.582031 -17.960938 L 26.507812 -17.960938 C 25.519531 -20.394531 23.960938 -22.367188 21.796875 -23.886719 C 19.59375 -25.40625 17.203125 -26.164062 14.582031 -26.164062 C 10.976562 -26.164062 7.9375 -24.835938 5.429688 -22.214844 C 4.253906 -21 3.34375 -19.558594 2.695312 -17.960938 C 2.011719 -16.367188 1.707031 -14.660156 1.707031 -12.875 C 1.707031 -9.226562 2.925781 -6.152344 5.429688 -3.570312 C 7.9375 -0.910156 10.976562 0.378906 14.582031 0.378906 C 17.203125 0.378906 19.59375 -0.378906 21.835938 -1.898438 C 24 -3.417969 25.558594 -5.390625 26.546875 -7.898438 Z M 26.546875 -7.898438" transform="translate(500.614 268.678)"/></g></g></g><g fill="#664A5A"><g><g><path d="M 5.507812 0 L 5.507812 -11.542969 L 17.242188 -11.542969 L 17.242188 0 L 19.898438 0 L 19.898438 -25.824219 L 17.242188 -25.824219 L 17.242188 -14.203125 L 5.507812 -14.203125 L 5.507812 -25.824219 L 2.847656 -25.824219 L 2.847656 0 Z M 5.507812 0" transform="translate(545.311 268.678)"/></g></g></g><g fill="#664A5A"><g><g><path d="M 25.59375 -12.988281 C 25.59375 -10.027344 24.53125 -7.519531 22.480469 -5.46875 C 20.394531 -3.378906 17.886719 -2.355469 14.960938 -2.355469 C 12.039062 -2.355469 9.53125 -3.378906 7.480469 -5.46875 C 5.390625 -7.519531 4.367188 -10.027344 4.367188 -12.988281 C 4.367188 -15.875 5.390625 -18.378906 7.480469 -20.46875 C 9.53125 -22.519531 12.039062 -23.582031 14.960938 -23.582031 C 17.886719 -23.582031 20.394531 -22.519531 22.480469 -20.46875 C 24.53125 -18.378906 25.59375 -15.875 25.59375 -12.988281 Z M 28.253906 -12.988281 C 28.253906 -14.808594 27.875 -16.519531 27.191406 -18.152344 C 26.507812 -19.746094 25.558594 -21.152344 24.34375 -22.367188 C 23.128906 -23.546875 21.722656 -24.496094 20.128906 -25.179688 C 18.496094 -25.863281 16.785156 -26.242188 14.960938 -26.242188 C 13.140625 -26.242188 11.394531 -25.863281 9.796875 -25.179688 C 8.203125 -24.496094 6.796875 -23.546875 5.582031 -22.367188 C 4.367188 -21.152344 3.417969 -19.746094 2.734375 -18.152344 C 2.050781 -16.519531 1.707031 -14.808594 1.707031 -12.988281 C 1.707031 -11.164062 2.050781 -9.417969 2.734375 -7.824219 C 3.417969 -6.191406 4.367188 -4.785156 5.582031 -3.570312 C 6.796875 -2.355469 8.203125 -1.40625 9.796875 -0.722656 C 11.394531 -0.0390625 13.140625 0.304688 14.960938 0.304688 C 16.785156 0.304688 18.496094 -0.0390625 20.128906 -0.722656 C 21.722656 -1.40625 23.128906 -2.355469 24.34375 -3.570312 C 25.558594 -4.785156 26.507812 -6.191406 27.191406 -7.824219 C 27.875 -9.417969 28.253906 -11.164062 28.253906 -12.988281 Z M 28.253906 -12.988281" transform="translate(585.072 268.678)"/></g></g></g><g fill="#664A5A"><g><g><path d="M 12.113281 1.558594 L 23.8125 -25.824219 L 20.925781 -25.824219 L 12.113281 -5.011719 L 3.265625 -25.824219 L 0.378906 -25.824219 Z M 12.113281 1.558594" transform="translate(632.048 268.678)"/></g></g></g><g fill="#664A5A"><g><g><path d="M 7.027344 -9.492188 L 11.734375 -21.378906 L 16.40625 -9.492188 Z M 23.050781 0 L 11.734375 -27.609375 L 0.378906 0 L 3.265625 0 L 6.039062 -7.027344 L 17.394531 -7.027344 L 20.164062 0 Z M 16.859375 -33.914062 L 13.59375 -33.914062 L 10.558594 -28.480469 L 12.683594 -28.480469 Z M 16.859375 -33.914062" transform="translate(673.252 268.678)"/></g></g></g></svg>