<svg xmlns="http://www.w3.org/2000/svg" width="900" viewBox="0 0 900 300" height="300" version="1.0"><defs><clipPath id="a"><path d="M 433 56 L 438 56 L 438 62 L 433 62 Z M 433 56"/></clipPath><clipPath id="b"><path d="M 371.804688 54.199219 L 536.273438 13.21875 L 565.652344 131.113281 L 401.179688 172.09375 Z M 371.804688 54.199219"/></clipPath><clipPath id="c"><path d="M 371.804688 54.199219 L 536.273438 13.21875 L 565.652344 131.113281 L 401.179688 172.09375 Z M 371.804688 54.199219"/></clipPath><clipPath id="d"><path d="M 433 64 L 439 64 L 439 71 L 433 71 Z M 433 64"/></clipPath><clipPath id="e"><path d="M 371.804688 54.199219 L 536.273438 13.21875 L 565.652344 131.113281 L 401.179688 172.09375 Z M 371.804688 54.199219"/></clipPath><clipPath id="f"><path d="M 371.804688 54.199219 L 536.273438 13.21875 L 565.652344 131.113281 L 401.179688 172.09375 Z M 371.804688 54.199219"/></clipPath><clipPath id="g"><path d="M 478 57 L 481 57 L 481 61 L 478 61 Z M 478 57"/></clipPath><clipPath id="h"><path d="M 371.804688 54.199219 L 536.273438 13.21875 L 565.652344 131.113281 L 401.179688 172.09375 Z M 371.804688 54.199219"/></clipPath><clipPath id="i"><path d="M 371.804688 54.199219 L 536.273438 13.21875 L 565.652344 131.113281 L 401.179688 172.09375 Z M 371.804688 54.199219"/></clipPath><clipPath id="j"><path d="M 433 73 L 438 73 L 438 79 L 433 79 Z M 433 73"/></clipPath><clipPath id="k"><path d="M 371.804688 54.199219 L 536.273438 13.21875 L 565.652344 131.113281 L 401.179688 172.09375 Z M 371.804688 54.199219"/></clipPath><clipPath id="l"><path d="M 371.804688 54.199219 L 536.273438 13.21875 L 565.652344 131.113281 L 401.179688 172.09375 Z M 371.804688 54.199219"/></clipPath><clipPath id="m"><path d="M 484 61 L 487 61 L 487 66 L 484 66 Z M 484 61"/></clipPath><clipPath id="n"><path d="M 371.804688 54.199219 L 536.273438 13.21875 L 565.652344 131.113281 L 401.179688 172.09375 Z M 371.804688 54.199219"/></clipPath><clipPath id="o"><path d="M 371.804688 54.199219 L 536.273438 13.21875 L 565.652344 131.113281 L 401.179688 172.09375 Z M 371.804688 54.199219"/></clipPath><clipPath id="p"><path d="M 430 80 L 436 80 L 436 86 L 430 86 Z M 430 80"/></clipPath><clipPath id="q"><path d="M 371.804688 54.199219 L 536.273438 13.21875 L 565.652344 131.113281 L 401.179688 172.09375 Z M 371.804688 54.199219"/></clipPath><clipPath id="r"><path d="M 371.804688 54.199219 L 536.273438 13.21875 L 565.652344 131.113281 L 401.179688 172.09375 Z M 371.804688 54.199219"/></clipPath><clipPath id="s"><path d="M 479 70 L 486 70 L 486 72 L 479 72 Z M 479 70"/></clipPath><clipPath id="t"><path d="M 371.804688 54.199219 L 536.273438 13.21875 L 565.652344 131.113281 L 401.179688 172.09375 Z M 371.804688 54.199219"/></clipPath><clipPath id="u"><path d="M 371.804688 54.199219 L 536.273438 13.21875 L 565.652344 131.113281 L 401.179688 172.09375 Z M 371.804688 54.199219"/></clipPath><clipPath id="v"><path d="M 509 62 L 511 62 L 511 65 L 509 65 Z M 509 62"/></clipPath><clipPath id="w"><path d="M 371.804688 54.199219 L 536.273438 13.21875 L 565.652344 131.113281 L 401.179688 172.09375 Z M 371.804688 54.199219"/></clipPath><clipPath id="x"><path d="M 371.804688 54.199219 L 536.273438 13.21875 L 565.652344 131.113281 L 401.179688 172.09375 Z M 371.804688 54.199219"/></clipPath><clipPath id="y"><path d="M 514 61 L 515 61 L 515 65 L 514 65 Z M 514 61"/></clipPath><clipPath id="z"><path d="M 371.804688 54.199219 L 536.273438 13.21875 L 565.652344 131.113281 L 401.179688 172.09375 Z M 371.804688 54.199219"/></clipPath><clipPath id="A"><path d="M 371.804688 54.199219 L 536.273438 13.21875 L 565.652344 131.113281 L 401.179688 172.09375 Z M 371.804688 54.199219"/></clipPath><clipPath id="B"><path d="M 491 67 L 493 67 L 493 72 L 491 72 Z M 491 67"/></clipPath><clipPath id="C"><path d="M 371.804688 54.199219 L 536.273438 13.21875 L 565.652344 131.113281 L 401.179688 172.09375 Z M 371.804688 54.199219"/></clipPath><clipPath id="D"><path d="M 371.804688 54.199219 L 536.273438 13.21875 L 565.652344 131.113281 L 401.179688 172.09375 Z M 371.804688 54.199219"/></clipPath><clipPath id="E"><path d="M 430 85 L 436 85 L 436 92 L 430 92 Z M 430 85"/></clipPath><clipPath id="F"><path d="M 371.804688 54.199219 L 536.273438 13.21875 L 565.652344 131.113281 L 401.179688 172.09375 Z M 371.804688 54.199219"/></clipPath><clipPath id="G"><path d="M 371.804688 54.199219 L 536.273438 13.21875 L 565.652344 131.113281 L 401.179688 172.09375 Z M 371.804688 54.199219"/></clipPath><clipPath id="H"><path d="M 516 65 L 518 65 L 518 70 L 516 70 Z M 516 65"/></clipPath><clipPath id="I"><path d="M 371.804688 54.199219 L 536.273438 13.21875 L 565.652344 131.113281 L 401.179688 172.09375 Z M 371.804688 54.199219"/></clipPath><clipPath id="J"><path d="M 371.804688 54.199219 L 536.273438 13.21875 L 565.652344 131.113281 L 401.179688 172.09375 Z M 371.804688 54.199219"/></clipPath><clipPath id="K"><path d="M 497 76 L 498 76 L 498 79 L 497 79 Z M 497 76"/></clipPath><clipPath id="L"><path d="M 371.804688 54.199219 L 536.273438 13.21875 L 565.652344 131.113281 L 401.179688 172.09375 Z M 371.804688 54.199219"/></clipPath><clipPath id="M"><path d="M 371.804688 54.199219 L 536.273438 13.21875 L 565.652344 131.113281 L 401.179688 172.09375 Z M 371.804688 54.199219"/></clipPath><clipPath id="N"><path d="M 432 92 L 436 92 L 436 97 L 432 97 Z M 432 92"/></clipPath><clipPath id="O"><path d="M 371.804688 54.199219 L 536.273438 13.21875 L 565.652344 131.113281 L 401.179688 172.09375 Z M 371.804688 54.199219"/></clipPath><clipPath id="P"><path d="M 371.804688 54.199219 L 536.273438 13.21875 L 565.652344 131.113281 L 401.179688 172.09375 Z M 371.804688 54.199219"/></clipPath><clipPath id="Q"><path d="M 518 72 L 520 72 L 520 76 L 518 76 Z M 518 72"/></clipPath><clipPath id="R"><path d="M 371.804688 54.199219 L 536.273438 13.21875 L 565.652344 131.113281 L 401.179688 172.09375 Z M 371.804688 54.199219"/></clipPath><clipPath id="S"><path d="M 371.804688 54.199219 L 536.273438 13.21875 L 565.652344 131.113281 L 401.179688 172.09375 Z M 371.804688 54.199219"/></clipPath><clipPath id="T"><path d="M 519 79 L 521 79 L 521 81 L 519 81 Z M 519 79"/></clipPath><clipPath id="U"><path d="M 371.804688 54.199219 L 536.273438 13.21875 L 565.652344 131.113281 L 401.179688 172.09375 Z M 371.804688 54.199219"/></clipPath><clipPath id="V"><path d="M 371.804688 54.199219 L 536.273438 13.21875 L 565.652344 131.113281 L 401.179688 172.09375 Z M 371.804688 54.199219"/></clipPath><clipPath id="W"><path d="M 463 112 L 469 112 L 469 114 L 463 114 Z M 463 112"/></clipPath><clipPath id="X"><path d="M 371.804688 54.199219 L 536.273438 13.21875 L 565.652344 131.113281 L 401.179688 172.09375 Z M 371.804688 54.199219"/></clipPath><clipPath id="Y"><path d="M 371.804688 54.199219 L 536.273438 13.21875 L 565.652344 131.113281 L 401.179688 172.09375 Z M 371.804688 54.199219"/></clipPath><clipPath id="Z"><path d="M 490 105 L 496 105 L 496 109 L 490 109 Z M 490 105"/></clipPath><clipPath id="aa"><path d="M 371.804688 54.199219 L 536.273438 13.21875 L 565.652344 131.113281 L 401.179688 172.09375 Z M 371.804688 54.199219"/></clipPath><clipPath id="ab"><path d="M 371.804688 54.199219 L 536.273438 13.21875 L 565.652344 131.113281 L 401.179688 172.09375 Z M 371.804688 54.199219"/></clipPath><clipPath id="ac"><path d="M 499 104 L 502 104 L 502 107 L 499 107 Z M 499 104"/></clipPath><clipPath id="ad"><path d="M 371.804688 54.199219 L 536.273438 13.21875 L 565.652344 131.113281 L 401.179688 172.09375 Z M 371.804688 54.199219"/></clipPath><clipPath id="ae"><path d="M 371.804688 54.199219 L 536.273438 13.21875 L 565.652344 131.113281 L 401.179688 172.09375 Z M 371.804688 54.199219"/></clipPath><clipPath id="af"><path d="M 457 117 L 460 117 L 460 123 L 457 123 Z M 457 117"/></clipPath><clipPath id="ag"><path d="M 371.804688 54.199219 L 536.273438 13.21875 L 565.652344 131.113281 L 401.179688 172.09375 Z M 371.804688 54.199219"/></clipPath><clipPath id="ah"><path d="M 371.804688 54.199219 L 536.273438 13.21875 L 565.652344 131.113281 L 401.179688 172.09375 Z M 371.804688 54.199219"/></clipPath><clipPath id="ai"><path d="M 498 110 L 501 110 L 501 115 L 498 115 Z M 498 110"/></clipPath><clipPath id="aj"><path d="M 371.804688 54.199219 L 536.273438 13.21875 L 565.652344 131.113281 L 401.179688 172.09375 Z M 371.804688 54.199219"/></clipPath><clipPath id="ak"><path d="M 371.804688 54.199219 L 536.273438 13.21875 L 565.652344 131.113281 L 401.179688 172.09375 Z M 371.804688 54.199219"/></clipPath><clipPath id="al"><path d="M 470 117 L 475 117 L 475 119 L 470 119 Z M 470 117"/></clipPath><clipPath id="am"><path d="M 371.804688 54.199219 L 536.273438 13.21875 L 565.652344 131.113281 L 401.179688 172.09375 Z M 371.804688 54.199219"/></clipPath><clipPath id="an"><path d="M 371.804688 54.199219 L 536.273438 13.21875 L 565.652344 131.113281 L 401.179688 172.09375 Z M 371.804688 54.199219"/></clipPath><clipPath id="ao"><path d="M 535 102 L 538 102 L 538 107 L 535 107 Z M 535 102"/></clipPath><clipPath id="ap"><path d="M 371.804688 54.199219 L 536.273438 13.21875 L 565.652344 131.113281 L 401.179688 172.09375 Z M 371.804688 54.199219"/></clipPath><clipPath id="aq"><path d="M 371.804688 54.199219 L 536.273438 13.21875 L 565.652344 131.113281 L 401.179688 172.09375 Z M 371.804688 54.199219"/></clipPath><clipPath id="ar"><path d="M 463 120 L 467 120 L 467 129 L 463 129 Z M 463 120"/></clipPath><clipPath id="as"><path d="M 371.804688 54.199219 L 536.273438 13.21875 L 565.652344 131.113281 L 401.179688 172.09375 Z M 371.804688 54.199219"/></clipPath><clipPath id="at"><path d="M 371.804688 54.199219 L 536.273438 13.21875 L 565.652344 131.113281 L 401.179688 172.09375 Z M 371.804688 54.199219"/></clipPath><clipPath id="au"><path d="M 494 118 L 497 118 L 497 123 L 494 123 Z M 494 118"/></clipPath><clipPath id="av"><path d="M 371.804688 54.199219 L 536.273438 13.21875 L 565.652344 131.113281 L 401.179688 172.09375 Z M 371.804688 54.199219"/></clipPath><clipPath id="aw"><path d="M 371.804688 54.199219 L 536.273438 13.21875 L 565.652344 131.113281 L 401.179688 172.09375 Z M 371.804688 54.199219"/></clipPath><clipPath id="ax"><path d="M 540 106 L 543 106 L 543 111 L 540 111 Z M 540 106"/></clipPath><clipPath id="ay"><path d="M 371.804688 54.199219 L 536.273438 13.21875 L 565.652344 131.113281 L 401.179688 172.09375 Z M 371.804688 54.199219"/></clipPath><clipPath id="az"><path d="M 371.804688 54.199219 L 536.273438 13.21875 L 565.652344 131.113281 L 401.179688 172.09375 Z M 371.804688 54.199219"/></clipPath><clipPath id="aA"><path d="M 516 112 L 518 112 L 518 119 L 516 119 Z M 516 112"/></clipPath><clipPath id="aB"><path d="M 371.804688 54.199219 L 536.273438 13.21875 L 565.652344 131.113281 L 401.179688 172.09375 Z M 371.804688 54.199219"/></clipPath><clipPath id="aC"><path d="M 371.804688 54.199219 L 536.273438 13.21875 L 565.652344 131.113281 L 401.179688 172.09375 Z M 371.804688 54.199219"/></clipPath><clipPath id="aD"><path d="M 485 120 L 489 120 L 489 121 L 485 121 Z M 485 120"/></clipPath><clipPath id="aE"><path d="M 371.804688 54.199219 L 536.273438 13.21875 L 565.652344 131.113281 L 401.179688 172.09375 Z M 371.804688 54.199219"/></clipPath><clipPath id="aF"><path d="M 371.804688 54.199219 L 536.273438 13.21875 L 565.652344 131.113281 L 401.179688 172.09375 Z M 371.804688 54.199219"/></clipPath><clipPath id="aG"><path d="M 469 125 L 472 125 L 472 132 L 469 132 Z M 469 125"/></clipPath><clipPath id="aH"><path d="M 371.804688 54.199219 L 536.273438 13.21875 L 565.652344 131.113281 L 401.179688 172.09375 Z M 371.804688 54.199219"/></clipPath><clipPath id="aI"><path d="M 371.804688 54.199219 L 536.273438 13.21875 L 565.652344 131.113281 L 401.179688 172.09375 Z M 371.804688 54.199219"/></clipPath><clipPath id="aJ"><path d="M 546 111 L 548 111 L 548 114 L 546 114 Z M 546 111"/></clipPath><clipPath id="aK"><path d="M 371.804688 54.199219 L 536.273438 13.21875 L 565.652344 131.113281 L 401.179688 172.09375 Z M 371.804688 54.199219"/></clipPath><clipPath id="aL"><path d="M 371.804688 54.199219 L 536.273438 13.21875 L 565.652344 131.113281 L 401.179688 172.09375 Z M 371.804688 54.199219"/></clipPath><clipPath id="aM"><path d="M 519 118 L 521 118 L 521 122 L 519 122 Z M 519 118"/></clipPath><clipPath id="aN"><path d="M 371.804688 54.199219 L 536.273438 13.21875 L 565.652344 131.113281 L 401.179688 172.09375 Z M 371.804688 54.199219"/></clipPath><clipPath id="aO"><path d="M 371.804688 54.199219 L 536.273438 13.21875 L 565.652344 131.113281 L 401.179688 172.09375 Z M 371.804688 54.199219"/></clipPath><clipPath id="aP"><path d="M 490 125 L 492 125 L 492 131 L 490 131 Z M 490 125"/></clipPath><clipPath id="aQ"><path d="M 371.804688 54.199219 L 536.273438 13.21875 L 565.652344 131.113281 L 401.179688 172.09375 Z M 371.804688 54.199219"/></clipPath><clipPath id="aR"><path d="M 371.804688 54.199219 L 536.273438 13.21875 L 565.652344 131.113281 L 401.179688 172.09375 Z M 371.804688 54.199219"/></clipPath><clipPath id="aS"><path d="M 474 131 L 477 131 L 477 135 L 474 135 Z M 474 131"/></clipPath><clipPath id="aT"><path d="M 371.804688 54.199219 L 536.273438 13.21875 L 565.652344 131.113281 L 401.179688 172.09375 Z M 371.804688 54.199219"/></clipPath><clipPath id="aU"><path d="M 371.804688 54.199219 L 536.273438 13.21875 L 565.652344 131.113281 L 401.179688 172.09375 Z M 371.804688 54.199219"/></clipPath><clipPath id="aV"><path d="M 479 130 L 483 130 L 483 133 L 479 133 Z M 479 130"/></clipPath><clipPath id="aW"><path d="M 371.804688 54.199219 L 536.273438 13.21875 L 565.652344 131.113281 L 401.179688 172.09375 Z M 371.804688 54.199219"/></clipPath><clipPath id="aX"><path d="M 371.804688 54.199219 L 536.273438 13.21875 L 565.652344 131.113281 L 401.179688 172.09375 Z M 371.804688 54.199219"/></clipPath><clipPath id="aY"><path d="M 523 123 L 524 123 L 524 127 L 523 127 Z M 523 123"/></clipPath><clipPath id="aZ"><path d="M 371.804688 54.199219 L 536.273438 13.21875 L 565.652344 131.113281 L 401.179688 172.09375 Z M 371.804688 54.199219"/></clipPath><clipPath id="ba"><path d="M 371.804688 54.199219 L 536.273438 13.21875 L 565.652344 131.113281 L 401.179688 172.09375 Z M 371.804688 54.199219"/></clipPath><clipPath id="bb"><path d="M 528 124 L 532 124 L 532 127 L 528 127 Z M 528 124"/></clipPath><clipPath id="bc"><path d="M 371.804688 54.199219 L 536.273438 13.21875 L 565.652344 131.113281 L 401.179688 172.09375 Z M 371.804688 54.199219"/></clipPath><clipPath id="bd"><path d="M 371.804688 54.199219 L 536.273438 13.21875 L 565.652344 131.113281 L 401.179688 172.09375 Z M 371.804688 54.199219"/></clipPath><clipPath id="be"><path d="M 442 55 L 444 55 L 444 59 L 442 59 Z M 442 55"/></clipPath><clipPath id="bf"><path d="M 371.804688 54.199219 L 536.273438 13.21875 L 565.652344 131.113281 L 401.179688 172.09375 Z M 371.804688 54.199219"/></clipPath><clipPath id="bg"><path d="M 371.804688 54.199219 L 536.273438 13.21875 L 565.652344 131.113281 L 401.179688 172.09375 Z M 371.804688 54.199219"/></clipPath><clipPath id="bh"><path d="M 443 63 L 448 63 L 448 69 L 443 69 Z M 443 63"/></clipPath><clipPath id="bi"><path d="M 371.804688 54.199219 L 536.273438 13.21875 L 565.652344 131.113281 L 401.179688 172.09375 Z M 371.804688 54.199219"/></clipPath><clipPath id="bj"><path d="M 371.804688 54.199219 L 536.273438 13.21875 L 565.652344 131.113281 L 401.179688 172.09375 Z M 371.804688 54.199219"/></clipPath><clipPath id="bk"><path d="M 474 64 L 480 64 L 480 66 L 474 66 Z M 474 64"/></clipPath><clipPath id="bl"><path d="M 371.804688 54.199219 L 536.273438 13.21875 L 565.652344 131.113281 L 401.179688 172.09375 Z M 371.804688 54.199219"/></clipPath><clipPath id="bm"><path d="M 371.804688 54.199219 L 536.273438 13.21875 L 565.652344 131.113281 L 401.179688 172.09375 Z M 371.804688 54.199219"/></clipPath><clipPath id="bn"><path d="M 443 71 L 448 71 L 448 77 L 443 77 Z M 443 71"/></clipPath><clipPath id="bo"><path d="M 371.804688 54.199219 L 536.273438 13.21875 L 565.652344 131.113281 L 401.179688 172.09375 Z M 371.804688 54.199219"/></clipPath><clipPath id="bp"><path d="M 371.804688 54.199219 L 536.273438 13.21875 L 565.652344 131.113281 L 401.179688 172.09375 Z M 371.804688 54.199219"/></clipPath><clipPath id="bq"><path d="M 443 77 L 449 77 L 449 85 L 443 85 Z M 443 77"/></clipPath><clipPath id="br"><path d="M 371.804688 54.199219 L 536.273438 13.21875 L 565.652344 131.113281 L 401.179688 172.09375 Z M 371.804688 54.199219"/></clipPath><clipPath id="bs"><path d="M 371.804688 54.199219 L 536.273438 13.21875 L 565.652344 131.113281 L 401.179688 172.09375 Z M 371.804688 54.199219"/></clipPath><clipPath id="bt"><path d="M 510 68 L 514 68 L 514 71 L 510 71 Z M 510 68"/></clipPath><clipPath id="bu"><path d="M 371.804688 54.199219 L 536.273438 13.21875 L 565.652344 131.113281 L 401.179688 172.09375 Z M 371.804688 54.199219"/></clipPath><clipPath id="bv"><path d="M 371.804688 54.199219 L 536.273438 13.21875 L 565.652344 131.113281 L 401.179688 172.09375 Z M 371.804688 54.199219"/></clipPath><clipPath id="bw"><path d="M 484 75 L 492 75 L 492 78 L 484 78 Z M 484 75"/></clipPath><clipPath id="bx"><path d="M 371.804688 54.199219 L 536.273438 13.21875 L 565.652344 131.113281 L 401.179688 172.09375 Z M 371.804688 54.199219"/></clipPath><clipPath id="by"><path d="M 371.804688 54.199219 L 536.273438 13.21875 L 565.652344 131.113281 L 401.179688 172.09375 Z M 371.804688 54.199219"/></clipPath><clipPath id="bz"><path d="M 441 86 L 448 86 L 448 95 L 441 95 Z M 441 86"/></clipPath><clipPath id="bA"><path d="M 371.804688 54.199219 L 536.273438 13.21875 L 565.652344 131.113281 L 401.179688 172.09375 Z M 371.804688 54.199219"/></clipPath><clipPath id="bB"><path d="M 371.804688 54.199219 L 536.273438 13.21875 L 565.652344 131.113281 L 401.179688 172.09375 Z M 371.804688 54.199219"/></clipPath><clipPath id="bC"><path d="M 513 76 L 516 76 L 516 79 L 513 79 Z M 513 76"/></clipPath><clipPath id="bD"><path d="M 371.804688 54.199219 L 536.273438 13.21875 L 565.652344 131.113281 L 401.179688 172.09375 Z M 371.804688 54.199219"/></clipPath><clipPath id="bE"><path d="M 371.804688 54.199219 L 536.273438 13.21875 L 565.652344 131.113281 L 401.179688 172.09375 Z M 371.804688 54.199219"/></clipPath><clipPath id="bF"><path d="M 396 38 L 563 38 L 563 157 L 396 157 Z M 396 38"/></clipPath><clipPath id="bG"><path d="M 371.804688 54.199219 L 536.273438 13.21875 L 565.652344 131.113281 L 401.179688 172.09375 Z M 371.804688 54.199219"/></clipPath><clipPath id="bH"><path d="M 371.804688 54.199219 L 536.273438 13.21875 L 565.652344 131.113281 L 401.179688 172.09375 Z M 371.804688 54.199219"/></clipPath><clipPath id="bI"><path d="M 540 99 L 547 99 L 547 101 L 540 101 Z M 540 99"/></clipPath><clipPath id="bJ"><path d="M 371.804688 54.199219 L 536.273438 13.21875 L 565.652344 131.113281 L 401.179688 172.09375 Z M 371.804688 54.199219"/></clipPath><clipPath id="bK"><path d="M 371.804688 54.199219 L 536.273438 13.21875 L 565.652344 131.113281 L 401.179688 172.09375 Z M 371.804688 54.199219"/></clipPath><clipPath id="bL"><path d="M 486 112 L 493 112 L 493 115 L 486 115 Z M 486 112"/></clipPath><clipPath id="bM"><path d="M 371.804688 54.199219 L 536.273438 13.21875 L 565.652344 131.113281 L 401.179688 172.09375 Z M 371.804688 54.199219"/></clipPath><clipPath id="bN"><path d="M 371.804688 54.199219 L 536.273438 13.21875 L 565.652344 131.113281 L 401.179688 172.09375 Z M 371.804688 54.199219"/></clipPath><clipPath id="bO"><path d="M 546 104 L 551 104 L 551 105 L 546 105 Z M 546 104"/></clipPath><clipPath id="bP"><path d="M 371.804688 54.199219 L 536.273438 13.21875 L 565.652344 131.113281 L 401.179688 172.09375 Z M 371.804688 54.199219"/></clipPath><clipPath id="bQ"><path d="M 371.804688 54.199219 L 536.273438 13.21875 L 565.652344 131.113281 L 401.179688 172.09375 Z M 371.804688 54.199219"/></clipPath><clipPath id="bR"><path d="M 521 110 L 527 110 L 527 115 L 521 115 Z M 521 110"/></clipPath><clipPath id="bS"><path d="M 371.804688 54.199219 L 536.273438 13.21875 L 565.652344 131.113281 L 401.179688 172.09375 Z M 371.804688 54.199219"/></clipPath><clipPath id="bT"><path d="M 371.804688 54.199219 L 536.273438 13.21875 L 565.652344 131.113281 L 401.179688 172.09375 Z M 371.804688 54.199219"/></clipPath><clipPath id="bU"><path d="M 474 123 L 479 123 L 479 124 L 474 124 Z M 474 123"/></clipPath><clipPath id="bV"><path d="M 371.804688 54.199219 L 536.273438 13.21875 L 565.652344 131.113281 L 401.179688 172.09375 Z M 371.804688 54.199219"/></clipPath><clipPath id="bW"><path d="M 371.804688 54.199219 L 536.273438 13.21875 L 565.652344 131.113281 L 401.179688 172.09375 Z M 371.804688 54.199219"/></clipPath><clipPath id="bX"><path d="M 524 118 L 529 118 L 529 122 L 524 122 Z M 524 118"/></clipPath><clipPath id="bY"><path d="M 371.804688 54.199219 L 536.273438 13.21875 L 565.652344 131.113281 L 401.179688 172.09375 Z M 371.804688 54.199219"/></clipPath><clipPath id="bZ"><path d="M 371.804688 54.199219 L 536.273438 13.21875 L 565.652344 131.113281 L 401.179688 172.09375 Z M 371.804688 54.199219"/></clipPath></defs><g fill="#664A5A"><g><g><path d="M 11.648438 5.527344 C 8.589844 6.023438 5.824219 7.304688 3.652344 9.574219 C 1.480469 11.847656 1.679688 14.3125 4.246094 16.289062 C 5.429688 17.175781 6.8125 17.769531 8.191406 18.164062 C 11.648438 19.050781 15.003906 18.855469 18.359375 17.964844 C 24.480469 16.484375 29.714844 13.226562 34.648438 9.476562 C 35.4375 8.882812 36.226562 8.6875 37.214844 8.984375 C 39.78125 9.675781 42.347656 10.363281 44.914062 11.054688 C 54.984375 13.523438 65.054688 15.695312 75.515625 14.808594 C 80.945312 14.414062 86.375 13.328125 91.707031 12.140625 C 103.847656 9.476562 114.3125 3.75 123.097656 -5.035156 C 126.15625 -8.09375 128.824219 -11.648438 131.980469 -14.609375 C 132.277344 -14.90625 132.96875 -15.300781 132.476562 -15.792969 C 132.082031 -16.386719 131.289062 -16.386719 130.699219 -15.894531 C 130.007812 -15.398438 129.414062 -14.90625 128.824219 -14.3125 C 125.070312 -10.5625 120.925781 -7.402344 116.878906 -4.144531 C 108.785156 2.269531 99.703125 6.910156 89.632812 9.277344 C 81.242188 11.351562 72.652344 13.128906 63.867188 12.140625 C 57.058594 11.449219 50.445312 10.167969 43.929688 8.390625 C 42.050781 7.898438 40.277344 7.402344 38.105469 6.8125 C 43.433594 2.566406 47.976562 -2.074219 52.121094 -6.910156 C 63.867188 -20.730469 73.839844 -35.832031 82.527344 -51.726562 C 89.730469 -65.054688 97.628906 -77.984375 107.007812 -89.929688 C 109.769531 -93.484375 112.734375 -96.9375 115.792969 -100.6875 C 115.890625 -99.703125 115.398438 -99.308594 115.101562 -98.714844 C 113.621094 -95.65625 111.941406 -92.59375 111.152344 -89.140625 C 110.957031 -88.746094 110.757812 -88.152344 111.449219 -87.953125 C 112.042969 -87.757812 112.535156 -87.757812 112.832031 -88.351562 C 113.421875 -89.535156 114.113281 -90.621094 114.707031 -91.707031 C 118.261719 -98.515625 121.914062 -105.230469 126.75 -111.152344 C 127.242188 -111.648438 128.328125 -112.140625 127.738281 -113.027344 C 127.242188 -113.820312 126.15625 -113.820312 125.269531 -113.820312 C 124.085938 -113.820312 123.394531 -113.128906 122.703125 -112.335938 C 121.125 -110.660156 119.246094 -109.179688 117.570312 -107.699219 C 115.792969 -106.21875 114.113281 -104.539062 112.535156 -102.859375 C 100.6875 -89.730469 91.015625 -75.023438 82.230469 -59.625 C 73.839844 -45.015625 64.953125 -30.699219 54.195312 -17.671875 C 47.976562 -9.96875 41.757812 -2.269531 34.253906 4.34375 C 33.167969 5.332031 32.179688 5.625 30.699219 5.429688 C 24.382812 4.34375 17.964844 4.34375 11.648438 5.527344 Z M 28.921875 7.304688 C 29.21875 7.402344 29.515625 7.503906 30.109375 7.601562 C 24.875 11.449219 19.742188 14.609375 13.722656 15.992188 C 12.042969 16.289062 10.363281 16.585938 8.6875 15.792969 C 6.515625 14.707031 6.121094 12.832031 7.796875 10.957031 C 9.476562 9.179688 11.648438 8.191406 14.015625 7.699219 C 18.953125 6.910156 23.988281 6.710938 28.921875 7.304688 Z M 28.921875 7.304688" transform="translate(30 168.745)"/></g></g></g><g fill="#664A5A"><g><g><path d="M 18.953125 4.046875 C 28.234375 0.59375 47.382812 -14.015625 65.84375 -16.484375 C 65.25 -17.769531 64.363281 -17.769531 63.574219 -17.769531 C 47.480469 -15.992188 26.355469 -2.074219 20.136719 0.886719 C 17.375 2.171875 14.511719 3.058594 11.351562 3.355469 C 9.082031 3.554688 7.007812 3.058594 5.429688 1.183594 C 1.679688 -3.652344 1.382812 -8.6875 3.851562 -14.117188 C 4.34375 -15.203125 4.9375 -15.792969 6.316406 -15.398438 C 8.191406 -14.90625 10.070312 -15.003906 11.945312 -15.597656 C 15.792969 -16.878906 18.953125 -19.25 21.816406 -22.011719 C 22.308594 -22.507812 22.605469 -23 22.902344 -23.59375 C 23.691406 -25.171875 23.394531 -26.75 21.914062 -27.835938 C 19.546875 -29.515625 16.980469 -30.503906 14.117188 -29.613281 C 6.710938 -27.441406 1.085938 -23.097656 -1.679688 -15.695312 C -3.355469 -11.15625 -2.863281 -6.8125 -0.492188 -2.863281 C 4.34375 5.035156 10.070312 7.402344 18.953125 4.046875 Z M 18.753906 -25.863281 C 17.570312 -22.210938 11.15625 -18.164062 7.207031 -18.558594 C 8.785156 -22.011719 15.203125 -26.0625 18.753906 -25.863281 Z M 18.753906 -25.863281" transform="translate(157.628 168.745)"/></g></g></g><g fill="#664A5A"><g><g><path d="M 63.671875 -18.65625 C 63.277344 -18.65625 62.882812 -18.460938 62.585938 -18.359375 C 58.734375 -16.484375 54.886719 -14.511719 51.234375 -12.339844 C 46.101562 -9.179688 40.964844 -6.023438 35.4375 -3.355469 C 32.675781 -2.074219 29.8125 -0.59375 26.75 -0.0976562 C 23.496094 0.394531 22.804688 -0.296875 23.097656 -3.453125 C 23.097656 -3.652344 23.097656 -3.949219 23.097656 -4.144531 C 23.496094 -6.613281 24.285156 -8.882812 25.371094 -11.054688 C 26.851562 -14.214844 28.429688 -17.273438 30.007812 -20.335938 C 30.800781 -21.914062 31.390625 -23.496094 31.886719 -25.171875 C 32.476562 -27.441406 31.589844 -29.21875 29.910156 -30.699219 C 28.234375 -32.082031 26.652344 -31.488281 25.074219 -30.601562 C 23.296875 -29.613281 21.816406 -28.332031 20.335938 -26.949219 C 15.003906 -22.210938 9.96875 -17.175781 5.035156 -12.140625 C 4.144531 -11.15625 3.257812 -10.265625 1.679688 -9.871094 C 1.777344 -11.253906 2.269531 -12.339844 2.765625 -13.425781 C 4.046875 -16.289062 5.726562 -18.953125 7.503906 -21.519531 C 9.179688 -23.691406 8.6875 -25.664062 6.515625 -27.046875 C 5.527344 -27.640625 4.738281 -27.640625 3.949219 -26.851562 C -0.199219 -22.804688 -2.765625 -18.066406 -2.566406 -12.042969 C -2.46875 -10.167969 -1.777344 -8.589844 -0.59375 -7.207031 C 0.789062 -5.625 2.074219 -5.429688 3.75 -6.710938 C 4.441406 -7.207031 5.132812 -7.699219 5.726562 -8.292969 C 10.5625 -13.128906 15.101562 -18.359375 20.335938 -22.804688 C 22.507812 -24.679688 24.578125 -26.457031 27.835938 -27.542969 C 26.554688 -24.382812 24.875 -21.914062 23.394531 -19.445312 C 20.632812 -14.707031 19.445312 -9.675781 19.941406 -4.34375 C 20.335938 0.199219 23.789062 4.246094 29.613281 2.171875 C 32.871094 0.988281 36.03125 -0.394531 38.992188 -2.074219 C 44.71875 -5.132812 50.046875 -8.589844 55.578125 -11.847656 C 58.4375 -13.425781 61.203125 -15.003906 63.96875 -16.585938 C 64.363281 -16.878906 65.054688 -16.980469 64.855469 -17.769531 C 64.660156 -18.261719 64.261719 -18.65625 63.671875 -18.65625 Z M 63.671875 -18.65625" transform="translate(221.985 168.745)"/></g></g></g><g fill="#664A5A"><g><g><path d="M 81.835938 -16.484375 C 82.527344 -17.175781 82.328125 -17.769531 81.339844 -18.066406 C 80.453125 -18.460938 79.761719 -18.066406 79.070312 -17.671875 C 75.8125 -15.695312 72.851562 -13.328125 69.988281 -10.859375 C 66.039062 -7.503906 61.894531 -4.34375 57.15625 -1.972656 C 48.765625 2.269531 39.980469 5.625 30.699219 7.402344 C 24.777344 8.589844 18.753906 9.179688 12.734375 8.488281 C 8.785156 7.996094 5.230469 6.910156 1.875 4.835938 C 1.183594 4.441406 0.394531 4.144531 -0.0976562 3.257812 C 0.886719 2.863281 1.777344 2.46875 2.664062 2.171875 C 4.640625 1.480469 6.515625 0.691406 8.390625 -0.199219 C 13.722656 -2.960938 18.855469 -6.21875 23.789062 -9.574219 C 30.996094 -14.511719 37.710938 -20.136719 44.125 -25.960938 C 49.753906 -30.996094 54.6875 -36.820312 60.609375 -41.460938 C 61.300781 -42.050781 61.105469 -42.644531 60.511719 -42.941406 C 59.128906 -43.730469 57.75 -43.828125 56.367188 -42.941406 C 55.378906 -42.25 54.492188 -41.460938 53.601562 -40.570312 C 47.382812 -34.847656 41.558594 -28.726562 35.242188 -23.199219 C 25.863281 -15.003906 15.792969 -7.699219 4.539062 -2.171875 C 2.269531 -1.085938 -0.0976562 0.0976562 -2.765625 0.691406 C -2.765625 -0.296875 -2.371094 -0.886719 -1.972656 -1.578125 C 2.074219 -10.363281 6.21875 -19.050781 10.167969 -27.9375 C 15.203125 -39.191406 20.136719 -50.640625 25.863281 -61.695312 C 30.800781 -71.371094 36.328125 -80.648438 42.941406 -89.238281 C 46.101562 -93.382812 49.160156 -97.726562 54.492188 -99.503906 C 53.996094 -100.394531 53.304688 -100.589844 52.417969 -100.789062 C 51.035156 -100.984375 49.851562 -100.492188 48.667969 -99.898438 C 44.914062 -97.828125 42.050781 -94.765625 39.386719 -91.609375 C 30.601562 -81.046875 23.890625 -69.296875 17.964844 -57.058594 C 13.820312 -48.765625 10.070312 -40.277344 6.316406 -31.785156 C 2.765625 -23.789062 -0.988281 -15.992188 -4.640625 -8.09375 C -5.429688 -6.316406 -6.316406 -4.640625 -7.109375 -2.863281 C -7.996094 -1.183594 -7.996094 -1.183594 -9.675781 -1.875 C -11.054688 -2.371094 -12.4375 -2.765625 -13.917969 -2.960938 C -15.597656 -3.257812 -17.375 -3.160156 -18.855469 -2.269531 C -21.324219 -0.789062 -21.324219 2.074219 -18.953125 3.554688 C -17.671875 4.34375 -16.289062 4.738281 -14.90625 4.9375 C -13.820312 5.035156 -12.734375 5.230469 -11.746094 5.332031 C -11.550781 5.921875 -11.746094 6.316406 -11.945312 6.613281 C -15.792969 14.015625 -19.742188 21.324219 -24.382812 28.234375 C -27.246094 32.574219 -30.402344 36.917969 -34.253906 40.570312 C -35.832031 42.152344 -37.710938 43.535156 -39.878906 44.222656 C -40.375 44.421875 -41.363281 44.027344 -41.363281 44.914062 C -41.363281 45.703125 -40.472656 46 -39.878906 46.199219 C -39.585938 46.296875 -39.289062 46.296875 -38.992188 46.296875 C -36.722656 46.296875 -34.351562 45.902344 -32.28125 44.71875 C -29.316406 42.941406 -27.046875 40.277344 -24.875 37.609375 C -19.050781 30.109375 -14.015625 22.011719 -9.675781 13.425781 C -8.292969 10.761719 -6.8125 8.09375 -5.332031 5.429688 C -4.640625 4.046875 -4.046875 3.949219 -2.566406 4.835938 C -2.46875 4.9375 -2.269531 5.035156 -2.074219 5.132812 C 1.777344 7.503906 5.726562 9.574219 10.167969 10.265625 C 18.460938 11.648438 26.652344 11.253906 34.746094 9.378906 C 40.671875 7.996094 46.394531 5.824219 51.925781 3.257812 C 55.773438 1.480469 59.722656 -0.199219 63.472656 -2.371094 C 69.199219 -5.625 74.136719 -9.96875 79.269531 -14.117188 C 80.15625 -14.808594 81.046875 -15.597656 81.835938 -16.484375 Z M -9.277344 1.183594 C -9.476562 1.972656 -9.871094 2.566406 -10.761719 2.765625 C -11.945312 2.960938 -13.226562 2.960938 -14.414062 2.863281 C -15.003906 2.863281 -15.597656 2.863281 -16.1875 2.765625 C -17.375 2.46875 -17.769531 1.777344 -17.273438 0.59375 C -16.78125 -0.691406 -15.003906 -1.480469 -13.328125 -1.085938 C -12.242188 -0.789062 -11.15625 -0.492188 -10.265625 0.0976562 C -9.871094 0.394531 -9.179688 0.492188 -9.277344 1.183594 Z M -9.277344 1.183594" transform="translate(284.17 168.745)"/></g></g></g><g fill="#664A5A"><g><g><path d="M 6.910156 -3.160156 C 7.109375 -1.085938 7.402344 0.988281 8.390625 2.863281 C 11.746094 9.179688 18.460938 10.5625 24.085938 8.191406 C 35.4375 3.355469 56.761719 -15.300781 69 -16.78125 C 68.902344 -17.175781 68.902344 -17.375 68.804688 -17.472656 C 65.449219 -21.222656 35.140625 -0.394531 25.171875 4.441406 C 22.605469 5.726562 20.039062 6.8125 17.078125 6.8125 C 15.597656 6.710938 14.609375 6.121094 14.015625 4.738281 C 13.425781 3.355469 13.128906 1.875 13.128906 0.296875 C 13.03125 -3.257812 13.722656 -6.613281 15.101562 -9.96875 C 16.1875 -12.734375 17.867188 -15.203125 19.347656 -17.769531 C 20.433594 -19.839844 20.238281 -20.53125 18.164062 -21.519531 C 17.570312 -21.816406 16.980469 -22.210938 16.386719 -22.011719 C 15.300781 -21.617188 14.707031 -22.210938 13.917969 -22.703125 C 10.957031 -24.382812 7.996094 -24.777344 5.035156 -22.902344 C -2.074219 -18.460938 -5.332031 -11.746094 -5.132812 -3.554688 C -5.132812 -0.789062 -1.972656 0.789062 0.59375 -0.394531 C 1.578125 -0.886719 2.46875 -1.578125 3.160156 -2.371094 C 4.246094 -3.355469 5.332031 -4.441406 6.515625 -5.625 C 6.910156 -4.640625 6.8125 -3.851562 6.910156 -3.160156 Z M 1.382812 -4.34375 C 0.691406 -3.75 -0.0976562 -3.257812 -1.183594 -2.46875 C -1.183594 -4.640625 -0.789062 -6.21875 -0.199219 -7.601562 C 1.578125 -12.140625 4.144531 -15.992188 7.898438 -19.152344 C 8.589844 -19.742188 9.476562 -20.136719 10.265625 -20.632812 C 10.761719 -20.925781 11.449219 -21.027344 11.847656 -20.335938 C 12.242188 -19.742188 12.636719 -19.25 12.140625 -18.460938 C 8.984375 -13.425781 5.921875 -8.292969 1.382812 -4.34375 Z M 1.382812 -4.34375" transform="translate(363.136 168.745)"/></g></g></g><g clip-path="url(#a)"><g clip-path="url(#b)"><g clip-path="url(#c)"><path fill="#7B5A6D" d="M 433.941406 56.402344 C 435.496094 57.441406 436.632812 59.171875 437.6875 61.046875 C 436.308594 59.714844 435.199219 57.9375 433.941406 56.402344" fill-rule="evenodd"/></g></g></g><g clip-path="url(#d)"><g clip-path="url(#e)"><g clip-path="url(#f)"><path fill="#7B5A6D" d="M 433.609375 64.921875 L 433.996094 64.824219 C 435.296875 66.707031 436.960938 67.996094 438.15625 70.046875 C 436.429688 68.6875 435.03125 66.789062 433.609375 64.921875" fill-rule="evenodd"/></g></g></g><g clip-path="url(#g)"><g clip-path="url(#h)"><g clip-path="url(#i)"><path fill="#7B5A6D" d="M 478.996094 57.828125 C 479.792969 58.199219 479.902344 59.707031 480.375 60.613281 C 479.519531 60.347656 479.375 58.894531 478.996094 57.828125" fill-rule="evenodd"/></g></g></g><g clip-path="url(#j)"><g clip-path="url(#k)"><g clip-path="url(#l)"><path fill="#7B5A6D" d="M 433.054688 73.085938 C 434.566406 74.859375 436.125 76.558594 437.539062 78.5 C 435.832031 77.042969 434.300781 75.300781 433.054688 73.085938" fill-rule="evenodd"/></g></g></g><g clip-path="url(#m)"><g clip-path="url(#n)"><g clip-path="url(#o)"><path fill="#7B5A6D" d="M 484.796875 61.960938 C 485.566406 62.4375 485.773438 63.84375 486.109375 65.039062 C 485.347656 64.550781 485.171875 63.085938 484.796875 61.960938" fill-rule="evenodd"/></g></g></g><g clip-path="url(#p)"><g clip-path="url(#q)"><g clip-path="url(#r)"><path fill="#7B5A6D" d="M 430.707031 80.066406 C 432.648438 81.671875 434.421875 83.554688 435.957031 85.832031 C 434.113281 84.066406 432.332031 82.195312 430.707031 80.066406" fill-rule="evenodd"/></g></g></g><g clip-path="url(#s)"><g clip-path="url(#t)"><g clip-path="url(#u)"><path fill="#7B5A6D" d="M 479.339844 70.125 C 481.433594 69.722656 483.683594 70.636719 485.78125 70.832031 C 483.945312 71.507812 481.417969 70.246094 479.339844 70.125" fill-rule="evenodd"/></g></g></g><g clip-path="url(#v)"><g clip-path="url(#w)"><g clip-path="url(#x)"><path fill="#7B5A6D" d="M 509.398438 62.773438 C 509.988281 63.113281 510.472656 63.636719 510.867188 64.3125 C 510.089844 64.277344 509.796875 63.433594 509.398438 62.773438" fill-rule="evenodd"/></g></g></g><g clip-path="url(#y)"><g clip-path="url(#z)"><g clip-path="url(#A)"><path fill="#7B5A6D" d="M 514.335938 61.8125 C 514.722656 62.410156 514.507812 63.585938 514.394531 64.25 C 513.800781 63.527344 514.238281 62.484375 514.335938 61.8125" fill-rule="evenodd"/></g></g></g><g clip-path="url(#B)"><g clip-path="url(#C)"><g clip-path="url(#D)"><path fill="#7B5A6D" d="M 491.207031 67.984375 C 491.871094 68.511719 492.097656 70.519531 492.195312 71.410156 C 491.671875 70.589844 491.566406 69.074219 491.207031 67.984375" fill-rule="evenodd"/></g></g></g><g clip-path="url(#E)"><g clip-path="url(#F)"><g clip-path="url(#G)"><path fill="#7B5A6D" d="M 430.957031 85.445312 C 432.667969 87.070312 434.109375 89.140625 435.632812 91.085938 C 433.808594 89.644531 432.390625 87.53125 430.957031 85.445312" fill-rule="evenodd"/></g></g></g><g clip-path="url(#H)"><g clip-path="url(#I)"><g clip-path="url(#J)"><path fill="#7B5A6D" d="M 517.347656 65.691406 C 517.496094 66.832031 517.164062 68.632812 516.570312 69.691406 C 516.53125 68.179688 516.902344 66.914062 517.347656 65.691406" fill-rule="evenodd"/></g></g></g><g clip-path="url(#K)"><g clip-path="url(#L)"><g clip-path="url(#M)"><path fill="#7B5A6D" d="M 497.449219 76.089844 C 498.003906 76.753906 497.554688 77.75 497.480469 78.394531 C 496.976562 78.128906 497.402344 76.734375 497.449219 76.089844" fill-rule="evenodd"/></g></g></g><g clip-path="url(#N)"><g clip-path="url(#O)"><g clip-path="url(#P)"><path fill="#7B5A6D" d="M 432.550781 92.398438 C 433.730469 93.515625 434.71875 94.953125 435.722656 96.367188 C 434.453125 95.492188 433.082031 93.894531 432.550781 92.398438" fill-rule="evenodd"/></g></g></g><g clip-path="url(#Q)"><g clip-path="url(#R)"><g clip-path="url(#S)"><path fill="#7B5A6D" d="M 519.390625 72.253906 C 519.796875 72.839844 519.167969 74.652344 518.519531 75.328125 C 518.5625 74.15625 518.941406 73.1875 519.390625 72.253906" fill-rule="evenodd"/></g></g></g><g clip-path="url(#T)"><g clip-path="url(#U)"><g clip-path="url(#V)"><path fill="#7B5A6D" d="M 520.695312 79.136719 C 520.417969 79.699219 520.082031 80.222656 519.574219 80.644531 C 519.625 79.953125 520.117188 79.519531 520.695312 79.136719" fill-rule="evenodd"/></g></g></g><g clip-path="url(#W)"><g clip-path="url(#X)"><g clip-path="url(#Y)"><path fill="#7B5A6D" d="M 468.707031 112.777344 C 467.125 113.347656 464.855469 113.488281 463.183594 113.609375 C 464.496094 112.796875 467.15625 112.785156 468.707031 112.777344" fill-rule="evenodd"/></g></g></g><g clip-path="url(#Z)"><g clip-path="url(#aa)"><g clip-path="url(#ab)"><path fill="#7B5A6D" d="M 495.621094 105.390625 C 494.214844 106.4375 492.261719 107.152344 490.542969 108.011719 C 491.628906 106.839844 493.71875 105.707031 495.621094 105.390625" fill-rule="evenodd"/></g></g></g><g clip-path="url(#ac)"><g clip-path="url(#ad)"><g clip-path="url(#ae)"><path fill="#7B5A6D" d="M 499.945312 104.71875 C 500.765625 104.992188 501.242188 105.835938 501.582031 106.894531 C 500.878906 106.425781 500.398438 105.605469 499.945312 104.71875" fill-rule="evenodd"/></g></g></g><g clip-path="url(#af)"><g clip-path="url(#ag)"><g clip-path="url(#ah)"><path fill="#7B5A6D" d="M 457.46875 117.480469 C 458.855469 118.203125 459.222656 120.605469 459.839844 122.601562 C 458.789062 121.332031 458.347656 119.039062 457.46875 117.480469" fill-rule="evenodd"/></g></g></g><g clip-path="url(#ai)"><g clip-path="url(#aj)"><g clip-path="url(#ak)"><path fill="#7B5A6D" d="M 498.4375 110.671875 C 499.175781 111.492188 499.632812 112.792969 500.097656 114.066406 C 499.398438 113.253906 498.625 111.746094 498.4375 110.671875" fill-rule="evenodd"/></g></g></g><g clip-path="url(#al)"><g clip-path="url(#am)"><g clip-path="url(#an)"><path fill="#7B5A6D" d="M 474.5 118 C 473.324219 118.441406 470.832031 118.542969 470.078125 118.28125 C 471.425781 117.691406 473.285156 117.769531 474.5 118" fill-rule="evenodd"/></g></g></g><g clip-path="url(#ao)"><g clip-path="url(#ap)"><g clip-path="url(#aq)"><path fill="#7B5A6D" d="M 535.675781 102.070312 C 536.585938 103.042969 536.9375 104.929688 537.464844 106.527344 C 536.628906 105.554688 535.980469 103.339844 535.675781 102.070312" fill-rule="evenodd"/></g></g></g><g clip-path="url(#ar)"><g clip-path="url(#as)"><g clip-path="url(#at)"><path fill="#7B5A6D" d="M 463.820312 120.523438 C 465.195312 122.289062 466.105469 126.328125 466.3125 128.882812 C 465.335938 126.457031 464.5 122.84375 463.820312 120.523438" fill-rule="evenodd"/></g></g></g><g clip-path="url(#au)"><g clip-path="url(#av)"><g clip-path="url(#aw)"><path fill="#7B5A6D" d="M 494.582031 118.167969 C 495.539062 118.925781 495.851562 120.757812 496.304688 122.363281 C 495.4375 121.554688 494.703125 119.605469 494.582031 118.167969" fill-rule="evenodd"/></g></g></g><g clip-path="url(#ax)"><g clip-path="url(#ay)"><g clip-path="url(#az)"><path fill="#7B5A6D" d="M 540.769531 106.65625 C 541.96875 106.90625 542.152344 108.832031 542.628906 110.273438 C 541.777344 109.460938 541.410156 107.824219 540.769531 106.65625" fill-rule="evenodd"/></g></g></g><g clip-path="url(#aA)"><g clip-path="url(#aB)"><g clip-path="url(#aC)"><path fill="#7B5A6D" d="M 517.320312 112.636719 C 517.515625 112.546875 517.574219 112.703125 517.738281 112.667969 C 517.464844 114.609375 517.207031 116.5625 516.707031 118.367188 C 516.488281 116.640625 516.917969 114.351562 517.320312 112.636719" fill-rule="evenodd"/></g></g></g><g clip-path="url(#aD)"><g clip-path="url(#aE)"><g clip-path="url(#aF)"><path fill="#7B5A6D" d="M 485.816406 120.757812 C 486.488281 120.371094 487.757812 120.554688 488.800781 120.148438 C 488.644531 121.289062 486.6875 120.667969 485.816406 120.757812" fill-rule="evenodd"/></g></g></g><g clip-path="url(#aG)"><g clip-path="url(#aH)"><g clip-path="url(#aI)"><path fill="#7B5A6D" d="M 469.519531 125.359375 C 470.582031 126.710938 471.144531 129.335938 471.539062 131.253906 C 470.648438 129.652344 470.09375 127.492188 469.519531 125.359375" fill-rule="evenodd"/></g></g></g><g clip-path="url(#aJ)"><g clip-path="url(#aK)"><g clip-path="url(#aL)"><path fill="#7B5A6D" d="M 546.285156 111.265625 C 547.03125 111.59375 547.382812 112.578125 547.691406 113.640625 C 546.960938 113.328125 546.367188 112.074219 546.285156 111.265625" fill-rule="evenodd"/></g></g></g><g clip-path="url(#aM)"><g clip-path="url(#aN)"><g clip-path="url(#aO)"><path fill="#7B5A6D" d="M 519.914062 118.109375 C 520.109375 118.023438 520.160156 118.175781 520.328125 118.140625 C 520.679688 119.628906 520.4375 120.75 520.324219 121.957031 C 519.738281 121.242188 519.867188 119.164062 519.914062 118.109375" fill-rule="evenodd"/></g></g></g><g clip-path="url(#aP)"><g clip-path="url(#aQ)"><g clip-path="url(#aR)"><path fill="#7B5A6D" d="M 490.625 125.820312 C 491.695312 126.539062 491.460938 128.996094 491.578125 130.203125 C 490.835938 129.300781 490.859375 127.128906 490.625 125.820312" fill-rule="evenodd"/></g></g></g><g clip-path="url(#aS)"><g clip-path="url(#aT)"><g clip-path="url(#aU)"><path fill="#7B5A6D" d="M 474.933594 131.226562 C 475.722656 131.402344 476.625 133.753906 476.015625 134.488281 C 475.699219 133.429688 474.945312 132.203125 474.933594 131.226562" fill-rule="evenodd"/></g></g></g><g clip-path="url(#aV)"><g clip-path="url(#aW)"><g clip-path="url(#aX)"><path fill="#7B5A6D" d="M 479.617188 130.332031 C 480.921875 130.519531 481.792969 131.429688 482.792969 132.121094 C 481.796875 132.140625 480.414062 131.246094 479.617188 130.332031" fill-rule="evenodd"/></g></g></g><g clip-path="url(#aY)"><g clip-path="url(#aZ)"><g clip-path="url(#ba)"><path fill="#7B5A6D" d="M 523.050781 123.046875 C 523.246094 122.957031 523.304688 123.113281 523.464844 123.078125 C 523.429688 124.109375 523.597656 125.257812 523.433594 126.21875 C 522.855469 125.324219 523.085938 123.976562 523.050781 123.046875" fill-rule="evenodd"/></g></g></g><g clip-path="url(#bb)"><g clip-path="url(#bc)"><g clip-path="url(#bd)"><path fill="#7B5A6D" d="M 528.882812 124.582031 C 529.996094 125.03125 530.855469 125.902344 531.640625 126.890625 C 530.554688 126.402344 529.679688 125.5625 528.882812 124.582031" fill-rule="evenodd"/></g></g></g><g clip-path="url(#be)"><g clip-path="url(#bf)"><g clip-path="url(#bg)"><path fill="#7B5A6D" d="M 443.878906 55.289062 C 443.722656 56.351562 443.09375 58.082031 442.082031 59 C 442.359375 57.566406 443.125 56.429688 443.878906 55.289062" fill-rule="evenodd"/></g></g></g><g clip-path="url(#bh)"><g clip-path="url(#bi)"><g clip-path="url(#bj)"><path fill="#7B5A6D" d="M 447.207031 63.167969 C 446.625 64.886719 444.855469 66.835938 443.480469 68.449219 C 444.046875 66.71875 446.050781 64.902344 447.207031 63.167969" fill-rule="evenodd"/></g></g></g><g clip-path="url(#bk)"><g clip-path="url(#bl)"><g clip-path="url(#bm)"><path fill="#7B5A6D" d="M 474.726562 64.199219 C 476.023438 64.21875 478.035156 64.613281 479.246094 65.386719 C 477.625 65.1875 476.160156 64.71875 474.726562 64.199219" fill-rule="evenodd"/></g></g></g><g clip-path="url(#bn)"><g clip-path="url(#bo)"><g clip-path="url(#bp)"><path fill="#7B5A6D" d="M 447.261719 71.589844 C 446.664062 73.261719 444.675781 75.046875 443.34375 76.644531 C 443.96875 74.988281 446.070312 73.269531 447.261719 71.589844" fill-rule="evenodd"/></g></g></g><g clip-path="url(#bq)"><g clip-path="url(#br)"><g clip-path="url(#bs)"><path fill="#7B5A6D" d="M 448.796875 77.191406 C 447.789062 79.53125 445.207031 81.867188 443.910156 84.394531 C 444.667969 81.90625 446.992188 79.417969 448.796875 77.191406" fill-rule="evenodd"/></g></g></g><g clip-path="url(#bt)"><g clip-path="url(#bu)"><g clip-path="url(#bv)"><path fill="#7B5A6D" d="M 510.609375 68.183594 C 511.433594 68.320312 512.429688 69.746094 513.234375 70.523438 C 512.011719 70.324219 511.550781 68.855469 510.609375 68.183594" fill-rule="evenodd"/></g></g></g><g clip-path="url(#bw)"><g clip-path="url(#bx)"><g clip-path="url(#by)"><path fill="#7B5A6D" d="M 491.542969 77.5625 C 489.214844 77.082031 486.914062 76.5625 484.71875 75.859375 C 486.355469 76.039062 489.828125 76.300781 491.542969 77.5625" fill-rule="evenodd"/></g></g></g><g clip-path="url(#bz)"><g clip-path="url(#bA)"><g clip-path="url(#bB)"><path fill="#7B5A6D" d="M 441.882812 94.832031 C 443.222656 92.351562 445.085938 89.554688 447.085938 87.277344 C 447.277344 87.058594 447.523438 86.503906 447.886719 86.671875 C 445.785156 89.332031 444.078125 92.230469 441.882812 94.832031" fill-rule="evenodd"/></g></g></g><g clip-path="url(#bC)"><g clip-path="url(#bD)"><g clip-path="url(#bE)"><path fill="#7B5A6D" d="M 513.132812 76.128906 C 513.949219 76.34375 514.984375 77.753906 515.691406 78.753906 C 514.714844 78.089844 514.046875 76.902344 513.132812 76.128906" fill-rule="evenodd"/></g></g></g><g clip-path="url(#bF)"><g clip-path="url(#bG)"><g clip-path="url(#bH)"><path fill="#7B5A6D" d="M 519.117188 110.011719 C 518.816406 108.609375 518.75 106.261719 517.9375 105.273438 C 517.886719 106.476562 518.128906 109.222656 519.117188 110.011719 Z M 517.617188 104.53125 C 518.476562 104.578125 517.890625 103.75 517.847656 103.253906 L 517.457031 103.351562 C 517.675781 103.84375 517.515625 104.109375 517.617188 104.53125 Z M 533.492188 132.691406 C 533.410156 132.699219 533.335938 132.707031 533.332031 132.59375 C 529.910156 130.070312 527.519531 126.007812 524.972656 122.019531 C 521.460938 116.515625 517.652344 110.878906 516.625 102.738281 C 515.917969 103.351562 514.753906 104.609375 514.671875 105.816406 C 514.636719 106.269531 515.023438 106.730469 515.019531 107.21875 C 515.011719 108.011719 514.429688 108.875 514.246094 109.59375 C 513.792969 111.375 514.171875 111.96875 514.59375 113.722656 C 515.023438 115.507812 514.445312 117.609375 515.292969 119.261719 C 515.75 120.15625 517.050781 120.554688 517.472656 121.441406 C 518.402344 123.398438 518.523438 125.535156 520.191406 126.882812 C 520.71875 127.308594 521.523438 127.460938 522.082031 127.910156 C 523.6875 129.207031 524.679688 131.105469 526.921875 130.925781 C 528.878906 132.742188 531.699219 133.132812 533.648438 134.960938 C 535.550781 134.890625 536.710938 136.039062 538.652344 135.890625 C 537.554688 134.777344 537.40625 133.058594 536.601562 131.503906 C 536.269531 130.855469 535.503906 130.402344 535.199219 129.675781 C 534.96875 129.144531 535.019531 128.417969 534.75 127.882812 C 534.332031 127.050781 533.105469 126.660156 532.734375 125.804688 C 532.3125 124.835938 532.453125 123.644531 532.09375 122.699219 C 531.917969 122.226562 531.511719 121.847656 531.359375 121.382812 C 531.085938 120.554688 531.246094 119.605469 530.976562 118.753906 C 530.785156 118.148438 530.308594 117.640625 530.144531 117.058594 C 529.859375 116.019531 530 114.914062 529.636719 113.917969 C 529.488281 113.519531 529.089844 113.125 528.933594 112.738281 C 528.582031 111.894531 528.644531 110.933594 528.292969 110.171875 C 527.964844 109.46875 526.886719 108.972656 526.402344 108.0625 C 526.113281 107.503906 526.117188 106.835938 525.859375 106.429688 C 525.132812 105.257812 523.230469 105.085938 522.785156 103.378906 C 521.53125 102.871094 520.132812 102.589844 518.421875 102.835938 C 519.105469 108.777344 520.570312 113.324219 522.929688 117.628906 C 526.152344 123.519531 529.816406 128.652344 533.785156 132.753906 C 533.652344 132.785156 533.601562 132.6875 533.492188 132.691406 Z M 530.296875 97.429688 C 532.75 98.125 534.523438 99.949219 537.058594 100.507812 C 535.171875 98.625 532.84375 97.484375 530.171875 96.917969 Z M 555.621094 105.539062 C 554.832031 104.363281 553.378906 103.921875 552.546875 103.039062 C 551.445312 101.875 550.875 100.644531 549.214844 100.609375 C 548.230469 98.902344 546.453125 99.027344 544.730469 98.460938 C 543.558594 98.074219 542.675781 96.996094 541.394531 96.566406 C 541.050781 96.453125 540.625 96.566406 540.273438 96.441406 C 539.375 96.121094 538.601562 95.414062 537.640625 95.191406 C 535.882812 94.785156 532.171875 95.210938 530.363281 96.050781 C 531.371094 96.824219 532.65625 97.222656 533.792969 97.785156 C 534.980469 98.371094 536.113281 98.980469 537.25 99.640625 C 538.609375 101.277344 540.433594 102.367188 542.09375 103.738281 C 543.746094 105.121094 545.246094 106.699219 546.960938 107.96875 C 548.683594 109.253906 550.355469 110.613281 552.023438 111.882812 C 553.691406 113.148438 555.773438 113.972656 556.828125 115.851562 C 553.621094 113.597656 550.488281 111.117188 547.152344 108.738281 C 545.554688 107.601562 543.863281 106.535156 542.214844 105.34375 C 540.578125 104.152344 539.21875 102.472656 537.570312 101.464844 C 536.371094 100.730469 534.953125 100.25 533.691406 99.578125 C 532.480469 98.929688 531.285156 97.984375 529.875 97.941406 C 529.71875 100.226562 531.035156 102.472656 532.34375 103.453125 C 532.203125 107.011719 535.835938 107.121094 537.050781 108.667969 C 538.101562 110.015625 538.207031 111.578125 539.582031 112.261719 C 540.03125 112.484375 540.683594 112.296875 541.28125 112.515625 C 542.351562 112.902344 543.269531 113.988281 544.164062 114.25 C 544.78125 114.425781 545.488281 114.21875 546.117188 114.441406 C 546.699219 114.640625 547.039062 115.316406 547.625 115.5625 C 548.367188 115.867188 549.042969 115.472656 549.804688 115.5625 C 550.308594 115.625 550.808594 116.066406 551.3125 116.140625 C 552.304688 116.289062 553.351562 115.960938 554.296875 116.074219 C 555.886719 116.269531 557.894531 117.425781 559.101562 118.414062 C 559.734375 118.929688 560.152344 119.828125 561.121094 119.953125 C 561.480469 115.734375 558.949219 111.207031 557.0625 108.039062 C 555.042969 108.546875 553.078125 108.980469 551.703125 108.417969 C 553.21875 107.734375 555.019531 108.09375 556.613281 107.878906 C 556.226562 106.984375 556.085938 106.230469 555.621094 105.539062 Z M 517.019531 96.65625 C 517.140625 96.21875 516.902344 95.566406 516.890625 95.054688 L 516.378906 95.183594 C 516.726562 95.691406 516.148438 96.855469 517.019531 96.65625 Z M 484.804688 139.652344 C 485.539062 136.980469 486.050781 133.941406 484.941406 130.363281 C 483.269531 124.980469 479.550781 119.796875 476.878906 116.585938 C 476.660156 116.136719 476.882812 115.9375 476.75 115.535156 C 475.769531 114.675781 475.050781 113.640625 473.800781 113.003906 C 473.148438 112.671875 472.304688 112.675781 471.714844 112.296875 C 471.253906 112 470.945312 111.390625 470.46875 111.109375 C 469.402344 110.484375 466.71875 109.757812 464.859375 109.382812 C 464.042969 109.214844 463.144531 109.355469 462.097656 109.25 C 460.207031 109.0625 458.234375 109.125 455.945312 109.699219 C 454.230469 110.125 452.265625 110.847656 451.417969 112.320312 C 456.265625 113.082031 460.882812 114.230469 464.171875 117.578125 C 467.945312 119.507812 471.195312 122.621094 474.300781 125.9375 C 477.351562 129.203125 480.160156 133.5 481.210938 138.914062 C 478.992188 134.289062 477.109375 129.558594 473.910156 126.035156 C 472.492188 124.464844 470.855469 123.011719 469.113281 121.515625 C 467.484375 120.125 465.628906 118.207031 463.886719 117.515625 C 462.988281 117.152344 461.816406 116.960938 460.804688 116.648438 C 457.601562 115.660156 454.390625 115.03125 450.902344 114.628906 C 452.023438 116.460938 452.894531 119.078125 454.90625 120.292969 C 455.714844 120.789062 456.324219 120.566406 456.765625 121.191406 C 457.164062 121.769531 457.28125 122.695312 457.5625 123.304688 C 457.863281 123.964844 458.144531 124.734375 458.457031 125.261719 C 459.0625 126.269531 459.96875 127.675781 460.859375 128.335938 C 461.375 128.722656 462.65625 128.699219 463.136719 129.269531 C 463.914062 130.1875 463.839844 131.402344 464.667969 132.144531 C 465.695312 133.0625 467.105469 133.164062 468.679688 132.921875 C 469.835938 134.804688 471.613281 135.652344 473.871094 135.707031 C 475.734375 136.71875 477.367188 138.109375 478.644531 140.097656 C 480.738281 140.371094 482.234375 141.617188 483.222656 143.71875 C 484.328125 142.742188 484.421875 141.050781 484.804688 139.652344 Z M 494.789062 97.703125 C 494.285156 97.835938 495.074219 98.746094 494.375 98.761719 C 491.867188 98.949219 489.417969 99.957031 489.785156 102.214844 C 487.902344 103.59375 486.074219 105 486.539062 107.789062 C 485.074219 109.667969 482.816406 111.074219 483.199219 114.0625 C 482.390625 115.171875 481.203125 116.402344 482.035156 118.160156 C 480.242188 120.253906 482.175781 121.921875 483.472656 124.472656 C 485.296875 128.042969 487.332031 133.25 486.597656 137.023438 C 487.855469 136.5625 489.054688 136.0625 489.839844 135.265625 C 490.316406 134.78125 490.367188 134.03125 490.773438 133.535156 C 491.855469 132.230469 493.636719 131.726562 494.726562 130.238281 C 494.292969 128.289062 496.089844 127.894531 497.167969 126.90625 C 497.941406 126.203125 498.664062 125.144531 499.089844 124.253906 C 499.398438 123.617188 499.339844 122.6875 499.738281 121.917969 C 500.214844 120.984375 501.171875 120.484375 501.660156 119.804688 C 502.339844 118.867188 503.058594 117.472656 503.175781 116.023438 C 503.25 115.09375 502.742188 114.652344 502.792969 113.394531 C 502.816406 112.828125 503.335938 112.464844 503.496094 111.859375 C 504.019531 109.953125 503.589844 107.910156 502.609375 105.554688 C 503.171875 103.25 502.082031 99.242188 500.113281 98.28125 C 496.449219 108.792969 494.035156 120.058594 486.449219 128.222656 C 489.070312 123.429688 492.265625 118.957031 494.167969 113.777344 C 494.640625 112.480469 495.417969 111.355469 495.835938 110.09375 C 497.234375 105.9375 497.613281 101.800781 498.03125 97.03125 C 497.0625 96.765625 495.769531 97.207031 494.789062 97.703125 Z M 494.222656 92.675781 C 493.8125 92.210938 492.9375 92.511719 492.171875 92.644531 C 492.292969 93.386719 494.183594 92.984375 494.222656 92.675781 Z M 489.601562 93.28125 C 489.941406 93.199219 490.324219 93.050781 490.535156 93.1875 C 490.511719 92.496094 489.964844 92.679688 489.476562 92.773438 Z M 487.96875 93.285156 C 488.164062 93.335938 489.132812 93.578125 488.996094 93.027344 C 489.03125 92.582031 487.726562 92.90625 487.96875 93.285156 Z M 434.003906 112.441406 C 440.109375 111 445.097656 111.40625 449.878906 112.160156 C 452.214844 109.410156 456.007812 108.363281 459.601562 107.96875 C 460.433594 107.878906 461.453125 108.25 462.554688 108.324219 C 463.25 108.367188 463.976562 108.152344 464.570312 108.226562 C 466.175781 108.425781 469.203125 109.410156 470.46875 110.023438 C 471.269531 110.414062 471.769531 111.164062 472.488281 111.5625 C 473.148438 111.929688 473.984375 111.925781 474.574219 112.269531 C 475.570312 112.839844 477.058594 114.203125 477.613281 115.183594 C 477.84375 115.585938 477.851562 116.042969 478.0625 116.429688 C 478.644531 117.507812 479.769531 118.242188 480.269531 119.28125 C 481.386719 118.800781 480.773438 117.617188 480.855469 116.6875 C 480.953125 115.507812 481.695312 114.644531 482.332031 113.871094 C 482.105469 110.976562 483.9375 109.316406 485.675781 107.59375 C 485.351562 104.859375 486.863281 103.222656 488.886719 101.898438 C 488.785156 99.554688 490.984375 98.238281 493.609375 97.863281 C 494.160156 96.539062 496.8125 95.878906 498.261719 96.296875 C 498.378906 95.390625 498.730469 94.617188 498.515625 93.507812 C 477.472656 93.828125 449.507812 101.574219 434.003906 112.441406 Z M 480.304688 94.238281 C 480.585938 94.238281 481.675781 94.46875 481.585938 93.917969 C 481.5625 93.488281 480.117188 93.847656 480.304688 94.238281 Z M 470.582031 95.710938 C 470.488281 95.765625 470.460938 95.855469 470.519531 96 L 470.582031 96.253906 C 473.78125 95.421875 477.742188 95.117188 480.144531 94.144531 C 477.476562 93.800781 473.691406 95.3125 470.582031 95.710938 Z M 495.835938 81.117188 C 496.402344 82.585938 497.230469 84.105469 497.792969 85.664062 C 498.039062 86.359375 498.046875 87.5 498.84375 87.714844 C 498.511719 85.007812 497.335938 82.128906 495.875 80.699219 L 495.613281 80.765625 C 495.671875 80.910156 495.683594 81.132812 495.835938 81.117188 Z M 439.707031 90.476562 C 438.90625 93.539062 438.058594 96.683594 437 99.859375 C 436.019531 102.800781 435.113281 105.921875 433.367188 108.246094 C 432.105469 109.925781 429.683594 111.4375 427.875 113.015625 C 422.320312 117.867188 417.285156 123.023438 412.59375 128.253906 C 406.078125 135.515625 402.121094 142.957031 397.75 151.816406 C 397.199219 153.0625 396.871094 155.570312 398.867188 155.757812 C 399.859375 154.621094 399.261719 152.328125 399.800781 150.761719 C 400.070312 149.976562 400.722656 149.105469 401.183594 148.105469 C 401.597656 147.207031 402.230469 146.378906 402.726562 145.539062 C 403.792969 143.753906 404.636719 141.792969 405.621094 140.199219 C 409.847656 133.308594 415.535156 127.460938 421.738281 121.753906 C 424.863281 118.890625 428.457031 115.828125 432.972656 114.332031 C 442.691406 111.113281 450.421875 113.894531 458.53125 115.175781 C 458.203125 114.332031 457.207031 114.265625 456.480469 114.054688 C 454.015625 113.328125 451.496094 113.15625 448.816406 112.832031 C 445.332031 112.414062 441.851562 111.820312 437.949219 112.414062 C 435.570312 112.773438 432.316406 114.132812 430.34375 113.625 C 440.75 106.359375 454.289062 100.972656 469.105469 96.351562 C 455.839844 98.894531 442.972656 104.972656 433.363281 110.425781 C 435.738281 108.757812 436.335938 106.121094 437.21875 103.476562 C 438.179688 100.605469 439.023438 97.757812 439.570312 94.863281 C 439.851562 93.386719 440.253906 91.644531 439.832031 90.445312 Z M 502.160156 50.699219 C 503.335938 52.660156 504.949219 54.417969 505.9375 56.558594 C 506.875 58.570312 507.828125 61.191406 508.242188 63.605469 C 508.5625 65.480469 508.257812 67.464844 508.457031 69.402344 C 508.582031 70.644531 509.148438 71.960938 509.125 73.179688 C 509.117188 73.789062 508.859375 74.175781 508.964844 74.714844 C 509.1875 75.859375 510.125 76.753906 510.753906 77.535156 C 509.910156 80.074219 512.917969 81.359375 513.507812 83.109375 C 513.75 83.816406 513.480469 84.699219 513.828125 85.476562 C 514.316406 86.566406 515.230469 87.175781 516.453125 87.269531 C 516.875 84.230469 517.195312 80.9375 516.566406 77.316406 C 515.464844 71.003906 511.714844 64.796875 510.203125 59.984375 C 512.644531 63.625 514.746094 68.753906 516.375 73.824219 C 516.949219 75.605469 517.039062 77.609375 517.714844 79.203125 C 518.339844 80.675781 518.171875 82.21875 518.191406 83.847656 C 518.207031 85.28125 518.179688 86.550781 518.21875 87.785156 C 520.671875 86.574219 521.132812 84.160156 522.582031 82.339844 C 522.257812 80.464844 523.605469 79.199219 523.429688 77.507812 C 523.367188 76.964844 523.007812 76.515625 522.917969 76.003906 C 522.785156 75.3125 523.027344 74.574219 522.949219 73.953125 C 522.792969 72.761719 522.148438 71.847656 521.863281 70.6875 C 521.613281 69.679688 521.8125 68.988281 521.511719 68.1875 C 521.085938 67.066406 520.09375 66.714844 519.335938 65.464844 C 518.945312 64.824219 518.832031 63.925781 518.375 63.257812 C 517.660156 62.207031 516.28125 61.605469 515.425781 60.726562 C 513.957031 59.214844 512.71875 57.84375 511.003906 57.203125 C 510.050781 55.507812 508.125 54.957031 506.746094 53.773438 C 505.296875 52.53125 504.117188 50.847656 502.191406 50.28125 L 501.9375 50.34375 C 501.996094 50.488281 502.003906 50.714844 502.160156 50.699219 Z M 465.789062 52.414062 C 465.941406 52.835938 465.941406 53.417969 466.140625 53.820312 C 466.871094 55.285156 468.601562 56.082031 468.414062 58.015625 C 468.789062 58.96875 470.339844 59.703125 470.625 60.867188 C 470.742188 61.359375 470.410156 62.066406 470.496094 62.53125 C 470.761719 63.957031 471.902344 65.714844 472.667969 66.890625 C 473.484375 68.144531 474.726562 69.144531 475.550781 70.253906 C 474.96875 73.46875 478.761719 73.28125 479.78125 75.1875 C 480.144531 75.867188 480.039062 76.863281 480.515625 77.589844 C 481.570312 79.191406 484.101562 78.640625 485.355469 79.511719 C 485.722656 79.765625 485.863281 80.378906 486.1875 80.664062 C 488.089844 82.347656 490.785156 81.699219 492.5 83.035156 C 493.152344 86.191406 495.214844 86.984375 497.632812 87.203125 C 494.398438 76.523438 488.941406 70.683594 482.421875 65.546875 C 478.859375 62.742188 475.175781 60.144531 472.101562 56.964844 C 476.953125 60.210938 481.761719 63.921875 486.460938 68.078125 C 488.664062 70.035156 490.699219 72.289062 492.707031 75.09375 C 495.226562 78.613281 498.59375 81.632812 499.492188 87.554688 C 501.59375 85.898438 500.691406 81.746094 499.851562 79.164062 C 499.117188 76.90625 499.425781 75.148438 498.449219 73.527344 C 497.945312 72.703125 496.984375 72.296875 496.398438 71.316406 C 495.699219 70.148438 495.242188 68.21875 494.480469 67.441406 C 493.507812 66.453125 492.105469 66.378906 491.242188 65.390625 C 490.738281 64.816406 490.558594 64.011719 490.058594 63.371094 C 489.375 62.519531 487.921875 61.980469 487.011719 61.003906 C 485.890625 59.792969 485.289062 58.523438 484.320312 57.863281 C 483.773438 57.488281 482.71875 57.386719 481.917969 56.964844 C 481.363281 56.675781 480.949219 56.226562 480.441406 55.972656 C 479.875 55.691406 479.277344 55.25 478.742188 55.171875 C 478.160156 55.082031 477.585938 55.433594 477.011719 55.332031 C 476.097656 55.164062 474.933594 54.125 473.875 53.664062 C 472.707031 53.15625 471.488281 52.761719 470.410156 52.351562 C 468 51.429688 466.199219 49.71875 464.257812 48.441406 L 464 48.503906 C 464.199219 50.03125 465.285156 51 465.789062 52.414062 Z M 434.464844 47.566406 C 433.789062 47.890625 433.324219 47.148438 432.859375 47.691406 C 431.660156 49.4375 432.472656 52.398438 432.785156 55.058594 C 432.597656 55.414062 431.632812 55.308594 431.4375 55.667969 C 430.800781 58.261719 430.984375 61.347656 431.816406 64.824219 C 431.640625 65.265625 430.75 65.273438 430.53125 65.6875 C 429.714844 68.105469 429.734375 71.023438 430.519531 74.398438 C 430.261719 74.789062 429.460938 74.851562 429.078125 75.167969 C 428.039062 77.828125 428.03125 81.335938 429.417969 85.285156 C 429.597656 85.800781 430.023438 86.25 430.058594 86.757812 C 430.09375 87.339844 429.464844 87.917969 429.414062 88.550781 C 429.136719 91.839844 431.292969 94.902344 432.675781 97.265625 C 432.542969 99.429688 434.011719 101.703125 435.167969 102.902344 C 437.402344 96.792969 439.714844 89.769531 440.070312 82.085938 C 440.234375 78.40625 440.128906 74.277344 439.953125 70.144531 C 439.742188 64.988281 439.617188 59.617188 438.5 54.449219 C 440.273438 59.242188 440.742188 65.445312 440.917969 69.632812 C 441.042969 72.601562 441.652344 75.378906 441.675781 78.148438 C 441.742188 86.308594 440.539062 94.019531 438.921875 101.011719 C 442.453125 98.929688 445.253906 95.800781 447.917969 92.242188 C 450.085938 89.335938 454.367188 83.644531 452.003906 79.65625 C 452.804688 76.78125 453.765625 73.507812 453.074219 70.277344 C 452.941406 69.667969 452.660156 68.429688 452.179688 67.777344 C 451.957031 67.484375 451.058594 67.242188 450.832031 66.753906 C 450.566406 66.183594 450.824219 65.371094 450.734375 64.734375 C 450.371094 62.117188 449.425781 59.140625 448.375 56.890625 C 447.933594 56.777344 447.265625 57.035156 447.058594 56.535156 C 446.726562 52.644531 444.695312 48.859375 442.386719 47.085938 C 441.804688 47.15625 441.78125 47.957031 441.167969 47.664062 C 439.257812 44.4375 437.015625 41.761719 434.023438 40.328125 C 434.683594 43.050781 435.199219 45.679688 434.464844 47.566406 Z M 441.390625 46.382812 C 441.695312 46.605469 442.402344 46.15625 442.738281 46.320312 C 445.222656 48.175781 446.933594 51.304688 447.925781 55.640625 C 450.578125 56.984375 451.355469 62.929688 451.628906 66.144531 C 455.351562 69.375 454.082031 76.101562 452.898438 79.433594 C 454.691406 82.769531 452.511719 86.773438 450.902344 89.457031 C 448.59375 93.296875 445.035156 97.488281 441.234375 100.4375 C 440.46875 101.035156 439.339844 101.492188 438.667969 102.167969 C 437.414062 103.417969 437.273438 106.582031 436.476562 108.152344 C 446.03125 102.683594 460.4375 96.8125 474.65625 94.011719 C 483.070312 92.359375 491.410156 91.832031 498.714844 91.554688 C 498.828125 90.394531 497.964844 89.300781 497.824219 87.96875 C 494.910156 87.917969 492.644531 86.789062 491.671875 83.519531 C 489.242188 82.539062 486.21875 82.542969 484.679688 80.085938 C 481.996094 79.773438 479.480469 79.183594 478.882812 75.410156 C 477.753906 74.355469 475.703125 74.082031 474.910156 72.046875 C 474.730469 71.589844 474.871094 70.96875 474.65625 70.476562 C 474.390625 69.882812 473.625 69.371094 473.148438 68.8125 C 472.652344 68.226562 472.265625 67.570312 471.871094 66.953125 C 470.734375 65.199219 469.101562 62.839844 469.859375 61.058594 C 469.09375 60.027344 468.25 59.132812 467.488281 58.113281 C 467.242188 57.605469 467.582031 57.445312 467.488281 57.023438 C 465.277344 54.101562 463.039062 49.335938 462.238281 45.269531 C 463.382812 45.503906 463.585938 46.550781 464.226562 47.226562 C 467.769531 50.953125 472.753906 52.164062 477.203125 54.46875 C 479.117188 54.164062 480.433594 55.015625 482.046875 55.84375 C 483.109375 56.390625 484.296875 56.792969 485 57.285156 C 486.21875 58.160156 486.886719 59.695312 488.039062 60.746094 C 488.8125 61.457031 489.636719 61.867188 490.25 62.507812 C 490.964844 63.261719 491.242188 64.164062 491.949219 64.941406 C 492.890625 65.988281 494.375 66.101562 495.152344 66.867188 C 496.199219 67.902344 496.414062 69.625 497.265625 70.964844 C 498.179688 72.410156 499.359375 72.960938 499.859375 74.265625 C 500.332031 75.503906 500.152344 76.933594 500.714844 78.8125 C 501.203125 80.4375 501.6875 82.054688 501.925781 84.222656 C 501.269531 85.824219 501.078125 87.707031 499.84375 88.964844 C 500.285156 89.671875 500.40625 90.921875 500.703125 91.878906 C 505.742188 92.261719 510.894531 92.457031 516.03125 92.683594 C 516.480469 91.390625 516.289062 89.71875 516.421875 88.234375 C 514.644531 87.644531 512.449219 86.15625 512.742188 83.300781 C 512.125 82.171875 510.878906 81.589844 510.304688 80.09375 C 510.042969 79.417969 510.160156 78.585938 509.890625 77.886719 C 509.484375 76.8125 508.304688 76.0625 508.066406 74.941406 C 507.9375 74.324219 508.296875 73.800781 508.296875 73.113281 C 508.289062 71.925781 507.78125 70.601562 507.65625 69.464844 C 507.449219 67.566406 507.699219 65.792969 507.402344 64.085938 C 507.117188 62.414062 506.554688 60.636719 506 58.992188 C 504.644531 55.007812 501.773438 52.539062 500.308594 48.710938 C 501.503906 48.234375 502.570312 49.457031 503.507812 50.089844 C 504.871094 51.003906 505.941406 51.964844 507.257812 53.101562 C 507.875 53.636719 508.8125 53.886719 509.503906 54.445312 C 510.445312 55.214844 511.144531 56.328125 512.03125 56.945312 C 512.703125 57.414062 513.691406 57.507812 514.339844 58.003906 C 515.066406 58.554688 515.492188 59.523438 516.101562 60.148438 C 517.007812 61.078125 518.101562 61.492188 518.824219 62.328125 C 519.464844 63.070312 519.597656 64.128906 520.203125 65.113281 C 520.992188 66.398438 521.996094 66.851562 522.375 67.835938 C 522.742188 68.78125 522.648438 69.726562 522.984375 70.816406 C 523.226562 71.601562 523.664062 72.246094 523.8125 73.058594 C 523.960938 73.863281 523.644531 74.816406 523.84375 75.90625 C 523.929688 76.363281 524.257812 76.777344 524.324219 77.285156 C 524.476562 78.472656 523.703125 79.46875 523.550781 80.746094 C 523.339844 82.460938 523.328125 82.894531 522.296875 84.457031 C 521.316406 85.933594 520.703125 87.285156 519.339844 88.457031 C 518.976562 88.769531 518.660156 88.691406 518.183594 88.742188 C 518.179688 90.046875 518.015625 91.261719 518.050781 92.589844 C 521.871094 93.4375 525.4375 94.695312 529.078125 95.828125 C 530.996094 94.136719 535.566406 93.769531 537.835938 94.324219 C 538.765625 94.550781 539.5 95.195312 540.308594 95.476562 C 541.1875 95.792969 541.917969 95.988281 542.710938 96.375 C 543.414062 96.71875 544.144531 97.320312 544.921875 97.59375 C 545.394531 97.765625 546 97.632812 546.460938 97.757812 C 547.640625 98.070312 548.421875 99.03125 549.695312 99.804688 C 551.085938 100.648438 552.59375 100.65625 553.347656 102.433594 C 555.050781 103.164062 555.933594 104.6875 557.125 106.660156 C 557.582031 107.402344 558.28125 107.953125 558.730469 108.710938 C 559.207031 109.511719 559.363281 110.429688 559.816406 111.433594 C 560.101562 112.058594 560.65625 112.578125 560.9375 113.191406 C 562.207031 115.960938 562.464844 119.0625 561.695312 121.710938 C 560.046875 121.085938 559.53125 119.863281 558.429688 118.988281 C 557.410156 118.183594 555.914062 117.324219 554.683594 117.070312 C 553.820312 116.886719 552.820312 117.25 551.695312 117.128906 C 551.210938 117.078125 550.523438 116.613281 549.773438 116.523438 C 548.171875 116.320312 546.710938 116.550781 545.765625 115.207031 C 543.789062 115.640625 542.5 113.875 541.082031 113.382812 C 540.003906 113.003906 538.929688 112.957031 538.042969 112.101562 C 537.300781 111.382812 537.160156 110.273438 536.375 109.25 C 535.496094 108.09375 533.277344 107.886719 532.40625 106.429688 C 531.953125 105.683594 532 104.726562 531.671875 104.023438 C 531.054688 102.734375 529.644531 102.128906 529.171875 100.019531 C 528.992188 99.214844 529.070312 98.523438 529.207031 97.429688 C 526.207031 95.105469 521.558594 95.527344 517.921875 94.257812 C 519.113281 93.917969 520.609375 94.605469 522.054688 94.445312 C 520.960938 93.304688 519.128906 93.394531 517.699219 92.816406 C 517.398438 90.238281 517.871094 87.542969 517.449219 85.253906 C 516.726562 85.640625 517.152344 86.625 517.128906 87.238281 C 517.046875 89.019531 516.832031 91.296875 516.546875 93.101562 C 510.859375 93.304688 505.609375 92.789062 500.285156 92.390625 C 499.789062 91.039062 499.789062 88.871094 498.847656 88.257812 C 498.539062 88.921875 499.476562 90.570312 499.578125 91.746094 C 499.664062 92.160156 499.429688 92.382812 498.941406 92.453125 C 499.929688 95.386719 498.019531 98.042969 498.253906 101.195312 C 499.296875 100.382812 499.359375 98.824219 499.667969 97.578125 C 499.988281 96.308594 500.199219 94.953125 500.476562 93.703125 C 505.691406 93.546875 510.714844 93.722656 515.773438 93.835938 C 516.140625 94.070312 516.4375 94.417969 516.605469 94.992188 C 516.738281 94.667969 516.773438 94.296875 517.21875 94.15625 C 517.84375 96.859375 517.90625 99.21875 518.296875 101.78125 C 519.925781 102.367188 521.996094 101.761719 523.363281 102.964844 C 523.71875 103.277344 523.71875 103.84375 524.097656 104.277344 C 524.765625 105.042969 525.976562 105.375 526.4375 106.007812 C 526.761719 106.457031 526.785156 107.21875 527.171875 107.871094 C 527.667969 108.695312 528.726562 109.25 529.0625 109.980469 C 529.976562 111.933594 530.371094 114.621094 531.074219 116.960938 C 531.265625 117.59375 531.734375 118.070312 531.902344 118.660156 C 532.144531 119.464844 532.023438 120.367188 532.253906 121.160156 C 532.441406 121.761719 532.933594 122.394531 533.15625 123.109375 C 533.40625 123.957031 533.304688 124.917969 533.628906 125.582031 C 534.027344 126.378906 535.203125 126.738281 535.648438 127.660156 C 536.390625 129.195312 536.4375 130.8125 537.699219 131.507812 C 537.867188 132.851562 538.226562 133.867188 538.878906 134.613281 C 539.875 135.734375 541.566406 135.75 542.246094 136.628906 C 541.914062 137.390625 540.675781 137.109375 540.035156 137.042969 C 538.308594 136.878906 537.078125 136.574219 535.445312 136.148438 C 534.644531 135.933594 533.71875 135.863281 533.140625 135.632812 C 532.164062 135.242188 531.457031 134.140625 530.480469 133.710938 C 529.015625 133.0625 527.644531 132.902344 526.859375 131.753906 C 524.292969 131.84375 523.332031 129.816406 521.375 128.355469 C 520.863281 127.976562 520.105469 127.808594 519.644531 127.433594 C 518.671875 126.625 517.710938 125.097656 517.28125 123.9375 C 517.023438 123.257812 517.085938 122.464844 516.738281 121.761719 C 516.257812 120.800781 515.019531 120.414062 514.589844 119.707031 C 513.605469 118.105469 514.261719 116.304688 513.730469 114.074219 C 513.621094 113.617188 513.203125 113.171875 513.089844 112.597656 C 512.921875 111.773438 513.191406 110.816406 513.378906 109.945312 C 513.542969 109.207031 514.097656 108.351562 514.152344 107.578125 C 514.199219 106.96875 513.816406 106.417969 513.867188 105.878906 C 514.007812 104.328125 515.292969 102.71875 516.628906 102.195312 C 516.296875 99.671875 515.96875 97.148438 515.550781 94.570312 C 510.96875 94.085938 505.964844 94.3125 501.152344 94.214844 C 501.035156 94.863281 500.027344 96.480469 500.3125 97.417969 C 500.484375 97.984375 501.523438 98.429688 501.910156 98.925781 C 502.359375 99.496094 502.910156 100.449219 503.164062 101.195312 C 503.613281 102.550781 503.238281 103.609375 503.507812 105.328125 C 503.945312 108.105469 505.378906 110.652344 503.691406 113.171875 C 504.523438 117.304688 502.867188 119.945312 500.472656 122.140625 C 499.988281 125.042969 498.304688 127.226562 495.75 128.894531 C 495.996094 131.285156 493.15625 132.253906 491.667969 133.855469 C 491.085938 134.496094 490.851562 135.519531 490.191406 136.128906 C 489.113281 137.132812 487.9375 137.527344 486.570312 137.984375 C 485.140625 140.398438 485.519531 143.894531 483.03125 145.671875 C 482.167969 144.09375 481.46875 142.0625 479.769531 141.3125 C 479.210938 141.070312 478.652344 141.148438 478.035156 140.929688 C 476.886719 138.972656 475.292969 137.757812 473.679688 136.570312 C 471.265625 136.65625 469.464844 135.722656 468.230469 133.847656 C 465.335938 134.121094 463.371094 132.859375 462.460938 129.84375 C 459.855469 128.996094 457.703125 126.324219 456.375 122.921875 C 456.242188 122.574219 456.285156 121.964844 456.058594 121.640625 C 455.609375 121.007812 454.449219 120.902344 453.652344 120.199219 C 451.929688 118.675781 450.925781 116.378906 450.132812 114.273438 C 445.140625 113.761719 439.566406 112.859375 433.648438 114.84375 C 428.546875 116.554688 424.902344 119.929688 421.386719 123.070312 C 414.277344 129.425781 408.46875 136.074219 404.078125 143.847656 C 402.945312 145.84375 401.585938 147.570312 400.769531 149.707031 C 399.933594 151.875 400.507812 154.394531 399.027344 156.398438 C 395.929688 155.71875 396.65625 153.527344 397.816406 150.984375 C 399.34375 147.640625 401.082031 143.988281 402.574219 141.09375 C 404.886719 136.59375 408.011719 132.710938 410.894531 129.085938 C 412.378906 127.214844 414.234375 125.339844 415.933594 123.613281 C 419.503906 119.996094 422.855469 116.675781 426.660156 113.046875 C 429.640625 110.207031 433.734375 108.03125 434.78125 104.082031 C 433.988281 102.695312 432.84375 101.488281 432.191406 99.695312 C 431.933594 98.992188 432.007812 98.132812 431.746094 97.359375 C 431.070312 95.367188 429.570312 94.011719 429.054688 92.042969 C 428.835938 91.203125 428.601562 89.976562 428.578125 89.03125 C 428.558594 88.175781 429.164062 87.589844 429.128906 86.855469 C 429.066406 85.628906 428.238281 84.394531 427.945312 83.203125 C 427.148438 79.980469 427.03125 75.367188 429.589844 73.949219 C 428.828125 70.003906 428.695312 66.441406 430.851562 64.25 C 430.191406 60.363281 429.398438 56.402344 431.796875 54.351562 C 431.371094 51.480469 431.046875 48.671875 432.378906 46.859375 C 433.011719 46.597656 433.359375 46.808594 433.953125 46.605469 C 434.378906 44.339844 433.160156 41.125 432.875 38.980469 C 436.300781 39.75 439.105469 43.117188 441.390625 46.382812" fill-rule="evenodd"/></g></g></g><g clip-path="url(#bI)"><g clip-path="url(#bJ)"><g clip-path="url(#bK)"><path fill="#7B5A6D" d="M 540.171875 100.410156 C 541.53125 99.988281 544.785156 99.496094 546.519531 99.648438 C 545.007812 100.058594 541.761719 100.984375 540.171875 100.410156" fill-rule="evenodd"/></g></g></g><g clip-path="url(#bL)"><g clip-path="url(#bM)"><g clip-path="url(#bN)"><path fill="#7B5A6D" d="M 492.65625 112.65625 C 491.679688 114.03125 488.226562 113.917969 486.53125 114.867188 C 487.152344 113.78125 490.886719 113.054688 492.65625 112.65625" fill-rule="evenodd"/></g></g></g><g clip-path="url(#bO)"><g clip-path="url(#bP)"><g clip-path="url(#bQ)"><path fill="#7B5A6D" d="M 546 104.671875 C 547.019531 104.101562 549.554688 104.0625 550.8125 104.289062 C 549.496094 104.660156 547.378906 104.804688 546 104.671875" fill-rule="evenodd"/></g></g></g><g clip-path="url(#bR)"><g clip-path="url(#bS)"><g clip-path="url(#bT)"><path fill="#7B5A6D" d="M 521.972656 110.519531 C 523.503906 111.542969 524.855469 112.863281 526.171875 114.238281 C 524.851562 113.59375 523.226562 111.882812 521.972656 110.519531" fill-rule="evenodd"/></g></g></g><g clip-path="url(#bU)"><g clip-path="url(#bV)"><g clip-path="url(#bW)"><path fill="#7B5A6D" d="M 474.652344 123.539062 C 475.859375 123.171875 477.59375 123.488281 478.699219 123.894531 C 477.597656 124.089844 475.742188 123.976562 474.652344 123.539062" fill-rule="evenodd"/></g></g></g><g clip-path="url(#bX)"><g clip-path="url(#bY)"><g clip-path="url(#bZ)"><path fill="#7B5A6D" d="M 524.789062 118.527344 C 525.25 118.308594 526.15625 119.152344 526.839844 119.648438 C 527.585938 120.195312 528.347656 120.8125 528.886719 121.316406 C 527.535156 121.085938 525.96875 119.640625 524.789062 118.527344" fill-rule="evenodd"/></g></g></g><g fill="#664A5A"><g><g><path d="M 9.746094 1.253906 L 19.15625 -20.777344 L 16.835938 -20.777344 L 9.746094 -4.035156 L 2.628906 -20.777344 L 0.304688 -20.777344 Z M 9.746094 1.253906" transform="translate(275.233 222.317)"/></g></g></g><g fill="#664A5A"><g><g><path d="M 14.636719 0 L 14.636719 -1.984375 L 4.429688 -1.984375 L 4.429688 -9.378906 L 14.332031 -9.378906 L 14.332031 -11.398438 L 4.429688 -11.398438 L 4.429688 -18.792969 L 14.636719 -18.792969 L 14.636719 -20.777344 L 2.292969 -20.777344 L 2.292969 0 Z M 14.636719 0" transform="translate(308.385 222.317)"/></g></g></g><g fill="#664A5A"><g><g><path d="M 4.429688 -10.265625 L 4.429688 -18.730469 L 9.257812 -18.730469 C 10.511719 -18.730469 11.519531 -18.332031 12.28125 -17.539062 C 13.015625 -16.742188 13.414062 -15.765625 13.414062 -14.542969 C 13.414062 -13.320312 13.015625 -12.3125 12.222656 -11.488281 C 11.425781 -10.664062 10.449219 -10.265625 9.257812 -10.265625 Z M 15.550781 -14.511719 C 15.550781 -16.285156 14.878906 -17.8125 13.597656 -19.003906 C 12.34375 -20.167969 10.785156 -20.777344 8.953125 -20.777344 L 2.292969 -20.777344 L 2.292969 0 L 4.429688 0 L 4.429688 -8.21875 L 6.90625 -8.21875 L 13.015625 0 L 15.886719 0 L 9.472656 -8.21875 C 11.089844 -8.3125 12.464844 -8.890625 13.597656 -9.960938 C 14.878906 -11.152344 15.550781 -12.679688 15.550781 -14.511719 Z M 15.550781 -14.511719" transform="translate(339.002 222.317)"/></g></g></g><g fill="#664A5A"><g><g><path d="M 4.644531 -1.984375 L 16.957031 -20.777344 L 1.40625 -20.777344 L 1.40625 -18.792969 L 13.078125 -18.792969 L 0.765625 0 L 16.4375 0 L 16.4375 -1.984375 Z M 4.644531 -1.984375" transform="translate(369.314 222.317)"/></g></g></g><g fill="#664A5A"><g><g><path d="M 4.429688 0 L 4.429688 -20.777344 L 2.292969 -20.777344 L 2.292969 0 Z M 4.429688 0" transform="translate(400.725 222.317)"/></g></g></g><g fill="#664A5A"><g><g><path d="M 21.359375 -6.355469 L 19.003906 -6.355469 C 18.273438 -5.011719 17.261719 -3.910156 15.980469 -3.117188 C 14.695312 -2.292969 13.261719 -1.894531 11.734375 -1.894531 C 9.441406 -1.894531 7.484375 -2.71875 5.867188 -4.429688 C 4.277344 -6.050781 3.515625 -8.035156 3.515625 -10.359375 C 3.515625 -12.679688 4.277344 -14.667969 5.867188 -16.316406 C 6.601562 -17.082031 7.484375 -17.691406 8.496094 -18.148438 C 9.472656 -18.609375 10.449219 -18.851562 11.425781 -18.851562 C 12.375 -18.851562 13.199219 -18.730469 13.933594 -18.515625 C 16.164062 -17.84375 17.84375 -16.5 18.976562 -14.453125 L 21.328125 -14.453125 C 20.53125 -16.40625 19.28125 -17.996094 17.539062 -19.21875 C 15.765625 -20.441406 13.839844 -21.050781 11.734375 -21.050781 C 8.832031 -21.050781 6.386719 -19.984375 4.371094 -17.875 C 3.421875 -16.898438 2.6875 -15.734375 2.167969 -14.453125 C 1.621094 -13.167969 1.375 -11.792969 1.375 -10.359375 C 1.375 -7.425781 2.351562 -4.949219 4.371094 -2.871094 C 6.386719 -0.734375 8.832031 0.304688 11.734375 0.304688 C 13.839844 0.304688 15.765625 -0.304688 17.570312 -1.527344 C 19.3125 -2.75 20.5625 -4.339844 21.359375 -6.355469 Z M 21.359375 -6.355469" transform="translate(421.138 222.317)"/></g></g></g><g fill="#664A5A"><g><g><path d="M 4.429688 0 L 4.429688 -9.289062 L 13.871094 -9.289062 L 13.871094 0 L 16.011719 0 L 16.011719 -20.777344 L 13.871094 -20.777344 L 13.871094 -11.425781 L 4.429688 -11.425781 L 4.429688 -20.777344 L 2.292969 -20.777344 L 2.292969 0 Z M 4.429688 0" transform="translate(457.101 222.317)"/></g></g></g><g fill="#664A5A"><g><g><path d="M 20.59375 -10.449219 C 20.59375 -8.066406 19.738281 -6.050781 18.089844 -4.398438 C 16.40625 -2.71875 14.390625 -1.894531 12.039062 -1.894531 C 9.6875 -1.894531 7.667969 -2.71875 6.019531 -4.398438 C 4.339844 -6.050781 3.515625 -8.066406 3.515625 -10.449219 C 3.515625 -12.773438 4.339844 -14.789062 6.019531 -16.46875 C 7.667969 -18.117188 9.6875 -18.976562 12.039062 -18.976562 C 14.390625 -18.976562 16.40625 -18.117188 18.089844 -16.46875 C 19.738281 -14.789062 20.59375 -12.773438 20.59375 -10.449219 Z M 22.734375 -10.449219 C 22.734375 -11.917969 22.425781 -13.292969 21.878906 -14.605469 C 21.328125 -15.886719 20.5625 -17.019531 19.585938 -17.996094 C 18.609375 -18.945312 17.476562 -19.707031 16.195312 -20.257812 C 14.878906 -20.808594 13.503906 -21.113281 12.039062 -21.113281 C 10.570312 -21.113281 9.167969 -20.808594 7.882812 -20.257812 C 6.601562 -19.707031 5.46875 -18.945312 4.492188 -17.996094 C 3.515625 -17.019531 2.75 -15.886719 2.199219 -14.605469 C 1.648438 -13.292969 1.375 -11.917969 1.375 -10.449219 C 1.375 -8.984375 1.648438 -7.578125 2.199219 -6.292969 C 2.75 -4.980469 3.515625 -3.851562 4.492188 -2.871094 C 5.46875 -1.894531 6.601562 -1.128906 7.882812 -0.582031 C 9.167969 -0.03125 10.570312 0.246094 12.039062 0.246094 C 13.503906 0.246094 14.878906 -0.03125 16.195312 -0.582031 C 17.476562 -1.128906 18.609375 -1.894531 19.585938 -2.871094 C 20.5625 -3.851562 21.328125 -4.980469 21.878906 -6.292969 C 22.425781 -7.578125 22.734375 -8.984375 22.734375 -10.449219 Z M 22.734375 -10.449219" transform="translate(489.093 222.317)"/></g></g></g><g fill="#664A5A"><g><g><path d="M 9.746094 1.253906 L 19.15625 -20.777344 L 16.835938 -20.777344 L 9.746094 -4.035156 L 2.628906 -20.777344 L 0.304688 -20.777344 Z M 9.746094 1.253906" transform="translate(526.89 222.317)"/></g></g></g><g fill="#664A5A"><g><g><path d="M 5.652344 -7.640625 L 9.441406 -17.203125 L 13.199219 -7.640625 Z M 18.546875 0 L 9.441406 -22.214844 L 0.304688 0 L 2.628906 0 L 4.859375 -5.652344 L 13.996094 -5.652344 L 16.226562 0 Z M 13.566406 -27.285156 L 10.9375 -27.285156 L 8.496094 -22.917969 L 10.207031 -22.917969 Z M 13.566406 -27.285156" transform="translate(560.042 222.317)"/></g></g></g></svg>