<?xml version="1.0" standalone="no"?>
<!DOCTYPE svg PUBLIC "-//W3C//DTD SVG 20010904//EN"
 "http://www.w3.org/TR/2001/REC-SVG-20010904/DTD/svg10.dtd">
<svg version="1.0" xmlns="http://www.w3.org/2000/svg"
 width="960.000000pt" height="960.000000pt" viewBox="0 0 960.000000 960.000000"
 preserveAspectRatio="xMidYMid meet">
<metadata>
Created by potrace 1.14, written by Peter Selinger 2001-2017
</metadata>
<g transform="translate(0.000000,960.000000) scale(0.100000,-0.100000)"
fill="#000000" stroke="none">
<path d="M65 4863 c1 -2441 2 -4440 3 -4443 3 -7 268 -3 280 4 5 3 12 3 16 -1
8 -8 450 -8 463 0 6 4 13 4 16 0 8 -7 773 -7 785 1 5 3 12 3 16 -1 8 -8 450
-8 463 0 6 4 13 4 16 0 8 -7 773 -7 785 1 5 3 12 3 16 -1 8 -8 450 -8 463 0 6
4 13 4 16 0 8 -7 773 -7 785 1 5 3 12 3 16 -1 8 -8 450 -8 463 0 6 4 13 4 16
0 8 -7 773 -7 785 1 5 3 12 3 16 -1 8 -8 450 -8 463 0 6 4 13 4 16 0 8 -7 773
-7 785 1 5 3 12 3 16 -1 8 -8 450 -8 463 0 6 4 13 4 16 0 8 -7 773 -7 785 1 5
3 12 3 16 -1 8 -8 450 -8 463 0 6 4 13 4 16 0 8 -8 773 -7 786 1 5 4 12 3 14
-1 4 -6 164 -9 208 -4 3 1 6 1999 6 4441 l0 4440 -4737 0 -4737 0 2 -4437z"/>
</g>
</svg>
